<svg width="620" height="52" viewBox="0 0 620 52" fill="none" xmlns="http://www.w3.org/2000/svg">
<path d="M3.88846 28.124V41H0.756461V10.666H13.1685C20.5925 10.666 23.7825 14.088 23.7825 19.54C23.7825 24.238 20.9985 27.37 15.2565 28.008L25.5805 40.42V41H22.1005L11.8925 28.124H3.88846ZM3.88846 13.508V25.398H12.9365C18.2725 25.398 20.6505 23.426 20.6505 19.482C20.6505 15.596 18.7945 13.508 12.8785 13.508H3.88846ZM35.1541 41H32.0221V10.666H53.0761V13.566H35.1541V24.18H51.1041V26.848H35.1541V38.158H53.0181V41H35.1541ZM72.7544 41.522C63.7064 41.522 57.9644 36.302 57.9644 26.21C57.9644 16.698 63.0104 10.144 73.1604 10.144C81.2804 10.144 85.9204 14.436 87.2544 21.28L84.2964 21.918C82.8464 15.886 79.3084 12.986 73.2184 12.986C64.5184 12.986 61.1544 18.322 61.1544 26.21C61.1544 33.866 64.8084 38.738 73.3924 38.738C82.2084 38.738 84.5864 34.272 84.5864 29.4V28.646H73.3924V26.036H87.5444V41H84.5864V33.982H84.2384C82.8464 38.1 79.3664 41.522 72.7544 41.522ZM97.8553 41H94.7233V10.666H97.8553V41ZM117.529 41.522C109.003 41.522 104.885 37.52 103.957 31.256L106.973 30.618C107.901 35.896 111.033 38.796 117.587 38.796C123.619 38.796 126.113 36.534 126.113 33.228C126.113 29.864 123.677 28.182 117.065 27.08C108.365 25.572 105.523 22.556 105.523 18.206C105.523 13.392 109.235 10.144 116.601 10.144C123.967 10.144 127.041 13.682 128.375 19.192L125.301 19.83C124.141 15.306 122.111 12.87 116.485 12.87C111.149 12.87 108.597 14.842 108.597 18.032C108.597 20.99 110.453 22.962 117.935 24.296C126.809 25.92 129.245 28.82 129.245 32.996C129.245 38.1 125.823 41.522 117.529 41.522ZM131.35 13.624V10.666H156.638V13.624H145.56V41H142.428V13.624H131.35ZM164.918 28.124V41H161.786V10.666H174.198C181.622 10.666 184.812 14.088 184.812 19.54C184.812 24.238 182.028 27.37 176.286 28.008L186.61 40.42V41H183.13L172.922 28.124H164.918ZM164.918 13.508V25.398H173.966C179.302 25.398 181.68 23.426 181.68 19.482C181.68 15.596 179.824 13.508 173.908 13.508H164.918ZM196.243 31.604L192.299 41H188.993L202.217 10.666H206.161L219.327 41H216.021L212.019 31.604H196.243ZM204.885 13.508H203.551C202.333 16.872 200.535 21.454 198.911 25.224L197.345 28.936H210.917L209.293 25.224C207.727 21.454 205.929 16.756 204.885 13.508ZM218.237 13.624V10.666H243.525V13.624H232.447V41H229.315V13.624H218.237ZM251.804 41H248.672V10.666H251.804V41ZM273.74 41.522C263.59 41.522 258.022 35.084 258.022 25.804C258.022 16.524 263.706 10.144 273.74 10.144C283.774 10.144 289.4 16.524 289.4 25.804C289.4 35.084 283.89 41.522 273.74 41.522ZM273.74 38.68C282.208 38.68 286.268 33.402 286.268 25.804C286.268 18.206 282.15 12.986 273.74 12.986C265.272 12.986 261.154 18.264 261.154 25.804C261.154 33.402 265.156 38.68 273.74 38.68ZM316.914 41L305.604 24.238C303.4 20.874 301.254 17.046 299.572 13.798L298.238 13.856C298.528 18.032 298.702 23.948 298.702 28.53V41H295.628V10.666H300.442L310.476 25.572C313.26 29.748 315.754 34.098 317.378 37.288H318.654C318.364 33.286 318.19 27.718 318.19 23.194V10.666H321.264V41H316.914ZM362.679 41L351.369 24.238C349.165 20.874 347.019 17.046 345.337 13.798L344.003 13.856C344.293 18.032 344.467 23.948 344.467 28.53V41H341.393V10.666H346.207L356.241 25.572C359.025 29.748 361.519 34.098 363.143 37.288H364.419C364.129 33.286 363.955 27.718 363.955 23.194V10.666H367.029V41H362.679ZM388.89 41.522C378.74 41.522 373.172 35.084 373.172 25.804C373.172 16.524 378.856 10.144 388.89 10.144C398.924 10.144 404.55 16.524 404.55 25.804C404.55 35.084 399.04 41.522 388.89 41.522ZM388.89 38.68C397.358 38.68 401.418 33.402 401.418 25.804C401.418 18.206 397.3 12.986 388.89 12.986C380.422 12.986 376.304 18.264 376.304 25.804C376.304 33.402 380.306 38.68 388.89 38.68ZM428.294 13.74C427.308 18.148 425.626 24.296 424.466 28.356L420.754 41H415.882L407.008 10.666H410.488L414.606 25.862C415.65 29.98 416.694 34.04 417.622 38.158H419.246C420.232 33.866 421.102 30.154 422.32 25.92L426.844 10.666H431.02L435.544 25.92C436.704 29.98 437.69 33.982 438.618 38.158H440.126C440.996 34.098 442.098 30.038 443.2 25.862L447.318 10.666H450.624L441.808 41H436.936L433.166 28.356C432.006 24.296 430.266 18.09 429.338 13.74H428.294ZM480.535 41.522C470.385 41.522 464.817 35.084 464.817 25.804C464.817 16.524 470.501 10.144 480.535 10.144C490.569 10.144 496.195 16.524 496.195 25.804C496.195 35.084 490.685 41.522 480.535 41.522ZM480.535 38.68C489.003 38.68 493.063 33.402 493.063 25.804C493.063 18.206 488.945 12.986 480.535 12.986C472.067 12.986 467.949 18.264 467.949 25.804C467.949 33.402 471.951 38.68 480.535 38.68ZM505.554 29.168V41H502.422V10.666H514.312C521.33 10.666 524.926 13.74 524.926 19.946C524.926 25.456 521.214 29.168 514.37 29.168H505.554ZM505.554 13.508V26.442H514.08C519.474 26.442 521.794 24.412 521.794 20.004C521.794 15.48 519.822 13.508 514.022 13.508H505.554ZM533.478 41H530.346V10.666H551.4V13.566H533.478V24.18H549.428V26.848H533.478V38.158H551.342V41H533.478ZM579.953 41L568.643 24.238C566.439 20.874 564.293 17.046 562.611 13.798L561.277 13.856C561.567 18.032 561.741 23.948 561.741 28.53V41H558.667V10.666H563.481L573.515 25.572C576.299 29.748 578.793 34.098 580.417 37.288H581.693C581.403 33.286 581.229 27.718 581.229 23.194V10.666H584.303V41H579.953ZM619.173 51.208H616.215V0.805999H619.173V51.208Z" fill="white"/>
</svg>
