<svg width="474" height="187" viewBox="0 0 474 187" fill="none" xmlns="http://www.w3.org/2000/svg">
<path d="M221.525 70.9555V35.8992H208.503V73.2676C208.503 77.1254 209.617 80.2082 211.854 82.5245C214.086 84.8366 217.101 85.9947 220.895 85.9947H238.088V74.809H225.066C222.701 74.809 221.525 73.5245 221.525 70.9513V70.9555Z" fill="white"/>
<path d="M0 86.1466V19.4409H12.7153V29.9401H14.7282C15.9045 27.3796 18.0002 24.9916 21.0237 22.7722C24.0473 20.5527 28.537 19.4451 34.497 19.4451C39.1979 19.4451 43.3729 20.5148 47.0259 22.6459C50.679 24.7811 53.5534 27.7881 55.6491 31.6711C57.7449 35.554 58.7969 40.2288 58.7969 45.6911V86.1466H45.8289V46.7145C45.8289 41.2522 44.487 37.2218 41.799 34.6149C39.111 32.0122 35.4206 30.7108 30.7197 30.7108C25.3478 30.7108 21.0445 32.5049 17.8139 36.0889C14.5833 39.6729 12.968 44.8825 12.968 51.7093V86.1508H0V86.1466Z" fill="white"/>
<path d="M291.232 86.1543V0.11377H304.2V86.1543H291.232Z" fill="white"/>
<path d="M347.093 86.1882C340.88 86.1882 335.363 84.8869 330.534 82.2842C325.704 79.6815 321.91 75.9459 319.14 71.0817C316.369 66.2174 314.985 60.4561 314.985 53.7977V51.8773C314.985 45.219 316.369 39.4787 319.14 34.6566C321.91 29.8344 325.708 26.0988 330.534 23.454C335.359 20.8092 340.88 19.4868 347.093 19.4868C353.305 19.4868 358.843 20.8092 363.714 23.454C368.58 26.0988 372.403 29.8344 375.17 34.6566C377.941 39.4787 379.324 45.219 379.324 51.8773V53.7977C379.324 60.4561 377.941 66.2174 375.17 71.0817C372.399 75.9459 368.58 79.6815 363.714 82.2842C358.843 84.8869 353.305 86.1882 347.093 86.1882ZM347.093 74.4087C352.8 74.4087 357.439 72.5515 361.005 68.8411C364.571 65.1266 366.356 59.9886 366.356 53.4145V52.2606C366.356 45.6906 364.592 40.5442 361.067 36.8339C357.542 33.1194 352.883 31.2663 347.093 31.2663C341.302 31.2663 336.871 33.1236 333.304 36.8339C329.734 40.5484 327.953 45.6906 327.953 52.2606V53.4145C327.953 59.9886 329.734 65.1308 333.304 68.8411C336.871 72.5557 341.468 74.4087 347.093 74.4087Z" fill="white"/>
<path d="M394.68 75.112L385.862 19.491H398.83L406.638 77.361H408.65L417.518 29.9818C418.657 23.8962 423.888 19.491 429.985 19.491C436.09 19.491 441.325 23.9089 442.456 30.0071L451.211 77.3568H453.224L461.032 19.4868H474L465.182 75.1078C464.171 81.4924 458.75 86.1882 452.388 86.1882C446.154 86.1882 440.807 81.6777 439.652 75.4532L430.942 28.4488H428.929L420.218 75.4532C419.063 81.682 413.716 86.1882 407.482 86.1882C401.121 86.1882 395.699 81.4924 394.688 75.1078L394.68 75.112Z" fill="white"/>
<path d="M252.219 3.69609C249.982 6.00819 248.868 9.09521 248.868 12.9487V86.1653H261.886V30.6748H280.478V19.4934H271.491L264.16 26.9477H261.886V15.1345C261.886 12.5655 263.104 11.281 265.551 11.281H280.429V0.22583H261.381C257.5 0.22583 254.447 1.38399 252.219 3.69609Z" fill="white"/>
<path d="M199.437 74.5714C193.829 74.5714 188.39 72.5373 184.911 68.0647C182.178 64.5523 165.391 39.7088 162.165 35.0846C157.72 28.7126 153.396 25.4066 148.53 22.6354C144.148 20.138 136.759 19.4937 133.226 19.4937H130.799V31.0626H134.299C139.907 31.0626 145.221 33.1978 148.824 37.5693L171.455 70.6716C176.392 76.6561 180.339 80.2232 185.201 82.9944C189.583 85.4918 196.972 86.1361 200.505 86.1361H202.932V74.5672H199.432L199.437 74.5714Z" fill="white"/>
<path d="M156.071 57.8742L148.802 68.0575C145.198 72.429 139.88 74.5643 134.277 74.5643H101.411C96.1845 74.5643 91.8232 72.9134 88.3275 69.6158C88.1121 69.4094 87.8967 69.203 87.6938 68.984C87.4867 68.765 87.2879 68.5461 87.0932 68.3271C86.6252 67.7796 86.1945 67.2068 85.7968 66.613C84.0946 64.0145 83.1213 60.9233 82.8769 57.3435C82.852 57.0024 82.8396 56.657 82.8272 56.3075H130.744V51.2958C130.744 44.8691 129.48 39.2552 126.95 34.4541C124.423 29.653 120.899 25.9048 116.392 23.2053C111.878 20.5057 106.63 19.1538 100.653 19.1538C94.6769 19.1538 89.1061 20.5225 84.4715 23.2684C82.1521 24.6372 80.0853 26.2754 78.2629 28.1874C78.0351 28.4233 77.8073 28.6675 77.5878 28.9118C76.9251 29.6572 76.3039 30.4364 75.7116 31.245C74.9288 32.3315 74.1998 33.4897 73.5371 34.711C70.8822 39.5963 69.5527 45.3366 69.5527 51.936V53.4774C69.5527 60.0768 70.8822 65.817 73.5371 70.7023C76.192 75.5876 79.8782 79.378 84.5999 82.0775C89.3174 84.7771 94.8425 86.129 101.163 86.129H133.208C136.741 86.129 144.13 85.4804 148.512 82.9872C153.374 80.2161 156.381 76.8595 161.318 70.875L163.195 68.146L156.075 57.8742H156.071ZM82.9514 46.1494C83.0798 45.2692 83.2414 44.4185 83.4567 43.6057C83.6638 42.7886 83.9165 42.0095 84.2147 41.2641C85.1963 38.7835 86.6542 36.682 88.576 34.9637C91.6492 32.2178 95.6295 30.8491 100.525 30.8491C105.421 30.8491 109.376 32.2178 112.408 34.9637C115.444 37.7096 117.167 41.4368 117.593 46.1494H91.5498L84.8939 52.9172H82.6988C82.6656 50.9715 82.6988 48.4615 82.9514 46.1494Z" fill="white"/>
<path d="M221.521 19.2717V0H208.5V19.2717H201.641C198.108 19.2717 190.719 19.9203 186.337 22.4135C181.474 25.1847 177.527 28.7518 172.59 34.7363L159.411 53.1994L166.469 63.387L184.386 37.3432C187.99 32.9717 194.964 30.4532 200.568 30.4532H239.547V19.2675H221.526L221.521 19.2717Z" fill="white"/>
<path d="M402.699 114.388V101.696H469.381V114.388H443.549V185.273H428.531V114.388H402.699Z" fill="white"/>
<path d="M389.977 101.696V185.273H374.837V101.696H389.977Z" fill="white"/>
<path d="M270.692 101.696H289.22L314.032 162.257H315.011L339.823 101.696H358.35V185.273H343.822V127.855H343.047L319.949 185.028H309.094L285.996 127.732H285.22V185.273H270.692V101.696Z" fill="white"/>
<path d="M166.548 101.696H185.075L209.887 162.257H210.866L235.678 101.696H254.206V185.273H239.678V127.855H238.902L215.804 185.028H204.949L181.851 127.732H181.076V185.273H166.548V101.696Z" fill="white"/>
<path d="M134.952 101.696H150.092V156.298C150.092 162.284 148.677 167.548 145.848 172.092C143.046 176.635 139.101 180.185 134.013 182.743C128.926 185.273 122.981 186.538 116.18 186.538C109.351 186.538 103.393 185.273 98.3055 182.743C93.218 180.185 89.2731 176.635 86.4709 172.092C83.6687 167.548 82.2676 162.284 82.2676 156.298V101.696H97.4077V155.033C97.4077 158.516 98.1695 161.617 99.693 164.338C101.244 167.058 103.42 169.194 106.222 170.745C109.025 172.268 112.344 173.03 116.18 173.03C120.016 173.03 123.335 172.268 126.137 170.745C128.967 169.194 131.143 167.058 132.667 164.338C134.19 161.617 134.952 158.516 134.952 155.033V101.696Z" fill="white"/>
<path d="M53.0584 124.671C52.6775 121.107 51.0724 118.332 48.243 116.346C45.4407 114.36 41.7951 113.367 37.3062 113.367C34.1503 113.367 31.4433 113.843 29.1852 114.795C26.9271 115.748 25.1995 117.04 24.0024 118.672C22.8054 120.305 22.1932 122.168 22.166 124.263C22.166 126.004 22.5605 127.514 23.3495 128.793C24.1657 130.071 25.2675 131.16 26.655 132.058C28.0425 132.928 29.5797 133.663 31.2664 134.261C32.9532 134.86 34.6536 135.363 36.3675 135.771L44.2029 137.73C47.3588 138.465 50.3922 139.458 53.3033 140.709C56.2415 141.96 58.8669 143.538 61.1794 145.443C63.5191 147.347 65.3691 149.646 66.7294 152.34C68.0897 155.033 68.7699 158.189 68.7699 161.807C68.7699 166.704 67.5184 171.016 65.0154 174.744C62.5125 178.444 58.8941 181.341 54.1603 183.436C49.4536 185.504 43.754 186.537 37.0613 186.537C30.5591 186.537 24.9138 185.531 20.1256 183.518C15.3645 181.504 11.6373 178.566 8.94392 174.703C6.27773 170.84 4.83581 166.133 4.61816 160.583H19.5134C19.7311 163.494 20.6289 165.915 22.2068 167.847C23.7848 169.779 25.8388 171.221 28.369 172.173C30.9264 173.125 33.783 173.601 36.9389 173.601C40.2308 173.601 43.1146 173.111 45.5904 172.132C48.0933 171.125 50.0522 169.738 51.4669 167.969C52.8816 166.174 53.6025 164.079 53.6297 161.685C53.6025 159.508 52.9632 157.713 51.7117 156.298C50.4602 154.856 48.7055 153.659 46.4474 152.707C44.2165 151.727 41.6047 150.857 38.612 150.095L29.1036 147.647C22.2204 145.878 16.7792 143.198 12.78 139.607C8.80789 135.989 6.82185 131.187 6.82185 125.202C6.82185 120.277 8.15494 115.965 10.8211 112.265C13.5145 108.565 17.1737 105.695 21.7987 103.654C26.4238 101.587 31.6609 100.553 37.5102 100.553C43.4411 100.553 48.6374 101.587 53.0992 103.654C57.5882 105.695 61.1114 108.538 63.6688 112.184C66.2261 115.802 67.5456 119.964 67.6272 124.671H53.0584Z" fill="white"/>
</svg>
