<svg width="1062" height="216" viewBox="0 0 1062 216" fill="none" xmlns="http://www.w3.org/2000/svg">
<g clip-path="url(#clip0_352_195)">
<path d="M183.373 111.827L183.675 111.948L183.978 112.069L184.263 112.207L184.548 112.363L184.825 112.518L185.102 112.691L185.361 112.89L185.611 113.08L185.845 113.296L186.087 113.512L186.312 113.754L186.519 113.987L186.726 114.246L186.908 114.505L187.089 114.782L187.245 115.049L187.392 115.343L187.53 115.628L187.651 115.922L187.772 116.224L187.859 116.535L187.945 116.838L188.006 117.166L188.066 117.477L188.101 117.805L188.118 118.116L188.127 118.436L188.118 118.764L188.101 119.084L188.066 119.404L188.006 119.723L187.945 120.034L187.859 120.354L187.772 120.656L187.651 120.967L187.53 121.261L187.392 121.546L187.245 121.831L187.089 122.108L186.908 122.384L186.726 122.643L186.519 122.885L186.312 123.136L186.087 123.36L185.845 123.594L185.611 123.81L185.361 124L185.102 124.181L184.825 124.371L184.548 124.527L184.263 124.682L183.978 124.812L183.675 124.941L183.373 125.045L183.07 125.149L182.759 125.218L182.448 125.296L182.12 125.339L181.809 125.373L181.48 125.408H181.428L181.757 125.399L182.344 125.373L182.932 125.339L183.52 125.287L184.099 125.209L184.687 125.123L185.266 125.028L185.845 124.907L186.415 124.777L186.994 124.63L187.565 124.466L188.127 124.285L188.68 124.095L189.233 123.887L189.777 123.663L190.322 123.43L190.858 123.179L191.385 122.911L191.904 122.635L192.414 122.341L192.915 122.03L193.416 121.719L193.9 121.391L194.384 121.037L194.851 120.674L195.309 120.311L195.759 119.922L196.199 119.525L196.623 119.127L197.046 118.704L197.453 118.281L197.841 117.84L198.222 117.391L198.593 116.933L198.956 116.458L199.302 115.983L199.631 115.499L199.959 114.998L200.262 114.497L200.555 113.978L200.841 113.46L201.1 112.941L201.351 112.406L201.584 111.862L201.809 111.317L202.016 110.764L202.215 110.203L202.388 109.641L202.552 109.071L202.699 108.501L202.829 107.931L202.95 107.343L203.053 106.764L203.14 106.186L203.2 105.598L203.261 105.011L203.304 104.414L203.321 103.827L203.33 103.24L203.321 102.652L203.304 102.056L203.261 101.468L203.2 100.881L203.14 100.302L203.053 99.7147L202.95 99.1272L202.829 98.557L202.699 97.9782L202.587 97.5376H181.575L181.16 97.5462H131.462L183.01 111.723L183.373 111.827Z" fill="white"/>
<path d="M215.965 116.967L215.922 116.224L215.87 115.49L215.801 114.747L215.715 114.013L215.62 113.287L215.499 112.553L215.36 111.827L215.222 111.101L215.058 110.384L214.876 109.667L214.686 108.95L214.47 108.242L214.245 107.542L214.012 106.833L213.753 106.142L213.485 105.46L213.2 104.769L212.906 104.095L212.595 103.421L212.275 102.756L211.929 102.108L211.575 101.451L211.203 100.812L210.823 100.173L210.434 99.5506L210.019 98.9285L209.604 98.3238L209.172 97.7277L209.025 97.5376H202.586L202.698 97.9782L202.828 98.557L202.949 99.1272L203.053 99.7147L203.139 100.302L203.2 100.881L203.26 101.468L203.303 102.056L203.321 102.652L203.329 103.24L203.321 103.827L203.303 104.414L203.26 105.011L203.2 105.598L203.139 106.186L203.053 106.764L202.949 107.343L202.828 107.931L202.698 108.501L202.551 109.071L202.387 109.641L202.214 110.203L202.015 110.764L201.808 111.317L201.583 111.862L201.35 112.406L201.099 112.941L200.84 113.46L200.555 113.978L200.261 114.497L199.958 114.998L199.63 115.499L199.302 115.983L198.956 116.458L198.593 116.933L198.221 117.391L197.841 117.84L197.452 118.281L197.046 118.704L196.622 119.127L196.199 119.525L195.758 119.922L195.308 120.311L194.85 120.674L194.384 121.037L193.9 121.391L193.416 121.719L192.914 122.03L192.413 122.341L191.903 122.635L191.384 122.911L190.857 123.179L190.321 123.43L189.777 123.663L189.232 123.887L188.679 124.095L188.126 124.285L187.564 124.466L186.994 124.63L186.415 124.777L185.844 124.907L185.265 125.028L184.686 125.123L184.098 125.209L183.519 125.287L182.931 125.339L182.344 125.373L181.756 125.399L181.16 125.408H0V153.278H181.16L181.903 153.27L182.638 153.252L183.381 153.209L184.116 153.149L184.85 153.08L185.585 153.002L186.32 152.89L187.046 152.777L187.772 152.648L188.498 152.492L189.224 152.328L189.932 152.155L190.65 151.957L191.367 151.749L192.067 151.533L192.767 151.283L193.459 151.032L194.15 150.764L194.833 150.488L195.507 150.194L196.181 149.875L196.847 149.546L197.504 149.209L198.152 148.855L198.792 148.492L199.431 148.103L200.045 147.715L200.667 147.309L201.281 146.885L201.877 146.453L202.465 146.004L203.044 145.546L203.623 145.071L204.185 144.587L204.729 144.103L205.265 143.594L205.792 143.075L206.311 142.548L206.812 142.004L207.314 141.46L207.798 140.898L208.264 140.328L208.723 139.749L209.172 139.153L209.604 138.557L210.019 137.952L210.434 137.33L210.823 136.708L211.203 136.069L211.575 135.43L211.929 134.782L212.275 134.125L212.595 133.46L212.906 132.795L213.2 132.112L213.485 131.43L213.753 130.747L214.012 130.047L214.245 129.348L214.47 128.648L214.686 127.931L214.876 127.222L215.058 126.505L215.222 125.779L215.36 125.062L215.499 124.337L215.62 123.602L215.715 122.868L215.801 122.134L215.87 121.399L215.922 120.656L215.965 119.922L215.991 119.188L216 118.445L215.991 117.702L215.965 116.967Z" fill="#0DC09D"/>
<path d="M32.6286 104.147L32.3261 104.035L32.0236 103.914L31.7383 103.776L31.4445 103.62L31.1765 103.456L30.9 103.283L30.6407 103.093L30.39 102.894L30.148 102.678L29.9146 102.462L29.6899 102.229L29.4825 101.987L29.275 101.728L29.0935 101.469L28.912 101.201L28.7565 100.933L28.6095 100.64L28.4626 100.346L28.3502 100.061L28.2292 99.7583L28.1428 99.4386L28.0564 99.1363L27.9872 98.8166L27.9354 98.5056L27.9008 98.1773L27.8835 97.8663L27.8749 97.538L27.8835 97.2183L27.9008 96.89L27.9354 96.579L27.9872 96.2594L28.0564 95.9397L28.1428 95.6287L28.2292 95.3263L28.3502 95.0153L28.4626 94.7216L28.6095 94.4278L28.7565 94.1514L28.912 93.8663L29.0935 93.5985L29.275 93.3393L29.4825 93.0887L29.6899 92.8468L29.9146 92.6136L30.148 92.389L30.39 92.173L30.6407 91.9829L30.9 91.7929L31.1765 91.6114L31.4445 91.4473L31.7383 91.3004L32.0236 91.1708L32.3261 91.0412L32.6286 90.9289L32.9311 90.8339L33.2422 90.7561L33.5534 90.687L33.8818 90.6438L34.193 90.6093L34.5128 90.5747H34.5733H34.2448L33.6571 90.6006L33.0694 90.6438L32.4816 90.6957L31.9026 90.7648L31.3148 90.8512L30.7271 90.9548L30.1566 91.0672L29.5776 91.2054L29.0071 91.3522L28.4367 91.5164L27.8749 91.6978L27.3217 91.8879L26.7599 92.0866L26.224 92.3112L25.6795 92.5531L25.1436 92.8037L24.6164 93.0715L24.0892 93.3479L23.5879 93.633L23.0866 93.944L22.5853 94.2637L22.0926 94.592L21.6173 94.9462L21.1419 95.3004L20.6924 95.6719L20.243 96.052L19.8022 96.4494L19.3787 96.8555L18.9552 97.2702L18.5489 97.7021L18.16 98.1341L17.7711 98.5834L17.4081 99.0499L17.0364 99.5164L16.6993 99.9916L16.3622 100.484L16.0424 100.976L15.7399 101.486L15.4461 101.996L15.1608 102.523L14.9016 103.041L14.6509 103.577L14.4175 104.121L14.1928 104.665L13.9854 105.218L13.7866 105.78L13.6137 106.341L13.4495 106.912L13.3026 107.473L13.1729 108.052L13.0519 108.631L12.9482 109.218L12.8618 109.797L12.8013 110.385L12.7408 110.963L12.6976 111.56L12.6803 112.147L12.6716 112.735L12.6803 113.331L12.6976 113.918L12.7408 114.506L12.8013 115.093L12.8618 115.681L12.9482 116.268L13.0519 116.847L13.1729 117.426L13.3026 117.996L13.4149 118.445H34.4263L34.8412 118.436H84.5391L32.9916 104.259L32.6286 104.147Z" fill="white"/>
<path d="M0.0345724 99.0151L0.0691449 99.7581L0.129647 100.492L0.198792 101.227L0.285223 101.961L0.380297 102.695L0.5013 103.421L0.630947 104.155L0.77788 104.881L0.942099 105.598L1.1236 106.315L1.31375 107.032L1.52983 107.741L1.75455 108.441L1.98792 109.14L2.24721 109.84L2.51515 110.523L2.80037 111.214L3.09423 111.888L3.40539 112.562L3.72518 113.218L4.07091 113.875L4.42527 114.531L4.79693 115.171L5.17722 115.801L5.56616 116.423L5.97239 117.045L6.3959 117.659L6.82806 118.255L6.97499 118.445H13.4141L13.3017 117.996L13.1721 117.425L13.0511 116.847L12.9474 116.268L12.861 115.68L12.8004 115.093L12.7399 114.505L12.6967 113.918L12.6794 113.33L12.6708 112.734L12.6794 112.147L12.6967 111.559L12.7399 110.963L12.8004 110.384L12.861 109.797L12.9474 109.218L13.0511 108.631L13.1721 108.052L13.3017 107.473L13.4487 106.911L13.6129 106.341L13.7858 105.78L13.9846 105.218L14.192 104.665L14.4167 104.121L14.6501 103.577L14.9007 103.041L15.16 102.523L15.4452 101.996L15.7391 101.486L16.0416 100.976L16.3614 100.484L16.6985 99.9914L17.0356 99.5162L17.4072 99.0497L17.7702 98.5831L18.1592 98.1339L18.5481 97.7019L18.9543 97.27L19.3779 96.8553L19.8014 96.4492L20.2422 96.0518L20.6916 95.6717L21.1411 95.3002L21.6164 94.946L22.0918 94.5918L22.5844 94.2635L23.0858 93.9438L23.5871 93.6328L24.0884 93.3477L24.6156 93.0713L25.1428 92.8034L25.6787 92.5529L26.2232 92.311L26.7591 92.0864L27.3209 91.8877L27.874 91.6976L28.4358 91.5162L29.0063 91.352L29.5767 91.2052L30.1558 91.067L30.7263 90.9546L31.314 90.851L31.9017 90.7646L32.4808 90.6955L33.0685 90.6436L33.6563 90.6004L34.244 90.5745L34.8404 90.5659H216V62.7041H34.8404L34.0971 62.7127L33.3624 62.73L32.6191 62.7732L31.8844 62.8251L31.1411 62.8942L30.4151 62.9806L29.6804 63.0842L28.9544 63.1965L28.2284 63.3348L27.4937 63.4816L26.7764 63.6458L26.059 63.8272L25.3502 64.0173L24.6329 64.2333L23.9328 64.4492L23.2327 64.6911L22.5412 64.9417L21.8498 65.2181L21.167 65.4946L20.4928 65.7883L19.8187 66.108L19.1531 66.4363L18.4963 66.7646L17.848 67.1274L17.2084 67.4903L16.5688 67.8704L15.9465 68.2678L15.3242 68.6739L14.7192 69.0972L14.1228 69.5292L13.5265 69.9698L12.956 70.4276L12.3769 70.9028L11.8151 71.3866L11.2706 71.879L10.7347 72.3888L10.2075 72.8985L9.68893 73.4341L9.17898 73.9784L8.68633 74.5227L8.20231 75.0842L7.73558 75.6544L7.2775 76.2333L6.82806 76.8207L6.3959 77.4255L5.97239 78.0302L5.56616 78.6436L5.17722 79.2743L4.79693 79.9136L4.42527 80.5529L4.07091 81.1922L3.72518 81.8488L3.40539 82.5227L3.09423 83.1879L2.80037 83.8704L2.51515 84.5443L2.24721 85.2354L1.98792 85.9266L1.75455 86.6263L1.52983 87.3348L1.31375 88.0432L1.1236 88.7603L0.942099 89.4773L0.77788 90.203L0.630947 90.9201L0.5013 91.6458L0.380297 92.3801L0.285223 93.1145L0.198792 93.8488L0.129647 94.5832L0.0691449 95.3175L0.0345724 96.0518L0 96.7948V97.5378V98.2808L0.0345724 99.0151Z" fill="#0DC09D"/>
<path d="M32.6286 41.4511L32.3261 41.3302L32.0236 41.2006L31.7297 41.071L31.4531 40.9155L31.1679 40.76L30.9 40.5872L30.6407 40.3885L30.3814 40.1984L30.1394 39.9824L29.906 39.7664L29.6899 39.5245L29.4825 39.2913L29.275 39.0321L29.0849 38.7729L28.912 38.4965L28.7478 38.22L28.6009 37.9349L28.4539 37.6498L28.3416 37.3561L28.2292 37.0451L28.1342 36.7427L28.0564 36.4403L27.9872 36.112L27.9354 35.801L27.8921 35.4727L27.8835 35.1531L27.8749 34.8248L27.8835 34.5051L27.8921 34.1941L27.9354 33.8744L27.9872 33.5548L28.0564 33.2438L28.1342 32.9241L28.2292 32.6131L28.3416 32.3107L28.4539 32.017L28.6009 31.7319L28.7478 31.4382L28.912 31.1703L29.0849 30.8939L29.275 30.6347L29.4825 30.3928L29.6899 30.1423L29.906 29.9004L30.1394 29.6844L30.3814 29.4684L30.6407 29.2783L30.9 29.0969L31.1679 28.9068L31.4531 28.7513L31.7297 28.5958L32.0236 28.4576L32.3261 28.3366L32.6286 28.233L32.9311 28.1293L33.2422 28.0429L33.562 27.9824L33.8732 27.9306L34.193 27.896L34.5214 27.8701H34.6251H34.2448L33.6571 27.896L33.0694 27.9392L32.4816 27.9911L31.9026 28.0688L31.3148 28.1552L30.7271 28.2502L30.1566 28.3712L29.5776 28.5008L29.0071 28.6477L28.4367 28.8118L27.8749 28.9932L27.3217 29.1833L26.7599 29.3906L26.224 29.6066L25.6795 29.8485L25.1436 30.0991L24.6164 30.3669L24.0892 30.6433L23.5879 30.9284L23.0779 31.2394L22.5853 31.5591L22.0926 31.8874L21.6173 32.2416L21.1419 32.5958L20.6838 32.9673L20.243 33.3561L19.8022 33.7448L19.37 34.1509L18.9552 34.5656L18.5489 34.9975L18.16 35.4382L17.7711 35.8874L17.4081 36.3453L17.0364 36.8204L16.6993 37.2956L16.3622 37.7794L16.0424 38.2718L15.7399 38.7816L15.4461 39.2913L15.1608 39.8183L14.9016 40.3366L14.6509 40.8723L14.4175 41.4166L14.1928 41.9608L13.9854 42.5137L13.7866 43.0753L13.6137 43.6369L13.4495 44.207L13.3026 44.7772L13.1643 45.3474L13.0519 45.9263L12.9482 46.5137L12.8618 47.0926L12.7926 47.6801L12.7408 48.2589L12.6976 48.855L12.6803 49.4511L12.6716 50.0386L12.6803 50.6261L12.6976 51.2222L12.7408 51.8096L12.7926 52.3971L12.8618 52.9759L12.9482 53.5634L13.0519 54.1509L13.1643 54.7211L13.3026 55.2999L13.4495 55.8701L13.6137 56.4317L13.7866 57.0019L13.9854 57.5548L14.1928 58.1077L14.4175 58.652L14.6509 59.1962L14.9016 59.7319L15.1608 60.2589L15.3337 60.5613L15.351 60.5526L16.077 60.1811L16.803 59.8269L17.5377 59.4813L18.281 59.1617L19.0243 58.8334L19.7849 58.5397L20.5369 58.2632L21.3061 57.9781L22.0753 57.7362L22.8532 57.4943L23.6311 57.2697L24.409 57.0537L25.1955 56.855L25.9907 56.6822L26.7858 56.5267L27.5724 56.3712L28.3762 56.2416L29.18 56.1207L29.9838 56.017L30.7962 55.9306L31.6 55.8615L32.4125 55.801L33.2077 55.7664L34.0374 55.7492L34.8412 55.7319H84.5391L32.9829 41.5548L32.6286 41.4511Z" fill="white"/>
<path d="M181.16 188.13H181.757L182.344 188.095L182.932 188.061L183.52 188.009L184.108 187.931L184.695 187.845L185.274 187.75L185.853 187.629L186.424 187.499L187.003 187.352L187.565 187.188L188.127 187.007L188.688 186.817L189.242 186.609L189.777 186.385L190.322 186.151L190.858 185.901L191.385 185.633L191.912 185.357L192.422 185.063L192.924 184.752L193.416 184.432L193.909 184.104L194.393 183.758L194.86 183.395L195.318 183.033L195.767 182.644L196.199 182.246L196.631 181.849L197.046 181.426L197.453 181.002L197.85 180.562L198.23 180.113L198.602 179.655L198.965 179.179L199.302 178.704L199.639 178.221L199.959 177.719L200.262 177.218L200.555 176.7L200.841 176.182L201.109 175.655L201.359 175.128L201.584 174.583L201.817 174.03L202.016 173.486L202.215 172.925L202.396 172.363L202.552 171.793L202.708 171.223L202.837 170.652L202.95 170.065L203.053 169.486L203.14 168.907L203.209 168.311L203.269 167.732L203.304 167.136L203.33 166.549V165.961V165.374L203.304 164.778L203.269 164.19L203.209 163.603L203.14 163.024L203.053 162.437L202.95 161.849L202.837 161.279L202.708 160.7L202.552 160.13L202.396 159.568L202.215 158.998L202.016 158.437L201.817 157.892L201.584 157.348L201.359 156.804L201.109 156.268L200.841 155.741L200.668 155.421L200.65 155.43L199.924 155.802L199.198 156.156L198.464 156.501L197.72 156.83L196.969 157.141L196.217 157.443L195.465 157.719L194.695 157.996L193.918 158.255L193.148 158.488L192.379 158.713L191.584 158.929L190.806 159.119L190.011 159.3L189.216 159.465L188.42 159.611L187.625 159.741L186.822 159.862L186.018 159.966L185.214 160.052L184.401 160.121L183.589 160.173L182.777 160.216L181.973 160.242L181.16 160.251H131.462L183.01 174.428L183.373 174.54L183.675 174.652L183.978 174.773L184.263 174.912L184.548 175.067L184.825 175.231L185.102 175.404L185.361 175.594L185.611 175.793L185.845 176.009L186.087 176.225L186.312 176.458L186.519 176.7L186.726 176.959L186.908 177.218L187.089 177.486L187.245 177.754L187.392 178.048L187.53 178.341L187.651 178.627L187.772 178.929L187.859 179.249L187.945 179.551L188.006 179.871L188.066 180.182L188.101 180.51L188.118 180.821L188.127 181.149L188.118 181.469L188.101 181.797L188.066 182.108L188.006 182.428L187.945 182.748L187.859 183.059L187.772 183.361L187.651 183.672L187.53 183.966L187.392 184.259L187.245 184.536L187.089 184.821L186.908 185.089L186.726 185.348L186.519 185.598L186.312 185.84L186.087 186.074L185.845 186.298L185.611 186.514L185.361 186.704L185.102 186.894L184.825 187.076L184.548 187.24L184.263 187.387L183.978 187.516L183.675 187.646L183.373 187.758L183.07 187.853L182.759 187.931L182.448 188L182.12 188.043L181.809 188.078L181.48 188.113L181.16 188.121" fill="white"/>
<path d="M215.965 179.68L215.931 178.946L215.879 178.211L215.801 177.468L215.723 176.734L215.62 176.008L215.499 175.274L215.369 174.548L215.222 173.822L215.058 173.097L214.876 172.388L214.686 171.671L214.479 170.954L214.254 170.263L214.012 169.555L213.753 168.863L213.493 168.181L213.208 167.49L212.906 166.816L212.603 166.142L212.275 165.477L211.929 164.829L211.583 164.172L211.212 163.533L210.823 162.894L210.434 162.272L210.028 161.65L209.604 161.045L209.172 160.449L208.723 159.853L208.273 159.282L207.798 158.704L207.314 158.151L206.821 157.598L206.311 157.062L205.801 156.527L205.265 156.017L204.729 155.507L204.185 155.015L203.623 154.531L203.053 154.056L203.018 154.03L202.206 154.522L201.488 154.928L200.745 155.334L200.65 155.386L200.84 155.74L201.108 156.267L201.359 156.803L201.583 157.347L201.817 157.892L202.015 158.436L202.214 158.997L202.396 159.568L202.551 160.129L202.707 160.699L202.837 161.278L202.949 161.848L203.053 162.436L203.139 163.023L203.208 163.602L203.269 164.19L203.303 164.777L203.329 165.373V165.961V166.548L203.303 167.136L203.269 167.732L203.208 168.311L203.139 168.907L203.053 169.486L202.949 170.064L202.837 170.652L202.707 171.222L202.551 171.792L202.396 172.362L202.214 172.924L202.015 173.486L201.817 174.03L201.583 174.583L201.359 175.127L201.108 175.654L200.84 176.181L200.555 176.699L200.261 177.218L199.958 177.719L199.639 178.22L199.302 178.704L198.964 179.179L198.601 179.654L198.23 180.112L197.849 180.561L197.452 181.002L197.046 181.425L196.631 181.848L196.199 182.246L195.766 182.643L195.317 183.032L194.859 183.395L194.392 183.758L193.908 184.103L193.416 184.432L192.923 184.751L192.422 185.062L191.912 185.356L191.384 185.632L190.857 185.9L190.321 186.151L189.777 186.384L189.241 186.609L188.688 186.816L188.126 187.006L187.564 187.187L187.002 187.352L186.423 187.498L185.853 187.628L185.274 187.749L184.695 187.844L184.107 187.93L183.519 188.008L182.931 188.06L182.344 188.095L181.756 188.129H181.16H0V216H181.16L181.903 215.991L182.638 215.974L183.381 215.93L184.116 215.87L184.859 215.809L185.594 215.723L186.328 215.611L187.054 215.498L187.78 215.369L188.506 215.213L189.224 215.049L189.941 214.876L190.65 214.686L191.367 214.47L192.067 214.254L192.767 214.004L193.467 213.753L194.159 213.486L194.842 213.209L195.516 212.915L196.19 212.596L196.847 212.267L197.512 211.93L198.152 211.576L198.8 211.213L199.431 210.833L200.053 210.427L200.676 210.03L201.281 209.606L201.877 209.166L202.474 208.725L203.053 208.267L203.623 207.792L204.185 207.308L204.729 206.825L205.265 206.315L205.801 205.797L206.311 205.27L206.821 204.725L207.314 204.181L207.798 203.619L208.273 203.049L208.723 202.47L209.172 201.883L209.604 201.278L210.028 200.673L210.434 200.051L210.823 199.429L211.212 198.79L211.583 198.151L211.929 197.503L212.275 196.846L212.603 196.181L212.906 195.516L213.208 194.833L213.493 194.151L213.753 193.468L214.012 192.768L214.254 192.069L214.479 191.36L214.686 190.652L214.876 189.943L215.058 189.218L215.222 188.501L215.369 187.784L215.499 187.049L215.62 186.324L215.723 185.589L215.801 184.855L215.879 184.12L215.931 183.378L215.965 182.643L216 181.909V181.166V180.423L215.965 179.68Z" fill="#0DC09D"/>
<path d="M0.0345724 36.311L0.0691449 37.054L0.121004 37.7883L0.198792 38.5313L0.285223 39.2657L0.380297 39.9914L0.5013 40.7257L0.630947 41.4514L0.77788 42.1771L0.942099 42.8942L1.1236 43.6112L1.31375 44.3196L1.52119 45.0367L1.75455 45.7365L1.98792 46.4363L2.24721 47.1361L2.5065 47.8186L2.79173 48.5097L3.09423 49.1836L3.40539 49.8574L3.72518 50.514L4.07091 51.1706L4.42527 51.8272L4.78828 52.4665L5.17722 53.1058L5.56616 53.7192L5.97239 54.3413L6.3959 54.9546L6.82806 55.5508L7.2775 56.1469L7.73558 56.7171L8.20231 57.2959L8.68633 57.8488L9.17898 58.4017L9.68893 58.9374L10.2075 59.4644L10.7347 59.9827L11.2706 60.4924L11.8151 60.9849L12.3769 61.4687L12.956 61.9352L12.982 61.9611L13.7944 61.4773L14.5118 61.0713L15.2551 60.6566L15.3588 60.6134L15.16 60.2592L14.9007 59.7322L14.6501 59.1965L14.4167 58.6523L14.192 58.108L13.9846 57.5551L13.7858 57.0022L13.6129 56.432L13.4487 55.8704L13.3017 55.3002L13.1635 54.7214L13.0511 54.1512L12.9474 53.5637L12.861 52.9762L12.7918 52.3974L12.7399 51.8099L12.6967 51.2225L12.6794 50.6263L12.6708 50.0389L12.6794 49.4514L12.6967 48.8553L12.7399 48.2592L12.7918 47.6803L12.861 47.0929L12.9474 46.514L13.0511 45.9266L13.1635 45.3477L13.3017 44.7775L13.4487 44.2073L13.6129 43.6371L13.7858 43.0756L13.9846 42.514L14.192 41.9611L14.4167 41.4168L14.6501 40.8726L14.9007 40.3369L15.16 39.8186L15.4452 39.2916L15.7391 38.7819L16.0416 38.2721L16.3614 37.7797L16.6985 37.2959L17.0356 36.8207L17.4072 36.3456L17.7702 35.8877L18.1592 35.4384L18.5481 34.9978L18.9543 34.5659L19.3692 34.1512L19.8014 33.7451L20.2422 33.3564L20.683 32.9676L21.1411 32.5961L21.6164 32.2419L22.0918 31.8877L22.5844 31.5594L23.0771 31.2397L23.5871 30.9287L24.0884 30.6436L24.6156 30.3672L25.1428 30.0993L25.6787 29.8488L26.2232 29.6069L26.7591 29.3909L27.3209 29.1836L27.874 28.9935L28.4358 28.8121L29.0063 28.6479L29.5767 28.5011L30.1558 28.3715L30.7263 28.2505L31.314 28.1555L31.9017 28.0691L32.4808 27.9914L33.0685 27.9395L33.6563 27.8963L34.244 27.8704H34.8404H216V0H34.8404H34.0971L33.3624 0.0259179L32.6191 0.0691145L31.8844 0.12959L31.1411 0.190065L30.4065 0.276458L29.6804 0.388769L28.9458 0.492441L28.2198 0.63067L27.4937 0.777538L26.7764 0.950324L26.059 1.12311L25.3502 1.31317L24.6329 1.52916L23.9328 1.74514L23.2327 1.98704L22.5412 2.23758L21.8411 2.51404L21.167 2.7905L20.4928 3.08423L19.8187 3.40389L19.1531 3.72354L18.4963 4.06911L17.848 4.42333L17.2084 4.78618L16.5688 5.16631L15.9465 5.56371L15.3242 5.96976L14.7192 6.39309L14.1228 6.82505L13.5265 7.2743L12.956 7.73218L12.3769 8.20734L11.8151 8.6825L11.2706 9.17494L10.7347 9.68466L10.2075 10.203L9.68893 10.73L9.17898 11.2657L8.68633 11.8186L8.20231 12.3801L7.73558 12.9503L7.2775 13.5292L6.82806 14.1166L6.3959 14.7214L5.97239 15.3261L5.56616 15.9395L5.17722 16.5702L4.78828 17.2009L4.42527 17.8488L4.07091 18.4968L3.72518 19.1447L3.40539 19.8186L3.09423 20.4838L2.79173 21.1663L2.5065 21.8488L2.24721 22.5313L1.98792 23.2225L1.75455 23.9309L1.52119 24.6307L1.31375 25.3391L1.1236 26.0562L0.942099 26.7732L0.77788 27.4989L0.630947 28.216L0.5013 28.9417L0.380297 29.676L0.285223 30.4104L0.198792 31.1447L0.121004 31.879L0.0691449 32.622L0.0345724 33.3564L0 34.0907V34.8337V35.5767L0.0345724 36.311Z" fill="#0DC09D"/>
<path d="M338.551 175.5H283.509V153.994H338.551C347.073 153.994 353.638 152.358 358.246 149.068C362.854 145.786 365.163 141.55 365.163 136.367C365.163 131.185 362.983 127.383 358.641 124.962C354.29 122.55 347.854 120.556 339.332 119.004L330.459 117.453C321.757 115.902 313.845 113.651 306.722 110.719C299.591 107.787 293.935 103.721 289.765 98.5386C285.594 93.3561 283.5 86.7075 283.5 78.5844C283.5 66.4976 288.023 57.1214 297.068 50.4728C306.113 43.8243 318.11 40.5 333.068 40.5H386.806V62.2698H333.068C325.765 62.2698 320.023 63.608 315.853 66.2845C311.682 68.961 309.588 72.72 309.588 77.553C309.588 82.7354 311.631 86.5371 315.715 88.9578C319.8 91.3786 325.327 93.1942 332.278 94.396L341.409 95.9473C350.626 97.4987 359.061 99.6637 366.716 102.425C374.371 105.187 380.413 109.159 384.849 114.342C389.286 119.524 391.5 126.437 391.5 135.072C391.5 147.857 386.711 157.788 377.151 164.871C367.583 171.954 354.719 175.491 338.543 175.491L338.551 175.5Z" fill="white"/>
<path d="M663.026 217.191V156.077H658.828C656.901 159.584 654.102 162.954 650.421 166.185C646.741 169.424 642.059 172.094 636.374 174.193C630.681 176.293 623.64 177.347 615.234 177.347C604.374 177.347 594.395 174.72 585.29 169.468C576.184 164.215 568.918 156.647 563.493 146.746C558.067 136.854 555.354 124.906 555.354 110.893V106.954C555.354 92.9492 558.11 81.0011 563.631 71.1004C569.143 61.2084 576.452 53.6317 585.557 48.379C594.663 43.1263 604.555 40.5 615.234 40.5C627.838 40.5 637.514 42.7808 644.253 47.3251C650.992 51.878 656.028 57.0443 659.354 62.824H663.553V40.5H690.085V217.174H663.035L663.026 217.191ZM622.845 153.71C634.75 153.71 644.469 149.943 651.994 142.418C659.519 134.893 663.285 124.12 663.285 110.116V107.748C663.285 93.9168 659.475 83.2387 651.864 75.7052C644.244 68.1803 634.568 64.4136 622.845 64.4136C611.121 64.4136 601.704 68.1803 594.085 75.7052C586.465 83.2387 582.663 93.9168 582.663 107.748V110.116C582.663 124.129 586.473 134.893 594.085 142.418C601.704 149.951 611.285 153.71 622.845 153.71Z" fill="white"/>
<path d="M535.491 105.182C535.491 91.7955 532.888 80.1088 527.682 70.1131C522.476 60.1173 515.224 52.3057 505.95 46.6869C496.66 41.0682 485.854 38.25 473.54 38.25C461.227 38.25 449.762 41.1034 440.223 46.819C435.445 49.6724 431.189 53.0807 427.439 57.0614C426.968 57.5545 426.506 58.0653 426.043 58.5761C424.673 60.1261 423.397 61.7466 422.181 63.4375C420.572 65.7008 419.073 68.1051 417.703 70.6503C412.24 80.8222 409.5 92.7818 409.5 106.529V109.744C409.5 123.491 412.232 135.442 417.703 145.623C423.166 155.795 430.761 163.694 440.48 169.313C450.19 174.932 461.561 177.75 474.576 177.75C486.033 177.75 495.572 175.874 503.21 172.131C510.848 168.38 516.919 163.738 521.432 158.208C522.682 156.666 523.863 155.152 524.968 153.655C527.845 149.771 530.225 146.028 532.101 142.408L509.718 130.625C506.943 136.701 502.987 142.056 497.876 146.688C492.746 151.33 485.16 153.646 475.099 153.646C464.335 153.646 455.353 150.202 448.161 143.342C447.715 142.91 447.279 142.488 446.859 142.03C446.431 141.572 446.028 141.122 445.626 140.664C444.667 139.528 443.776 138.339 442.954 137.089C439.452 131.682 437.449 125.244 436.943 117.784C436.892 117.071 436.866 116.349 436.841 115.627H535.5V105.182H535.491ZM454.797 94.4727L441.088 108.572H436.575C436.507 104.512 436.575 99.2989 437.098 94.4727C437.354 92.6409 437.697 90.8707 438.142 89.171C438.57 87.4713 439.093 85.8509 439.701 84.3009C441.721 79.1312 444.727 74.7543 448.683 71.1787C455.011 65.4631 463.205 62.6097 473.283 62.6097C483.362 62.6097 491.505 65.4631 497.756 71.1787C504.006 76.8943 507.56 84.6619 508.425 94.4727H454.805H454.797Z" fill="white"/>
<path d="M836.991 105.182C836.991 91.7955 834.388 80.1088 829.182 70.1131C823.976 60.1173 816.724 52.3057 807.45 46.6869C798.16 41.0682 787.354 38.25 775.04 38.25C762.727 38.25 751.262 41.1034 741.723 46.819C736.945 49.6724 732.689 53.0807 728.939 57.0614C728.468 57.5545 728.006 58.0653 727.543 58.5761C726.173 60.1261 724.897 61.7466 723.681 63.4375C722.072 65.7008 720.573 68.1051 719.203 70.6503C713.74 80.8222 711 92.7818 711 106.529V109.744C711 123.491 713.732 135.442 719.203 145.623C724.666 155.795 732.261 163.694 741.98 169.313C751.69 174.932 763.061 177.75 776.076 177.75C787.533 177.75 797.072 175.874 804.71 172.131C812.348 168.38 818.419 163.738 822.932 158.208C824.182 156.666 825.363 155.152 826.468 153.655C829.345 149.771 831.725 146.028 833.601 142.408L811.218 130.625C808.443 136.701 804.487 142.056 799.376 146.688C794.246 151.33 786.66 153.646 776.599 153.646C765.835 153.646 756.853 150.202 749.661 143.342C749.215 142.91 748.779 142.488 748.359 142.03C747.931 141.572 747.528 141.122 747.126 140.664C746.167 139.528 745.276 138.339 744.454 137.089C740.952 131.682 738.949 125.244 738.443 117.784C738.392 117.071 738.366 116.349 738.341 115.627H837V105.182H836.991ZM756.297 94.4727L742.588 108.572H738.075C738.007 104.512 738.075 99.2989 738.598 94.4727C738.854 92.6409 739.197 90.8707 739.642 89.171C740.07 87.4713 740.593 85.8509 741.201 84.3009C743.221 79.1312 746.227 74.7543 750.183 71.1787C756.511 65.4631 764.705 62.6097 774.783 62.6097C784.862 62.6097 793.005 65.4631 799.256 71.1787C805.506 76.8943 809.06 84.6619 809.925 94.4727H756.305H756.297Z" fill="white"/>
<path d="M864.009 175.615V38.777H890.531V54.0081H894.73C896.829 48.5826 900.199 44.5999 904.838 42.0599C909.477 39.52 915.214 38.25 922.039 38.25H937.538V62.6733H920.994C912.233 62.6733 905.063 65.0837 899.456 69.8958C893.849 74.7165 891.05 82.1118 891.05 92.0902V175.606H864L864.009 175.615Z" fill="white"/>
<path d="M1062 88.5819C1062 72.5178 1057.12 60.1102 1047.35 51.3679C1037.58 42.6255 1024.16 38.25 1007.1 38.25C995.911 38.25 986.45 40.03 978.717 43.6076C970.992 47.1852 964.769 51.9115 960.065 57.7953C955.36 63.6878 951.939 70.1152 949.8 77.0687L975.383 85.3726C976.98 78.2349 980.27 72.4301 985.245 67.9669C990.229 63.5124 997.412 61.2764 1006.83 61.2764C1016.25 61.2764 1023.54 63.6439 1028.15 68.3702C1032.78 73.0965 1035.08 79.217 1035.08 86.7142V109.548H1030.65L1016.43 95.2811H995.108C980.715 95.2811 968.767 98.7184 959.262 105.593C949.757 112.459 945 122.595 945 135.985C945 144.912 947.182 152.488 951.529 158.74C955.884 164.992 961.749 169.718 969.116 172.927C976.5 176.137 984.896 177.75 994.296 177.75C1003.7 177.75 1010.64 176.452 1016.15 173.865C1021.66 171.279 1025.84 168.245 1028.68 164.764C1031.53 161.283 1033.64 158.108 1035.07 155.258H1039.34V175.5L1061.99 175.5V88.5907L1062 88.5819ZM1035.08 119.369C1035.08 130.443 1031.66 139.142 1024.82 145.473C1017.98 151.804 1009.15 154.978 998.302 154.978C990.308 154.978 984.006 153.198 979.38 149.62C974.754 146.043 972.45 141.229 972.45 135.161C972.45 129.093 974.676 124.489 979.109 121.377C983.561 118.255 989.409 116.694 996.697 116.694H1035.07V119.369H1035.08Z" fill="white"/>
</g>
<defs>
<clipPath id="clip0_352_195">
<rect width="1062" height="216" fill="white"/>
</clipPath>
</defs>
</svg>
