<svg width="527" height="381" viewBox="0 0 527 381" fill="none" xmlns="http://www.w3.org/2000/svg">
<path fill-rule="evenodd" clip-rule="evenodd" d="M526 1H0.500023V380H526V1Z" fill="url(#paint0_linear_98_4873)" stroke="#E0E0E0"/>
<path d="M221.984 172.453H231.078C235.547 172.453 238.656 175.5 238.656 180C238.656 184.5 235.469 187.547 230.906 187.547H226.016V195H221.984V172.453ZM226.016 175.75V184.297H230C232.891 184.297 234.562 182.734 234.562 180C234.562 177.297 232.906 175.75 230.016 175.75H226.016ZM241.281 195V177.922H245.016V180.891H245.094C245.641 178.891 247.172 177.734 249.188 177.734C249.703 177.734 250.141 177.797 250.438 177.891V181.422C250.109 181.297 249.5 181.203 248.828 181.203C246.547 181.203 245.172 182.688 245.172 185.094V195H241.281ZM259.406 195.25C254.375 195.25 251.188 191.906 251.188 186.453C251.188 181.062 254.406 177.688 259.406 177.688C264.438 177.688 267.641 181.047 267.641 186.453C267.641 191.906 264.469 195.25 259.406 195.25ZM259.406 192.141C262.094 192.141 263.688 190.047 263.688 186.469C263.688 182.891 262.078 180.797 259.406 180.797C256.75 180.797 255.141 182.906 255.141 186.469C255.141 190.047 256.75 192.141 259.406 192.141ZM270.25 195V177.922H273.984V180.922H274.062C274.812 178.938 276.672 177.719 278.922 177.719C281.328 177.719 283.062 178.938 283.703 181.109H283.781C284.609 179.016 286.656 177.719 289.109 177.719C292.469 177.719 294.688 179.969 294.688 183.375V195H290.797V184.328C290.797 182.203 289.672 181 287.672 181C285.719 181 284.359 182.453 284.359 184.531V195H280.578V184.109C280.578 182.188 279.391 181 277.5 181C275.531 181 274.141 182.516 274.141 184.625V195H270.25ZM305.438 195.25C300.406 195.25 297.219 191.906 297.219 186.453C297.219 181.062 300.438 177.688 305.438 177.688C310.469 177.688 313.672 181.047 313.672 186.453C313.672 191.906 310.5 195.25 305.438 195.25ZM305.438 192.141C308.125 192.141 309.719 190.047 309.719 186.469C309.719 182.891 308.109 180.797 305.438 180.797C302.781 180.797 301.172 182.906 301.172 186.469C301.172 190.047 302.781 192.141 305.438 192.141ZM338.359 177.922L332.328 195H328.062L322 177.922H326.141L330.188 191.344H330.266L334.297 177.922H338.359ZM340.359 195V177.922H344.25V195H340.359ZM342.297 175.75C341.094 175.75 340.109 174.812 340.109 173.609C340.109 172.391 341.094 171.469 342.297 171.469C343.516 171.469 344.484 172.391 344.484 173.609C344.484 174.812 343.516 175.75 342.297 175.75ZM354.078 195.188C349.812 195.188 346.969 191.766 346.969 186.453C346.969 181.156 349.828 177.734 354.062 177.734C356.531 177.734 358.453 178.906 359.375 180.797H359.469V171.406H363.359V195H359.547V192.094H359.469C358.547 194 356.578 195.188 354.078 195.188ZM355.219 180.969C352.641 180.969 350.953 183.125 350.953 186.469C350.953 189.828 352.641 191.953 355.219 191.953C357.797 191.953 359.484 189.781 359.484 186.469C359.484 183.172 357.781 180.969 355.219 180.969ZM374.094 180.719C371.812 180.719 370.156 182.375 369.984 184.812H378.078C378 182.344 376.406 180.719 374.094 180.719ZM378.094 189.922H381.75C381.25 193.078 378.219 195.25 374.234 195.25C369.188 195.25 366.062 191.906 366.062 186.531C366.062 181.156 369.203 177.688 374.094 177.688C378.875 177.688 381.906 180.953 381.906 186.125V187.406H369.953V187.641C369.953 190.391 371.703 192.219 374.312 192.219C376.188 192.219 377.641 191.328 378.094 189.922ZM392.031 195.25C387 195.25 383.812 191.906 383.812 186.453C383.812 181.062 387.031 177.688 392.031 177.688C397.062 177.688 400.266 181.047 400.266 186.453C400.266 191.906 397.094 195.25 392.031 195.25ZM392.031 192.141C394.719 192.141 396.312 190.047 396.312 186.469C396.312 182.891 394.703 180.797 392.031 180.797C389.375 180.797 387.766 182.906 387.766 186.469C387.766 190.047 389.375 192.141 392.031 192.141Z" fill="#4CA58A"/>
<defs>
<linearGradient id="paint0_linear_98_4873" x1="263.25" y1="1" x2="263.25" y2="380" gradientUnits="userSpaceOnUse">
<stop stop-color="#290362"/>
<stop offset="1"/>
</linearGradient>
</defs>
</svg>
