<svg width="44" height="34" viewBox="0 0 44 34" fill="none" xmlns="http://www.w3.org/2000/svg">
<g clip-path="url(#clip0_360_471)">
<path d="M9.16667 0.804688H12.8333V4.47135H9.16667V13.638C9.16667 15.6547 7.51667 17.3047 5.5 17.3047C7.51667 17.3047 9.16667 18.9547 9.16667 20.9714V30.138H12.8333V33.8047H9.16667C7.205 33.3097 5.5 32.1547 5.5 30.138V22.8047C5.5 20.788 3.85 19.138 1.83333 19.138H0V15.4714H1.83333C3.85 15.4714 5.5 13.8214 5.5 11.8047V4.47135C5.5 2.45469 7.15 0.804688 9.16667 0.804688ZM34.8333 0.804688C36.85 0.804688 38.5 2.45469 38.5 4.47135V11.8047C38.5 13.8214 40.15 15.4714 42.1667 15.4714H44V19.138H42.1667C40.15 19.138 38.5 20.788 38.5 22.8047V30.138C38.5 32.1547 36.85 33.8047 34.8333 33.8047H31.1667V30.138H34.8333V20.9714C34.8333 18.9547 36.4833 17.3047 38.5 17.3047C36.4833 17.3047 34.8333 15.6547 34.8333 13.638V4.47135H31.1667V0.804688H34.8333ZM22 22.8047C23.0083 22.8047 23.8333 23.6297 23.8333 24.638C23.8333 25.6464 23.0083 26.4714 22 26.4714C20.9917 26.4714 20.1667 25.6464 20.1667 24.638C20.1667 23.6297 20.9917 22.8047 22 22.8047ZM14.6667 22.8047C15.675 22.8047 16.5 23.6297 16.5 24.638C16.5 25.6464 15.675 26.4714 14.6667 26.4714C13.6583 26.4714 12.8333 25.6464 12.8333 24.638C12.8333 23.6297 13.6583 22.8047 14.6667 22.8047ZM29.3333 22.8047C30.3417 22.8047 31.1667 23.6297 31.1667 24.638C31.1667 25.6464 30.3417 26.4714 29.3333 26.4714C28.325 26.4714 27.5 25.6464 27.5 24.638C27.5 23.6297 28.325 22.8047 29.3333 22.8047Z" fill="white"/>
</g>
<defs>
<clipPath id="clip0_360_471">
<rect width="44" height="33" fill="white" transform="translate(0 0.804688)"/>
</clipPath>
</defs>
</svg>
