<svg width="44" height="38" viewBox="0 0 44 38" fill="none" xmlns="http://www.w3.org/2000/svg">
<path d="M4.19048 8.47128V33.6141H35.619V37.8046H4.19048C0 37.8046 0 33.6141 0 33.6141V8.47128H4.19048ZM39.8095 4.28081V25.2332H12.5714V4.28081H39.8095ZM40.4381 0.090332H11.9429C9.97333 0.090332 8.38095 1.557 8.38095 3.33795V26.176C8.38095 27.978 9.97333 29.4237 11.9429 29.4237H40.4381C42.4076 29.4237 44 27.978 44 26.176V3.33795C44 1.557 42.4076 0.090332 40.4381 0.090332ZM14.6667 6.37605H20.9524V16.8522H14.6667V6.37605ZM37.7143 23.138H14.6667V18.9475H37.7143V23.138ZM37.7143 10.5665H25.1429V6.37605H37.7143V10.5665ZM37.7143 16.8522H25.1429V12.6618H37.7143V16.8522Z" fill="white"/>
</svg>
