<svg width="411" height="75" viewBox="0 0 411 75" fill="none" xmlns="http://www.w3.org/2000/svg">
<g opacity="0.05">
<path d="M168.728 21.6554C170.715 21.5907 171.837 21.7121 172.504 21.7768H198.589V32.4081H186.342C186.342 32.4081 178.138 32.4324 173.901 32.4081C165.235 32.4769 157.121 33.9864 156.716 34.031L168.728 21.6554Z" fill="white"/>
<path d="M134.334 44.1885C135.079 45.1516 135.079 45.1921 135.828 46.2443C149.321 65.2164 167.939 63.3629 168.728 63.2698V73.9294C168.522 73.9578 168.672 74.0104 166.854 74.0104C159.521 74.0104 141.004 71.91 127.138 52.4281C126.754 51.8858 126.754 51.8696 126.377 51.3678L134.334 44.1885Z" fill="white"/>
<path d="M126.001 50.8498C112.956 33.3022 102.417 32.3229 102.417 32.3229V21.7078C104.004 21.7442 117.801 22.6669 133.594 43.2213L126.001 50.8498Z" fill="white"/>
<path d="M0 73.3144V26.4589C7.5887 22.6831 15.5012 20.7932 23.7294 20.7932C30.9498 20.7932 36.5877 22.675 40.6512 26.4346C44.7187 30.1983 46.7504 35.4715 46.7504 42.2461V73.3185H34.305V41.1858C34.305 39.8057 34.1795 38.6524 33.9245 37.7256C33.6696 36.7989 33.1677 35.8276 32.4068 34.8118C31.6499 33.8082 30.4074 33.0393 28.6873 32.5374C26.9672 32.0316 24.7574 31.7726 22.0578 31.7726C19.0264 31.7726 15.8169 32.0801 12.4455 32.6872V73.3225H0V73.3144Z" fill="white"/>
<path d="M54.8411 48.0086C54.8411 39.7124 56.6907 33.0835 60.3859 28.126C64.077 23.1726 69.9375 20.6877 77.9674 20.6877C85.5561 20.6877 91.2952 23.0997 95.1927 27.9277C99.0944 32.7476 101.041 38.6885 101.041 45.7343C101.041 48.6359 100.968 50.7808 100.831 52.1649H67.2906C67.6265 56.6448 68.9621 59.6517 71.3096 61.1693C73.657 62.6869 76.7006 63.4396 80.4403 63.4396C86.5194 63.4396 90.4452 63.5772 98.0623 61.4L98.1189 71.9463C94.1526 73.8079 85.8273 74.1155 78.5745 74.1155C76.2797 74.1155 74.1265 73.9253 72.0988 73.561C70.0711 73.1847 67.9746 72.4157 65.8012 71.23C63.6359 70.0523 61.766 68.5509 60.2038 66.7338C58.6374 64.9087 57.3545 62.3915 56.3467 59.1742C55.3429 55.9447 54.8411 52.2256 54.8411 48.0086ZM67.2906 43.5611H88.1302C87.7983 40.0119 86.746 37.0172 84.9773 34.5728C83.2046 32.1325 80.7641 30.9103 77.6598 30.9103C74.5555 30.9103 72.1393 31.9018 70.3989 33.897C68.6626 35.8921 67.6265 39.1094 67.2906 43.5611Z" fill="white"/>
<path d="M186.342 6.27246H173.901V18.0693H186.342V6.27246Z" fill="white"/>
<path d="M187.734 62.2785C186.808 61.5015 186.338 60.0001 186.338 57.7824V36.2405H173.897V57.0215C173.897 62.3473 175.362 66.5318 178.3 69.5711C181.234 72.6023 185.265 74.1198 190.393 74.1198C190.458 74.1198 190.543 74.1198 190.644 74.1198C193.506 74.1198 196.153 73.618 198.585 72.6022V62.3352C196.861 63.0798 194.89 63.44 192.668 63.44C190.308 63.44 188.665 63.0555 187.734 62.2785Z" fill="white"/>
<path d="M207.04 32.2784V21.6026H215.847C215.912 7.19951 222.339 0 235.124 0C236.776 0 238.459 0.169971 240.183 0.513961V10.4168C238.933 10.2873 238.01 10.2145 237.399 10.2145C234.157 10.2145 231.826 10.9915 230.413 12.5455C228.993 14.0955 228.292 17.1145 228.292 21.5985H240.183V32.2744H228.292V73.3103H215.847V32.2744H207.04V32.2784Z" fill="white"/>
<path d="M250.35 73.3144V1.92236H262.796V73.3144H250.35Z" fill="white"/>
<path d="M282.838 67.2356C278.617 62.6544 276.512 56.0741 276.512 47.5067C276.512 38.9394 278.621 32.3631 282.838 27.7738C287.055 23.1887 293.098 20.894 300.974 20.894C308.85 20.894 314.893 23.1887 319.11 27.7738C323.327 32.3631 325.432 38.9394 325.432 47.5067C325.432 56.0741 323.323 62.6544 319.11 67.2356C314.893 71.8288 308.85 74.1154 300.974 74.1154C293.098 74.1154 287.055 71.8288 282.838 67.2356ZM291.916 34.508C289.949 36.7661 288.957 41.1085 288.957 47.531C288.957 53.9576 289.949 58.2918 291.916 60.5298C293.891 62.7758 296.91 63.9009 300.998 63.9009C305.082 63.9009 308.093 62.7758 310.056 60.5298C312.007 58.2918 312.994 53.9576 312.994 47.531C312.994 41.1085 312.011 36.7661 310.056 34.508C308.093 32.2457 305.082 31.1126 300.998 31.1126C296.91 31.1126 293.891 32.2457 291.916 34.508Z" fill="white"/>
<path d="M332.369 21.6025H345.531L356.507 58.887L366.374 21.6025H377.055L386.87 58.887L397.846 21.6025H411L392.686 73.3143H380.24L371.737 43.5612L363.145 73.3143H350.691L332.369 21.6025Z" fill="white"/>
<path d="M108.759 57.3652C95.2291 64.2167 83.9088 63.3709 83.2127 63.3223L82.3789 73.9496C82.557 73.9577 83.3422 74.0184 84.6252 74.0184C89.057 74.0184 99.07 73.5044 110.92 68.122L108.759 57.3652Z" fill="white"/>
<path d="M172.504 21.7764C171.654 21.6954 169.623 21.5619 166.745 21.7764H166.701L166.688 21.7804C158.169 22.4158 142.287 26.0661 127.482 42.8124C120.679 50.5097 113.345 55.3498 106.643 58.3729C97.4794 68.9192 82.3789 73.9495 82.3789 73.9495C82.557 73.9576 83.3422 74.0183 84.6252 74.0183C91.9913 74.0183 115.781 72.1648 135.48 49.8743C147.771 35.9569 152.928 34.9168 160.059 33.1887C160.059 33.1887 166.628 29.7974 175.115 27.2033C187.176 23.3668 198.589 21.7804 198.589 21.7804H172.504V21.7764Z" fill="white"/>
</g>
</svg>
