<?xml version="1.0" encoding="utf-8"?>
<!-- Generator: Adobe Illustrator 27.6.1, SVG Export Plug-In . SVG Version: 6.00 Build 0)  -->
<svg version="1.1" id="Layer_1" xmlns="http://www.w3.org/2000/svg" xmlns:xlink="http://www.w3.org/1999/xlink" x="0px" y="0px"
	 viewBox="0 0 737.2 581.9" style="enable-background:new 0 0 737.2 581.9;" xml:space="preserve">
<style type="text/css">
	.st0{opacity:0.5;}
	.st1{clip-path:url(#SVGID_00000127733013392321004090000011452716012133597064_);}
	.st2{fill:#FFFFFF;}
	.st3{clip-path:url(#SVGID_00000121279939783332912640000012473519301470961802_);}
</style>
<g class="st0">
	<defs>
		<rect id="SVGID_1_" class="st0" width="737.2" height="581.9"/>
	</defs>
	<clipPath id="SVGID_00000086660488191356499670000015005987810217011585_">
		<use xlink:href="#SVGID_1_"  style="overflow:visible;"/>
	</clipPath>
	<g style="clip-path:url(#SVGID_00000086660488191356499670000015005987810217011585_);">
		<polygon class="st2" points="336.4,388.4 336.4,142.8 285.6,193.6 285.6,439.1 		"/>
		<polygon class="st2" points="0,193.6 0,439.1 50.7,388.4 50.7,142.8 		"/>
		<polygon class="st2" points="122.1,202.9 122.1,71.4 71.4,122.1 71.4,253.6 		"/>
		<polygon class="st2" points="142.8,50.7 142.8,182.2 193.6,131.5 193.6,0 		"/>
		<polygon class="st2" points="265,202.9 265,71.4 214.2,122.1 214.2,253.6 		"/>
		<polygon class="st2" points="193.6,388.4 193.6,388.4 142.8,439.1 		"/>
		<polygon class="st2" points="142.8,444.8 142.8,581.9 193.6,531.2 193.6,394 		"/>
		<polygon class="st2" points="265,317 265,317 214.2,367.7 		"/>
		<polygon class="st2" points="214.2,373.4 214.2,510.5 265,459.8 265,322.6 		"/>
		<polygon class="st2" points="71.4,373.4 71.4,510.5 122.1,459.8 122.1,322.6 		"/>
		<polygon class="st2" points="142.8,302 142.8,325 193.6,274.3 193.6,251.2 		"/>
		<polygon class="st2" points="265,214.2 214.2,265 214.2,367.7 265,317 		"/>
		<polygon class="st2" points="193.6,285.6 142.8,336.4 142.8,439.1 193.6,388.4 		"/>
		<polygon class="st2" points="142.8,193.6 142.8,296.3 193.6,245.6 193.6,142.8 		"/>
		<polygon class="st2" points="71.4,265 71.4,367.7 122.1,317 122.1,214.2 		"/>
		<polygon class="st2" points="398,388.4 398,363.5 520.8,166.3 402.9,166.3 402.9,142.8 550.5,142.8 550.5,164.9 426.7,364.9 
			550.5,364.9 550.5,388.4 		"/>
		<g>
			<defs>
				<rect id="SVGID_00000078752349545235486420000014134937866915666823_" width="737.2" height="581.9"/>
			</defs>
			<clipPath id="SVGID_00000173137134593561814060000012018325903604677553_">
				<use xlink:href="#SVGID_00000078752349545235486420000014134937866915666823_"  style="overflow:visible;"/>
			</clipPath>
			<g style="clip-path:url(#SVGID_00000173137134593561814060000012018325903604677553_);">
				<path class="st2" d="M736.4,336.3c-5.2,34.4-37.3,56-82.2,56c-36.9,0-61.1-9.3-84.2-32.5l18-18c20.4,20.4,39.3,26.9,67,26.9
					c28.4,0,48.3-11.4,54.2-31c0.8-2.6,1.2-5.3,1.4-8c0.5-6.6-0.5-13.1-2.9-19.3c-1.8-5-7.4-11.6-11.8-14.6
					c-9.6-7-23.2-12.9-37.3-17.7l-27.4-9.4c-18.5-6.4-32.3-15.2-41.3-26.2c-10.6-12.9-14.2-31.8-11.1-50.8c0-0.1,0.2-1.3,0.2-1.3
					c7.7-32.6,34.4-51.7,76.5-51.7c31.4,0,48.8,9.4,69.9,28.4l-16.9,16.9c-15.2-13.8-28.1-22.6-54-22.6c-30.6,0-47.5,16.2-50.9,37.9
					c-1.3,12,2,21,8.2,28.6c6.3,7.8,17.4,14,29.7,18.3l25.8,8.8c18.7,6.3,39.3,16.1,50.8,26.5C718.1,281.7,742,300.2,736.4,336.3"/>
			</g>
		</g>
	</g>
</g>
</svg>
