<svg width="81" height="48" viewBox="0 0 81 48" fill="none" xmlns="http://www.w3.org/2000/svg">
<g opacity="0.5" clip-path="url(#clip0_742_7298)">
<path d="M22.7389 17.4326C22.7181 18.2348 22.8176 19.0356 23.0341 19.8086C23.2724 20.4694 23.5594 21.1119 23.8927 21.7307C24.0121 21.9138 24.0772 22.1266 24.0806 22.3447C24.0633 22.5083 24.0083 22.6656 23.9199 22.8045C23.8314 22.9435 23.712 23.0602 23.5707 23.1456L21.8802 24.2669C21.6763 24.4131 21.4337 24.4966 21.1825 24.5071C20.8769 24.4863 20.5899 24.353 20.3775 24.1334C20.0159 23.7468 19.6925 23.3267 19.4115 22.8787C19.1432 22.4248 18.8748 21.9176 18.5797 21.3036C16.4866 23.7596 13.8569 24.9877 10.6906 24.9877C8.43653 24.9877 6.63868 24.347 5.32383 23.0655C4.00898 21.7841 3.33813 20.0755 3.33813 17.9398C3.33813 15.6706 4.14314 13.8286 5.78 12.4404C7.41685 11.0522 9.59038 10.3581 12.3543 10.3581C13.3061 10.3658 14.2564 10.4371 15.1986 10.5716C16.1915 10.7051 17.2112 10.9187 18.2845 11.159V9.21014C18.2845 7.18122 17.8552 5.76631 17.0233 4.93872C16.1915 4.11114 14.7156 3.71069 12.6494 3.71069C11.6729 3.71066 10.7 3.82718 9.75139 4.05774C8.76496 4.29155 7.7965 4.59487 6.85335 4.96542C6.54819 5.10127 6.23447 5.2172 5.91417 5.31247C5.77527 5.35804 5.63088 5.38497 5.48483 5.39256C5.10916 5.39256 4.92132 5.1256 4.92132 4.56497V3.25685C4.89255 2.93392 4.95775 2.60957 5.10916 2.32248C5.31159 2.0792 5.56907 1.88708 5.8605 1.76186C6.93675 1.23204 8.07143 0.828874 9.24155 0.560524C10.6089 0.211489 12.016 0.0409822 13.4276 0.053295C16.6208 0.053295 18.9553 0.774095 20.458 2.2157C21.9607 3.6573 22.6852 5.8464 22.6852 8.78299V17.4326H22.7389ZM11.8444 21.4904C12.7858 21.4802 13.7192 21.3179 14.6083 21.0099C15.5932 20.6712 16.4719 20.0822 17.1575 19.3013C17.59 18.8095 17.9022 18.2247 18.0698 17.5928C18.2542 16.8324 18.3443 16.0524 18.3382 15.2702V14.149C17.5244 13.9519 16.7002 13.8004 15.8695 13.6951C15.0329 13.5894 14.1904 13.5359 13.3471 13.5349C11.5492 13.5349 10.2344 13.882 9.34888 14.6028C8.46337 15.3236 8.03403 16.3381 8.03403 17.6729C8.03403 18.9276 8.35603 19.862 9.02688 20.5027C9.69772 21.1434 10.6101 21.4904 11.8444 21.4904ZM33.3919 24.3736C33.0307 24.4106 32.6683 24.3157 32.3722 24.1067C32.0913 23.818 31.8963 23.4577 31.8087 23.0655L25.5028 2.42927C25.3805 2.08395 25.2995 1.72554 25.2613 1.36141C25.248 1.27305 25.2553 1.18286 25.2826 1.09774C25.3099 1.01263 25.3564 0.934868 25.4186 0.870424C25.4808 0.80598 25.557 0.756571 25.6413 0.725989C25.7257 0.695407 25.816 0.684465 25.9053 0.694005H28.535C29.0448 0.694005 29.3936 0.774094 29.5815 0.960969C29.7693 1.14784 29.9571 1.4949 30.1181 2.00213L34.6262 19.6751L38.8123 2.00213C38.9464 1.4682 39.1074 1.12115 39.3221 0.960969C39.644 0.764907 40.0187 0.671734 40.3955 0.694005H42.5421C43.052 0.694005 43.4008 0.774094 43.6155 0.960969C43.8961 1.24264 44.0754 1.60866 44.1253 2.00213L48.3651 19.8887L53.0073 2.00213C53.0926 1.6147 53.2775 1.25594 53.544 0.960969C53.8558 0.764372 54.2221 0.670927 54.5905 0.694005H57.086C57.177 0.681638 57.2697 0.690379 57.3567 0.719546C57.4438 0.748713 57.5229 0.797517 57.5878 0.86214C57.6528 0.926764 57.7019 1.00546 57.7312 1.09207C57.7605 1.17868 57.7693 1.27086 57.7568 1.36141C57.7505 1.505 57.7326 1.64785 57.7032 1.78856C57.6611 2.01626 57.5983 2.23965 57.5153 2.45596L51.0484 23.0922C50.8874 23.6262 50.6996 23.9732 50.4849 24.1334C50.1816 24.3265 49.8249 24.4199 49.4652 24.4003H47.1575C46.6477 24.4003 46.2989 24.3203 46.0842 24.1334C45.804 23.8407 45.6253 23.4665 45.5744 23.0655L41.4151 5.8464L37.2827 23.0388C37.2199 23.4363 37.0428 23.8071 36.7729 24.1067C36.4562 24.3149 36.0775 24.4091 35.6996 24.3736H33.3919ZM67.8731 25.0945C66.4815 25.0959 65.0945 24.9347 63.7408 24.6139C62.3991 24.2936 61.3526 23.9465 60.6549 23.5461C60.3095 23.384 60.0201 23.1239 59.823 22.7986C59.7186 22.563 59.6638 22.3086 59.662 22.0511V20.6896C59.662 20.1289 59.8767 19.862 60.2792 19.862C60.4435 19.8625 60.6066 19.8895 60.7622 19.9421C60.9232 19.9955 61.1647 20.1022 61.4331 20.209C62.3809 20.6238 63.3703 20.937 64.3848 21.1434C65.4358 21.3556 66.5055 21.463 67.578 21.4638C69.2685 21.4638 70.5833 21.1701 71.4957 20.5828C71.9327 20.3203 72.292 19.9474 72.5371 19.5019C72.7822 19.0564 72.9043 18.5543 72.891 18.0466C72.9004 17.7029 72.8413 17.3608 72.7169 17.0401C72.5925 16.7193 72.4055 16.4262 72.1665 16.1779C71.6835 15.6706 70.7712 15.2168 69.4563 14.7897L65.5654 13.5883C63.6066 12.9743 62.1576 12.0666 61.2721 10.8653C60.4083 9.75735 59.9366 8.39651 59.9304 6.99434C59.9087 5.96069 60.1584 4.93929 60.6549 4.03105C61.134 3.17221 61.7929 2.4257 62.5869 1.84195C63.4233 1.2122 64.3694 0.741565 65.3776 0.45374C66.4763 0.138837 67.6154 -0.0140705 68.7587 -9.89009e-05C69.3597 -0.00444659 69.9603 0.0312286 70.5565 0.106687C71.1737 0.186776 71.7372 0.293561 72.3007 0.400346C72.8642 0.507131 73.3472 0.667309 73.8302 0.827487C74.2218 0.947981 74.5995 1.10904 74.9572 1.30802C75.2732 1.46653 75.5486 1.69482 75.7622 1.97543C75.9368 2.23521 76.0215 2.54445 76.0037 2.85641V4.11114C76.0037 4.67176 75.7891 4.96542 75.3866 4.96542C75.0291 4.92502 74.6828 4.81624 74.3669 4.64506C72.7453 3.93195 70.9876 3.57675 69.2148 3.60391C67.6853 3.60391 66.4778 3.84417 65.6459 4.3514C64.8141 4.85863 64.3848 5.63283 64.3848 6.72738C64.3774 7.08188 64.4452 7.43394 64.584 7.76056C64.7227 8.08718 64.9291 8.381 65.1898 8.62282C65.7264 9.13004 66.7193 9.63728 68.1415 10.0911L71.9519 11.2924C73.8839 11.9065 75.2792 12.7607 76.1111 13.8553C76.9301 14.9292 77.3646 16.2448 77.3454 17.5928C77.3592 18.6651 77.1203 19.7257 76.6478 20.6896C76.1716 21.6033 75.5036 22.4045 74.6889 23.0388C73.803 23.7248 72.7913 24.2325 71.7104 24.5338C70.4675 24.9141 69.1735 25.1032 67.8731 25.0945Z" fill="white"/>
<path d="M72.9447 38.0693C64.1165 44.5565 51.29 48.0003 40.2613 48.0003C24.8051 48.0003 10.8784 42.314 0.359626 32.8635C-0.472218 32.116 0.279126 31.1015 1.27197 31.6888C12.6495 38.2561 26.6835 42.2339 41.2005 42.2339C51.6628 42.1787 62.0118 40.0741 71.6567 36.0403C73.1326 35.3729 74.3938 37.0014 72.9447 38.0693ZM76.621 33.9046C75.494 32.463 69.1612 33.2105 66.29 33.5576C65.4313 33.6644 65.2971 32.9169 66.0753 32.3562C71.1201 28.8323 79.4117 29.8468 80.3777 31.0214C81.3437 32.1961 80.1093 40.4719 75.3866 44.423C74.6621 45.037 73.9644 44.7166 74.2864 43.9158C75.3598 41.2728 77.748 35.3195 76.621 33.9046Z" fill="white"/>
</g>
<defs>
<clipPath id="clip0_742_7298">
<rect width="80.6808" height="48" fill="white"/>
</clipPath>
</defs>
</svg>
