<svg width="144" height="32" viewBox="0 0 144 32" fill="none" xmlns="http://www.w3.org/2000/svg">
<path opacity="0.5" fill-rule="evenodd" clip-rule="evenodd" d="M0 16V32L12.2706 31.9982C25.455 31.9963 25.2727 32.0042 26.6029 31.3828C27.8747 30.7887 29.0005 29.6592 29.5528 28.4233C30.1554 27.075 30.1452 27.3346 30.1471 13.2135L30.1489 0H15.0745H0V16ZM43.2552 0.0782622C43.2101 0.123086 43.1732 3.03616 43.1732 6.55185V12.9438H47.0926H51.012V12.4045V11.8652H47.7559H44.4998V9.35035V6.83566L47.4845 6.80354L50.4693 6.77154V6.29213V5.81273L47.4819 5.78061L44.4946 5.74861L44.5273 3.44354L44.5601 1.13858L47.575 1.11149C49.2332 1.09663 50.6879 1.08321 50.8078 1.08153C50.9894 1.07913 51.0197 0.993438 50.9887 0.569288L50.9517 0.0599251L47.1445 0.0282847C45.0505 0.0109064 43.3005 0.0334382 43.2552 0.0782622ZM54.0268 6.65169V12.9438H54.6298H55.2328V6.65169V0.359551H54.6298H54.0268V6.65169ZM106.098 2.54682L106.064 3.77528L105.25 3.81076L104.436 3.84611V4.25468V4.66325L105.25 4.69861L106.064 4.73408L106.124 8.26966C106.188 12.04 106.213 12.1928 106.834 12.7515C107.177 13.0603 108.164 13.298 108.768 13.2174C109.361 13.1385 109.415 13.0717 109.315 12.5411C109.238 12.1348 109.238 12.1344 108.576 12.1496C107.99 12.163 107.879 12.1258 107.622 11.8285L107.33 11.4922V8.08318V4.67416H108.476H109.621V4.25468V3.83521H108.476H107.33V2.57678V1.31835H106.731H106.133L106.098 2.54682ZM61.2592 3.63853C58.3442 4.26259 56.7963 7.87104 58.2115 10.7434C58.5697 11.4703 59.5269 12.4331 60.262 12.8058C61.7356 13.5529 63.9467 13.2859 65.1784 12.212C65.5949 11.849 66.5306 10.5677 66.4282 10.5006C66.0265 10.2377 65.7121 10.0674 65.6286 10.0674C65.5711 10.0674 65.3511 10.3326 65.1397 10.6568C63.9189 12.5293 61.0833 12.7075 59.7685 10.9943C59.3449 10.4424 59.0002 9.62133 58.9516 9.04869L58.911 8.56929L62.8175 8.53765L66.7241 8.50601L66.656 7.69858C66.5617 6.58133 66.1779 5.64027 65.5201 4.91302C64.8729 4.19763 64.1256 3.78822 63.1349 3.60617C62.2864 3.45037 62.125 3.45312 61.2592 3.63853ZM72.444 3.60521C71.7867 3.7609 71.3423 4.01474 70.8556 4.51296L70.4278 4.95065V4.39287V3.83521H69.8249H69.2219V8.38951V12.9438H69.8175H70.4133L70.4506 9.79775L70.4882 6.65169L70.8139 6.03805C71.7328 4.30682 73.7233 4.03835 74.415 5.55242C74.6219 6.00545 74.6436 6.37579 74.646 9.49813L74.6487 12.9438H75.2426H75.8367L75.8764 9.85768C75.9142 6.90553 75.9285 6.74397 76.2039 6.13705C76.5741 5.32147 77.2823 4.70975 77.9761 4.60632C78.7289 4.49414 79.4597 4.75649 79.8005 5.26118C80.0718 5.6628 80.0755 5.71853 80.0755 9.30613V12.9438H80.6785H81.2815L81.2788 9.1985C81.2764 5.82412 81.2542 5.40524 81.0547 4.96887C80.2502 3.20875 77.4629 3.04947 76.0558 4.68315L75.6477 5.15691L75.3319 4.68243C74.7555 3.81699 73.5105 3.35257 72.444 3.60521ZM87.3995 3.59587C86.0642 3.82861 84.7599 4.8495 84.1081 6.17228C83.7733 6.85148 83.7537 6.97468 83.7537 8.39203C83.7537 9.84509 83.7662 9.91796 84.1485 10.6898C84.6467 11.6955 85.596 12.5857 86.5579 12.949C87.503 13.3059 88.914 13.3058 89.8681 12.9486C90.6731 12.6473 91.6459 11.8242 92.0929 11.0664C92.396 10.5521 92.3989 10.5296 92.1802 10.3644C91.7962 10.0742 91.5058 10.024 91.391 10.2279C90.6782 11.4938 89.5851 12.159 88.2216 12.1566C87.1313 12.1548 86.3718 11.7994 85.7256 10.9885C85.2611 10.4055 84.8993 9.46793 84.8993 8.8471V8.50936H88.7584H92.6174V7.84635C92.6174 7.04479 92.2471 5.89783 91.7618 5.19682C91.3654 4.62442 90.5695 4.02972 89.8724 3.78535C89.2423 3.56446 88.0879 3.47601 87.3995 3.59587ZM98.8071 3.59742C98.105 3.74016 97.6183 4.01282 96.94 4.64348L96.3559 5.1864V4.5108V3.83521H95.7529H95.15V8.38951V12.9438H95.7438H96.3376L96.3769 9.9176C96.4162 6.89282 96.4163 6.89115 96.743 6.2756C97.7524 4.37381 100.071 3.99964 101.229 5.55158C101.469 5.87398 101.483 6.05495 101.517 9.41675L101.552 12.9438H102.15H102.747V9.4521C102.747 7.14882 102.7 5.80243 102.607 5.49609C102.202 4.14981 100.434 3.26652 98.8071 3.59742ZM25.6869 6.89139V9.22846H17.4864H9.28586V18.397V27.5655H6.93425H4.58263V16.0599V4.55431H15.1348H25.6869V6.89139ZM63.2246 4.7197C64.2722 5.03311 64.9932 5.75173 65.262 6.7502C65.394 7.24063 65.3906 7.33999 65.2389 7.43539C65.1412 7.49675 63.6911 7.54769 62.0163 7.54876L58.9713 7.55056V7.28881C58.9713 6.46172 60.129 5.1375 61.1619 4.78298C61.9382 4.51655 62.4887 4.49966 63.2246 4.7197ZM89.2261 4.74079C89.9806 4.9636 90.757 5.61822 91.0659 6.29213C91.3751 6.96689 91.3588 7.38469 91.0196 7.47506C90.8704 7.51473 89.4576 7.54805 87.8803 7.54888C85.4313 7.55032 85.0021 7.52407 84.9424 7.36935C84.8243 7.06349 85.4847 5.90837 86.0709 5.39554C86.9685 4.6104 88.0345 4.38915 89.2261 4.74079ZM24.9398 14.0526C26.3142 14.9568 26.3142 17.0432 24.9398 17.9474L24.4386 18.2772L19.0932 18.3107L13.7479 18.3443V16V13.6557L19.0932 13.6893L24.4386 13.7228L24.9398 14.0526ZM43.2537 18.8964C43.2094 18.9403 43.1732 21.8526 43.1732 25.3683V31.7603H45.9362C49.0275 31.7603 49.6384 31.6544 50.6886 30.9362C51.9848 30.0499 52.5234 28.5466 52.0761 27.063C51.8823 26.4201 51.1084 25.5807 50.3639 25.2057C49.7992 24.9214 49.7669 24.8833 49.9871 24.762C50.524 24.4661 51.4427 23.4186 51.5873 22.9374C52.1692 21.0009 51.0146 19.3569 48.7852 18.9472C48.0196 18.8067 43.3868 18.764 43.2537 18.8964ZM55.0706 19.6349C54.8056 19.9258 54.8167 20.5283 55.0916 20.7754C55.5924 21.2259 56.3182 20.87 56.3182 20.1739C56.3182 19.5066 55.5067 19.156 55.0706 19.6349ZM90.0433 19.6349C89.7908 19.9121 89.7854 20.5391 90.0332 20.7855C90.4805 21.2299 91.2909 20.8494 91.2909 20.1948C91.2909 19.5238 90.477 19.1587 90.0433 19.6349ZM49.1713 20.1892C51.0356 20.9557 50.9184 23.613 48.9951 24.1856C48.703 24.2727 47.7179 24.3296 46.5058 24.3296H44.4998V22.0973V19.8649L46.5801 19.9221C48.1881 19.9662 48.7764 20.0268 49.1713 20.1892ZM62.2599 22.4185C61.41 22.5852 60.6937 22.9657 59.9971 23.6203C57.5684 25.9031 58.2402 30.223 61.2415 31.6213C61.8525 31.9059 62.068 31.9401 63.2524 31.9401C64.4533 31.9401 64.6487 31.9081 65.3152 31.602C66.2464 31.1742 67.1753 30.2472 67.6182 29.3034C67.9262 28.647 67.9556 28.4642 67.9556 27.206C67.9556 25.9063 67.9338 25.7819 67.5729 25.0246C66.6222 23.0304 64.4849 21.9821 62.2599 22.4185ZM72.444 22.4157C71.5271 22.6449 70.7977 23.1412 70.4767 23.7543C70.2561 24.1756 70.2593 25.3278 70.482 25.7559C70.7127 26.1995 71.4136 26.8019 71.9654 27.031C72.2092 27.1322 72.8821 27.3177 73.4608 27.4433C74.6739 27.7064 75.1294 27.9126 75.4823 28.3584C75.7982 28.7577 75.818 29.6028 75.523 30.1053C74.8863 31.1898 72.5441 31.269 71.6056 30.2376C71.4905 30.1113 71.2439 29.7306 71.0575 29.3918L70.7185 28.7758L70.2085 29.0781L69.6985 29.3803L70.0255 29.9774C70.4033 30.6671 71.0394 31.2763 71.7791 31.6567C72.4148 31.9836 74.1224 32.1086 74.8455 31.8812C76.1196 31.4806 76.9383 30.4244 76.9369 29.1835C76.9352 27.7224 76.1069 26.9905 73.8321 26.4398C72.2898 26.0665 71.6274 25.6728 71.4668 25.0341C71.2263 24.0784 72.0002 23.4307 73.3824 23.4307C74.4817 23.4307 75.05 23.7134 75.599 24.5332L76.0067 25.1421L76.413 24.9038C76.9108 24.6118 76.9218 24.3862 76.4684 23.764C75.8165 22.8699 74.9878 22.4458 73.7217 22.3584C73.2698 22.3271 72.6948 22.353 72.444 22.4157ZM82.4934 22.4157C81.1915 22.6869 79.823 23.7646 79.2546 24.9664C78.6147 26.3192 78.6379 28.184 79.3115 29.5512C79.6991 30.338 80.6944 31.3067 81.4876 31.6691C81.9697 31.8893 82.2849 31.9336 83.3919 31.9365C84.9396 31.9407 85.4819 31.7557 86.4063 30.909C86.9086 30.4489 87.6513 29.4044 87.5369 29.3191C87.1616 29.0392 86.6872 28.7475 86.662 28.7809C86.6441 28.8046 86.5082 29.0246 86.3597 29.2699C85.9718 29.9111 85.0661 30.6601 84.4932 30.8134C83.8266 30.9917 82.5283 30.8986 81.9757 30.6326C81.2754 30.2956 80.5985 29.5446 80.3108 28.7853C80.0955 28.2175 80.0609 27.9165 80.1015 26.9663C80.1532 25.756 80.3389 25.2285 80.9797 24.4716C81.7152 23.6028 83.2833 23.2255 84.5912 23.6026C85.1844 23.7736 86.0645 24.4973 86.4786 25.1544C86.6533 25.4316 86.6697 25.4342 87.0375 25.2451C87.246 25.1381 87.4502 24.9963 87.4913 24.9302C87.5324 24.8641 87.3665 24.5113 87.1226 24.1462C86.3983 23.0617 85.2873 22.456 83.8436 22.3588C83.3962 22.3286 82.7885 22.3542 82.4934 22.4157ZM97.1223 22.4095C95.9727 22.6523 94.7538 23.5519 94.1215 24.6241C93.404 25.8409 93.2866 27.7279 93.8373 29.1951C94.2098 30.1877 95.4089 31.3767 96.4162 31.7525C97.0298 31.9814 97.3139 32.0151 98.2854 31.9739C99.2406 31.9335 99.5386 31.8703 100.077 31.5947C100.808 31.2206 101.608 30.4563 101.965 29.7926L102.205 29.3451L101.92 29.1145C101.52 28.7905 101.357 28.8244 101.066 29.2917C99.7228 31.4522 96.7497 31.5729 95.3645 29.5233C95.0724 29.091 94.6676 27.9045 94.6676 27.4804C94.6676 27.3574 95.4671 27.3258 98.5869 27.3258H102.506L102.504 26.9363C102.5 26.2426 102.159 24.9147 101.85 24.3898C101.429 23.6775 100.487 22.8714 99.7809 22.6198C99.0635 22.3644 97.8062 22.2649 97.1223 22.4095ZM108.589 22.3975C107.965 22.5578 106.949 23.168 106.619 23.581L106.305 23.9734L106.245 23.2826L106.184 22.5918L105.612 22.5552L105.039 22.5187V27.1395V31.7603H105.634H106.23L106.268 28.6742C106.31 25.205 106.333 25.1036 107.29 24.1856C108.101 23.4077 109.024 23.191 110.021 23.5445C110.622 23.7574 110.932 24.0417 111.204 24.6292C111.401 25.0573 111.425 25.4645 111.428 28.4345L111.43 31.7603H112.033H112.636V28.3636C112.636 24.6837 112.572 24.2011 111.984 23.4347C111.382 22.6494 109.658 22.1229 108.589 22.3975ZM118.699 22.4185C117.873 22.5804 117.147 22.9562 116.503 23.5548C115.358 24.6199 114.847 25.948 114.961 27.5655C115.051 28.8322 115.416 29.7059 116.213 30.5613C117.137 31.5534 117.916 31.9135 119.28 31.9783C120.608 32.0413 121.489 31.7898 122.329 31.1066C122.86 30.6754 123.731 29.5974 123.731 29.3723C123.731 29.3257 123.525 29.1724 123.273 29.0317L122.815 28.7758L122.584 29.2008C122.262 29.7958 121.314 30.6095 120.745 30.7788C120.481 30.8572 119.967 30.9213 119.602 30.9213C117.823 30.9213 116.563 29.7885 116.263 27.9172C115.864 25.4383 117.344 23.4622 119.607 23.4525C120.91 23.4469 121.893 23.9986 122.655 25.1621L122.846 25.4529L123.287 25.1823L123.727 24.9117L123.488 24.445C122.692 22.8951 120.658 22.0342 118.699 22.4185ZM128.856 22.4606C128.017 22.6667 127.524 22.9469 126.798 23.6288C124.812 25.4953 124.877 29.0383 126.93 30.9035C127.798 31.6919 128.625 32 129.872 32C131.029 32 131.832 31.7579 132.609 31.1738C133.108 30.7987 134.102 29.5972 134.102 29.3687C134.102 29.2775 133.443 28.8839 133.29 28.8839C133.229 28.8839 133.008 29.1451 132.8 29.4643C132.133 30.4869 131.247 30.9476 129.931 30.9559C128.883 30.9625 128.149 30.6492 127.531 29.9315C127.079 29.4061 126.675 28.477 126.607 27.8026L126.565 27.3858L130.454 27.3541L134.344 27.3225V26.8506C134.344 23.8006 131.773 21.7442 128.856 22.4606ZM138.718 22.4116C138.003 22.5614 137.231 23.0462 136.876 23.5684C136.634 23.9243 136.575 24.1608 136.575 24.76C136.575 25.399 136.628 25.5826 136.941 26.0256C137.404 26.6799 138.3 27.1461 139.589 27.4039C141.343 27.7543 142.061 28.2888 142.061 29.2434C142.061 29.7227 141.72 30.345 141.314 30.6085C140.817 30.9307 139.919 31.064 139.218 30.9194C138.436 30.7581 137.626 30.0929 137.297 29.343C137.172 29.0576 137.058 28.8062 137.044 28.7844C136.988 28.7006 136.034 29.3101 136.033 29.4297C136.031 29.6924 136.736 30.6445 137.295 31.1332C137.985 31.7369 138.772 32.0002 139.883 31.9993C141.255 31.9982 142.018 31.6541 142.743 30.7107C143.454 29.7836 143.432 28.4784 142.69 27.6627C142.135 27.0523 141.591 26.783 140.315 26.4874C138.372 26.0372 137.72 25.6004 137.72 24.7491C137.72 24.3636 137.793 24.1872 138.052 23.9488C139.184 22.9055 141.231 23.3116 142.001 24.7319L142.227 25.1501L142.686 24.8896C142.939 24.7464 143.146 24.5699 143.146 24.4974C143.147 24.3298 142.546 23.5126 142.167 23.1669C141.463 22.525 139.857 22.1732 138.718 22.4116ZM55.072 22.6118C55.0278 22.6556 54.9916 24.732 54.9916 27.226V31.7603H55.5946H56.1976V27.1461V22.5318H55.675C55.3875 22.5318 55.1162 22.5678 55.072 22.6118ZM89.9643 27.1395V31.7603H90.5688H91.1732L91.1416 27.176L91.11 22.5918L90.5372 22.5552L89.9643 22.5187V27.1395ZM24.7199 23.13C26.4371 24.0006 26.4009 26.4155 24.6578 27.2705L24.051 27.5682L18.9295 27.5369L13.8082 27.5056L13.7754 25.1985L13.7427 22.8914H18.996C24.0032 22.8914 24.2713 22.9025 24.7199 23.13ZM64.3585 23.55C66.7474 24.255 67.6099 27.7235 65.9093 29.7861C64.6717 31.287 62.2394 31.3942 60.8588 30.0088C60.2478 29.3955 59.9728 28.8388 59.8222 27.9096C59.5663 26.331 60.1625 24.7612 61.3073 23.9999C62.2778 23.3545 63.2236 23.215 64.3585 23.55ZM99.0775 23.5471C100.141 23.8624 100.918 24.7201 101.123 25.8034L101.207 26.2472H97.9538H94.701L94.7583 25.9495C94.8715 25.3607 95.5658 24.3947 96.1595 23.9999C97.1253 23.3576 97.9872 23.2238 99.0775 23.5471ZM130.952 23.5573C131.625 23.756 132.433 24.3868 132.72 24.9372C132.813 25.1165 132.925 25.4846 132.969 25.7552L133.048 26.2472H129.837C127.189 26.2472 126.625 26.2182 126.625 26.082C126.625 25.7269 127.02 25.0073 127.499 24.4921C128.471 23.4433 129.564 23.1476 130.952 23.5573ZM49.1795 25.7063C51.1885 26.3171 51.6389 28.9091 49.9344 30.0506C49.1867 30.5514 48.4586 30.6816 46.4074 30.6816H44.4998V28.1249C44.4998 26.7186 44.5404 25.5256 44.5902 25.4737C44.7511 25.3058 48.4844 25.495 49.1795 25.7063Z" fill="white"/>
</svg>
