<svg width="179" height="32" viewBox="0 0 179 32" fill="none" xmlns="http://www.w3.org/2000/svg">
<path opacity="0.5" fill-rule="evenodd" clip-rule="evenodd" d="M14.8294 0.661712C14.4982 1.19848 14.4187 1.41211 14.536 1.45123C15.0349 1.61751 18.134 3.37262 18.3539 3.61357C18.3867 3.64947 18.7268 3.9169 19.1095 4.20783C20.183 5.02372 21.6095 6.62459 22.3422 7.83565C22.7071 8.43886 23.0056 9.00199 23.0056 9.08704C23.0056 9.30413 22.8203 9.09634 22.2298 8.21735C21.5448 7.19785 19.7534 5.42044 18.7118 4.72682C15.7695 2.76762 13.4012 2.10907 8.60326 1.91596L7.73852 1.88125V2.66158V3.44204L9.97491 3.44574C11.7622 3.4486 12.4867 3.50156 13.583 3.70947C15.6534 4.10191 17.7725 4.95024 18.7187 5.76552C19.1093 6.10214 19.074 6.09391 17.9876 5.59376C16.3098 4.82117 14.9711 4.4681 13.1477 4.31721C10.556 4.10286 8.41755 4.42457 6.06868 5.38228C5.37486 5.66521 2.25428 7.16076 2.15087 7.26C2.12809 7.28183 2.29364 7.62644 2.51872 8.02591L2.92783 8.75209L3.81248 8.16953C4.99628 7.38978 6.74926 6.47859 7.91743 6.03546C9.75449 5.33874 12.2938 4.91898 13.5405 5.1059C14.339 5.22566 14.001 5.35925 12.6537 5.45647C10.6766 5.59901 8.10016 6.46177 6.48614 7.52147C6.22373 7.69383 5.79637 7.97307 5.53636 8.14209C4.09111 9.08191 2.16042 11.3602 0.309398 14.3104L0 14.8037L0.73628 15.2408C1.22626 15.5316 1.4889 15.6293 1.52111 15.5325C1.66316 15.1063 2.74713 13.1886 3.43355 12.1491C4.75916 10.1417 7.17304 7.92428 8.75032 7.26525C9.343 7.0175 9.41349 7.10064 8.88689 7.42616C6.95405 8.62076 5.31343 10.3713 4.01525 12.6243C2.65135 14.9912 2.33599 16.3433 1.94918 21.481L1.88418 22.3458H2.69417H3.50428L3.50476 20.0496C3.50511 18.294 3.55855 17.4726 3.73174 16.5606C4.11127 14.5617 4.9772 12.3837 5.77097 11.4315L6.06927 11.0737L5.94272 11.4276C5.87319 11.6222 5.77526 11.837 5.72505 11.9047C5.5416 12.1524 4.85077 14.0561 4.62737 14.9298C4.32548 16.1101 4.20072 18.8384 4.3856 20.2174C4.63989 22.1144 5.25737 23.8501 6.69177 26.6995C7.02204 27.3556 7.3046 27.9073 7.31987 27.9255C7.37437 27.9906 8.69271 27.1841 8.69271 27.0856C8.69271 27.0304 8.40657 26.5452 8.05698 26.0075C6.8269 24.1155 5.93473 22.1107 5.47195 20.1987C5.18593 19.0173 5.00284 16.2624 5.21026 16.2624C5.35339 16.2624 5.3918 16.458 5.58419 18.1709C5.6542 18.7942 5.84277 19.7246 6.0032 20.2384C6.32965 21.2844 7.2551 23.1878 7.94164 24.2254C8.51511 25.0923 9.81914 26.4717 10.9036 27.3586C12.1331 28.3641 14.6348 30.0135 14.8217 29.9418C14.9701 29.8849 15.6106 28.859 15.6106 28.6783C15.6106 28.635 15.2576 28.4255 14.8262 28.2127C11.4638 26.5546 8.96573 24.3609 7.56808 21.8392C6.97111 20.7621 7.07452 20.5878 7.7242 21.5759C8.00987 22.0105 8.72015 22.8645 9.30268 23.4738C11.9627 26.2565 15.3648 27.7373 19.7256 28.0104C20.316 28.0474 21.1613 28.1063 21.6042 28.1413L22.4093 28.205V27.3824V26.5599L20.2325 26.5591C17.7176 26.5582 16.0654 26.3417 14.4778 25.805C13.4174 25.4466 11.8975 24.6888 11.3315 24.2363L11.0186 23.9861L11.3167 24.0758C11.4807 24.1252 11.8115 24.2648 12.0517 24.386C13.7664 25.2509 15.5678 25.6824 17.8244 25.7689C19.391 25.8289 19.787 25.8036 20.9216 25.5712C21.6371 25.4247 22.723 25.1236 23.3347 24.9022C24.4177 24.5101 27.2058 23.2281 27.7493 22.8722L28.02 22.6949L27.7005 22.1326C27.1774 21.2125 27.2316 21.2178 26.0967 21.9711C24.2101 23.2232 21.6656 24.3308 19.913 24.6628C18.6508 24.9018 17.0913 24.9969 16.3859 24.8776L15.7895 24.7767L16.6245 24.6883C19.4734 24.3867 21.384 23.8046 23.396 22.6249C25.5948 21.3357 27.0805 19.8038 29.1929 16.6478C29.5998 16.0396 29.9609 15.4688 29.9952 15.3794C30.0349 15.2759 29.8069 15.0597 29.3696 14.7862L28.6815 14.3557L28.2765 15.16C26.8161 18.0601 25.2276 20.0962 23.2927 21.5484C22.3193 22.279 21.0174 23.0214 20.9057 22.9096C20.8738 22.8778 21.413 22.4399 22.1036 21.9365C24.9592 19.8554 26.9269 16.7711 27.6541 13.2366C27.9295 11.8975 28.1342 9.92153 28.1343 8.59858L28.1344 7.67415H27.3761H26.6177L26.6272 9.79139C26.6418 13.0741 26.2306 15.1054 25.0962 17.3549C24.5687 18.4008 24.0783 19.1641 23.9901 19.0759C23.9646 19.0505 24.075 18.7693 24.2356 18.4511C26.1837 14.5885 26.3756 10.2824 24.7789 6.26245C24.4788 5.50692 22.9403 2.23038 22.8173 2.08498C22.7896 2.0523 21.5598 2.6982 21.3562 2.85231C21.3346 2.86866 21.5554 3.24904 21.8469 3.69754C23.306 5.94337 24.183 7.85438 24.6026 9.70193C24.875 10.9014 25.0576 12.7387 24.9654 13.3536C24.8519 14.1107 24.7247 13.8107 24.6312 12.5647C24.4163 9.7042 22.878 6.26949 20.8737 4.17515C19.8321 3.0867 17.1578 1.04317 15.4173 0.00554434C15.3374 -0.0421682 15.1011 0.221564 14.8294 0.661712ZM35.4698 0.324384C33.8802 1.07586 33.25 2.95454 34.0324 4.60861C34.5627 5.72974 35.4927 6.26675 36.9195 6.27593C38.9387 6.28905 40.2182 4.85875 40.0313 2.7978C39.8775 1.09959 38.6809 0.0470568 36.9011 0.0439555C36.2688 0.0427627 35.9214 0.11087 35.4698 0.324384ZM46.7775 0.273451C46.4364 0.481477 46.3925 0.572371 46.36 1.13788L46.3238 1.76972L45.8168 1.80634C45.4822 1.83067 45.3099 1.89914 45.3099 2.00828C45.3099 2.11742 45.4822 2.18589 45.8168 2.21022L46.3238 2.24684L46.3566 4.18517C46.3835 5.78413 46.4197 6.12349 46.5623 6.12349C46.705 6.12349 46.7411 5.78413 46.7681 4.18517L46.8009 2.24684L47.4348 2.21046C48.2623 2.16311 48.2063 1.90248 47.358 1.85298L46.7412 1.81683V1.3545C46.7412 0.743064 46.9848 0.517263 47.6442 0.517263C48.0145 0.517263 48.1725 0.467881 48.1725 0.352297C48.1725 -0.0035195 47.3115 -0.0520683 46.7775 0.273451ZM60.8156 1.29259C60.8156 2.32223 60.7222 2.63797 60.5163 2.30481C60.4752 2.23825 60.2327 2.07722 59.9773 1.94697C59.0231 1.46006 57.6945 1.76006 57.0476 2.60839C56.7667 2.97673 56.6985 3.19919 56.6605 3.8705C56.6205 4.57891 56.6545 4.7539 56.921 5.2086C57.0896 5.49643 57.3605 5.81885 57.5229 5.92525C58.262 6.40965 59.6283 6.39068 60.3367 5.88624C60.7567 5.58708 60.8156 5.58696 60.8156 5.88493C60.8156 6.04393 60.8951 6.12349 61.0541 6.12349C61.2864 6.12349 61.2927 6.04393 61.2927 3.14145C61.2927 0.238979 61.2864 0.159418 61.0541 0.159418C60.8323 0.159418 60.8156 0.238979 60.8156 1.29259ZM38.392 0.852086C40.1766 1.94447 39.9742 4.82463 38.0541 5.66008C36.69 6.25362 35.1058 5.71304 34.445 4.4285C34.1072 3.77174 34.1314 2.50688 34.495 1.81827C34.8013 1.23796 35.5191 0.667676 36.1405 0.51106C36.817 0.340487 37.7992 0.489232 38.392 0.852086ZM49.3896 1.96391C48.5847 2.36231 48.2469 2.8986 48.1923 3.86442C48.1392 4.80519 48.3989 5.41126 49.0436 5.85081C49.7678 6.34464 51.0944 6.42336 51.8434 6.01697C52.991 5.39444 53.3258 3.64268 52.5032 2.56425C51.8701 1.73417 50.4189 1.45434 49.3896 1.96391ZM55.2693 1.84594C55.1381 1.92001 54.8831 2.11766 54.7028 2.28513L54.3748 2.58966V2.2008C54.3748 1.89461 54.3304 1.82041 54.166 1.85202C53.9781 1.88804 53.9541 2.10275 53.9248 4.00779C53.8931 6.06278 53.8991 6.12349 54.1335 6.12349C54.3611 6.12349 54.3748 6.04894 54.3748 4.80758C54.3748 2.87486 54.6701 2.34633 55.829 2.20486C56.2779 2.14999 56.4621 2.07556 56.4621 1.94864C56.4621 1.72368 55.615 1.65068 55.2693 1.84594ZM40.539 1.91619C40.539 1.96391 40.9526 2.41909 41.4581 2.9277L42.3773 3.85237L42.0271 4.24242C41.8344 4.45689 41.3553 4.96801 40.9623 5.37798C40.2891 6.08031 40.2658 6.12349 40.5604 6.12349C40.7959 6.12349 41.0797 5.90234 41.7087 5.22888C42.1681 4.73684 42.5811 4.33427 42.6263 4.33427C42.6715 4.33427 43.0844 4.73684 43.5438 5.22888C44.1471 5.87491 44.4611 6.12349 44.6737 6.12349C44.9368 6.12349 44.8692 6.01554 44.0357 5.10554C43.523 4.54564 43.0846 4.0332 43.0617 3.96664C43.0388 3.9002 43.4011 3.42367 43.8668 2.9079C44.3325 2.39213 44.7136 1.93838 44.7136 1.89973C44.7136 1.86097 44.6098 1.82936 44.4829 1.82936C44.3488 1.82936 43.9371 2.17826 43.4989 2.66313C43.0845 3.12177 42.7119 3.49751 42.6709 3.4981C42.6297 3.49882 42.2301 3.12356 41.783 2.66433C41.0825 1.94506 40.539 1.61823 40.539 1.91619ZM51.7125 2.44282C52.2398 2.76333 52.6341 3.61118 52.5494 4.24266C52.4195 5.21051 51.6166 5.88493 50.594 5.88493C49.5625 5.88493 48.901 5.4078 48.6569 4.48778C48.3733 3.41878 48.9497 2.4402 50.0188 2.17623C50.5199 2.05241 51.2624 2.16931 51.7125 2.44282ZM60.0268 2.40751C60.5736 2.72063 60.8379 3.3199 60.7853 4.12708C60.7069 5.32896 59.9951 5.93335 58.752 5.85356C58.1433 5.81455 58.0079 5.75694 57.6249 5.37381C57.232 4.98089 57.1848 4.86435 57.1411 4.17789C57.0706 3.07108 57.3659 2.56747 58.2799 2.23563C58.799 2.04717 59.5217 2.11826 60.0268 2.40751ZM17.3997 6.50185C19.0355 6.95142 20.4724 7.85068 21.6627 9.1697C24.6175 12.4436 24.6175 17.5763 21.6627 20.8502C18.8951 23.9171 14.5589 24.7017 10.9166 22.7947C9.55495 22.0819 7.97981 20.5107 7.29756 19.1848C6.47946 17.595 6.24974 16.6729 6.25737 15.01C6.265 13.3436 6.50343 12.3852 7.29601 10.8351C7.98041 9.49653 9.56377 7.91378 10.8993 7.23328C13.0576 6.13363 15.1878 5.89387 17.3997 6.50185ZM95.7135 7.79868C92.7187 8.2671 90.7122 9.51896 89.7523 11.518C89.1669 12.7368 89.0479 13.35 89.0404 15.1889C89.0329 16.9848 89.2639 18.029 89.9268 19.1953C91.4109 21.8066 94.9211 23.0057 99.8914 22.5994C102.494 22.3866 104.298 21.6873 105.597 20.3878C106.492 19.4931 107.027 18.4617 107.278 17.1477C107.643 15.2428 107.401 12.8084 106.712 11.4427C106.25 10.5271 105.004 9.28254 104.047 8.78025C103.65 8.57198 102.791 8.25863 102.139 8.08388C101.089 7.80297 100.688 7.76158 98.6852 7.72723C97.4388 7.70588 96.1015 7.73808 95.7135 7.79868ZM132.801 7.79975C131.604 7.98631 129.848 8.59309 129.096 9.07964C127.13 10.3509 126.178 12.3271 126.178 15.1326C126.178 17.4553 126.756 19.0955 128.027 20.3782C129.065 21.4268 130.607 22.1593 132.433 22.4715C133.459 22.6469 136.441 22.7078 137.569 22.5763C138.673 22.4476 140.394 21.9824 141.121 21.6161C141.558 21.396 142.44 20.755 142.821 20.3801C144.772 18.4637 145.246 14.177 143.821 11.3522C143.283 10.2865 142.255 9.31534 141.071 8.75329C139.361 7.94205 138.5 7.77339 135.839 7.72806C134.56 7.70635 133.193 7.73856 132.801 7.79975ZM34.0981 15.1889V22.2265H36.3644H38.6306V17.8131C38.6306 15.3857 38.6765 13.3997 38.7327 13.3997C38.7888 13.3997 39.0461 13.6815 39.3043 14.0259C40.9692 16.2458 44.3882 20.7469 44.9235 21.4236L45.5623 22.2311L48.1496 22.1989L50.7369 22.1668L50.7677 15.1591L50.7985 8.15127H48.5313H46.2641V12.4384C46.2641 14.7963 46.2181 16.754 46.1617 16.7888C46.0616 16.8506 45.4465 16.0453 41.5498 10.7515L39.6444 8.16296L36.8713 8.15712L34.0981 8.15127V15.1889ZM57.5252 8.83714C57.3572 9.21443 56.6399 10.8649 55.9313 12.505C55.2227 14.1452 54.3469 16.158 53.985 16.9781C53.0556 19.0844 51.7507 22.1216 51.7507 22.1785C51.7507 22.2049 52.8708 22.2265 54.2398 22.2265H56.7288L57.1448 21.1231L57.5607 20.0198H60.7088H63.8571L64.2644 21.1231L64.6718 22.2265H67.1568C68.5236 22.2265 69.6419 22.1894 69.6419 22.1442C69.6419 22.0703 67.665 17.3902 67.1324 16.2028C66.7581 15.3686 65.7395 13.0104 65.4062 12.2068C65.2295 11.7804 64.9892 11.2168 64.8726 10.9544C64.7559 10.692 64.49 10.0747 64.2816 9.58265C63.5947 7.96078 64.0669 8.15127 60.7342 8.15127H57.8308L57.5252 8.83714ZM70.6249 15.1591L70.6557 22.1668H72.9219H75.1881L75.2478 17.755L75.3074 13.3431L76.4434 14.8326C77.5845 16.3286 78.7455 17.8603 80.8601 20.6588L81.9995 22.1668H84.6173H87.2349L87.2656 15.1591L87.2964 8.15127H85.0292H82.7621V12.4384C82.7621 14.8167 82.7147 16.7547 82.6558 16.7911C82.5975 16.8272 82.4541 16.7096 82.3373 16.5297C82.2207 16.35 81.5271 15.3976 80.7961 14.4135C80.065 13.4295 78.7202 11.6179 77.8075 10.3878L76.1479 8.15127H73.3711H70.5942L70.6249 15.1591ZM109.241 15.1839V22.2265H111.564H113.888L113.92 19.8707L113.952 17.5149L117.829 17.4552L121.705 17.3956L122.502 17.0058C123.458 16.538 124.152 15.7989 124.528 14.8486C124.892 13.9253 124.919 11.7563 124.578 10.7767C124.268 9.88384 123.275 8.89106 122.301 8.49874L121.586 8.21091L115.413 8.17608L109.241 8.14125V15.1839ZM146.455 15.1841V22.2265H148.778H151.101L151.134 19.8707L151.166 17.5149H153.671C155.914 17.5149 156.214 17.5384 156.547 17.7398C157.193 18.131 157.335 18.5261 157.438 20.2172C157.489 21.0591 157.565 21.8555 157.606 21.9872C157.679 22.2169 157.785 22.2265 160.235 22.2265H162.787L162.557 21.6916C162.429 21.3926 162.27 20.5904 162.196 19.8726C161.867 16.6696 161.711 16.1658 160.871 15.6101L160.387 15.2895L160.871 15.0502C162.028 14.4776 162.632 13.2501 162.531 11.6795C162.43 10.1294 161.793 9.15312 160.486 8.5492L159.754 8.21091L153.104 8.17632L146.455 8.14185V15.1841ZM164.346 15.1889V22.2265H171.443H178.539V20.7369V19.2472L173.858 19.2161L169.176 19.1848L169.142 17.904L169.109 16.6231L173.556 16.5919L178.003 16.5606L178.022 15.1591L178.042 13.7575H173.579H169.117V12.4454V11.1333H173.828H178.539V9.64229V8.15127H171.443H164.346V15.1889ZM100.066 11.1168C101.433 11.6445 102.207 12.6968 102.441 14.3446C102.756 16.5669 101.884 18.4804 100.236 19.181C99.0397 19.6895 97.1349 19.6399 96.0122 19.071C95.2262 18.6726 94.4957 17.8143 94.24 16.9885C93.9628 16.0937 93.9665 14.2914 94.2472 13.3727C94.5651 12.3326 95.4506 11.4383 96.5382 11.059C97.5906 10.692 99.0267 10.7155 100.066 11.1168ZM137.297 11.1362C138.039 11.4258 138.826 12.1238 139.178 12.8062C139.767 13.9478 139.798 16.0855 139.244 17.2996C138.662 18.5735 137.724 19.2545 136.236 19.4847C135.317 19.6267 134.155 19.5047 133.412 19.1881C132.726 18.8963 131.849 18.0133 131.537 17.3018C131.338 16.8481 131.25 16.3767 131.211 15.5588C131.085 12.9175 132.024 11.4622 134.229 10.8794C134.876 10.7082 136.561 10.8493 137.297 11.1362ZM119.021 11.1328C119.656 11.3114 119.996 11.8944 119.992 12.7959C119.988 13.5703 119.779 14.0688 119.336 14.3637C119.14 14.4933 118.476 14.5418 116.487 14.571L113.893 14.6092V12.8116V11.014L116.248 11.0147C117.544 11.0151 118.792 11.0683 119.021 11.1328ZM156.844 11.5249C157.743 12.1292 157.745 13.4655 156.846 14.0599L156.395 14.3587L153.781 14.3265L151.166 14.2943L151.132 12.7734L151.099 11.2526H153.769C156.351 11.2526 156.452 11.2615 156.844 11.5249ZM61.0875 12.5647C61.1883 12.8599 61.4128 13.4772 61.5865 13.9364C62.3954 16.0753 62.6225 16.7457 62.5806 16.8713C62.5352 17.0079 58.9488 17.0596 58.8149 16.9256C58.781 16.8917 59.1771 15.7113 59.695 14.3026C60.7041 11.558 60.7321 11.523 61.0875 12.5647ZM125.425 24.2123C125.21 24.4267 125.435 24.487 126.566 24.5185L127.788 24.5525L127.82 27.3946C127.845 29.5815 127.886 30.2255 127.999 30.1879C128.108 30.1519 128.162 29.4083 128.206 27.3458L128.265 24.5525L129.429 24.4928C130.069 24.46 130.606 24.3795 130.622 24.3139C130.655 24.178 125.559 24.0783 125.425 24.2123ZM140.372 27.1767C140.372 30.0259 140.386 30.2331 140.58 30.1958C140.764 30.1606 140.793 29.9721 140.823 28.6198C140.851 27.3209 140.892 27.0333 141.089 26.7562C141.339 26.4061 142.096 26.0435 142.578 26.0435C143.012 26.0435 143.82 26.3981 143.953 26.6465C144.017 26.7654 144.069 27.5926 144.069 28.4847C144.069 29.8364 144.1 30.1183 144.253 30.1772C144.354 30.2161 144.469 30.2155 144.509 30.176C144.549 30.1364 144.57 29.338 144.557 28.4018C144.531 26.5991 144.464 26.349 143.911 25.9862C143.564 25.7592 142.663 25.632 142.122 25.7335C141.894 25.7763 141.516 25.941 141.282 26.0997L140.857 26.3882L140.823 25.2927C140.794 24.3604 140.758 24.1914 140.58 24.1574C140.386 24.1202 140.372 24.3275 140.372 27.1767ZM156.024 27.1453C156.054 29.9027 156.074 30.1589 156.265 30.1957C156.459 30.2331 156.474 30.0263 156.474 27.1854C156.474 24.2058 156.468 24.135 156.233 24.135C155.997 24.135 155.993 24.1955 156.024 27.1453ZM168.282 24.6121C168.282 25.0097 168.321 25.0892 168.52 25.0892C168.719 25.0892 168.759 25.0097 168.759 24.6121C168.759 24.2145 168.719 24.135 168.52 24.135C168.321 24.135 168.282 24.2145 168.282 24.6121ZM131.03 25.8511C130.78 25.9445 130.466 26.1198 130.332 26.2409C129.632 26.8738 129.418 28.2474 129.878 29.1495C130.667 30.6965 133.311 30.6884 134.114 29.1366C134.339 28.7019 134.335 28.6677 134.058 28.6677C133.931 28.6677 133.796 28.7656 133.759 28.8852C133.72 29.0049 133.528 29.2574 133.331 29.4463C133.029 29.7354 132.851 29.7975 132.209 29.8384C131.584 29.8783 131.361 29.8394 130.978 29.624C130.452 29.3281 130.114 28.8423 130.114 28.3809V28.0713H132.261H134.408V27.7964C134.408 27.3345 133.841 26.3589 133.399 26.0598C132.874 25.7048 131.7 25.6014 131.03 25.8511ZM136.394 25.8523C135.919 26.0293 135.422 26.4279 135.229 26.7873C135.016 27.1821 134.912 28.0802 135.023 28.5728C135.247 29.5703 136.015 30.1798 137.201 30.3023C138.027 30.3875 138.957 29.9984 139.366 29.3972C139.714 28.8849 139.734 28.6677 139.432 28.6677C139.296 28.6677 139.15 28.8068 139.061 29.021C138.697 29.9015 136.828 30.1602 136.068 29.4354C135.01 28.4274 135.232 26.8882 136.522 26.2818C137.392 25.8729 138.637 26.1778 139.048 26.9C139.222 27.2067 139.656 27.3741 139.656 27.1347C139.656 26.9043 139.092 26.2198 138.726 26.0059C138.211 25.7052 137.003 25.6255 136.394 25.8523ZM146.872 25.8435C146.675 25.9334 146.44 26.0956 146.35 26.2042C146.115 26.4878 145.977 26.4473 145.977 26.0944C145.977 25.8662 145.924 25.7978 145.769 25.8276C145.579 25.8641 145.56 26.0648 145.56 28.0133C145.56 29.8408 145.586 30.1587 145.739 30.1587C145.886 30.1587 145.929 29.8804 145.977 28.608C146.047 26.8059 146.158 26.547 147.001 26.2249C147.58 26.0039 148.148 26.0455 148.741 26.3521C149.184 26.5813 149.316 27.1267 149.316 28.7372C149.317 29.4644 149.349 30.0914 149.388 30.1305C149.428 30.1698 149.535 30.173 149.627 30.1377C149.758 30.0874 149.794 29.7493 149.794 28.5655C149.794 26.9102 149.662 26.4481 149.063 26.0096C148.655 25.7107 147.375 25.6136 146.872 25.8435ZM152.023 25.7998C151.154 26.0789 150.399 27.0543 150.393 27.9044C150.387 28.7623 150.883 29.6226 151.593 29.9847C152.598 30.4972 153.746 30.3925 154.513 29.7184C155.095 29.2073 155.281 28.7932 155.281 28.004C155.281 26.6834 154.446 25.812 153.108 25.735C152.696 25.7113 152.208 25.7404 152.023 25.7998ZM158.699 25.8597C156.938 26.4876 156.675 28.8288 158.243 29.9186C158.704 30.2387 158.854 30.2775 159.619 30.2733C160.369 30.2693 160.544 30.2239 161.001 29.9155C162.578 28.8523 162.366 26.5996 160.621 25.8703C160.081 25.645 159.313 25.6407 158.699 25.8597ZM163.95 25.8585C163.363 26.0679 163.096 26.3165 162.798 26.9319C162.5 27.5485 162.494 28.2208 162.781 28.8466C163.166 29.6854 163.893 30.101 164.968 30.0964C165.586 30.0939 166.5 29.7806 166.664 29.5151C166.866 29.1876 166.997 29.4109 166.942 29.9886C166.839 31.0559 166.253 31.5509 165.078 31.562C164.106 31.5712 163.576 31.3622 163.274 30.8502C163.085 30.5303 162.987 30.4562 162.885 30.5575C162.624 30.8187 163.091 31.5166 163.711 31.7906C164.425 32.1063 165.881 32.0572 166.506 31.6961C167.249 31.2667 167.327 30.9376 167.327 28.2204C167.328 26.1527 167.302 25.8049 167.149 25.8049C167.037 25.8049 166.97 25.9175 166.97 26.1031C166.97 26.4502 166.889 26.4736 166.599 26.2111C166.284 25.9255 165.545 25.6961 164.942 25.6961C164.647 25.6961 164.201 25.7691 163.95 25.8585ZM171.01 25.801C170.161 26.0577 169.474 27.059 169.474 28.0401C169.474 28.7562 169.977 29.6438 170.577 29.9869C171.287 30.393 172.557 30.4011 173.196 30.0036C173.619 29.7404 174.126 29.0858 174.126 28.8027C174.126 28.5164 173.781 28.6871 173.542 29.091C172.915 30.1546 170.947 30.123 170.222 29.0377C170.073 28.8147 169.952 28.5062 169.952 28.3518V28.0713H172.155H174.359L174.285 27.6836C174.187 27.1715 173.853 26.5143 173.55 26.2409C173.029 25.7695 171.811 25.5586 171.01 25.801ZM175.593 25.9254C174.789 26.3368 174.653 27.1743 175.296 27.7536C175.464 27.905 175.913 28.0215 176.75 28.1309C177.557 28.2362 178.038 28.3585 178.19 28.4969C178.422 28.7067 178.492 29.2046 178.326 29.4653C178.174 29.7045 177.603 29.8605 176.88 29.8605C175.917 29.8605 175.497 29.6879 175.263 29.1961C175.069 28.786 174.723 28.635 174.723 28.9603C174.723 29.3184 175.016 29.7559 175.429 30.0126C175.784 30.2336 176.028 30.278 176.888 30.278C177.865 30.278 177.946 30.2579 178.379 29.9081C178.849 29.5288 178.984 29.1492 178.845 28.5952C178.734 28.1538 178.303 27.9557 176.909 27.7054C175.603 27.4709 175.319 27.3208 175.319 26.8643C175.319 26.5396 175.864 26.1922 176.513 26.1029C177.254 26.001 178.139 26.3704 178.255 26.8297C178.299 27.0066 178.413 27.117 178.552 27.117C178.826 27.117 178.829 27.081 178.589 26.5755C178.313 25.9947 177.923 25.7931 176.948 25.727C176.235 25.6788 176.011 25.7116 175.593 25.9254ZM168.309 27.9803C168.338 29.9422 168.362 30.1595 168.55 30.1957C168.743 30.2328 168.759 30.0661 168.759 28.0203C168.759 25.8763 168.751 25.8049 168.518 25.8049C168.283 25.8049 168.277 25.8656 168.309 27.9803ZM132.809 26.2707C133.311 26.4988 133.756 26.9988 133.83 27.4174C133.869 27.6436 133.791 27.6552 131.993 27.6866C130.662 27.7098 130.114 27.6804 130.114 27.5854C130.114 27.3082 130.512 26.6262 130.756 26.4866C131.588 26.0096 132.113 25.9544 132.809 26.2707ZM153.671 26.2689C154.464 26.6351 154.726 27.0134 154.779 27.8663C154.818 28.4939 154.781 28.6723 154.544 29.0255C154.181 29.5635 153.581 29.86 152.854 29.8603C152.061 29.8606 151.516 29.5735 151.162 28.9697C150.821 28.3883 150.783 27.7489 151.055 27.1757C151.297 26.6659 151.579 26.4172 152.142 26.2163C152.758 25.9965 153.106 26.0084 153.671 26.2689ZM160.685 26.3719C161.813 27.0327 161.91 28.775 160.862 29.5436C160.461 29.8377 159.403 29.9403 158.805 29.743C158.143 29.5245 157.666 28.8001 157.666 28.0114C157.666 27.2243 158.008 26.6819 158.741 26.3042C159.353 25.9887 160.074 26.0138 160.685 26.3719ZM166.063 26.3598C166.534 26.5844 166.97 27.3123 166.97 27.8742C166.97 29.5223 164.705 30.3575 163.501 29.1534C162.89 28.5423 162.894 27.2751 163.509 26.6601C164.133 26.0359 165.136 25.9179 166.063 26.3598ZM172.923 26.3562C173.306 26.5851 173.612 26.9881 173.716 27.3996L173.794 27.7134H171.873C170.611 27.7134 169.952 27.6705 169.952 27.5882C169.952 27.379 170.27 26.8315 170.528 26.5985C171.13 26.0533 172.229 25.9421 172.923 26.3562Z" fill="white"/>
</svg>
