<svg width="426" height="111" viewBox="0 0 426 111" fill="none" xmlns="http://www.w3.org/2000/svg">
<path d="M28.136 41.479C32.8044 40.4358 36.9727 39.8933 40.6408 39.8933C46.8933 39.8933 51.5618 41.1035 54.7297 43.5655C57.8976 46.0275 59.4399 50.0335 59.4399 55.667V85.4617H46.3931V58.2959C46.3931 53.205 43.517 50.6595 37.8064 50.6595C36.5142 50.6595 35.2221 50.8264 33.8882 51.0768C32.5543 51.3689 31.5123 51.7027 30.7203 52.12V85.3783H17.7152V44.8174C20.0078 43.649 23.4675 42.5223 28.136 41.479Z" fill="white" fill-opacity="0.05"/>
<path d="M74.3207 51.1184H67.8599V41.1034H74.4041V40.0601C74.4458 33.4252 75.988 28.7932 78.9892 26.1643C81.9904 23.5771 86.0753 22.2834 91.2857 22.2834C92.2027 22.2834 93.2448 22.3669 94.3286 22.5338C95.454 22.7007 96.3293 22.9094 97.0379 23.1598V34.6353C96.4127 34.0094 95.7458 33.5086 95.1205 33.1748C94.4953 32.841 93.6616 32.674 92.6612 32.674C91.0356 32.674 89.7434 33.0913 88.8264 33.9677C87.9094 34.844 87.4092 36.3462 87.4092 38.4327V41.0616H97.0379V51.035H87.3258V85.3782H74.279V51.1184H74.3207Z" fill="white" fill-opacity="0.05"/>
<path d="M106.583 54.0813H133.26V63.0948H106.583V54.0813Z" fill="white" fill-opacity="0.05"/>
<path d="M155.061 84.0429C151.559 82.332 148.766 79.7865 146.724 76.3647C144.64 72.9429 143.598 68.77 143.598 63.8877C143.598 56.0008 145.682 50.0335 149.892 45.9858C154.102 41.938 159.687 39.8933 166.69 39.8933C169.149 39.8933 171.609 40.1437 174.11 40.6444C176.611 41.1452 178.82 41.8129 180.779 42.6892V53.9144C178.403 52.8711 176.277 52.0783 174.401 51.4941C172.526 50.9516 170.65 50.6595 168.816 50.6595C164.981 50.6595 161.98 51.6193 159.812 53.4971C157.645 55.3749 156.561 58.3377 156.561 62.3854C156.561 66.8922 157.562 70.2305 159.562 72.3587C161.563 74.5286 164.856 75.6136 169.4 75.6136C172.859 75.6136 176.652 74.4452 180.862 72.1084V83.2501C178.778 84.3768 176.611 85.2114 174.36 85.7538C172.109 86.2963 169.608 86.5884 166.774 86.5884C162.48 86.5884 158.562 85.7121 155.061 84.0429Z" fill="white" fill-opacity="0.05"/>
<path d="M193.117 80.7879C189.366 76.8237 187.532 70.9398 187.532 63.0947C187.532 54.9158 189.366 48.9485 193.075 45.2346C196.785 41.4789 202.412 39.6428 209.915 39.6428C217.418 39.6428 223.087 41.5624 226.88 45.3597C230.673 49.1988 232.549 55.0827 232.549 63.0947C232.549 70.8146 230.59 76.6567 226.672 80.7045C222.754 84.7522 217.168 86.7552 209.874 86.7552C202.454 86.7552 196.827 84.7522 193.117 80.7879ZM217.168 72.9428C218.794 70.6894 219.628 67.3928 219.628 63.0947C219.628 58.3793 218.836 54.9992 217.21 52.9962C215.626 50.9932 213.167 49.9917 209.915 49.9917C206.539 49.9917 204.08 50.9932 202.621 52.9962C201.12 54.9992 200.37 58.3793 200.37 63.0947C200.37 67.6015 201.162 70.9398 202.704 73.068C204.246 75.2379 206.664 76.3229 209.915 76.3229C213.125 76.3229 215.543 75.1962 217.168 72.9428Z" fill="white" fill-opacity="0.05"/>
<path d="M241.553 45.7771C242.428 45.026 243.97 44.1914 246.138 43.2316C248.305 42.3136 250.765 41.479 253.474 40.8113C256.183 40.1436 258.81 39.8098 261.311 39.8098C266.146 39.8098 269.522 40.5609 271.356 41.9797V51.5358C269.022 50.9933 265.687 50.7429 261.311 50.7429C258.559 50.7429 256.309 50.9098 254.558 51.1602V85.42H241.511V45.7771H241.553Z" fill="white" fill-opacity="0.05"/>
<path d="M317.499 66.6834H288.279C289.405 72.8176 293.49 75.8639 300.618 75.8639C302.785 75.8639 304.869 75.5718 306.953 74.9458C309.038 74.3199 311.205 73.527 313.539 72.5255V83.7507C308.746 85.7537 303.41 86.7135 297.45 86.7135C292.948 86.7135 289.03 85.7955 285.653 83.9594C282.277 82.1233 279.651 79.4943 277.775 76.0308C275.9 72.5673 274.983 68.5195 274.983 63.8458C274.983 56.1259 276.9 50.1586 280.693 45.9439C284.528 41.7293 289.988 39.6428 297.033 39.6428C310.872 39.6428 317.666 48.6564 317.499 66.6834ZM288.196 58.3793H304.536C304.119 55.2079 303.285 52.9962 302.035 51.6191C300.784 50.2838 298.909 49.6161 296.491 49.6161C291.822 49.6161 289.071 52.5372 288.196 58.3793Z" fill="white" fill-opacity="0.05"/>
<path d="M133.26 54.123V63.0949H107.834L116.796 54.123H133.26Z" fill="white" fill-opacity="0.05"/>
<path d="M403.158 49.1153C403.158 49.5743 403.158 50.0751 403.158 50.5341C403.116 50.5341 403.116 50.5341 403.074 50.5758C402.824 50.3672 402.574 50.2003 402.366 49.9916C400.782 48.6563 399.073 47.4461 397.197 46.5281C396.864 46.3612 396.572 46.1942 396.197 46.1108C396.155 46.069 396.113 46.0273 396.072 46.0273C395.363 45.7352 394.654 45.4848 393.904 45.3179C392.279 44.9424 390.653 44.9006 389.027 45.2345C386.943 45.6518 385.067 46.5698 383.317 47.7382C381.566 48.9066 380.024 50.2837 378.565 51.786C378.315 52.0363 378.315 52.0363 378.148 51.7025C377.356 50.0751 376.522 48.4893 375.439 47.0288C374.605 45.9021 373.688 44.9006 372.521 44.1495C371.312 43.3984 370.02 43.148 368.644 43.4818C366.935 43.8991 365.56 44.9006 364.268 46.0273C363.476 46.6533 362.767 47.3209 362.058 47.9886C361.391 48.5728 360.766 49.1987 360.058 49.783C359.933 49.9081 359.849 49.8664 359.766 49.783C359.099 49.0736 358.39 48.4476 357.557 47.9886C356.348 47.3209 355.056 47.2375 353.763 47.6965C352.68 48.0721 351.679 48.6563 350.721 49.2405C350.345 49.4909 349.97 49.7412 349.553 49.9499C349.553 49.9081 349.553 49.8664 349.553 49.8664C349.595 49.783 349.595 49.6995 349.595 49.6578C349.637 47.9051 349.804 46.1525 350.095 44.3999C350.471 42.0213 351.054 39.6845 352.138 37.4728C352.93 35.8454 353.972 34.3848 355.347 33.133C357.14 31.5055 359.224 30.504 361.516 29.8363C363.976 29.1269 366.518 28.8348 369.103 28.7097C370.103 28.6679 371.145 28.6262 372.146 28.5845C372.646 28.7931 373.146 28.9183 373.688 29.0852C374.438 29.2939 375.189 29.5442 375.897 29.7529C376.272 29.8781 376.647 30.045 377.023 30.1702C378.481 30.7127 379.899 31.3803 381.149 32.3401C381.483 32.5905 381.774 32.8409 382.108 33.133C382.025 32.8826 381.941 32.6739 381.858 32.4653C381.316 31.0048 380.482 29.7946 379.148 29.0018C378.606 28.6679 377.981 28.3758 377.439 28.0837C377.481 28.0837 377.564 28.0837 377.606 28.042C379.398 27.7499 381.191 27.583 382.983 27.4995C384.525 27.4578 386.109 27.4578 387.652 27.6247C389.444 27.8333 391.236 28.1672 392.945 28.7931C395.488 29.7112 397.656 31.2134 399.323 33.3416C400.782 35.2194 401.699 37.3476 402.324 39.601C402.908 41.8544 403.158 44.1912 403.241 46.4863C403.158 47.3627 403.158 48.239 403.158 49.1153Z" fill="white" fill-opacity="0.05"/>
<path d="M403.158 46.4863H403.2C403.2 47.3626 403.2 48.239 403.2 49.1153H403.158C403.158 48.239 403.158 47.3626 403.158 46.4863Z" fill="white" fill-opacity="0.05"/>
<path d="M388.777 9.05518V9.0969C388.194 9.0969 387.61 9.0969 387.026 9.0969C387.026 9.0969 387.026 9.09691 387.026 9.05518C387.61 9.05518 388.194 9.05518 388.777 9.05518Z" fill="white" fill-opacity="0.05"/>
<path d="M389.944 83.4167C390.945 82.9994 391.903 82.5404 392.82 81.9979C393.904 81.3303 394.946 80.6209 395.988 79.8697C396.864 79.2021 397.697 78.5344 398.489 77.8667C398.948 77.4494 399.448 77.0739 399.907 76.6566C399.99 76.5731 399.99 76.6148 400.032 76.6983C400.198 77.366 400.323 77.9919 400.448 78.6596C400.615 79.5359 400.782 80.4539 400.865 81.372C400.99 82.4152 401.032 83.4585 400.949 84.5434C400.865 85.837 400.615 87.1306 400.198 88.3825C399.907 89.1336 399.573 89.843 399.156 90.5107C398.614 91.387 397.947 92.1382 397.197 92.8476C396.28 93.6821 395.28 94.3915 394.196 94.9758C392.737 95.8103 391.153 96.3945 389.569 96.8953C388.027 97.3543 386.485 97.6882 384.901 97.9803C384.484 98.0637 384.025 98.1472 383.608 98.1055C382.691 98.0637 381.816 97.8551 380.941 97.5212C379.649 97.0205 378.481 96.2276 377.231 95.6434C376.522 95.3096 375.814 95.1009 375.063 95.0175C374.063 94.934 373.229 95.3096 372.521 95.9773C371.979 96.478 371.479 97.0205 370.979 97.5212C370.103 98.3976 369.061 98.9818 367.852 99.1487C367.06 99.2739 366.227 99.2321 365.435 99.107C364.309 98.94 363.184 98.6897 362.1 98.3558C360.516 97.8551 359.057 97.1039 357.723 96.1024C356.473 95.1427 355.472 93.9742 354.639 92.5972C353.847 91.2201 353.305 89.7596 352.971 88.2156C352.805 87.5479 352.721 86.8385 352.68 86.1709C352.596 85.2111 352.513 84.2513 352.555 83.2498C352.596 81.8727 352.68 80.5374 352.888 79.1186C353.055 79.2438 353.18 79.4107 353.347 79.5359C354.222 80.3288 355.181 81.0382 356.223 81.6641C357.39 82.3318 358.599 82.8742 359.933 83.2081C360.808 83.4585 361.725 83.5836 362.642 83.6671C363.392 83.7088 364.143 83.7506 364.893 83.7088C365.768 83.6671 366.644 83.5836 367.519 83.375C367.644 83.375 367.727 83.375 367.852 83.3333C368.644 83.1663 369.436 82.9994 370.187 82.7491C371.062 82.4987 371.979 82.2066 372.813 81.8727C373.646 81.5389 374.48 81.2051 375.314 80.8712C375.564 80.7461 375.689 80.8295 375.897 80.9547C377.273 82.0397 378.773 82.9577 380.399 83.5836C382.191 84.293 384.067 84.6269 385.984 84.46C387.318 84.2513 388.652 83.9175 389.944 83.4167Z" fill="white" fill-opacity="0.05"/>
<path d="M389.944 83.4167C388.652 83.9175 387.318 84.2931 385.901 84.4183C383.942 84.5852 382.108 84.2513 380.316 83.5419C378.69 82.916 377.189 81.998 375.814 80.913C375.605 80.7461 375.48 80.7043 375.23 80.8295C374.397 81.2051 373.563 81.5389 372.729 81.831C371.854 82.1649 370.979 82.457 370.103 82.7074C369.311 82.916 368.561 83.1246 367.769 83.2916C367.644 83.3333 367.561 83.3333 367.435 83.3333C367.727 82.9995 367.977 82.7074 368.269 82.3735C369.395 81.0799 370.145 79.6194 370.603 77.9919C371.229 75.7803 371.896 73.5269 372.396 71.2735C372.771 69.6043 373.104 67.9352 373.354 66.266C373.521 65.0558 373.605 63.8457 373.688 62.6355C373.771 61.5089 373.73 60.3822 373.646 59.2972C373.438 55.9171 372.688 52.6622 371.312 49.5743C370.478 47.7382 369.103 46.4446 367.06 45.9438C366.185 45.7352 365.351 45.7769 364.476 46.069C364.393 46.1107 364.351 46.1107 364.268 46.1107C365.56 44.984 366.935 43.9825 368.644 43.5652C370.02 43.2314 371.312 43.4818 372.521 44.2329C373.73 44.984 374.647 45.9855 375.439 47.1122C376.522 48.5728 377.356 50.1585 378.148 51.7859C378.315 52.1198 378.315 52.1198 378.565 51.8694C380.024 50.3671 381.608 48.9901 383.317 47.8216C385.067 46.6532 386.943 45.7352 389.027 45.3179C390.653 44.984 392.279 45.0258 393.904 45.4013C394.654 45.5683 395.363 45.8186 396.072 46.1107C396.113 46.1525 396.197 46.1525 396.197 46.1942C394.113 46.2359 392.32 47.0288 390.695 48.2389C389.903 48.8231 389.194 49.4908 388.652 50.3254C388.194 50.9931 387.86 51.7442 387.485 52.4953C386.776 53.9976 386.193 55.5416 385.776 57.169C385.401 58.5461 385.192 59.9649 385.067 61.3837C384.984 62.4686 384.942 63.5953 384.984 64.6803C385.026 66.0156 385.151 67.3927 385.317 68.728C385.609 70.9814 386.026 73.2348 386.36 75.4465C386.568 76.6983 386.735 77.9502 386.943 79.1604C387.235 80.9547 388.235 82.3318 389.694 83.375C389.819 83.3333 389.861 83.375 389.944 83.4167Z" fill="white" fill-opacity="0.05"/>
<path d="M387.026 9.09692C387.61 9.09692 388.194 9.09692 388.777 9.09692C390.194 9.18038 391.612 9.38903 392.987 9.84805C394.029 10.2236 394.279 10.8913 393.654 11.8093C393.196 12.477 392.57 12.936 391.945 13.3533C391.111 13.9375 390.194 14.3965 389.236 14.7304C388.235 15.1059 387.277 14.7304 386.693 13.7289C386.485 13.4368 386.36 13.1029 386.276 12.7274C386.235 12.6022 386.193 12.5605 386.109 12.5605C383.9 12.1849 381.941 12.6856 380.316 14.2714C378.982 15.565 378.19 17.1507 377.648 18.9033C377.148 20.489 376.898 22.0747 376.814 23.7022C376.731 25.1627 376.856 26.6232 377.064 28.042C377.106 28.2924 377.189 28.5428 377.189 28.7932C377.231 29.0853 377.148 29.3774 376.856 29.5443C376.564 29.7529 376.272 29.7112 375.939 29.7112C375.189 29.5026 374.438 29.2522 373.73 29.0435C373.73 28.8766 373.73 28.7097 373.73 28.5011C373.73 27.7499 373.73 26.9571 373.771 26.2059C373.938 23.1597 374.397 20.1552 375.564 17.3176C376.439 15.1894 377.69 13.3533 379.44 11.8928C380.899 10.6826 382.566 9.88978 384.4 9.47249C385.234 9.26384 386.109 9.13865 387.026 9.09692Z" fill="white" fill-opacity="0.05"/>
<path d="M375.855 29.7529C376.189 29.7529 376.481 29.7946 376.772 29.586C377.023 29.3773 377.148 29.127 377.106 28.8348C377.064 28.5845 377.023 28.3341 376.981 28.0837C377.106 28.0837 377.273 28.042 377.398 28.042C377.981 28.3758 378.565 28.6262 379.107 28.96C380.441 29.7946 381.274 31.0048 381.816 32.4236C381.899 32.6322 381.983 32.8826 382.066 33.0912C381.733 32.8409 381.441 32.5488 381.108 32.2984C379.857 31.3386 378.482 30.6709 376.981 30.1285C376.606 30.045 376.231 29.8781 375.855 29.7529Z" fill="white" fill-opacity="0.05"/>
<path d="M373.605 28.5427C373.605 28.7096 373.605 28.8766 373.605 29.0852C373.104 28.9183 372.562 28.7931 372.062 28.5845C372.604 28.5845 373.104 28.5427 373.605 28.5427Z" fill="white" fill-opacity="0.05"/>
</svg>
