<?xml version="1.0" encoding="utf-8"?>
<!-- Generator: Adobe Illustrator 27.6.1, SVG Export Plug-In . SVG Version: 6.00 Build 0)  -->
<svg version="1.1" id="footer_logo_svg" xmlns="http://www.w3.org/2000/svg" xmlns:xlink="http://www.w3.org/1999/xlink" x="0px"
	 y="0px" viewBox="0 0 628.7 188" style="enable-background:new 0 0 628.7 188;" xml:space="preserve">
<style type="text/css">
	.st0{opacity:0.5;}
	.st1{fill:#FFFFFF;}
</style>
<g id="Layer_1" class="st0">
	<path class="st1" d="M251.2,44.9h-23.9v55.8h10.4V78.8h13.6c12.1,0,19.1-6.2,19.1-16.9C270.3,51.1,263.3,44.9,251.2,44.9z
		 M250.8,69.8h-13.1V53.9h13.1c6,0,8.7,2.5,8.7,8S256.8,69.8,250.8,69.8z M291.4,44.9L291.4,44.9v55.8H281V44.9H291.4z M351.3,100.7
		h-12.1l-13-20.7l-12.9,20.7h-12.2l19.3-28.5l-18-27.3H314l12.3,19.6l12.4-19.6h11.6l-18,27.2L351.3,100.7z M402.6,100.7h-41.7V44.9
		h41v9h-30.6v13.5h26.8v9h-26.8l0,0v15.3h31.3L402.6,100.7L402.6,100.7z M451.7,100.7h-38.3V44.9h10.4l0,0v46.8h27.9V100.7z
		 M481.8,70.5h26.8v30.1h-7.5l-1.9-6.5c-4.1,5.1-9.6,7.5-17.1,7.5c-15.7,0-25.8-11.4-25.8-29c0-17,11-28.9,26.8-28.9
		c13.5,0,22.4,6.8,24.5,18.7l0.2,1.1H497l-0.1-0.7c-1.4-6.5-6.2-9.9-13.9-9.9c-11.8,0-16,10.7-16,19.9c0,7.5,2,20,15.6,20
		c8.6,0,14.9-5.6,15.4-13.3h-16.2V70.5z M531.1,91.7h31.3v9h-41.7V44.9h41v9h-30.6v13.5h26.8v9h-26.8V91.7z M619.2,44.9v55.8H608
		l-24.4-39.4v39.4h-10.4V44.9h11.2l24.3,39.4V44.9H619.2z M227.3,121.7h18.1v2.9h-7.3v19.1h-3.5v-19.1h-7.3V121.7z M253,140.8h12.8
		v2.9h-16.3v-22h15.9v2.9H253v6.2h10.8l0,0v2.9H253V140.8z M286.5,135.7h3.6c-0.1,1.2-0.4,2.4-0.9,3.4c-0.5,1.1-1.3,2-2.2,2.8
		s-1.9,1.4-3.1,1.8c-1.1,0.4-2.3,0.5-3.5,0.4c-6.4,0-10.5-4.8-10.5-11.4c0-6.6,4.1-11.4,10.5-11.4c5.6,0,9.1,3.5,9.7,7.9h-3.6
		c-0.2-1.4-0.9-2.8-2.1-3.7c-1.1-0.9-2.6-1.3-4-1.2c-5,0-6.9,4-6.9,8.4s1.9,8.5,6.9,8.5c0.8,0.1,1.5,0,2.3-0.3
		c0.7-0.2,1.4-0.6,2-1.2c0.6-0.5,1-1.1,1.4-1.9C286.3,137.2,286.5,136.5,286.5,135.7z M310,121.7h3.5v22H310v-9.9h-11.1v9.9h-3.5
		v-22h3.5v9.2H310V121.7z M334.6,121.7h3.5v22h-4l-10.5-16.9v16.9h-3.4l-0.1-22h4l10.5,16.9V121.7z M362.4,124.5
		c-1-1.1-2.3-1.9-3.7-2.5c-1.4-0.6-2.9-0.8-4.4-0.8c-6.7,0-11,4.8-11,11.4c0,6.6,4.3,11.4,11,11.4s11-4.8,11-11.4
		c0.1-1.5-0.1-3-0.6-4.4C364.3,126.9,363.4,125.6,362.4,124.5z M354.3,141.2c-5.4,0-7.5-4-7.5-8.5s2.1-8.5,7.5-8.5s7.5,4,7.5,8.5
		S359.7,141.2,354.3,141.2z M373.8,140.8h11.4v2.9h-14.9v-22h3.5V140.8z M398.4,121.3c-6.7,0-11,4.8-11,11.4s4.3,11.4,11,11.4
		s11-4.8,11-11.4S405.1,121.3,398.4,121.3z M398.4,141.2c-5.4,0-7.5-4-7.5-8.5s2.1-8.5,7.5-8.5s7.5,4,7.5,8.5
		S403.7,141.2,398.4,141.2z M424.6,132.3h10.1v11.5h-2.4l-0.9-3.1c-0.8,1.2-1.8,2.1-3.1,2.7c-1.3,0.6-2.6,0.9-4,0.8
		c-6.5,0-10.1-4.8-10.1-11.4c0-6.6,4.1-11.4,10.5-11.4c5.8,0,8.9,3.1,9.6,7.2h-3.6c-0.7-2.8-2.8-4.3-6.1-4.3c-5,0-6.9,4.4-6.9,8.5
		s1.5,8.5,6.7,8.5c0.8,0.1,1.7-0.1,2.5-0.3c0.8-0.3,1.5-0.7,2.2-1.3c0.6-0.6,1.1-1.3,1.5-2.1c0.3-0.8,0.5-1.6,0.5-2.5h-6.6
		L424.6,132.3L424.6,132.3z M441.3,121.7h3.5v22h-3.5V121.7z M454.4,140.8h12.8v2.9h-16.3v-22h16v2.9h-12.5v6.2h10.9l0,0v2.9h-10.9
		V140.8z M489,137.6c0,3.8-2.6,6.6-8.2,6.6s-9.7-2.9-10-7.8h3.6c0.3,3,2,5,6.3,5c3.6,0,4.7-1.5,4.7-3.6c0-2.8-2.2-3.2-6.3-4.2
		c-3.5-0.9-7.5-2-7.5-6.2c0-3.8,3-6,7.9-6c5.1,0,8.5,2.6,8.8,7h-3.6c-0.3-2.7-1.9-4.1-5.2-4.1c-2.8,0-4.3,1-4.3,2.9
		c0,2.5,2.4,3,5.3,3.8C484.9,131.8,489,132.9,489,137.6z"/>
	<g>
		<path class="st1" d="M195.2,102.5c0,3.3-0.2,6.6-0.7,9.8c-0.8,3.7-1.9,7.3-3.3,10.7l-1.1,1.9l0.5-2.2c0.4-1.7,0.6-3.5,0.6-5.2
			v-0.1c0.1-1.9,0-3.9-0.1-5.8v-0.1c1.5-2.9,2.6-6,3.5-9.1l0.5-1.9L195.2,102.5z M194,95.6L194,95.6c0-0.6-0.2-1.2-0.3-1.8
			c-1-4.3-2.4-8.5-4.3-12.5l-0.4-0.9l-0.2,1c-0.7,4.3-1.8,8.5-3.2,12.6c1.8,3.8,3.2,7.7,4.2,11.7l0.2,0.8l0.9-2.1
			C192.2,101.7,193.2,98.7,194,95.6z M189.9,75.1L189.9,75.1c2.1,4.3,3.6,8.7,4.7,13.2l0.5,2.2l0.1-2.2c0,0,0-0.3,0-0.6
			c0-0.2,0-0.5,0-0.6c-0.5-4.3-1.1-8.5-2-12.7c-0.7-3.1-1.7-6.2-2.9-9.2l-0.8-2.2l0.3,2.3C190.1,68.6,190.1,71.8,189.9,75.1z
			 M137,58.1h0.2c5.6,1.7,11.1,3.8,16.4,6.4l0.4,0.2v-0.4c0.7-5.9,1-11.9,0.7-17.9v-0.2h-0.2c-5.4-2.8-11-5.1-16.8-7l-0.4-0.1v0.4
			C137.6,45.7,137.5,51.9,137,58.1L137,58.1z M157.7,28.9l-0.6-0.4l0.2,0.7l0.6,2.2c1.2,3.8,2,7.7,2.5,11.7v0.1h0.1
			c4.8,2.8,9.2,6.1,13.4,9.7l0.5,0.5v-0.7c-0.2-5.1-1-10.1-2.4-15v-0.1C167.5,34.2,162.7,31.3,157.7,28.9z M182.5,89.7l0.3,0.5
			l0.2-0.5c2-4.5,3.1-9.4,3.2-14.3c-2.2-3.9-4.8-7.5-7.8-10.9l-0.5-0.5v0.7c-0.6,5.2-1.6,10.3-3,15.3v0.2l0.1,0.1
			C177.8,83.2,180.3,86.3,182.5,89.7z M160.2,48.6v0.5c0,5.8-0.5,11.6-1.5,17.3v0.2h0.2c4.2,2.5,8.2,5.4,11.9,8.6l0.4,0.3l0.1-0.5
			c1.3-5.4,2.1-10.9,2.4-16.4v-0.1l-0.1-0.1c-4-3.6-8.3-6.9-12.8-9.7L160.2,48.6z M131.7,31.7v-0.4c-0.6-4.6-1.7-9.2-3.2-13.6v-0.2
			h-0.2c-6.3-1-12.7-1.7-19.2-1.9c1.5,6.1,2,9.2,2.9,14c6.5,0.1,12.9,0.8,19.3,2L131.7,31.7z M127,12.7c-1.5-3.8-3.6-7.4-6.3-10.5
			c-5.7-0.9-11.6-1.4-17.4-1.5c0,0,2.3,4.9,4.3,9.9C114.1,11,120.6,11.7,127,12.7z M106.4,29.7c-0.8-4.7-1.9-10.7-2.8-14.2
			c-5.9-0.4-11.8-0.1-17.6,0.8c0.4,4.5,1.1,9.6,1.4,14.5C93.7,29.9,100,29.5,106.4,29.7z M132.3,37.7h-0.2
			c-6.4-1.4-12.9-2.3-19.5-2.6c0.5,4.6,1.4,16.9,1.5,18.5c6.2,0.5,12.2,1.5,18.2,3.1c0.3-6.3,0.3-12.5,0-18.8
			C132.3,37.9,132.3,37.7,132.3,37.7z M136.8,33.4h0.2c5.9,1.8,11.8,4.1,17.4,6.9l0.5,0.2V40c-0.6-4.8-1.6-9.5-2.9-14.2v-0.1
			l-1.9-0.8c-5.3-2.4-10.7-4.5-16.3-6.1l-0.5-0.1l0.2,0.5c1.6,4.6,2.7,9.3,3.4,14.1v0.1H136.8z M178.6,57.7L178.6,57.7
			c3,3.4,5.7,7,8.1,10.9l0.5,0.8v-1c0.1-3.8,0-7.5-0.5-11.3V57c-2.8-6-5.2-8.9-10.3-16.2l-0.9-1.4l0.4,1.6
			C177.4,46.5,178.3,52.1,178.6,57.7z M132.1,14c6,1.6,11.9,3.7,17.7,6.2l0.6,0.2l-0.2-0.6c-0.9-2.7-2.3-5.2-4-7.5
			c-6.2-3.6-12.8-6.6-19.6-8.7l-0.9-0.3C128.3,6.5,130.4,10.1,132.1,14C132,14,132.1,14,132.1,14z M156.4,24L156.4,24
			c4.3,2.5,8.5,5.2,12.3,8.3l1.3,0.9l-0.3-0.9c0-0.2-1.4-3-1.5-3.3c-4.4-4.9-9.5-9.1-15.1-12.5l-1-0.6l0.6,1
			C153.7,18.4,155.7,22.6,156.4,24z M152.7,70.5l-0.2-0.1c-5.2-3-10.7-5.3-16.4-7c-0.7,5-1.2,10.7-2.5,16.4
			c5.1,1.8,10.1,3.9,14.9,6.4c1.3-3.6,3.2-11.5,4.1-15.6L152.7,70.5z M114.5,74.9c5.1,0.8,10.1,2,14.9,3.6
			c0.8-3.6,1.7-12.1,2.1-16.4h0.1c-5.6-1.8-11.3-2.9-17.2-3.2C114.1,63.8,114.7,69.3,114.5,74.9z M157.2,73.1
			c-1.9,5.6-3.1,11-4.8,15.3c3.9,2.2,7.6,4.7,11,7.5c2.5-4.5,4.6-9.3,6.1-14.2C165.7,78.4,161.6,75.5,157.2,73.1z M179.1,141.5
			c-0.5,3.2-1.4,6.2-2.7,9.1l-0.9,1.9l1.4-1.7c1.9-2.3,3.7-4.8,5.2-7.4c1.8-2.9,3.5-5.9,4.8-9l0.8-1.9l-1.3,1.6
			C184.2,136.8,181.8,139.2,179.1,141.5z M188,117.3l-0.5,0.7c-2.6,3.3-5.5,6.3-8.6,9.1l-0.8,0.7v0.1c0.3,2.1,0.4,4.2,0.4,6.3
			c0,0.9,0,1.9,0,2.8v0.6l0.5-0.4c3.2-2.4,6-5.2,8.5-8.3v0.1c0.5-3.6,0.7-7.2,0.5-10.8L188,117.3z M173.4,85.6
			c-2,4.7-4.4,9.2-7.2,13.6c2.3,3.1,4.4,6.3,6.3,9.6c3.2-4.2,6-8.7,8.5-13.3C178.8,91.9,176.3,88.6,173.4,85.6z M177.4,123.2
			l0.4-0.4c3.4-3,6.6-6.4,9.3-10c-0.1-0.7-0.7-2.7-1-3.6c-0.8-3-1.8-6-2.9-8.9c-2.5,4.5-5.3,8.8-8.5,12.9c1,3.1,1.8,6.3,2.5,9.5
			L177.4,123.2z M88.6,36.7c0.5,5.6,1.5,9.6,2.2,17.5c7.8-0.6,12.9-0.8,17.9-1c-0.4-7.8-1-12.9-1.6-17.9
			C100.9,35.3,94.7,35.8,88.6,36.7z M66.2,41.2c0.4,5.6,0.7,9.4,1.4,17.3c5.9-1.6,11.8-2.9,17.8-3.8c-0.1-3.7-1.5-13.1-1.8-17.2
			C77.7,38.3,71.9,39.5,66.2,41.2z"/>
		<path class="st1" d="M175.3,143.3v0.6c-0.4,3.1-1.1,6.2-2.3,9.1l-0.1,0.1c-2.2,2-4.5,3.9-7,5.5l-0.6,0.4v-0.6
			c0.2-1.3,0.3-7.5,0.5-8.7v-0.1h0.1c3.2-1.8,8-5.3,8.8-5.8L175.3,143.3z M152.6,152c3.4-1.3,6.6-2.8,9.8-4.5h0.2v-0.2
			c-0.1-2.7-0.3-6.3-0.7-9.7v-0.5l-0.4,0.2c-3.2,1.8-6.5,3.4-9.9,4.8h-0.2v0.2c0.1,1.1,0.2,2,0.3,2.8c0.2,2.2,0.4,3.6,0.7,6.6v0.4
			L152.6,152z M136.5,175.1v-0.3h-0.3c-3.2,0.7-6.9,1.5-10.5,2.1h-0.4v0.3c0,0.6,0.2,1.6,0.3,3.2c0.2,2.1,0.4,4.5,0.5,5.2v0.4h0.3
			c3.5-0.7,6.9-1.7,10.3-2.9h0.2v-0.2c0.1-0.8-0.1-2.7-0.2-4.5C136.7,177,136.5,175.7,136.5,175.1z M152.7,155.6h-0.2v0.2
			c0.2,3.2,0.2,6.4,0,9.4v0.6l0.5-0.2c3.1-1.3,6.1-2.8,9-4.7h0.1v-0.1c0.3-3.1,0.5-6.3,0.5-9.4v-0.6l-0.5,0.2
			C159.1,152.8,155.9,154.3,152.7,155.6z M159.1,166.3c-2.1,1.3-4.2,2.4-6.4,3.5h-0.2v0.2c0,0.6,0,1.3,0,1.9c0,0.8,0,1.7-0.1,2.5
			v0.6l0.5-0.3c3.2-1.9,6.2-4.1,8.9-6.6c0.1-0.3,0.1-0.8,0.2-1.4c0-0.4,0.1-0.9,0.2-1.5l0.1-0.6l-0.5,0.3L159.1,166.3z M164.9,135.4
			v0.2c0.4,3.3,0.7,6.6,0.7,9.9v0.5l0.5-0.3c5-2.9,6.5-3.9,9-5.6h0.1V140c0.1-3.2-0.1-6.4-0.6-9.5v-0.4l-0.4,0.2
			c-2.1,1.2-6,3.3-9.2,5L164.9,135.4z M165.2,163.3c-0.1,0.4-0.2,0.9-0.3,1.3l-0.2,0.9l1.5-1.3c2.7-2.6,5-5.5,6.9-8.7
			c-2.4,2.3-5,4.5-7.6,6.5C165.4,162.5,165.3,162.9,165.2,163.3z M149.5,157l-0.4,0.1c-3.5,1.2-6.4,2.3-10.2,3.3h-0.3v0.3
			c0.4,3.2,0.7,6.3,0.9,9v0.4h0.3c3.3-0.8,6.6-2,9.7-3.4h0.2v-0.2c0-3,0-5.8-0.3-9.1V157H149.5z M140.2,173.8h-0.3v0.2
			c0,0.6,0.1,1.6,0.2,2.6c0.1,1.6,0.2,3.3,0.3,4.1v0.4l0.4-0.1c3.1-1.2,6-2.7,8.8-4.4h0.1v-0.2c0-0.8,0-2,0-3.2c0-0.7,0-1.3,0-1.9
			V171l-0.4,0.2C147.1,171.9,143,173.1,140.2,173.8z M171.2,115.9c-3,2.3-6.1,4.5-9.3,6.4c0.8,3,1.7,5.6,2.5,9.4
			c3.3-1.8,6.4-3.7,9.5-5.8C173.3,123.4,172.2,119.3,171.2,115.9z"/>
		<path class="st1" d="M10.1,85.4l-0.5,1.9v-1.9c0-3.3,0.3-6.6,0.8-9.8c0.7-3.6,1.8-7.1,3.1-10.6l1-1.9L14,65.3
			c-0.4,1.7-0.6,3.5-0.6,5.2c-0.1,1.9,0,3.9,0.2,5.8C12.1,79.3,11,82.3,10.1,85.4z M14.9,82.1l-0.2-0.8l-0.9,2.1
			c-1.3,2.9-2.3,5.8-3.1,8.9v0.1c0,0.5,0.2,1.1,0.3,1.7c1,4.3,2.4,8.5,4.3,12.4l0.4,0.9l0.2-1c0.7-4.3,1.8-8.5,3.2-12.6
			C17.4,90.1,15.9,86.2,14.9,82.1z M14.8,112.9L14.8,112.9c-2.1-4.3-3.6-8.7-4.7-13.2l-0.5-2.2l-0.1,2.2c0,0,0,0.4,0,0.6
			s0,0.5,0,0.6c0.5,4.3,1.2,8.5,2.1,12.7c0.7,3.1,1.7,6.2,2.9,9.2l0.8,2.2l-0.3-2.4C14.7,119.3,14.6,116.1,14.8,112.9z M67.7,129.8
			h-0.2c-5.6-1.6-11.1-3.7-16.4-6.3l-0.4-0.2v0.4c-0.7,5.9-1,11.9-0.7,17.9v0.2h0.2c5.4,2.8,11,5.1,16.8,7l0.5,0.1v-0.4
			c-0.3-6.2-0.2-12.3,0.3-18.5L67.7,129.8z M47.6,159.5l-0.2-0.7l-0.5-2.2c-1.2-3.8-2-7.7-2.5-11.7v-0.1h-0.1
			c-4.7-2.8-9.2-6-13.3-9.6l-0.5-0.5v0.7c0.2,5.1,1,10.1,2.4,15c4.4,3.3,9.2,6.3,14.1,8.8L47.6,159.5z M22.3,98.3L22,97.8l-0.2,0.5
			c-2,4.5-3,9.3-3.2,14.3c2.3,3.8,4.9,7.5,7.8,10.8l0.5,0.5v-0.7c0.6-5.2,1.6-10.3,3-15.3v-0.2l0,0C27,104.8,24.5,101.6,22.3,98.3z
			 M33.6,112.4l-0.1,0.5c-1.3,5.4-2.1,10.9-2.4,16.4v0.1h0.1c4,3.6,8.3,6.9,12.8,9.7l0.5,0.3v-0.5c0-5.8,0.5-11.6,1.5-17.3v-0.2
			h-0.1c-4.2-2.5-8.2-5.4-11.9-8.6L33.6,112.4z M73,156.2v0.4c0.6,4.6,1.7,9.2,3.2,13.6v0.2h0.2c6.3,1,12.8,1.7,19.2,1.9
			c-1.4-6-2.1-9.1-2.9-13.9c-6.5-0.2-13-0.8-19.4-2.1L73,156.2z M77.7,175.3c1.5,3.8,3.6,7.4,6.3,10.5c5.7,0.9,11.6,1.4,17.4,1.5
			c0,0-2.3-4.9-4.3-9.9C90.6,177,84.1,176.3,77.7,175.3z M98.4,158.4c0.8,4.6,1.9,10.6,2.8,14.1c5.9,0.4,11.8,0.1,17.6-0.8
			c-0.4-4.5-1.1-9.6-1.4-14.5C111.1,158.2,104.7,158.5,98.4,158.4z M72.5,150.2h0.2c6.4,1.4,12.9,2.3,19.5,2.6
			c-0.5-4.6-1.4-16.9-1.5-18.5c-6.2-0.5-12.2-1.5-18.2-3.1c-0.3,6.3-0.3,12.5,0,18.8C72.5,150,72.5,150.2,72.5,150.2z M54.6,163.1
			c5.3,2.4,10.7,4.5,16.2,6.1l0.5,0.1l-0.2-0.5c-1.6-4.6-2.7-9.3-3.4-14.1v-0.1h-0.2c-6-1.8-11.8-4.1-17.4-6.9l-0.5-0.2v0.5
			c0.7,4.8,1.6,9.5,3,14.1v0.1L54.6,163.1z M26.1,130.2c-3.1-3.4-5.8-7-8.2-10.9l-0.5-0.8v1c-0.1,3.8,0,7.5,0.5,11.3
			c2.8,6.1,5.2,8.9,10.3,16.4l0.9,1.4l-0.4-1.6C27.3,141.4,26.4,135.8,26.1,130.2z M72.7,174c-6-1.6-11.9-3.7-17.7-6.2l-0.6-0.2
			l0.2,0.6c0.9,2.7,2.3,5.2,4,7.5c6.2,3.6,12.7,6.5,19.5,8.6l0.9,0.3c-2.5-3.2-4.6-6.7-6.2-10.5h-0.1V174z M48.4,163.9L48.4,163.9
			c-4.4-2.4-8.5-5.1-12.4-8.2l-1.3-0.9l0.3,0.9c0.1,0.2,1.4,3,1.5,3.3c4.4,4.9,9.5,9.1,15.1,12.5l1,0.6l-0.6-1
			C51.1,169.6,49.1,165.4,48.4,163.9z M52,117.4h0.2c5.2,3,10.7,5.3,16.4,7c0.7-5,1.2-10.7,2.5-16.4c-5.1-1.8-10.1-3.9-14.9-6.4
			c-1.3,3.6-3.2,11.5-4.1,15.6L52,117.4z M90.2,113c-5.1-0.8-10.1-2.1-14.9-3.7c-0.8,3.6-1.7,12.1-2.1,16.4h-0.1
			c5.6,1.8,11.3,2.9,17.2,3.3C90.6,124.2,89.9,118.7,90.2,113z M47.5,114.8c1.9-5.6,3.1-11,4.8-15.3c-3.9-2.2-7.6-4.7-11-7.5
			c-2.5,4.5-4.6,9.3-6.1,14.2C39,109.6,43.2,112.4,47.5,114.8z M25.6,46.5L25.6,46.5l0.1-0.1c0.5-3.2,1.4-6.2,2.7-9.1l0.9-2L27.9,37
			c-1.9,2.3-3.7,4.7-5.3,7.3c-1.9,2.9-3.5,6-4.9,9.2l-0.8,1.9l1.4-1.6C20.5,51.2,23,48.7,25.6,46.5z M16.7,70.6l0.5-0.7
			c2.6-3.3,5.5-6.3,8.6-9.1l0.8-0.7V60c-0.3-2.1-0.4-4.2-0.4-6.3c0-0.9,0-1.9,0-2.8v-0.6l-0.5,0.4c-3.1,2.4-6,5.2-8.4,8.4V59
			c-0.5,3.6-0.7,7.2-0.5,10.8v0.8H16.7z M31.3,102.3c2-4.7,4.4-9.2,7.2-13.6c-2.3-3.1-4.4-6.3-6.3-9.6c-3.2,4.2-6,8.7-8.5,13.3
			C25.9,96,28.4,99.3,31.3,102.3z M27.4,64.7L27,65.1c-3.4,3-6.6,6.4-9.3,10.1c0.1,0.7,0.7,2.7,1,3.6c0.8,3,1.7,6,2.9,8.9
			c2.5-4.5,5.3-8.8,8.5-12.9c-1-3.1-1.9-6.3-2.5-9.5L27.4,64.7z M116.2,151.2c-0.5-5.6-1.5-9.6-2.2-17.5c-7.8,0.6-12.9,0.8-17.9,1
			c0.4,7.8,1,12.9,1.6,17.9C103.9,152.6,110,152.2,116.2,151.2z M136.9,129.4c-5.9,1.6-11.8,2.9-17.8,3.8c0.2,3.8,1.6,13.1,1.9,17.3
			c5.9-0.8,11.7-2,17.4-3.7C138,141.1,137.7,137.4,136.9,129.4z"/>
		<path class="st1" d="M29.9,44.2l-0.5,0.3v-0.6c0.4-3.1,1.2-6.2,2.3-9.1l0.1-0.1c2.2-2,4.5-3.9,7-5.5l0.6-0.4l-0.1,0.7
			c-0.2,1.3-0.3,7.6-0.5,8.7v0.2h-0.1C35.5,40.2,30.7,43.7,29.9,44.2z M52.6,36.2v-0.4L52.2,36c-3.4,1.3-6.7,2.8-9.9,4.5h-0.2v0.2
			c0.1,2.7,0.3,6.3,0.7,9.7v0.5l0.4-0.2c3.2-1.8,6.6-3.4,10-4.8h0.2v-0.2c-0.1-1.1-0.2-2-0.3-2.8C53,40.6,52.8,39.1,52.6,36.2z
			 M79,7.7c-0.2-2.1-0.4-4.5-0.5-5.2V2h-0.3c-3.5,0.8-7,1.8-10.3,3h-0.2v0.2c0,0.8,0.2,2.7,0.3,4.5c0,1.2,0.2,2.6,0.3,3.2v0.3h0.3
			c3.2-0.7,6.9-1.5,10.5-2.1h0.3v-0.3C79.3,10.2,79.1,9.2,79,7.7z M52,32.3h0.2v-0.2c-0.2-3.2-0.2-6.4,0-9.4v-0.6l-0.5,0.2
			c-3.2,1.3-6.2,2.9-9.1,4.7h-0.1v0.1c-0.3,3.1-0.5,6.3-0.5,9.4V37l0.5-0.2C45.6,35,48.7,33.6,52,32.3z M45.6,21.7
			c2.1-1.3,4.2-2.4,6.4-3.5h0.2V18c0-0.6,0-1.3,0.1-1.9c0-0.8,0.1-1.7,0.2-2.5V13L52,13.3c-3.2,1.9-6.2,4.1-8.9,6.6V20
			c-0.1,0.3-0.1,0.8-0.2,1.4c0,0.4-0.1,0.9-0.2,1.5l-0.1,0.6l0.5-0.3L45.6,21.7z M39.8,52.5v-0.2c-0.4-3.3-0.7-6.6-0.7-9.9v-0.5
			l-0.5,0.3c-5,2.9-6.5,3.9-9,5.6h-0.1v0.1c-0.1,3.2,0.1,6.4,0.6,9.6v0.4l0.4-0.2c2.1-1.3,5.9-3.3,9.2-5.1L39.8,52.5z M39.2,25.8
			c0.1-0.4,0.2-0.8,0.3-1.2c0.1-0.4,0.2-0.9,0.3-1.3l0.2-0.9l-1.5,1.3c-2.7,2.6-5,5.5-7,8.7C34,30,36.6,27.9,39.2,25.8L39.2,25.8z
			 M65.3,17.9h-0.4c-3.3,0.9-6.6,2-9.7,3.5H55v0.2c0,3,0.1,5.8,0.3,9.1V31l0.4-0.2c3.5-1.2,6.4-2.3,10.2-3.3h0.3v-0.3
			c-0.4-3.2-0.7-6.3-0.9-9C65.3,18.2,65.3,17.9,65.3,17.9z M64.6,14.1h0.2v-0.3c0-0.6,0-1.6-0.2-2.6c-0.1-1.6-0.2-3.3-0.3-4.1V6.7
			l-0.4,0.1c-3.1,1.2-6,2.7-8.8,4.4L55,11.3v0.1c0,0.8,0,2,0,3.2V17l0.4-0.1C57.6,16,61.7,14.8,64.6,14.1z M30.9,62.1
			c0.6,2.5,1.7,6.5,2.7,9.9c3-2.3,6.1-4.5,9.3-6.4c-0.8-3-1.7-5.7-2.5-9.4C37.1,58,33.9,60,30.9,62.1z"/>
	</g>
</g>
</svg>
