<svg width="120" height="48" viewBox="0 0 120 48" fill="none" xmlns="http://www.w3.org/2000/svg">
<g opacity="0.5">
<path d="M40.8679 45.725C34.3252 45.646 27.9171 45.6881 21.5184 45.4633C11.9483 45.1272 4.1769 38.102 2.65387 28.6391C0.967589 18.1615 8.0987 8.04843 18.5691 6.06866C29.571 3.98831 40.1758 11.3567 41.8848 22.4178C42.9788 29.498 40.7737 35.5285 35.5323 40.4273C35.519 40.4398 35.5057 40.4521 35.4921 40.4643C34.9363 40.9628 34.9367 40.9623 35.5141 41.4214C37.1668 42.7352 38.8192 44.0494 40.4713 45.364C40.5793 45.45 40.6763 45.5497 40.8679 45.7248V45.725ZM36.3656 25.611C36.3678 17.8421 30.0675 11.5261 22.3113 11.5214C14.5589 11.5167 8.22526 17.8324 8.21248 25.5804C8.19971 33.3436 14.5582 39.7145 22.3122 39.7076C30.0667 39.7006 36.3634 33.3845 36.3655 25.611H36.3656ZM64.4427 39.404C63.1331 41.633 61.3645 43.2243 58.9071 43.9086C55.1447 44.9562 50.8143 43.9535 48.46 40.4987C47.3209 38.8272 46.7936 36.9464 46.6398 34.9581C46.4599 32.6307 46.5787 30.2964 46.5665 27.9652C46.5489 24.6128 46.5706 21.2602 46.5516 17.9078C46.5491 17.455 46.6714 17.3262 47.1249 17.3326C48.908 17.3582 50.692 17.3637 52.4749 17.3302C52.9901 17.3206 53.1445 17.4356 53.1417 17.9777C53.1179 22.4962 53.1292 27.0147 53.1275 31.5333C53.127 32.6647 53.1772 33.7922 53.3967 34.9045C53.7877 36.8847 55.1862 38.4306 56.8457 38.7332C59.8502 39.281 62.4796 37.7674 63.5561 34.8728C63.9346 33.8455 64.1243 32.7581 64.1159 31.6632C64.1102 27.09 64.1207 22.5169 64.1029 17.9437C64.1011 17.4758 64.196 17.3209 64.6952 17.3301C66.4964 17.3632 68.2985 17.353 70.1 17.3356C70.5003 17.3316 70.6634 17.3984 70.6626 17.8632C70.6465 26.2444 70.6453 34.6256 70.6587 43.0067C70.6592 43.3936 70.5918 43.5495 70.1582 43.5432C68.4114 43.5178 66.664 43.5212 64.9171 43.5414C64.5238 43.546 64.4285 43.4155 64.4349 43.0427C64.4557 41.8301 64.4427 40.6169 64.4427 39.404ZM104.203 22.8528C104.203 18.6824 104.209 14.5119 104.192 10.3416C104.191 9.89265 104.304 9.75534 104.762 9.76201C106.526 9.78803 108.291 9.79393 110.055 9.75906C110.563 9.749 110.647 9.92304 110.642 10.3788C110.619 12.5275 110.642 14.6766 110.623 16.8254C110.62 17.2274 110.722 17.3576 111.139 17.3525C112.958 17.3304 114.777 17.3561 116.596 17.3336C117.029 17.3281 117.197 17.4132 117.185 17.8921C117.152 19.2936 117.16 20.6965 117.182 22.0985C117.188 22.4844 117.071 22.59 116.691 22.5861C114.854 22.5677 113.016 22.5899 111.179 22.5688C110.755 22.564 110.62 22.6773 110.622 23.1169C110.639 26.9959 110.627 30.875 110.638 34.754C110.64 35.4644 110.74 36.1711 110.934 36.8543C111.279 38.0741 112.117 38.6355 113.321 38.7414C114.374 38.8521 115.438 38.7334 116.441 38.3932C116.735 38.2894 116.852 38.2877 116.864 38.6554C116.911 40.074 116.98 41.4922 117.059 42.9095C117.077 43.2284 117.003 43.4155 116.67 43.506C114.259 44.1635 111.824 44.3449 109.402 43.6581C106.595 42.8625 105.053 40.8877 104.511 38.074C104.3 36.9464 104.196 35.8011 104.203 34.6537C104.203 30.7201 104.203 26.7864 104.203 22.8527V22.8528ZM91.0726 22.9545C91.0726 16.2895 91.0685 9.62449 91.0604 2.9595C91.0589 2.42974 91.2005 2.29025 91.7232 2.3003C93.4688 2.33346 95.2149 2.33346 96.9613 2.3003C97.4812 2.29046 97.6277 2.42416 97.6268 2.95699C97.6094 11.5158 97.6052 20.0746 97.6144 28.6335C97.6144 33.4046 97.6062 38.1758 97.6268 42.9467C97.6289 43.4403 97.4913 43.5517 97.0185 43.544C95.2545 43.5154 93.4895 43.512 91.7258 43.5453C91.209 43.5552 91.0578 43.4349 91.0594 42.8947C91.0796 36.248 91.0725 29.6012 91.0725 22.9545H91.0726ZM84.0808 30.4959C84.0808 34.6292 84.0699 38.7627 84.0944 42.896C84.0976 43.4386 83.939 43.5544 83.425 43.5451C81.625 43.5128 79.8238 43.5226 78.0235 43.5408C77.644 43.5446 77.5318 43.438 77.5324 43.0521C77.5429 34.6397 77.5426 26.2272 77.5317 17.8148C77.5312 17.4169 77.6623 17.3323 78.0305 17.3356C79.8674 17.3521 81.7046 17.3558 83.5413 17.3337C83.9661 17.3286 84.0929 17.4372 84.0911 17.8772C84.0738 22.0834 84.0808 26.2897 84.0808 30.496V30.4959Z" fill="white"/>
<path d="M22.2819 35.4471C16.8716 35.4497 12.4619 31.0222 12.4675 25.5934C12.479 22.9891 13.5214 20.4956 15.3661 18.6595C17.2108 16.8233 19.7074 15.7943 22.3087 15.7979C24.91 15.8015 27.4037 16.8374 29.2434 18.6787C31.083 20.52 32.1184 23.0163 32.1227 25.6206C32.1256 31.0402 27.7148 35.4445 22.2819 35.4471Z" fill="white"/>
</g>
</svg>
