<svg width="243" height="48" viewBox="0 0 243 48" fill="none" xmlns="http://www.w3.org/2000/svg">
<g clip-path="url(#clip0_2614_518)" opacity="0.5">
<path d="M41.2493 24.8505L41.3165 24.8774L41.3837 24.9042L41.4471 24.9349L41.5105 24.9695L41.572 25.0041L41.6334 25.0425L41.6911 25.0866L41.7468 25.1289L41.7986 25.1768L41.8524 25.2248L41.9023 25.2786L41.9484 25.3304L41.9945 25.388L42.0349 25.4456L42.0752 25.5071L42.1098 25.5666L42.1424 25.6319L42.1731 25.6952L42.2 25.7605L42.2269 25.8277L42.2461 25.8968L42.2653 25.964L42.2788 26.0369L42.2922 26.1061L42.2999 26.179L42.3038 26.2481L42.3057 26.3192L42.3038 26.3921L42.2999 26.4631L42.2922 26.5342L42.2788 26.6052L42.2653 26.6743L42.2461 26.7454L42.2269 26.8126L42.2 26.8817L42.1731 26.9469L42.1424 27.0103L42.1098 27.0737L42.0752 27.1351L42.0349 27.1965L41.9945 27.2541L41.9484 27.3079L41.9023 27.3636L41.8524 27.4135L41.7986 27.4653L41.7468 27.5133L41.6911 27.5555L41.6334 27.5959L41.572 27.6381L41.5105 27.6726L41.4471 27.7072L41.3837 27.736L41.3165 27.7648L41.2493 27.7878L41.1821 27.8109L41.1129 27.8262L41.0438 27.8435L40.9708 27.8531L40.9017 27.8608L40.8287 27.8685H40.8171L40.8901 27.8666L41.0207 27.8608L41.1513 27.8531L41.2819 27.8416L41.4106 27.8243L41.5412 27.8051L41.6699 27.784L41.7986 27.7571L41.9254 27.7283L42.0541 27.6957L42.1808 27.6592L42.3057 27.6189L42.4286 27.5767L42.5515 27.5306L42.6725 27.4807L42.7935 27.4288L42.9126 27.3732L43.0298 27.3136L43.145 27.2522L43.2583 27.1869L43.3697 27.1178L43.4811 27.0487L43.5887 26.9757L43.6963 26.897L43.8 26.8164L43.9018 26.7358L44.0016 26.6494L44.0996 26.5611L44.1937 26.4727L44.2878 26.3787L44.3781 26.2846L44.4645 26.1867L44.549 26.0869L44.6316 25.9851L44.7123 25.8795L44.7891 25.7739L44.8621 25.6664L44.9351 25.5551L45.0023 25.4437L45.0676 25.3285L45.131 25.2133L45.1886 25.0981L45.2443 24.9791L45.2962 24.8582L45.3461 24.7372L45.3922 24.6143L45.4364 24.4895L45.4748 24.3648L45.5113 24.238L45.544 24.1113L45.5728 23.9846L45.5997 23.8541L45.6227 23.7254L45.6419 23.5968L45.6554 23.4663L45.6688 23.3357L45.6784 23.2032L45.6823 23.0727L45.6842 22.9421L45.6823 22.8116L45.6784 22.6791L45.6688 22.5486L45.6554 22.418L45.6419 22.2894L45.6227 22.1588L45.5997 22.0283L45.5728 21.9016L45.544 21.773L45.519 21.675H40.8498L40.7576 21.677H29.7136L41.1686 24.8274L41.2493 24.8505Z" fill="white"/>
<path d="M48.4923 25.9928L48.4827 25.8277L48.4712 25.6645L48.4558 25.4994L48.4366 25.3362L48.4155 25.1749L48.3886 25.0117L48.3579 24.8505L48.3271 24.6892L48.2906 24.5299L48.2503 24.3705L48.2081 24.2112L48.16 24.0537L48.1101 23.8982L48.0582 23.7408L48.0006 23.5872L47.9411 23.4355L47.8777 23.282L47.8124 23.1322L47.7432 22.9825L47.6722 22.8346L47.5954 22.6906L47.5166 22.5447L47.434 22.4027L47.3495 22.2606L47.2631 22.1224L47.1709 21.9841L47.0787 21.8498L46.9827 21.7173L46.95 21.675H45.5191L45.5441 21.773L45.5729 21.9016L45.5998 22.0283L45.6228 22.1588L45.642 22.2894L45.6555 22.418L45.6689 22.5486L45.6785 22.6791L45.6823 22.8116L45.6843 22.9421L45.6823 23.0727L45.6785 23.2032L45.6689 23.3357L45.6555 23.4663L45.642 23.5968L45.6228 23.7254L45.5998 23.8541L45.5729 23.9846L45.5441 24.1113L45.5114 24.238L45.4749 24.3648L45.4365 24.4895L45.3923 24.6143L45.3462 24.7372L45.2963 24.8582L45.2444 24.9791L45.1887 25.0981L45.1311 25.2133L45.0677 25.3285L45.0024 25.4437L44.9352 25.5551L44.8622 25.6664L44.7892 25.7739L44.7124 25.8795L44.6317 25.9851L44.5491 26.0869L44.4646 26.1867L44.3782 26.2846L44.2879 26.3787L44.1938 26.4727L44.0997 26.5611L44.0017 26.6494L43.9019 26.7358L43.8001 26.8164L43.6964 26.897L43.5888 26.9757L43.4812 27.0487L43.3698 27.1178L43.2584 27.1869L43.1451 27.2522L43.0299 27.3136L42.9127 27.3732L42.7936 27.4288L42.6726 27.4807L42.5516 27.5306L42.4287 27.5767L42.3058 27.6189L42.1809 27.6592L42.0542 27.6957L41.9255 27.7283L41.7987 27.7571L41.67 27.784L41.5413 27.8051L41.4107 27.8243L41.282 27.8416L41.1514 27.8531L41.0208 27.8608L40.8902 27.8666L40.7577 27.8685H0.5V34.0619H40.7577L40.9229 34.06L41.0861 34.0561L41.2513 34.0465L41.4146 34.0331L41.5778 34.0177L41.7411 34.0005L41.9043 33.9755L42.0657 33.9505L42.227 33.9217L42.3884 33.8872L42.5497 33.8507L42.7072 33.8123L42.8666 33.7682L43.026 33.7221L43.1816 33.6741L43.3372 33.6184L43.4908 33.5627L43.6445 33.5032L43.7962 33.4418L43.946 33.3765L44.0959 33.3055L44.2437 33.2325L44.3897 33.1577L44.5338 33.0789L44.6759 32.9983L44.818 32.9119L44.9544 32.8255L45.0927 32.7353L45.2291 32.6412L45.3616 32.5452L45.4922 32.4454L45.6209 32.3436L45.7496 32.238L45.8744 32.1305L45.9954 32.023L46.1145 31.9098L46.2317 31.7946L46.3469 31.6774L46.4583 31.5565L46.5697 31.4355L46.6773 31.3108L46.781 31.184L46.8828 31.0554L46.9827 30.9229L47.0787 30.7905L47.1709 30.6561L47.2631 30.5179L47.3495 30.3796L47.434 30.2376L47.5166 30.0955L47.5954 29.9515L47.6722 29.8056L47.7432 29.6578L47.8124 29.5099L47.8777 29.3583L47.9411 29.2066L48.0006 29.0549L48.0582 28.8994L48.1101 28.7439L48.16 28.5884L48.2081 28.4291L48.2503 28.2716L48.2906 28.1123L48.3271 27.951L48.3579 27.7917L48.3886 27.6304L48.4155 27.4672L48.4366 27.304L48.4558 27.1409L48.4712 26.9777L48.4827 26.8126L48.4923 26.6494L48.4981 26.4862L48.5 26.3211L48.4981 26.156L48.4923 25.9928Z" fill="white"/>
<path d="M7.75055 23.1438L7.68333 23.1188L7.6161 23.0919L7.55272 23.0612L7.48742 23.0267L7.42787 22.9902L7.36641 22.9518L7.30879 22.9095L7.25309 22.8654L7.19931 22.8174L7.14745 22.7694L7.09752 22.7176L7.05142 22.6638L7.00532 22.6062L6.96499 22.5486L6.92465 22.4891L6.89008 22.4296L6.85743 22.3643L6.82478 22.299L6.79981 22.2357L6.77292 22.1685L6.75371 22.0974L6.7345 22.0303L6.71914 21.9592L6.70761 21.8901L6.69993 21.8172L6.69609 21.748L6.69417 21.6751L6.69609 21.604L6.69993 21.5311L6.70761 21.462L6.71914 21.3909L6.7345 21.3199L6.75371 21.2508L6.77292 21.1836L6.79981 21.1145L6.82478 21.0492L6.85743 20.9839L6.89008 20.9225L6.92465 20.8591L6.96499 20.7996L7.00532 20.742L7.05142 20.6864L7.09752 20.6326L7.14745 20.5808L7.19931 20.5309L7.25309 20.4829L7.30879 20.4406L7.36641 20.3984L7.42787 20.3581L7.48742 20.3216L7.55272 20.289L7.6161 20.2602L7.68333 20.2314L7.75055 20.2064L7.81777 20.1853L7.88692 20.168L7.95606 20.1526L8.02905 20.143L8.0982 20.1354L8.16926 20.1277H8.18271H8.10972L7.97911 20.1334L7.84851 20.143L7.7179 20.1546L7.58921 20.1699L7.45861 20.1891L7.328 20.2122L7.20123 20.2371L7.07255 20.2678L6.94578 20.3005L6.81902 20.3369L6.69417 20.3773L6.57125 20.4195L6.4464 20.4637L6.32732 20.5136L6.20631 20.5673L6.08723 20.623L5.97007 20.6825L5.85291 20.744L5.74151 20.8073L5.63011 20.8764L5.51871 20.9475L5.40923 21.0204L5.30359 21.0991L5.19795 21.1778L5.09808 21.2604L4.9982 21.3449L4.90024 21.4332L4.80613 21.5234L4.71202 21.6156L4.62174 21.7116L4.53531 21.8076L4.44888 21.9074L4.36821 22.0111L4.28562 22.1147L4.21072 22.2203L4.13581 22.3297L4.06474 22.4392L3.99752 22.5525L3.93222 22.6657L3.86883 22.7828L3.81121 22.898L3.75551 23.0171L3.70365 23.138L3.65372 23.259L3.60762 23.3818L3.56344 23.5066L3.52503 23.6314L3.48854 23.7581L3.45588 23.8829L3.42707 24.0115L3.40018 24.1402L3.37714 24.2707L3.35793 24.3993L3.34448 24.5299L3.33104 24.6585L3.32144 24.791L3.31759 24.9215L3.31567 25.0521L3.31759 25.1846L3.32144 25.3151L3.33104 25.4457L3.34448 25.5762L3.35793 25.7068L3.37714 25.8373L3.40018 25.9659L3.42707 26.0946L3.45588 26.2213L3.48085 26.3211H8.15005L8.24225 26.3192H19.2862L7.83122 23.1687L7.75055 23.1438Z" fill="white"/>
<path d="M0.507683 22.0034L0.515366 22.1685L0.52881 22.3317L0.544176 22.4949L0.563383 22.6581L0.58451 22.8213L0.6114 22.9826L0.64021 23.1457L0.672862 23.307L0.709355 23.4664L0.74969 23.6257L0.791945 23.7851L0.839962 23.9425L0.8899 24.098L0.941759 24.2535L0.99938 24.409L1.05892 24.5607L1.1223 24.7143L1.18761 24.864L1.25675 25.0138L1.32782 25.1597L1.40465 25.3056L1.48339 25.4515L1.56598 25.5936L1.65049 25.7337L1.73693 25.8719L1.8272 26.0102L1.92131 26.1465L2.01735 26.2789L2.05 26.3212H3.48091L3.45594 26.2213L3.42713 26.0946L3.40024 25.966L3.3772 25.8374L3.35799 25.7068L3.34454 25.5763L3.3311 25.4457L3.3215 25.3152L3.31765 25.1846L3.31573 25.0522L3.31765 24.9216L3.3215 24.7911L3.3311 24.6586L3.34454 24.53L3.35799 24.3994L3.3772 24.2708L3.40024 24.1402L3.42713 24.0116L3.45594 23.883L3.4886 23.7582L3.52509 23.6315L3.5635 23.5067L3.60768 23.3819L3.65378 23.259L3.70371 23.1381L3.75557 23.0171L3.81127 22.8981L3.86889 22.7829L3.93228 22.6658L3.99758 22.5525L4.0648 22.4392L4.13587 22.3298L4.21078 22.2204L4.28568 22.1148L4.36827 22.0111L4.44894 21.9074L4.53537 21.8076L4.6218 21.7116L4.71208 21.6156L4.80619 21.5235L4.9003 21.4332L4.99826 21.3449L5.09814 21.2605L5.19801 21.1779L5.30365 21.0992L5.40929 21.0205L5.51877 20.9475L5.63017 20.8765L5.74157 20.8074L5.85297 20.744L5.97013 20.6826L6.08729 20.6231L6.20637 20.5674L6.32738 20.5136L6.44646 20.4637L6.57131 20.4196L6.69423 20.3773L6.81908 20.337L6.94584 20.3005L7.07261 20.2679L7.20129 20.2372L7.32806 20.2122L7.45866 20.1892L7.58927 20.17L7.71796 20.1546L7.84857 20.1431L7.97917 20.1335L8.10978 20.1277L8.24231 20.1258H48.5V13.9343H8.24231L8.07713 13.9362L7.91387 13.9401L7.74869 13.9497L7.58543 13.9612L7.42025 13.9766L7.25891 13.9958L7.09565 14.0188L6.93432 14.0438L6.77298 14.0745L6.60972 14.1071L6.4503 14.1436L6.29088 14.1839L6.13339 14.2261L5.97397 14.2741L5.81839 14.3221L5.66282 14.3759L5.50916 14.4316L5.35551 14.493L5.20377 14.5544L5.05396 14.6197L4.90415 14.6907L4.75625 14.7637L4.61028 14.8367L4.46623 14.9173L4.3241 14.9979L4.18197 15.0824L4.04368 15.1707L3.90539 15.2609L3.77094 15.355L3.63841 15.451L3.50588 15.5489L3.37912 15.6507L3.25043 15.7563L3.12559 15.8638L3.00458 15.9732L2.8855 16.0865L2.76834 16.1997L2.6531 16.3188L2.53977 16.4397L2.43029 16.5607L2.32274 16.6855L2.21902 16.8122L2.11722 16.9408L2.01735 17.0714L1.92131 17.2057L1.8272 17.3401L1.73693 17.4764L1.65049 17.6166L1.56598 17.7587L1.48339 17.9007L1.40465 18.0428L1.32782 18.1887L1.25675 18.3385L1.18761 18.4863L1.1223 18.6379L1.05892 18.7877L0.99938 18.9413L0.941759 19.0949L0.8899 19.2504L0.839962 19.4078L0.791945 19.5652L0.74969 19.7246L0.709355 19.8839L0.672862 20.0452L0.64021 20.2045L0.6114 20.3658L0.58451 20.529L0.563383 20.6922L0.544176 20.8554L0.52881 21.0186L0.515366 21.1817L0.507683 21.3449L0.5 21.51V21.6751V21.8403L0.507683 22.0034Z" fill="white"/>
<path d="M7.75055 9.21136L7.68333 9.18448L7.6161 9.15568L7.5508 9.12689L7.48934 9.09233L7.42595 9.05777L7.36641 9.01937L7.30879 8.97522L7.25117 8.93298L7.19739 8.88498L7.14553 8.83699L7.09752 8.78323L7.05142 8.7314L7.00532 8.6738L6.96307 8.61621L6.92465 8.55477L6.88816 8.49334L6.85551 8.42998L6.82286 8.36663L6.79789 8.30135L6.77292 8.23224L6.75179 8.16504L6.7345 8.09785L6.71914 8.02489L6.70761 7.95578L6.69801 7.88282L6.69609 7.81179L6.69417 7.73884L6.69609 7.6678L6.69801 7.59869L6.70761 7.52765L6.71914 7.45662L6.7345 7.3875L6.75179 7.31647L6.77292 7.24736L6.79789 7.18016L6.82286 7.11489L6.85551 7.05153L6.88816 6.98626L6.92465 6.92674L6.96307 6.86531L7.00532 6.80771L7.05142 6.75395L7.09752 6.69828L7.14553 6.64452L7.19739 6.59653L7.25117 6.54853L7.30879 6.50629L7.36641 6.46598L7.42595 6.42374L7.48934 6.38918L7.5508 6.35463L7.6161 6.32391L7.68333 6.29703L7.75055 6.27399L7.81777 6.25096L7.88692 6.23176L7.95799 6.21832L8.02713 6.2068L8.0982 6.19912L8.17118 6.19336H8.19423H8.10972L7.97911 6.19912L7.84851 6.20872L7.7179 6.22024L7.58921 6.23752L7.45861 6.25671L7.328 6.27783L7.20123 6.30471L7.07255 6.33351L6.94578 6.36615L6.81902 6.40262L6.69417 6.44294L6.57125 6.48518L6.4464 6.53125L6.32732 6.57925L6.20631 6.633L6.08723 6.68868L5.97007 6.7482L5.85291 6.80963L5.74151 6.87299L5.62819 6.9421L5.51871 7.01313L5.40923 7.08609L5.30359 7.1648L5.19795 7.24352L5.09615 7.32607L4.9982 7.41246L4.90024 7.49886L4.80421 7.58909L4.71202 7.68124L4.62174 7.77723L4.53531 7.87515L4.44888 7.97498L4.36821 8.07673L4.28562 8.18232L4.21072 8.28791L4.13581 8.39542L4.06474 8.50485L3.99752 8.61813L3.93222 8.7314L3.86883 8.84851L3.81121 8.9637L3.75551 9.08273L3.70365 9.20368L3.65372 9.32463L3.60762 9.4475L3.56344 9.57229L3.52503 9.69708L3.48854 9.82379L3.45588 9.9505L3.42515 10.0772L3.40018 10.2058L3.37714 10.3364L3.35793 10.465L3.34256 10.5956L3.33104 10.7242L3.32144 10.8567L3.31759 10.9891L3.31567 11.1197L3.31759 11.2502L3.32144 11.3827L3.33104 11.5133L3.34256 11.6438L3.35793 11.7724L3.37714 11.903L3.40018 12.0335L3.42515 12.1602L3.45588 12.2889L3.48854 12.4156L3.52503 12.5404L3.56344 12.6671L3.60762 12.79L3.65372 12.9128L3.70365 13.0338L3.75551 13.1547L3.81121 13.2738L3.86883 13.3909L3.90725 13.4581L3.91109 13.4561L4.07243 13.3736L4.23376 13.2949L4.39702 13.2181L4.5622 13.147L4.72738 13.0741L4.8964 13.0088L5.0635 12.9474L5.23444 12.884L5.40539 12.8303L5.57825 12.7765L5.75111 12.7266L5.92397 12.6786L6.09876 12.6344L6.27546 12.596L6.45216 12.5615L6.62695 12.5269L6.80557 12.4981L6.98419 12.4713L7.16282 12.4482L7.34336 12.429L7.52199 12.4137L7.70253 12.4002L7.87924 12.3925L8.06362 12.3887L8.24225 12.3849H19.2862L7.8293 9.2344L7.75055 9.21136Z" fill="white"/>
<path d="M40.7576 41.8066H40.8901L41.0207 41.7989L41.1513 41.7913L41.2819 41.7797L41.4126 41.7625L41.5432 41.7433L41.6718 41.7222L41.8005 41.6953L41.9273 41.6665L42.056 41.6338L42.1808 41.5974L42.3057 41.557L42.4305 41.5148L42.5534 41.4687L42.6725 41.4188L42.7935 41.367L42.9126 41.3113L43.0298 41.2518L43.1469 41.1904L43.2603 41.1251L43.3717 41.056L43.4811 40.9849L43.5906 40.912L43.6982 40.8352L43.8019 40.7545L43.9037 40.6739L44.0036 40.5875L44.0996 40.4992L44.1956 40.4109L44.2878 40.3168L44.3781 40.2228L44.4665 40.1248L44.551 40.025L44.6336 39.9233L44.7142 39.8177L44.7891 39.7121L44.864 39.6046L44.9351 39.4932L45.0023 39.3819L45.0676 39.2667L45.131 39.1515L45.1906 39.0344L45.2463 38.9173L45.2962 38.7963L45.3481 38.6734L45.3922 38.5525L45.4364 38.4277L45.4767 38.3029L45.5113 38.1762L45.5459 38.0495L45.5747 37.9228L45.5997 37.7922L45.6227 37.6636L45.6419 37.535L45.6573 37.4025L45.6707 37.2739L45.6784 37.1414L45.6842 37.0108V36.8803V36.7497L45.6784 36.6173L45.6707 36.4867L45.6573 36.3562L45.6419 36.2276L45.6227 36.097L45.5997 35.9665L45.5747 35.8397L45.5459 35.7111L45.5113 35.5844L45.4767 35.4596L45.4364 35.3329L45.3922 35.2081L45.3481 35.0872L45.2962 34.9662L45.2463 34.8453L45.1906 34.7262L45.131 34.6091L45.0926 34.5381L45.0888 34.54L44.9274 34.6226L44.7661 34.7013L44.6028 34.7781L44.4376 34.851L44.2705 34.9201L44.1034 34.9873L43.9363 35.0488L43.7654 35.1102L43.5925 35.1678L43.4216 35.2196L43.2507 35.2695L43.074 35.3175L42.9011 35.3598L42.7244 35.4001L42.5477 35.4366L42.371 35.4692L42.1943 35.498L42.0156 35.5249L41.837 35.5479L41.6584 35.5671L41.4779 35.5825L41.2973 35.594L41.1168 35.6036L40.9381 35.6094L40.7576 35.6113H29.7136L41.1686 38.7617L41.2493 38.7867L41.3165 38.8117L41.3837 38.8385L41.4471 38.8693L41.5105 38.9038L41.572 38.9403L41.6334 38.9787L41.6911 39.0209L41.7468 39.0651L41.7986 39.1131L41.8524 39.1611L41.9023 39.2129L41.9484 39.2667L41.9945 39.3243L42.0349 39.3819L42.0752 39.4414L42.1098 39.5009L42.1424 39.5662L42.1731 39.6314L42.2 39.6948L42.2269 39.762L42.2461 39.833L42.2653 39.9002L42.2788 39.9713L42.2922 40.0404L42.2999 40.1133L42.3038 40.1824L42.3057 40.2554L42.3038 40.3264L42.2999 40.3994L42.2922 40.4685L42.2788 40.5395L42.2653 40.6106L42.2461 40.6797L42.2269 40.7469L42.2 40.816L42.1731 40.8813L42.1424 40.9465L42.1098 41.008L42.0752 41.0713L42.0349 41.1308L41.9945 41.1884L41.9484 41.2441L41.9023 41.2979L41.8524 41.3497L41.7986 41.3996L41.7468 41.4476L41.6911 41.4899L41.6334 41.5321L41.572 41.5724L41.5105 41.6089L41.4471 41.6415L41.3837 41.6703L41.3165 41.6991L41.2493 41.7241L41.1821 41.7452L41.1129 41.7625L41.0438 41.7778L40.9708 41.7874L40.9017 41.7951L40.8287 41.8028L40.7576 41.8047" fill="white"/>
<path d="M48.4923 39.929L48.4846 39.7658L48.4731 39.6027L48.4558 39.4375L48.4385 39.2744L48.4155 39.1131L48.3886 38.9499L48.3598 38.7886L48.3271 38.6274L48.2906 38.4661L48.2503 38.3087L48.2081 38.1493L48.162 37.99L48.112 37.8364L48.0582 37.679L48.0006 37.5254L47.943 37.3737L47.8796 37.2201L47.8124 37.0704L47.7452 36.9206L47.6722 36.7728L47.5954 36.6288L47.5185 36.4829L47.4359 36.3408L47.3495 36.1988L47.2631 36.0605L47.1728 35.9223L47.0787 35.7879L46.9827 35.6555L46.8828 35.523L46.7829 35.3963L46.6773 35.2676L46.5697 35.1448L46.4602 35.0219L46.3469 34.9029L46.2336 34.7838L46.1145 34.6706L45.9954 34.5573L45.8744 34.4479L45.7496 34.3404L45.6228 34.2348L45.6151 34.229L45.4346 34.3384L45.2752 34.4287L45.11 34.5189L45.0889 34.5304L45.1311 34.6091L45.1906 34.7262L45.2463 34.8453L45.2963 34.9662L45.3481 35.0872L45.3923 35.2081L45.4365 35.3329L45.4768 35.4596L45.5114 35.5844L45.546 35.7111L45.5748 35.8398L45.5998 35.9665L45.6228 36.097L45.642 36.2276L45.6574 36.3562L45.6708 36.4867L45.6785 36.6173L45.6843 36.7498V36.8803V37.0109L45.6785 37.1414L45.6708 37.2739L45.6574 37.4025L45.642 37.535L45.6228 37.6636L45.5998 37.7922L45.5748 37.9228L45.546 38.0495L45.5114 38.1762L45.4768 38.3029L45.4365 38.4277L45.3923 38.5525L45.3481 38.6734L45.2963 38.7963L45.2463 38.9173L45.1906 39.0344L45.1311 39.1515L45.0677 39.2667L45.0024 39.3819L44.9352 39.4932L44.8641 39.6046L44.7892 39.7121L44.7143 39.8177L44.6336 39.9233L44.5511 40.025L44.4665 40.1249L44.3782 40.2228L44.2879 40.3168L44.1957 40.4109L44.0997 40.4992L44.0037 40.5875L43.9038 40.6739L43.802 40.7546L43.6983 40.8352L43.5907 40.912L43.4812 40.9849L43.3718 41.056L43.2604 41.1251L43.147 41.1904L43.0299 41.2518L42.9127 41.3113L42.7936 41.367L42.6726 41.4188L42.5535 41.4687L42.4306 41.5148L42.3058 41.5571L42.1809 41.5974L42.0561 41.6339L41.9274 41.6665L41.8006 41.6953L41.6719 41.7222L41.5433 41.7433L41.4126 41.7625L41.282 41.7798L41.1514 41.7913L41.0208 41.799L40.8902 41.8066H40.7577H0.5V48.0001H40.7577L40.9229 47.9981L41.0861 47.9943L41.2513 47.9847L41.4146 47.9713L41.5798 47.9578L41.743 47.9386L41.9063 47.9137L42.0676 47.8887L42.2289 47.8599L42.3903 47.8254L42.5497 47.7889L42.7091 47.7505L42.8666 47.7082L43.026 47.6603L43.1816 47.6123L43.3372 47.5566L43.4928 47.5009L43.6464 47.4414L43.7981 47.38L43.948 47.3147L44.0978 47.2436L44.2437 47.1707L44.3916 47.0958L44.5338 47.0171L44.6778 46.9365L44.818 46.852L44.9563 46.7618L45.0946 46.6734L45.2291 46.5794L45.3616 46.4815L45.4941 46.3836L45.6228 46.2818L45.7496 46.1762L45.8744 46.0687L45.9954 45.9612L46.1145 45.8479L46.2336 45.7327L46.3469 45.6156L46.4602 45.4947L46.5697 45.3737L46.6773 45.2489L46.7829 45.1222L46.8828 44.9936L46.9827 44.863L47.0787 44.7286L47.1728 44.5943L47.2631 44.456L47.3495 44.3178L47.4359 44.1757L47.5185 44.0337L47.5954 43.8897L47.6722 43.7438L47.7452 43.5959L47.8124 43.4481L47.8796 43.2964L47.943 43.1448L48.0006 42.9931L48.0582 42.8376L48.112 42.6821L48.162 42.5247L48.2081 42.3672L48.2503 42.2098L48.2906 42.0485L48.3271 41.8892L48.3598 41.7298L48.3886 41.5667L48.4155 41.4054L48.4385 41.2422L48.4558 41.079L48.4731 40.9158L48.4846 40.7507L48.4923 40.5875L48.5 40.4243V40.2592V40.0941L48.4923 39.929Z" fill="white"/>
<path d="M0.507683 8.06911L0.515366 8.23422L0.52689 8.39741L0.544176 8.56251L0.563383 8.7257L0.58451 8.88697L0.6114 9.05016L0.64021 9.21142L0.672862 9.37269L0.709355 9.53204L0.74969 9.69138L0.791945 9.84881L0.838042 10.0082L0.8899 10.1637L0.941759 10.3192L0.99938 10.4747L1.057 10.6263L1.12038 10.7799L1.18761 10.9297L1.25675 11.0794L1.32782 11.2253L1.40465 11.3713L1.48339 11.5172L1.56406 11.6592L1.65049 11.8013L1.73693 11.9376L1.8272 12.0758L1.92131 12.2121L2.01735 12.3446L2.11722 12.4771L2.21902 12.6038L2.32274 12.7324L2.43029 12.8553L2.53977 12.9782L2.6531 13.0972L2.76834 13.2143L2.8855 13.3295L3.00458 13.4428L3.12559 13.5522L3.25043 13.6597L3.37912 13.7634L3.38488 13.7691L3.56542 13.6616L3.72484 13.5714L3.89002 13.4792L3.91307 13.4696L3.86889 13.3909L3.81127 13.2738L3.75557 13.1548L3.70371 13.0338L3.65378 12.9129L3.60768 12.79L3.5635 12.6671L3.52509 12.5404L3.4886 12.4156L3.45594 12.2889L3.42521 12.1603L3.40024 12.0336L3.3772 11.903L3.35799 11.7725L3.34262 11.6439L3.3311 11.5133L3.3215 11.3828L3.31765 11.2503L3.31573 11.1198L3.31765 10.9892L3.3215 10.8567L3.3311 10.7243L3.34262 10.5956L3.35799 10.4651L3.3772 10.3365L3.40024 10.2059L3.42521 10.0773L3.45594 9.95056L3.4886 9.82385L3.52509 9.69714L3.5635 9.57235L3.60768 9.44756L3.65378 9.32469L3.70371 9.20374L3.75557 9.08279L3.81127 8.96376L3.86889 8.84857L3.93228 8.73146L3.99758 8.61819L4.0648 8.50492L4.13587 8.39549L4.21078 8.28798L4.28568 8.18239L4.36827 8.07679L4.44894 7.97504L4.53537 7.87521L4.6218 7.7773L4.71208 7.6813L4.80427 7.58915L4.9003 7.49892L4.99826 7.41253L5.09621 7.32613L5.19801 7.24358L5.30365 7.16487L5.40929 7.08615L5.51877 7.0132L5.62825 6.94216L5.74157 6.87305L5.85297 6.8097L5.97013 6.74826L6.08729 6.68875L6.20637 6.63307L6.32738 6.57931L6.44646 6.53132L6.57131 6.48524L6.69423 6.443L6.81908 6.40269L6.94584 6.36621L7.07261 6.33357L7.20129 6.30478L7.32806 6.2779L7.45866 6.25678L7.58927 6.23758L7.71796 6.2203L7.84857 6.20878L7.97917 6.19918L8.10978 6.19342H8.24231H48.5V0H8.24231H8.07713L7.91387 0.00575954L7.74869 0.0153588L7.58543 0.0287977L7.42025 0.0422366L7.25699 0.0614351L7.09565 0.0863931L6.9324 0.109431L6.77106 0.140149L6.60972 0.172786L6.4503 0.211183L6.29088 0.24958L6.13339 0.291817L5.97397 0.339813L5.81839 0.387809L5.66282 0.441565L5.50916 0.49724L5.35359 0.558675L5.20377 0.62011L5.05396 0.685385L4.90415 0.756419L4.75625 0.827454L4.61028 0.904248L4.46623 0.982961L4.3241 1.06359L4.18197 1.14807L4.04368 1.23638L3.90539 1.32661L3.77094 1.42069L3.63841 1.51668L3.50588 1.61651L3.37912 1.71826L3.25043 1.82385L3.12559 1.92945L3.00458 2.03888L2.8855 2.15215L2.76834 2.26734L2.6531 2.38445L2.53977 2.50348L2.43029 2.62635L2.32274 2.75114L2.21902 2.87785L2.11722 3.00648L2.01735 3.13703L1.92131 3.27142L1.8272 3.40581L1.73693 3.54212L1.65049 3.68227L1.56406 3.82241L1.48339 3.9664L1.40465 4.11039L1.32782 4.25438L1.25675 4.40413L1.18761 4.55196L1.12038 4.70362L1.057 4.85529L0.99938 5.00696L0.941759 5.16055L0.8899 5.31797L0.838042 5.47348L0.791945 5.63091L0.74969 5.79026L0.709355 5.9496L0.672862 6.11087L0.64021 6.27022L0.6114 6.43149L0.58451 6.59467L0.563383 6.75786L0.544176 6.92105L0.52689 7.08423L0.515366 7.24934L0.507683 7.41253L0.5 7.57571V7.74082V7.90593L0.507683 8.06911Z" fill="white"/>
<path d="M75.8158 38.95H63.5019V34.1062H75.8158C77.7222 34.1062 79.1909 33.7376 80.2219 32.9965C81.2528 32.2574 81.7693 31.3032 81.7693 30.136C81.7693 28.9687 81.2816 28.1124 80.3102 27.5672C79.3368 27.0239 77.8969 26.5747 75.9905 26.2252L74.0054 25.8758C72.0587 25.5264 70.2886 25.0196 68.6951 24.3592C67.0997 23.6987 65.8345 22.783 64.9015 21.6157C63.9684 20.4484 63.5 18.9509 63.5 17.1213C63.5 14.399 64.5118 12.2872 66.5353 10.7897C68.5588 9.2922 71.2427 8.54346 74.589 8.54346H86.6111V13.4467H74.589C72.9552 13.4467 71.6709 13.7482 70.7378 14.351C69.8048 14.9538 69.3363 15.8005 69.3363 16.889C69.3363 18.0563 69.7933 18.9125 70.7071 19.4578C71.621 20.003 72.8573 20.4119 74.4124 20.6826L76.4551 21.0321C78.517 21.3815 80.4042 21.8691 82.1167 22.4911C83.8293 23.1132 85.1808 24.0078 86.1734 25.1751C87.1659 26.3424 87.6613 27.8993 87.6613 29.8442C87.6613 32.7239 86.59 34.9605 84.4513 36.5559C82.3107 38.1513 79.4328 38.9481 75.8139 38.9481L75.8158 38.95Z" fill="white"/>
<path d="M150.4 47.8042V34.2233H149.467C149.039 35.0027 148.417 35.7515 147.599 36.4695C146.781 37.1894 145.74 37.7826 144.477 38.2492C143.212 38.7157 141.647 38.9499 139.779 38.9499C137.366 38.9499 135.149 38.3663 133.125 37.199C131.102 36.0318 129.487 34.35 128.281 32.1498C127.076 29.9516 126.473 27.2964 126.473 24.1825V23.307C126.473 20.1949 127.085 17.5398 128.312 15.3396C129.537 13.1414 131.161 11.4577 133.185 10.2905C135.208 9.12318 137.406 8.53955 139.779 8.53955C142.58 8.53955 144.731 9.04639 146.228 10.0562C147.726 11.068 148.845 12.2161 149.584 13.5004H150.517V8.53955H156.413V47.8004H150.402L150.4 47.8042ZM141.471 33.6972C144.116 33.6972 146.276 32.8602 147.948 31.188C149.62 29.5158 150.458 27.1217 150.458 24.0097V23.4836C150.458 20.41 149.611 18.037 147.919 16.3629C146.226 14.6907 144.076 13.8537 141.471 13.8537C138.866 13.8537 136.773 14.6907 135.08 16.3629C133.386 18.037 132.542 20.41 132.542 23.4836V24.0097C132.542 27.1237 133.388 29.5158 135.08 31.188C136.773 32.8621 138.902 33.6972 141.471 33.6972Z" fill="white"/>
<path d="M120.711 23.1323C120.711 20.2142 120.128 17.6665 118.96 15.4875C117.793 13.3085 116.167 11.6056 114.088 10.3807C112.005 9.15585 109.582 8.5415 106.821 8.5415C104.061 8.5415 101.49 9.16353 99.3512 10.4095C98.2799 11.0315 97.3257 11.7745 96.4848 12.6423C96.3793 12.7498 96.2756 12.8612 96.1719 12.9725C95.8647 13.3104 95.5787 13.6637 95.3061 14.0323C94.9451 14.5257 94.6092 15.0498 94.302 15.6046C93.0771 17.822 92.4628 20.4292 92.4628 23.4261V24.1268C92.4628 27.1237 93.0752 29.7289 94.302 31.9483C95.5268 34.1657 97.2297 35.8878 99.4088 37.1127C101.586 38.3375 104.135 38.9519 107.054 38.9519C109.622 38.9519 111.761 38.5429 113.474 37.727C115.186 36.9092 116.547 35.8974 117.559 34.6917C117.839 34.3558 118.104 34.0255 118.352 33.6992C118.997 32.8525 119.531 32.0366 119.951 31.2475L114.933 28.6788C114.311 30.0035 113.424 31.1707 112.278 32.1806C111.128 33.1923 109.427 33.6973 107.171 33.6973C104.757 33.6973 102.744 32.9466 101.131 31.451C101.031 31.357 100.933 31.2648 100.839 31.165C100.743 31.0651 100.653 30.9672 100.563 30.8674C100.348 30.6197 100.148 30.3606 99.9636 30.0879C99.1784 28.9092 98.7291 27.5057 98.6159 25.8796C98.6044 25.7241 98.5986 25.5667 98.5928 25.4093H120.713V23.1323H120.711ZM102.619 20.7978L99.5451 23.8715H98.5333C98.518 22.9864 98.5333 21.8499 98.6504 20.7978C98.708 20.3985 98.7848 20.0126 98.8847 19.6421C98.9806 19.2715 99.0978 18.9183 99.2341 18.5804C99.6872 17.4534 100.361 16.4993 101.248 15.7198C102.667 14.4738 104.504 13.8518 106.764 13.8518C109.023 13.8518 110.849 14.4738 112.251 15.7198C113.652 16.9658 114.449 18.6591 114.643 20.7978H102.621H102.619Z" fill="white"/>
<path d="M190.419 23.1323C190.419 20.2142 189.836 17.6665 188.668 15.4875C187.501 13.3085 185.875 11.6056 183.796 10.3807C181.713 9.15585 179.29 8.5415 176.529 8.5415C173.768 8.5415 171.198 9.16353 169.059 10.4095C167.988 11.0315 167.034 11.7745 166.193 12.6423C166.087 12.7498 165.983 12.8612 165.88 12.9725C165.573 13.3104 165.286 13.6637 165.014 14.0323C164.653 14.5257 164.317 15.0498 164.01 15.6046C162.785 17.822 162.171 20.4292 162.171 23.4261V24.1268C162.171 27.1237 162.783 29.7289 164.01 31.9483C165.235 34.1657 166.938 35.8878 169.117 37.1127C171.294 38.3375 173.843 38.9519 176.761 38.9519C179.33 38.9519 181.469 38.5429 183.181 37.727C184.894 36.9092 186.255 35.8974 187.267 34.6917C187.547 34.3558 187.812 34.0255 188.06 33.6992C188.705 32.8525 189.238 32.0366 189.659 31.2475L184.64 28.6788C184.018 30.0035 183.131 31.1707 181.985 32.1806C180.835 33.1923 179.134 33.6973 176.878 33.6973C174.465 33.6973 172.451 32.9466 170.839 31.451C170.739 31.357 170.641 31.2648 170.547 31.165C170.451 31.0651 170.361 30.9672 170.27 30.8674C170.055 30.6197 169.856 30.3606 169.671 30.0879C168.886 28.9092 168.437 27.5057 168.324 25.8796C168.312 25.7241 168.306 25.5667 168.301 25.4093H190.421V23.1323H190.419ZM172.327 20.7978L169.253 23.8715H168.241C168.226 22.9864 168.241 21.8499 168.358 20.7978C168.416 20.3985 168.493 20.0126 168.592 19.6421C168.688 19.2715 168.806 18.9183 168.942 18.5804C169.395 17.4534 170.069 16.4993 170.956 15.7198C172.375 14.4738 174.212 13.8518 176.471 13.8518C178.731 13.8518 180.557 14.4738 181.958 15.7198C183.36 16.9658 184.157 18.6591 184.351 20.7978H172.328H172.327Z" fill="white"/>
<path d="M196.179 38.9499V8.54143H202.073V11.9261H203.006C203.472 10.7205 204.221 9.8354 205.252 9.27097C206.283 8.70653 207.558 8.42432 209.074 8.42432H212.518V13.8517H208.842C206.895 13.8517 205.302 14.3874 204.056 15.4567C202.81 16.528 202.188 18.1714 202.188 20.3888V38.948H196.177L196.179 38.9499Z" fill="white"/>
<path d="M241.516 19.4462C241.516 15.929 240.443 13.2124 238.292 11.2984C236.144 9.38427 233.193 8.42627 229.44 8.42627C226.979 8.42627 224.898 8.816 223.197 9.5993C221.498 10.3826 220.129 11.4174 219.094 12.7056C218.059 13.9957 217.307 15.403 216.836 16.9254L222.463 18.7435C222.815 17.1808 223.538 15.9098 224.633 14.9326C225.729 13.9573 227.309 13.4678 229.38 13.4678C231.452 13.4678 233.055 13.9861 234.071 15.0209C235.088 16.0557 235.595 17.3958 235.595 19.0373V24.0365H234.62L231.492 20.913H226.802C223.636 20.913 221.008 21.6655 218.917 23.1707C216.827 24.6739 215.78 26.8933 215.78 29.8249C215.78 31.7793 216.26 33.438 217.216 34.8069C218.174 36.1757 219.464 37.2105 221.085 37.9132C222.709 38.6159 224.556 38.9691 226.624 38.9691C228.691 38.9691 230.219 38.685 231.431 38.1186C232.642 37.5523 233.562 36.888 234.186 36.1258C234.814 35.3636 235.278 34.6686 235.593 34.0447H236.532V38.9691H241.514V19.4481L241.516 19.4462ZM235.595 26.1868C235.595 28.6115 234.842 30.516 233.337 31.9022C231.832 33.2883 229.891 33.9833 227.505 33.9833C225.746 33.9833 224.36 33.5935 223.343 32.8102C222.325 32.0269 221.818 30.9729 221.818 29.6444C221.818 28.3159 222.308 27.308 223.283 26.6264C224.262 25.9429 225.548 25.6012 227.152 25.6012H235.593V26.1868H235.595Z" fill="white"/>
</g>
<defs>
<clipPath id="clip0_2614_518">
<rect width="242" height="48" fill="white" transform="translate(0.5)"/>
</clipPath>
</defs>
</svg>
