<svg width="258" height="40" viewBox="0 0 258 40" fill="none" xmlns="http://www.w3.org/2000/svg">
<g opacity="0.5">
<path fill-rule="evenodd" clip-rule="evenodd" d="M9.2032 2.91406H31.6055C32.5653 2.91406 33.3495 3.69888 33.3495 4.65816C33.3495 5.61744 32.5653 6.40225 31.6055 6.40225H9.2032C8.24392 6.40225 7.45911 5.61744 7.45911 4.65816C7.45911 3.69888 8.24392 2.91406 9.2032 2.91406Z" fill="white"/>
<path fill-rule="evenodd" clip-rule="evenodd" d="M38.0123 2.91406C38.9346 2.91406 39.6891 3.66851 39.6891 4.59087V4.72544C39.6891 5.64781 38.9346 6.40225 38.0123 6.40225C37.0899 6.40225 36.3354 5.64781 36.3354 4.72544V4.59087C36.3354 3.66851 37.0899 2.91406 38.0123 2.91406Z" fill="white"/>
<path fill-rule="evenodd" clip-rule="evenodd" d="M2.03596 2.91406H4.51723C5.47651 2.91406 6.26132 3.69888 6.26132 4.65816C6.26132 5.61744 5.47651 6.40225 4.51723 6.40225H2.03596C1.07668 6.40225 0.29187 5.61744 0.29187 4.65816C0.29187 3.69888 1.07668 2.91406 2.03596 2.91406Z" fill="white"/>
<path fill-rule="evenodd" clip-rule="evenodd" d="M2.03596 9.82227H24.4382C25.3975 9.82227 26.1823 10.6065 26.1823 11.5664C26.1823 12.5256 25.3975 13.3104 24.4382 13.3104H2.03596C1.07609 13.3104 0.29187 12.5256 0.29187 11.5664C0.29187 10.6065 1.07609 9.82227 2.03596 9.82227Z" fill="white"/>
<path fill-rule="evenodd" clip-rule="evenodd" d="M29.9643 9.82227C30.8866 9.82227 31.6411 10.5767 31.6411 11.4991V11.6336C31.6411 12.556 30.8866 13.3104 29.9643 13.3104C29.0419 13.3104 28.2875 12.556 28.2875 11.6336V11.4991C28.2875 10.5767 29.0419 9.82227 29.9643 9.82227Z" fill="white"/>
<path fill-rule="evenodd" clip-rule="evenodd" d="M35.4718 9.82227H37.953C38.9123 9.82227 39.6971 10.6065 39.6971 11.5664C39.6971 12.5256 38.9123 13.3104 37.953 13.3104H35.4718C34.5125 13.3104 33.7277 12.5256 33.7277 11.5664C33.7277 10.6065 34.5125 9.82227 35.4718 9.82227Z" fill="white"/>
<path fill-rule="evenodd" clip-rule="evenodd" d="M9.5832 16.7646H31.9855C32.9453 16.7646 33.7296 17.5495 33.7296 18.5087C33.7296 19.4686 32.9453 20.2528 31.9855 20.2528H9.5832C8.62333 20.2528 7.83911 19.4686 7.83911 18.5087C7.83911 17.5495 8.62333 16.7646 9.5832 16.7646Z" fill="white"/>
<path fill-rule="evenodd" clip-rule="evenodd" d="M38.0123 16.7646C38.9346 16.7646 39.6891 17.5191 39.6891 18.4415V18.576C39.6891 19.4984 38.9346 20.2528 38.0123 20.2528C37.0899 20.2528 36.3354 19.4984 36.3354 18.576V18.4415C36.3354 17.5191 37.0899 16.7646 38.0123 16.7646Z" fill="white"/>
<path fill-rule="evenodd" clip-rule="evenodd" d="M2.03596 16.7646H4.51723C5.47651 16.7646 6.26132 17.5495 6.26132 18.5087C6.26132 19.4686 5.47651 20.2528 4.51723 20.2528H2.03596C1.07668 20.2528 0.29187 19.4686 0.29187 18.5087C0.29187 17.5495 1.07668 16.7646 2.03596 16.7646Z" fill="white"/>
<path fill-rule="evenodd" clip-rule="evenodd" d="M37.961 23.6729H15.5588C14.5995 23.6729 13.8147 24.4577 13.8147 25.4169C13.8147 26.3762 14.5995 27.161 15.5588 27.161H37.961C38.9203 27.161 39.7051 26.3762 39.7051 25.4169C39.7051 24.4577 38.9203 23.6729 37.961 23.6729Z" fill="white"/>
<path fill-rule="evenodd" clip-rule="evenodd" d="M10.0168 23.6729C9.09441 23.6729 8.33997 24.4279 8.33997 25.3497V25.4842C8.33997 26.4066 9.09441 27.161 10.0168 27.161C10.9391 27.161 11.6936 26.4066 11.6936 25.4842V25.3497C11.6936 24.4279 10.9391 23.6729 10.0168 23.6729Z" fill="white"/>
<path fill-rule="evenodd" clip-rule="evenodd" d="M4.51723 23.6729H2.03596C1.07668 23.6729 0.29187 24.4577 0.29187 25.4169C0.29187 26.3762 1.07668 27.161 2.03596 27.161H4.51723C5.47651 27.161 6.26132 26.3762 6.26132 25.4169C6.26132 24.4577 5.47651 23.6729 4.51723 23.6729Z" fill="white"/>
<path fill-rule="evenodd" clip-rule="evenodd" d="M30.7765 30.5811H8.37422C7.41434 30.5811 6.63013 31.3659 6.63013 32.3257C6.63013 33.285 7.41434 34.0692 8.37422 34.0692H30.7765C31.7358 34.0692 32.5206 33.285 32.5206 32.3257C32.5206 31.3659 31.7358 30.5811 30.7765 30.5811Z" fill="white"/>
<path fill-rule="evenodd" clip-rule="evenodd" d="M1.96868 30.5811C1.04631 30.5811 0.29187 31.3361 0.29187 32.2579V32.393C0.29187 33.3154 1.04631 34.0692 1.96868 34.0692C2.89104 34.0692 3.64548 33.3154 3.64548 32.393V32.2579C3.64548 31.3361 2.89104 30.5811 1.96868 30.5811Z" fill="white"/>
<path fill-rule="evenodd" clip-rule="evenodd" d="M37.953 30.5811H35.4718C34.5125 30.5811 33.7277 31.3659 33.7277 32.3257C33.7277 33.285 34.5125 34.0692 35.4718 34.0692H37.953C38.9123 34.0692 39.6971 33.285 39.6971 32.3257C39.6971 31.3659 38.9123 30.5811 37.953 30.5811Z" fill="white"/>
<path fill-rule="evenodd" clip-rule="evenodd" d="M170.35 13.709C178.079 13.709 178.079 25.7444 170.35 25.7444C167.09 25.7444 164.473 23.4906 164.473 19.7064C164.473 15.9229 167.09 13.709 170.35 13.709ZM176.227 12.5419C175.101 10.5691 172.565 9.32107 169.908 9.32107C164.11 9.28118 159.562 12.8634 159.562 19.7064C159.562 26.6709 163.91 30.2936 169.787 30.2532C172 30.2127 175.101 29.0861 176.227 26.7513L176.469 29.6494H181.098V9.80399H176.389L176.227 12.5419ZM143.179 9.80399V29.6494H148.09V19.1836C148.09 15.5204 150.464 14.152 153.042 14.152C154.652 14.152 155.577 14.5944 156.584 15.44L158.798 11.1729C157.711 10.0862 155.738 9.28118 153.685 9.28118C151.673 9.28118 149.62 9.64321 148.09 12.0989L147.728 9.80399H143.179ZM123.978 17.4121C124.703 14.8362 126.876 13.5476 129.533 13.5476C132.351 13.5476 134.363 14.8362 134.685 17.4121H123.978ZM139.395 21.4779C140.16 13.3065 136.014 9.2002 129.372 9.2002C122.931 9.2002 118.825 13.5476 118.825 19.5861C118.825 25.9456 122.891 30.1728 129.734 30.1728C132.753 30.1728 136.175 29.126 138.268 26.9525L135.128 23.8532C134.001 25.0203 131.627 25.7045 129.815 25.7045C126.353 25.7045 124.22 23.933 123.898 21.4779H139.395ZM115.404 37.9417V9.80399H110.815L110.493 12.5419C108.963 10.3274 106.307 9.36156 104.052 9.36156C97.9338 9.36156 93.8681 13.9103 93.8681 19.7469C93.8681 25.5437 97.5307 30.1329 103.891 30.1329C105.984 30.1329 109.084 29.4886 110.493 27.3146V37.9417H115.404ZM104.415 25.3829C101.073 25.3829 98.7788 22.8463 98.7788 19.7469C98.7788 16.6476 100.872 14.1115 104.415 14.1115C107.957 14.1115 110.05 16.6476 110.05 19.7469C110.05 22.8463 107.755 25.3829 104.415 25.3829ZM75.6334 17.4121C76.3575 14.8362 78.5315 13.5476 81.1878 13.5476C84.0055 13.5476 86.0187 14.8362 86.3403 17.4121H75.6334ZM91.0503 21.4779C91.8149 13.3065 87.6688 9.2002 81.027 9.2002C74.5866 9.2002 70.4803 13.5476 70.4803 19.5861C70.4803 25.9456 74.5461 30.1728 81.3897 30.1728C84.408 30.1728 87.8301 29.126 89.9232 26.9525L86.7833 23.8532C85.6561 25.0203 83.2814 25.7045 81.4695 25.7045C78.0081 25.7045 75.8745 23.933 75.5524 21.4779H91.0503ZM67.3 11.8571C65.0057 9.84448 62.6715 9.24069 59.5715 9.24069C55.9488 9.24069 51.1988 10.8508 51.1988 15.44C51.1988 19.9482 55.6665 21.3171 59.4102 21.5988C62.2285 21.7596 63.3551 22.3229 63.3551 23.6918C63.3551 25.1412 61.6247 26.107 59.7728 26.0665C57.5589 26.0266 54.3387 24.8589 52.9298 23.2893L50.5146 26.7912C53.4127 29.8107 56.5526 30.3335 59.6924 30.3335C65.3683 30.3335 68.2259 27.3146 68.2259 23.8127C68.2259 18.5393 63.4765 17.6938 59.7323 17.4526C57.1969 17.2913 56.0292 16.5672 56.0292 15.2786C56.0292 14.0311 57.3171 13.3065 59.6519 13.3065C61.5437 13.3065 63.1544 13.7489 64.5633 15.0774L67.3 11.8571Z" fill="white"/>
<path fill-rule="evenodd" clip-rule="evenodd" d="M256.583 12.0963C254.61 10.2444 252.075 9.43938 249.177 9.43938C245.152 9.39949 241.247 11.09 241.287 14.9944C241.328 18.9798 245.152 19.7039 249.016 20.3481C252.276 20.8715 255.577 21.4348 255.496 24.2936C255.376 27.4329 251.712 28.0766 249.298 28.0766C246.641 28.0766 243.662 27.0708 242.011 24.6956L240.562 25.9841C242.293 28.6411 245.755 29.9689 249.257 29.9689C252.759 29.9689 257.308 28.8018 257.429 24.4139C257.63 19.7848 252.759 19.181 249.217 18.5773C246.721 18.1342 243.259 17.6108 243.179 14.9539C243.098 12.4184 246.077 11.2514 249.177 11.2913C251.391 11.2913 253.363 11.6128 255.376 13.3843L256.583 12.0963ZM216.732 1.42871V29.6468H218.664V25.2595C220.315 28.2784 223.575 29.9689 226.956 29.9689C232.511 29.9689 236.899 26.3063 236.899 19.7039C236.899 13.1431 232.471 9.43938 226.916 9.43938C223.495 9.43938 220.274 10.8887 218.664 14.1089V1.42871H216.732ZM226.836 11.3311C231.304 11.3311 234.967 14.1089 234.967 19.7039C234.967 25.2196 231.304 28.0367 226.836 28.0367C222.166 28.0367 218.704 24.6152 218.704 19.664C218.704 14.7127 222.247 11.3311 226.836 11.3311ZM201.677 11.4121C212.747 11.4121 212.747 28.0367 201.677 28.0367C197.169 28.0367 193.546 24.6956 193.546 19.7039C193.546 14.7127 197.169 11.4121 201.677 11.4121ZM209.808 9.76152V14.1089C208.158 11.0096 204.898 9.51977 201.677 9.51977C196.122 9.51977 191.574 13.626 191.574 19.7039C191.574 25.7829 196.122 29.9689 201.677 29.9689C204.898 29.9689 207.876 28.5202 209.808 25.4202V29.6468H211.781V9.76152H209.808ZM185.173 29.6468H187.146V1.42871H185.173V29.6468Z" fill="white"/>
</g>
</svg>
