<?xml version="1.0" encoding="utf-8"?>
<!-- Generator: Adobe Illustrator 27.9.0, SVG Export Plug-In . SVG Version: 6.00 Build 0)  -->
<svg version="1.1" id="Layer_1" xmlns="http://www.w3.org/2000/svg" xmlns:xlink="http://www.w3.org/1999/xlink" x="0px" y="0px"
	 viewBox="0 0 192.9 40" style="enable-background:new 0 0 192.9 40;" xml:space="preserve">
<style type="text/css">
	.st0{clip-path:url(#SVGID_00000023242913018406398200000006129581780647904651_);}
	.st1{clip-path:url(#SVGID_00000128457005846489233660000008393350998632782774_);}
	.st2{fill:#FFFFFF;}
</style>
<g opacity="0.5">
	<defs>
		<rect id="SVGID_1_" x="-0.2" y="0.1" width="193.1" height="40"/>
	</defs>
	<clipPath id="SVGID_00000132090283818883875660000002230295128919463573_">
		<use xlink:href="#SVGID_1_"  style="overflow:visible;"/>
	</clipPath>
	<g style="clip-path:url(#SVGID_00000132090283818883875660000002230295128919463573_);">
		<g>
			<defs>
				<rect id="SVGID_00000036963405613877162990000014915915425546235555_" x="-0.2" y="0.1" width="39.8" height="40"/>
			</defs>
			<clipPath id="SVGID_00000047740175929819334100000009297561110346904717_">
				<use xlink:href="#SVGID_00000036963405613877162990000014915915425546235555_"  style="overflow:visible;"/>
			</clipPath>
			<g style="clip-path:url(#SVGID_00000047740175929819334100000009297561110346904717_);">
				<path class="st2" d="M33.6,20.8L33.6,20.8l0.1,0l0.1,0l0.1,0l0.1,0l0.1,0l0,0l0,0l0,0l0,0l0,0l0,0l0,0l0,0l0,0.1l0,0l0,0.1
					l0,0.1l0,0.1l0,0.1l0,0.1l0,0.1l0,0.1l0,0.1l0,0.1l0,0.1l0,0.1l0,0.1l0,0.1l0,0.1l0,0.1l0,0.1l0,0.1l0,0.1l0,0.1l0,0.1l0,0.1
					l0,0.1l0,0.1l0,0.1l0,0l0,0l0,0l0,0l0,0l0,0l0,0l0,0l-0.1,0l-0.1,0l-0.1,0l-0.1,0l-0.1,0l-0.1,0l-0.1,0l-0.1,0l-0.1,0l-0.1,0
					l-0.1,0l-0.1,0h0l0.1,0l0.1,0l0.1,0l0.1,0l0.1,0l0.1,0l0.1,0l0.1,0l0.1,0l0.1,0l0.1,0l0.1,0l0.1,0l0.1,0l0.1,0l0.1,0l0.1,0
					l0.1,0l0.1-0.1l0.1-0.1l0.1-0.1l0.1-0.1l0.1-0.1l0.1-0.1l0.1-0.1l0.1-0.1l0.1-0.1l0.1-0.1l0.1-0.1l0.1-0.1l0.1-0.1l0.1-0.1
					l0.1-0.1l0.1-0.1l0.1-0.1l0.1-0.1l0.1-0.1l0.1-0.1l0.1-0.1l0.1-0.1l0.1-0.1l0-0.1l0-0.1l0-0.1l0-0.1l0-0.1l0-0.1l0-0.1l0-0.1
					l0-0.1l0-0.1l0-0.1l0-0.1l0-0.1l0-0.1l0-0.1l0-0.1l0-0.1l0-0.1l0-0.1l0-0.1l0-0.1l0-0.1l0-0.1l0-0.1l0-0.1l0-0.1l0-0.1l0-0.1
					h-3.9l-0.1,0h-9.2L33.6,20.8L33.6,20.8z"/>
				<path class="st2" d="M39.6,21.7l0-0.1l0-0.1l0-0.1l0-0.1l0-0.1l0-0.1l0-0.1l0-0.1l0-0.1l0-0.1l0-0.1l0-0.1l0-0.1l0-0.1l0-0.1
					l0-0.1l-0.1-0.1l-0.1-0.1L39,19.2L39,19.1L38.9,19l-0.1-0.1l-0.1-0.1l-0.1-0.1l-0.1-0.1l-0.1-0.1l-0.1-0.1l-0.1-0.1l0,0h-1.2
					l0,0.1l0,0.1l0,0.1l0,0.1l0,0.1l0,0.1l0,0.1l0,0.1l0,0.1l0,0.1l0,0.1l0,0.1l0,0.1l0,0.1l0,0.1l0,0.1l0,0.1l0,0.1l0,0.1l0,0.1
					l0,0.1l0,0.1l0,0.1l0,0.1l0,0.1l0,0.1l0,0.1l0,0.1l-0.1,0.1l-0.1,0.1l-0.1,0.1l-0.1,0.1l-0.1,0.1l-0.1,0.1l-0.1,0.1l-0.1,0.1
					l-0.1,0.1L36.2,22L36.2,22l-0.1,0.1L36,22.2l-0.1,0.1l-0.1,0.1l-0.1,0.1l-0.1,0.1l-0.1,0.1l-0.1,0.1l-0.1,0.1l-0.1,0.1l-0.1,0.1
					l-0.1,0.1l-0.1,0l-0.1,0l-0.1,0l-0.1,0l-0.1,0l-0.1,0l-0.1,0l-0.1,0l-0.1,0l-0.1,0l-0.1,0l-0.1,0l-0.1,0l-0.1,0l-0.1,0l-0.1,0
					l-0.1,0l-0.1,0H-0.2v5.2h33.4l0.1,0l0.1,0l0.1,0l0.1,0l0.1,0l0.1,0l0.1,0l0.1,0l0.1,0l0.1,0l0.1,0l0.1,0l0.1,0l0.1,0l0.1,0
					l0.1,0l0.1,0l0.1,0l0.1-0.1l0.1-0.1l0.1-0.1l0.1-0.1l0.1-0.1l0.1-0.1l0.1-0.1l0.1-0.1l0.1-0.1l0.1-0.1l0.1-0.1l0.1-0.1l0.1-0.1
					l0.1-0.1l0.1-0.1l0.1-0.1l0.1-0.1l0.1-0.1l0.1-0.1l0.1-0.1l0.1-0.1l0.1-0.1l0.1-0.1l0.1-0.1l0.1-0.1l0.1-0.1l0.1-0.1l0.1-0.1
					l0.1-0.1l0.1-0.1l0.1-0.1l0.1-0.1l0.1-0.1l0.1-0.1l0.1-0.1l0.1-0.1l0.1-0.1l0.1-0.1l0-0.1l0-0.1l0-0.1l0-0.1l0-0.1l0-0.1l0-0.1
					l0-0.1l0-0.1l0-0.1l0-0.1l0-0.1l0-0.1l0-0.1l0-0.1l0-0.1l0-0.1l0-0.1l0-0.1L39.6,21.7z"/>
				<path class="st2" d="M5.8,19.4L5.8,19.4l-0.1,0l-0.1,0l-0.1,0l0,0l-0.1,0l0,0l0,0l0,0l0,0l0,0l0,0l0,0l0,0l0,0l0,0l0-0.1l0-0.1
					l0-0.1l0-0.1l0-0.1l0-0.1l0-0.1l0-0.1l0-0.1l0-0.1l0-0.1l0-0.1L5,18L5,18l0-0.1l0-0.1l0-0.1l0-0.1l0-0.1l0-0.1l0-0.1l0-0.1
					l0-0.1l0,0l0,0l0,0l0,0l0,0l0,0l0,0l0,0l0,0l0.1,0l0,0l0.1,0l0.1,0l0.1,0l0.1,0l0.1,0l0.1,0l0.1,0l0.1,0l0.1,0l0.1,0h0H6.1
					l-0.1,0l-0.1,0l-0.1,0l-0.1,0l-0.1,0l-0.1,0l-0.1,0l-0.1,0l-0.1,0l-0.1,0l-0.1,0l-0.1,0l-0.1,0l-0.1,0l-0.1,0l-0.1,0l-0.1,0
					l-0.1,0.1l-0.1,0.1l-0.1,0.1L4,17.5l-0.1,0.1l-0.1,0.1l-0.1,0.1l-0.1,0.1l-0.1,0.1l-0.1,0.1L3.4,18l-0.1,0.1l-0.1,0.1l-0.1,0.1
					l-0.1,0.1L3,18.4l-0.1,0.1l-0.1,0.1l-0.1,0.1l-0.1,0.1l-0.1,0.1L2.7,19l-0.1,0.1l0,0.1l0,0.1l0,0.1l0,0.1l0,0.1l0,0.1l0,0.1
					l0,0.1l0,0.1l0,0.1l0,0.1l0,0.1l0,0.1l0,0.1l0,0.1l0,0.1l0,0.1l0,0.1l0,0.1l0,0.1l0,0.1l0,0.1l0,0.1l0,0.1l0,0.1l0,0.1l0,0.1
					l0,0.1h3.9l0.1,0h9.2L5.8,19.4L5.8,19.4z"/>
				<path class="st2" d="M-0.2,18.4l0,0.1l0,0.1l0,0.1l0,0.1l0,0.1l0,0.1l0,0.1l0,0.1l0,0.1l0,0.1l0,0.1l0,0.1l0,0.1l0,0.1l0,0.1
					l0,0.1l0.1,0.1l0.1,0.1l0.1,0.1L0.5,21l0.1,0.1l0.1,0.1l0.1,0.1l0.1,0.1l0.1,0.1l0.1,0.1L1,21.9L1.1,22l0,0h1.2l0-0.1l0-0.1
					l0-0.1l0-0.1l0-0.1l0-0.1l0-0.1l0-0.1l0-0.1l0-0.1l0-0.1l0-0.1l0-0.1l0-0.1l0-0.1l0-0.1l0-0.1l0-0.1l0-0.1l0-0.1l0-0.1l0-0.1
					l0-0.1l0-0.1l0-0.1l0-0.1l0-0.1l0-0.1L2.7,19l0.1-0.1l0.1-0.1l0.1-0.1l0.1-0.1l0.1-0.1L3,18.4l0.1-0.1l0.1-0.1l0.1-0.1l0.1-0.1
					L3.4,18l0.1-0.1l0.1-0.1l0.1-0.1l0.1-0.1l0.1-0.1l0.1-0.1L4,17.5l0.1-0.1l0.1-0.1l0.1-0.1l0.1-0.1l0.1,0l0.1,0l0.1,0l0.1,0
					l0.1,0l0.1,0l0.1,0l0.1,0l0.1,0l0.1,0l0.1,0l0.1,0l0.1,0l0.1,0l0.1,0l0.1,0l0.1,0l0.1,0h33.4v-5.2H6.2l-0.1,0l-0.1,0l-0.1,0
					l-0.1,0l-0.1,0l-0.1,0l-0.1,0l-0.1,0l-0.1,0l-0.1,0l-0.1,0l-0.1,0l-0.1,0l-0.1,0l-0.1,0l-0.1,0l-0.1,0l-0.1,0.1l-0.1,0.1
					l-0.1,0.1l-0.1,0.1l-0.1,0.1l-0.1,0.1l-0.1,0.1L3,12.6l-0.1,0.1l-0.1,0.1l-0.1,0.1l-0.1,0.1l-0.1,0.1L2.3,13l-0.1,0.1l-0.1,0.1
					L2,13.3l-0.1,0.1l-0.1,0.1l-0.1,0.1l-0.1,0.1l-0.1,0.1l-0.1,0.1L1.3,14l-0.1,0.1l-0.1,0.1l-0.1,0.1L1,14.4l-0.1,0.1l-0.1,0.1
					l-0.1,0.1l-0.1,0.1L0.6,15l-0.1,0.1l-0.1,0.1l-0.1,0.1l-0.1,0.1l-0.1,0.1l-0.1,0.1l0,0.1l0,0.1l0,0.1l0,0.1l0,0.1l0,0.1l0,0.1
					l0,0.1l0,0.1l0,0.1l0,0.1l0,0.1l0,0.1l0,0.1l0,0.1l0,0.1l0,0.1v0.1v0.1L-0.2,18.4z"/>
				<path class="st2" d="M5.8,7.7L5.8,7.7l-0.1,0l-0.1,0l-0.1,0l-0.1,0l0,0l0,0l0,0l0,0l0,0l0,0l0,0l0,0l0,0l0-0.1l0-0.1l0-0.1
					l0-0.1L5,7l0-0.1l0-0.1l0-0.1l0-0.1l0-0.1l0-0.1l0-0.1l0-0.1l0-0.1l0-0.1l0-0.1l0-0.1l0-0.1l0-0.1l0-0.1l0-0.1l0-0.1l0-0.1
					l0-0.1l0,0l0-0.1l0,0l0,0l0,0l0,0l0,0l0,0l0,0l0,0l0,0l0.1,0l0.1,0l0.1,0l0.1,0l0.1,0l0.1,0l0.1,0l0.1,0l0.1,0l0.1,0l0.1,0h0
					H6.1L6,5.2l-0.1,0l-0.1,0l-0.1,0l-0.1,0l-0.1,0l-0.1,0l-0.1,0l-0.1,0l-0.1,0l-0.1,0l-0.1,0l-0.1,0l-0.1,0l-0.1,0l-0.1,0l-0.1,0
					L4.2,5.7L4.2,5.8L4.1,5.9L4,5.9L3.9,6L3.8,6L3.7,6.1L3.6,6.2L3.5,6.2L3.5,6.3L3.4,6.4L3.3,6.5L3.2,6.5L3.2,6.6L3.1,6.7L3,6.8
					L2.9,6.9L2.9,7L2.8,7.1L2.8,7.2L2.7,7.2L2.7,7.3L2.6,7.4l0,0.1l0,0.1l0,0.1l0,0.1l0,0.1l0,0.1l0,0.1l0,0.1l0,0.1l0,0.1l0,0.1
					l0,0.1l0,0.1l0,0.1l0,0.1l0,0.1l0,0.1l0,0.1l0,0.1l0,0.1l0,0.1l0,0.1l0,0.1l0,0.1l0,0.1l0,0.1l0,0.1l0,0.1l0,0.1l0,0.1l0,0.1
					l0,0.1l0,0.1l0,0.1l0,0.1l0,0.1l0,0.1l0,0l0.1-0.1l0.1-0.1L3,11.1L3.2,11L3.3,11l0.1-0.1l0.1-0.1l0.1-0.1l0.1,0l0.1,0l0.1,0
					l0.1,0l0.1,0l0.1,0l0.1,0l0.1,0l0.1,0l0.1,0l0.1,0l0.1,0l0.1,0l0.1,0l0.1,0l0.2,0l0.1,0h9.2L5.8,7.7L5.8,7.7z"/>
				<path class="st2" d="M33.2,34.9h0.1l0.1,0l0.1,0l0.1,0l0.1,0l0.1,0l0.1,0l0.1,0l0.1,0l0.1,0l0.1,0l0.1,0l0.1,0l0.1,0l0.1,0
					l0.1,0l0.1,0l0.1,0l0.1-0.1l0.1-0.1l0.1-0.1l0.1-0.1l0.1-0.1l0.1-0.1l0.1-0.1l0.1-0.1l0.1-0.1l0.1-0.1l0.1-0.1l0.1-0.1l0.1-0.1
					l0.1-0.1l0.1-0.1l0.1-0.1l0.1-0.1l0.1-0.1l0.1-0.1l0.1-0.1l0.1-0.1l0.1-0.1l0.1-0.1l0-0.1l0-0.1l0-0.1l0-0.1l0-0.1l0-0.1l0-0.1
					l0-0.1l0-0.1l0-0.1l0-0.1l0-0.1l0-0.1l0-0.1l0-0.1l0-0.1l0-0.1v-0.1v-0.1l0-0.1l0-0.1l0-0.1l0-0.1l0-0.1l0-0.1l0-0.1l0-0.1
					l0-0.1l0-0.1l0-0.1l0-0.1l0-0.1l0-0.1l0-0.1l0-0.1l0-0.1l0-0.1l0,0l-0.1,0.1L36.5,29L36.4,29l-0.1,0.1l-0.1,0.1L36,29.2
					l-0.1,0.1l-0.1,0.1l-0.1,0l-0.1,0l-0.1,0l-0.1,0l-0.1,0l-0.1,0l-0.1,0l-0.1,0l-0.1,0l-0.1,0l-0.1,0l-0.1,0l-0.1,0l-0.1,0l-0.1,0
					l-0.1,0l-0.1,0h-9.2l9.5,2.6l0.1,0l0.1,0l0.1,0l0.1,0l0.1,0l0.1,0l0.1,0l0,0l0,0l0,0l0,0l0,0l0,0l0,0l0,0l0,0l0,0l0,0.1l0,0.1
					l0,0.1l0,0.1l0,0.1l0,0.1l0,0.1l0,0.1l0,0.1l0,0.1l0,0.1l0,0.1l0,0.1l0,0.1l0,0.1l0,0.1l0,0.1l0,0.1l0,0.1l0,0.1l0,0.1l0,0.1
					l0,0.1l0,0l0,0l0,0l0,0l0,0l0,0l0,0l0,0l0,0l-0.1,0l-0.1,0l-0.1,0l-0.1,0l-0.1,0l-0.1,0l-0.1,0l-0.1,0l-0.1,0l-0.1,0l-0.1,0
					L33.2,34.9L33.2,34.9"/>
				<path class="st2" d="M39.6,33.3l0-0.1l0-0.1l0-0.1l0-0.1l0-0.1l0-0.1l0-0.1l0-0.1l0-0.1l0-0.1l0-0.1l0-0.1l0-0.1l0-0.1l0-0.1
					l0-0.1l-0.1-0.1L39.1,31L39,30.8L39,30.7l-0.1-0.1l-0.1-0.1l-0.1-0.1l-0.1-0.1l-0.1-0.1L38.5,30l-0.1-0.1l-0.1-0.1l-0.1-0.1
					l-0.1-0.1l-0.1-0.1L38,29.4L38,29.3l-0.1-0.1l-0.1-0.1L37.7,29l-0.1-0.1l-0.1-0.1l-0.1-0.1l-0.1-0.1l0,0l-0.1,0.1L37,28.8
					l-0.1,0.1l0,0l0,0.1l0,0.1l0,0.1l0,0.1l0,0.1l0,0.1l0,0.1l0,0.1l0,0.1l0,0.1l0,0.1l0,0.1l0,0.1l0,0.1l0,0.1l0,0.1l0,0.1l0,0.1
					v0.1v0.1l0,0.1l0,0.1l0,0.1l0,0.1l0,0.1l0,0.1l0,0.1l0,0.1l0,0.1l0,0.1l0,0.1l0,0.1l0,0.1l0,0.1l0,0.1l0,0.1l0,0.1l-0.1,0.1
					l-0.1,0.1L36.7,33l-0.1,0.1l-0.1,0.1l-0.1,0.1l-0.1,0.1l-0.1,0.1l-0.1,0.1l-0.1,0.1l-0.1,0.1l-0.1,0.1L36,33.8l-0.1,0.1L35.8,34
					L35.7,34l-0.1,0.1l-0.1,0.1l-0.1,0.1l-0.1,0.1l-0.1,0.1l-0.1,0.1l-0.1,0.1l-0.1,0l-0.1,0l-0.1,0l-0.1,0l-0.1,0l-0.1,0l-0.1,0
					l-0.1,0l-0.1,0l-0.1,0l-0.1,0l-0.1,0l-0.1,0l-0.1,0l-0.1,0l-0.1,0l-0.1,0h-0.1H-0.2v5.2h33.4l0.1,0l0.1,0l0.1,0l0.1,0l0.1,0
					l0.1,0l0.1,0l0.1,0l0.1,0l0.1,0l0.1,0l0.1,0l0.1,0l0.1,0l0.1,0l0.1,0l0.1,0l0.1,0l0.1-0.1l0.1-0.1l0.1-0.1l0.1-0.1l0.1-0.1
					l0.1-0.1l0.1-0.1l0.1-0.1l0.1-0.1l0.1-0.1l0.1-0.1l0.1-0.1l0.1-0.1l0.1-0.1l0.1-0.1l0.1-0.1l0.1-0.1l0.1-0.1l0.1-0.1l0.1-0.1
					L38,38l0.1-0.1l0.1-0.1l0.1-0.1l0.1-0.1l0.1-0.1l0.1-0.1l0.1-0.1l0.1-0.1l0.1-0.1l0.1-0.1l0.1-0.1l0.1-0.1l0.1-0.1l0.1-0.1
					l0.1-0.1l0.1-0.1l0.1-0.1l0-0.1l0-0.1l0-0.1l0-0.1l0-0.1l0-0.1l0-0.1l0-0.1l0-0.1l0-0.1l0-0.1l0-0.1l0-0.1l0-0.1l0-0.1l0-0.1
					l0-0.1v-0.1v-0.1L39.6,33.3z"/>
				<path class="st2" d="M-0.2,6.8l0,0.1l0,0.1l0,0.1l0,0.1l0,0.1l0,0.1l0,0.1l0,0.1L0,8l0,0.1l0,0.1l0,0.1l0,0.1l0,0.1l0,0.1l0,0.1
					l0.1,0.1l0.1,0.1l0.1,0.1l0.1,0.1l0.1,0.1l0.1,0.1l0.1,0.1l0.1,0.1L0.8,10l0.1,0.1L1,10.2l0.1,0.1l0.1,0.1l0.1,0.1l0.1,0.1
					l0.1,0.1l0.1,0.1L1.6,11l0.1,0.1l0.1,0.1l0.1,0.1L2,11.4l0.1,0.1l0.1,0.1l0,0l0.1-0.1l0.1-0.1l0.1-0.1l0,0l0-0.1l0-0.1l0-0.1
					l0-0.1l0-0.1l0-0.1l0-0.1l0-0.1l0-0.1l0-0.1l0-0.1l0-0.1l0-0.1l0-0.1l0-0.1l0-0.1l0-0.1l0-0.1l0-0.1l0-0.1l0-0.1l0-0.1l0-0.1
					l0-0.1l0-0.1l0-0.1l0-0.1l0-0.1l0-0.1l0-0.1l0-0.1l0-0.1l0-0.1l0-0.1l0-0.1l0-0.1l0-0.1l0.1-0.1l0.1-0.1l0.1-0.1l0.1-0.1L2.9,7
					l0.1-0.1L3,6.8l0.1-0.1l0.1-0.1l0.1-0.1l0.1-0.1l0.1-0.1l0.1-0.1l0.1-0.1l0.1-0.1l0.1-0.1L3.8,6L3.9,6L4,5.9l0.1-0.1l0.1-0.1
					l0.1-0.1l0.1-0.1l0.1,0l0.1,0l0.1,0l0.1,0l0.1,0l0.1,0l0.1,0l0.1,0l0.1,0l0.1,0l0.1,0l0.1,0l0.1,0l0.1,0l0.1,0l0.1,0l0.1,0h0.1
					h33.4V0.1H6.2H6.1L6,0.1l-0.1,0l-0.1,0l-0.1,0l-0.1,0l-0.1,0l-0.1,0L5,0.2l-0.1,0l-0.1,0l-0.1,0l-0.1,0l-0.1,0l-0.1,0l-0.1,0
					L4,0.5L3.8,0.5L3.7,0.6L3.6,0.6L3.5,0.7L3.3,0.8L3.2,0.8L3.1,0.9L3,1L2.9,1L2.7,1.1L2.6,1.2L2.5,1.3L2.4,1.3L2.3,1.4L2.2,1.5
					L2.1,1.6L2,1.7L1.9,1.8L1.8,1.9L1.7,2L1.6,2.1L1.5,2.2L1.4,2.3L1.3,2.4L1.2,2.5L1.1,2.6L1.1,2.7L1,2.8L0.9,2.9L0.8,3L0.8,3.1
					L0.7,3.3L0.6,3.4L0.6,3.5L0.5,3.6L0.4,3.7L0.4,3.9L0.3,4L0.3,4.1l0,0.1l0,0.1l0,0.1l0,0.1l0,0.1l0,0.1L0,5l0,0.1l0,0.1l0,0.1
					l0,0.1l0,0.1l0,0.1l0,0.1l0,0.1l0,0.1l0,0.1v0.1v0.1L-0.2,6.8z"/>
			</g>
		</g>
		<path class="st2" d="M57.6,32.7H47.4v-4h10.2c1.6,0,2.8-0.3,3.7-0.9c0.9-0.6,1.3-1.4,1.3-2.4c0-1-0.4-1.7-1.2-2.1
			c-0.8-0.5-2-0.8-3.6-1.1l-1.6-0.3c-1.6-0.3-3.1-0.7-4.4-1.3c-1.3-0.6-2.4-1.3-3.1-2.3c-0.8-1-1.2-2.2-1.2-3.7c0-2.3,0.8-4,2.5-5.3
			c1.7-1.2,3.9-1.9,6.7-1.9h10v4.1h-10c-1.4,0-2.4,0.3-3.2,0.8c-0.8,0.5-1.2,1.2-1.2,2.1c0,1,0.4,1.7,1.1,2.1c0.8,0.5,1.8,0.8,3.1,1
			l1.7,0.3c1.7,0.3,3.3,0.7,4.7,1.2c1.4,0.5,2.5,1.3,3.4,2.2c0.8,1,1.2,2.3,1.2,3.9c0,2.4-0.9,4.3-2.7,5.6
			C63,32.1,60.6,32.7,57.6,32.7L57.6,32.7z"/>
		<path class="st2" d="M119,40.1V28.8h-0.8c-0.4,0.6-0.9,1.3-1.5,1.9c-0.7,0.6-1.5,1.1-2.6,1.5c-1.1,0.4-2.3,0.6-3.9,0.6
			c-2,0-3.8-0.5-5.5-1.5s-3-2.4-4-4.2c-1-1.8-1.5-4-1.5-6.6v-0.7c0-2.6,0.5-4.8,1.5-6.6c1-1.8,2.4-3.2,4-4.2c1.7-1,3.5-1.5,5.5-1.5
			c2.3,0,4.1,0.4,5.4,1.3c1.2,0.8,2.2,1.8,2.8,2.9h0.8V7.4h4.9v32.7L119,40.1L119,40.1z M111.6,28.4c2.2,0,4-0.7,5.4-2.1
			s2.1-3.4,2.1-6v-0.4c0-2.6-0.7-4.5-2.1-5.9c-1.4-1.4-3.2-2.1-5.4-2.1c-2.2,0-3.9,0.7-5.3,2.1c-1.4,1.4-2.1,3.4-2.1,5.9v0.4
			c0,2.6,0.7,4.6,2.1,6C107.7,27.7,109.5,28.4,111.6,28.4z"/>
		<path class="st2" d="M95,19.6c0-2.4-0.5-4.6-1.5-6.4c-1-1.8-2.3-3.2-4-4.3c-1.7-1-3.7-1.5-6-1.5S79.1,7.9,77.3,9
			c-0.9,0.5-1.7,1.1-2.4,1.9c-0.1,0.1-0.2,0.2-0.3,0.3c-0.3,0.3-0.5,0.6-0.7,0.9c-0.3,0.4-0.6,0.8-0.8,1.3c-1,1.8-1.5,4-1.5,6.5v0.6
			c0,2.5,0.5,4.7,1.5,6.5c1,1.8,2.4,3.3,4.2,4.3c1.8,1,3.9,1.5,6.3,1.5c2.1,0,3.9-0.3,5.3-1c1.4-0.7,2.6-1.5,3.4-2.5
			c0.2-0.3,0.5-0.6,0.7-0.8c0.5-0.7,1-1.4,1.3-2l-4.2-2.1c-0.5,1.1-1.3,2.1-2.2,2.9c-1,0.8-2.4,1.3-4.2,1.3c-2,0-3.7-0.6-5-1.9
			c-0.1-0.1-0.2-0.2-0.2-0.2c-0.1-0.1-0.2-0.2-0.2-0.2c-0.2-0.2-0.3-0.4-0.5-0.6c-0.7-1-1-2.2-1.1-3.5c0-0.1,0-0.3,0-0.4H95L95,19.6
			L95,19.6z M80,17.6l-2.6,2.6h-0.8c0-0.7,0-1.7,0.1-2.6c0-0.3,0.1-0.7,0.2-1c0.1-0.3,0.2-0.6,0.3-0.9c0.4-0.9,0.9-1.7,1.7-2.4
			c1.2-1,2.7-1.6,4.6-1.6c1.9,0,3.4,0.5,4.6,1.6s1.8,2.4,2,4.2H80L80,17.6z"/>
		<path class="st2" d="M151.6,19.6c0-2.4-0.5-4.6-1.5-6.4c-1-1.8-2.3-3.2-4-4.3c-1.7-1-3.7-1.5-6-1.5c-2.3,0-4.4,0.5-6.2,1.6
			c-0.9,0.5-1.7,1.1-2.4,1.9c-0.1,0.1-0.2,0.2-0.3,0.3c-0.3,0.3-0.5,0.6-0.7,0.9c-0.3,0.4-0.6,0.8-0.8,1.3c-1,1.8-1.5,4-1.5,6.5v0.6
			c0,2.5,0.5,4.7,1.5,6.5c1,1.8,2.4,3.3,4.2,4.3c1.8,1,3.9,1.5,6.3,1.5c2.1,0,3.9-0.3,5.3-1c1.4-0.7,2.6-1.5,3.4-2.5
			c0.2-0.3,0.5-0.6,0.7-0.8c0.5-0.7,1-1.4,1.3-2l-4.2-2.1c-0.5,1.1-1.3,2.1-2.2,2.9c-1,0.8-2.4,1.3-4.2,1.3c-2,0-3.7-0.6-5-1.9
			c-0.1-0.1-0.2-0.2-0.2-0.2c-0.1-0.1-0.2-0.2-0.2-0.2c-0.2-0.2-0.3-0.4-0.5-0.6c-0.7-1-1-2.2-1.1-3.5c0-0.1,0-0.3,0-0.4h18.4
			L151.6,19.6L151.6,19.6z M136.6,17.6l-2.6,2.6h-0.8c0-0.7,0-1.7,0.1-2.6c0-0.3,0.1-0.7,0.2-1c0.1-0.3,0.2-0.6,0.3-0.9
			c0.4-0.9,0.9-1.7,1.7-2.4c1.2-1,2.7-1.6,4.6-1.6c1.9,0,3.4,0.5,4.6,1.6c1.2,1,1.8,2.4,2,4.2H136.6L136.6,17.6z"/>
		<path class="st2" d="M155.9,32.8V7.4h4.9v2.8h0.8c0.4-1,1-1.7,1.9-2.2c0.9-0.5,1.9-0.7,3.2-0.7h2.9v4.5h-3.1c-1.6,0-2.9,0.4-4,1.3
			c-1,0.9-1.6,2.3-1.6,4.1v15.5H155.9L155.9,32.8z"/>
		<path class="st2" d="M192.9,16.5c0-2.9-0.9-5.2-2.7-6.8c-1.8-1.6-4.2-2.4-7.3-2.4c-2,0-3.8,0.3-5.2,1c-1.4,0.7-2.5,1.5-3.4,2.6
			c-0.9,1.1-1.5,2.2-1.9,3.5l4.7,1.5c0.3-1.3,0.9-2.4,1.8-3.2c0.9-0.8,2.2-1.2,3.9-1.2c1.7,0,3.1,0.4,3.9,1.3c0.8,0.9,1.3,2,1.3,3.3
			v4.2h-0.8l-2.6-2.6h-3.9c-2.6,0-4.8,0.6-6.5,1.9c-1.7,1.3-2.6,3.1-2.6,5.5c0,1.6,0.4,3,1.2,4.2c0.8,1.1,1.9,2,3.2,2.6
			c1.3,0.6,2.9,0.9,4.6,0.9c1.7,0,3-0.2,4-0.7c1-0.5,1.8-1,2.3-1.7c0.5-0.6,0.9-1.2,1.2-1.7h0.8v4.1h4.1L192.9,16.5L192.9,16.5z
			 M188,22.1c0,2-0.6,3.6-1.9,4.8c-1.2,1.2-2.9,1.7-4.8,1.7c-1.5,0-2.6-0.3-3.5-1c-0.8-0.7-1.3-1.5-1.3-2.6s0.4-1.9,1.2-2.5
			c0.8-0.6,1.9-0.9,3.2-0.9h7L188,22.1L188,22.1z"/>
	</g>
</g>
</svg>
