<svg width="200" height="32" viewBox="0 0 200 32" fill="none" xmlns="http://www.w3.org/2000/svg">
<path opacity="0.5" fill-rule="evenodd" clip-rule="evenodd" d="M16.7556 0.0197511C15.3311 0.209246 13.558 0.73277 12.2694 1.34426C9.40707 2.70261 6.94111 5.16294 5.49475 8.10339C5.06981 8.9674 4.68208 9.97251 4.55037 10.5517C4.46902 10.9094 4.402 11.003 4.02408 11.2875C3.0142 12.0476 1.69684 13.6921 1.07637 14.9672C-0.119242 17.4242 -0.332547 20.4634 0.505376 23.1013C1.01454 24.704 1.84728 26.0606 3.12138 27.3627C4.43818 28.7087 5.74263 29.5165 7.39314 30.0083C8.86732 30.4476 8.91839 30.4498 18.5883 30.4757C26.9192 30.4979 27.6056 30.4893 28.3062 30.3536C30.4661 29.9352 32.3632 28.9165 33.8918 27.3542C35.0555 26.1648 35.8483 24.8708 36.3883 23.2791C36.8319 21.9714 36.9502 21.2118 36.9439 19.7087C36.9362 17.8702 36.6361 16.5596 35.8584 14.9679C35.1911 13.6024 34.0105 12.1334 32.8684 11.2476C32.4161 10.8968 32.3839 10.8476 32.1735 10.1849C30.5643 5.11716 26.4577 1.37483 21.2631 0.242273C20.4457 0.0640593 20.0565 0.0288253 18.668 0.00757038C17.7696 -0.00616353 16.909 -0.000686322 16.7556 0.0197511ZM57.0618 4.46799C54.5818 4.78338 52.4424 5.91495 50.6063 7.88234C48.6781 9.94855 47.7527 12.3148 47.7518 15.1813C47.751 17.8276 48.5938 20.1267 50.2877 22.0989C51.8857 23.9594 53.9048 25.1602 56.3171 25.6845C57.1041 25.8555 59.4838 25.8829 60.2613 25.73C64.1714 24.9605 67.0585 22.1526 67.8816 18.319C68.0329 17.6141 68.1112 15.8555 68.0338 14.9013L67.976 14.1906H63.1625H58.349V15.6621V17.1336H61.6956H65.0422V17.3532C65.0422 17.6772 64.808 18.5843 64.5978 19.0746C64.0212 20.4193 63.0371 21.3888 61.4973 22.1291C58.7724 23.4392 55.4508 22.8933 53.2678 20.7765C52.4677 20.0006 52.001 19.3506 51.576 18.4201C49.8541 14.6505 51.4083 10.0766 55.0422 8.21923C56.2379 7.60815 56.8661 7.46141 58.3092 7.45626C59.3075 7.45266 59.6159 7.48242 60.1817 7.63701C61.0684 7.87939 62.1492 8.42679 62.8812 9.00427L63.4691 9.46819L64.472 8.43921L65.4749 7.41023L65.2386 7.15141C64.2398 6.0572 62.0726 4.92824 60.3077 4.58268C59.4978 4.42409 57.8613 4.36629 57.0618 4.46799ZM113.269 15.3147L113.289 25.4312H114.763H116.237L116.257 15.3147L116.278 5.19817H114.763H113.248L113.269 15.3147ZM143.966 6.39687C140.818 6.89815 138.09 9.03484 136.816 11.998C136.282 13.239 136.102 14.1148 136.058 15.6824C136.012 17.308 136.103 18.0766 136.477 19.2322C136.942 20.6683 137.602 21.8153 138.567 22.8646C139.892 24.3063 141.825 25.3697 143.767 25.7249C144.617 25.8805 146.512 25.8611 147.374 25.6881C149.258 25.3101 150.95 24.4028 152.24 23.0794L152.792 22.5129L151.971 21.6673L151.149 20.8216L150.498 21.4505C149.795 22.13 149.055 22.6214 148.217 22.9645C147.24 23.3648 146.693 23.4604 145.4 23.4567C144.34 23.4537 144.126 23.4286 143.504 23.2356C141.228 22.5291 139.561 20.892 138.837 18.654C138.269 16.8954 138.325 14.7665 138.985 13.076C139.805 10.9752 141.581 9.40484 143.75 8.8621C144.651 8.6368 146.323 8.618 147.145 8.82401C148.266 9.10506 149.627 9.92673 150.253 10.7001L150.53 11.042L151.312 10.266C151.742 9.83917 152.105 9.44547 152.119 9.3911C152.158 9.23521 151.127 8.25315 150.408 7.76233C149.652 7.24657 148.778 6.83987 147.87 6.58227C147.334 6.42989 146.994 6.39793 145.719 6.38011C144.886 6.36842 144.097 6.37594 143.966 6.39687ZM20.4209 6.82564C21.2013 7.0323 22.5213 7.66464 23.0656 8.0926C23.2711 8.25421 23.4712 8.3864 23.5103 8.3864C23.6342 8.3864 24.6826 9.55231 25.0173 10.0623C25.9477 11.4801 26.397 13.0254 26.397 14.8068V15.6467L26.8153 15.7009C27.7612 15.8232 28.4811 16.1699 29.1637 16.8314C30 17.6421 30.387 18.5602 30.3882 19.7364C30.3898 21.2903 29.6685 22.5721 28.3552 23.349C27.4922 23.8595 27.7831 23.846 18.2696 23.8199L9.6242 23.7962L9.07608 23.5777C7.98931 23.1445 7.25585 22.4505 6.77314 21.3989C5.74447 19.1574 7.01004 16.4217 9.37464 15.7757C9.8544 15.6447 10.8313 15.6312 11.3284 15.7488C12.2193 15.9595 13.1312 16.6041 13.6364 17.3804C13.8102 17.6474 13.9696 17.9126 13.9907 17.9697C14.0349 18.0896 18.668 13.3915 18.668 13.227C18.668 13.0626 17.2651 11.6135 16.6803 11.1737C15.5705 10.3392 14.0679 9.60153 12.9871 9.36086L12.5253 9.25793L12.9074 8.85949C13.8689 7.85683 15.2976 7.08462 16.8214 6.74406C17.7724 6.53151 19.454 6.5696 20.4209 6.82564ZM154.763 16.1139V25.4764L155.938 25.4538L157.113 25.4312L157.134 16.0913L157.154 6.75141H155.958H154.763V16.1139ZM197.007 10.5323L197.033 14.3132L196.476 13.7369C195.505 12.7335 194.264 12.2286 192.77 12.2286C190.537 12.2286 188.665 13.4836 187.588 15.703C187.012 16.8888 186.857 17.5753 186.849 18.973C186.839 20.6699 187.166 21.8495 187.994 23.1125C188.433 23.7817 189.348 24.7021 189.919 25.0487C190.962 25.6817 192.323 25.9699 193.482 25.8035C194.767 25.619 195.789 25.0875 196.596 24.1837L197.073 23.6499V24.5632V25.4765L198.209 25.4538L199.344 25.4312L199.364 16.0913L199.385 6.75141H198.182H196.98L197.007 10.5323ZM104.086 12.0668C101.553 12.3967 99.4021 14.3427 98.6208 17.011C98.4326 17.6536 98.4048 17.8916 98.4008 18.8912C98.3954 20.2384 98.5112 20.803 99.021 21.9159C99.8593 23.7462 101.489 25.1528 103.331 25.6362C104.195 25.8627 105.623 25.8628 106.328 25.6364C106.971 25.4299 107.522 25.1037 108.051 24.6154L108.468 24.2307L108.467 24.9126C108.464 25.9562 108.337 26.672 108.037 27.322C107.669 28.1188 107.295 28.5181 106.57 28.8855C105.97 29.1901 105.962 29.1917 104.965 29.1917C103.995 29.1917 103.946 29.1831 103.436 28.9255C102.827 28.6178 102.005 27.7806 101.712 27.17L101.529 26.7889L101.154 26.9544C100.948 27.0455 100.385 27.2866 99.9025 27.4903C99.4205 27.6939 98.9976 27.8781 98.9628 27.8996C98.8765 27.9528 99.3998 28.9139 99.819 29.4721C100.744 30.7034 102.052 31.5689 103.472 31.8899C104.248 32.0651 106.018 32.0247 106.755 31.8148C108.79 31.2355 110.233 29.8078 110.943 27.6721C111.28 26.6576 111.298 26.1865 111.272 19.1569L111.247 12.4739H109.858H108.468V13.0525V13.631L108.05 13.2519C107.576 12.8227 106.553 12.2879 105.958 12.159C105.347 12.0264 104.657 11.9925 104.086 12.0668ZM74.4047 12.1846C71.8175 12.7965 69.9147 14.6112 69.2532 17.0975C69.0241 17.9588 69.001 19.8441 69.2099 20.6389C69.567 21.998 70.0267 22.8185 70.9784 23.7956C72.1025 24.9497 73.3739 25.584 74.993 25.7985C77.1034 26.078 79.4354 25.1988 80.8422 23.5934C82.3151 21.9128 82.8878 19.5088 82.3618 17.2153C82.185 16.4448 81.5395 15.1361 81.031 14.5176C80.1334 13.4256 78.9556 12.6765 77.4736 12.255C76.8604 12.0807 75.0224 12.0385 74.4047 12.1846ZM89.191 12.1492C87.4476 12.5242 85.7985 13.6016 84.8869 14.9609C84.5207 15.507 84.049 16.5831 83.8808 17.2562C83.6693 18.1022 83.6885 19.8902 83.9186 20.7715C84.7723 24.043 87.9424 26.2151 91.2623 25.8033C92.8422 25.6073 94.1555 24.9512 95.281 23.7956C96.2315 22.8198 96.6873 22.0069 97.0512 20.6389C97.267 19.8277 97.2433 17.9539 97.0065 17.0927C96.6377 15.7525 95.8813 14.5368 94.8897 13.6907C94.268 13.1602 92.9999 12.4751 92.2532 12.2663C91.6919 12.1094 89.7258 12.0341 89.191 12.1492ZM122.414 12.2292C120.003 12.8969 118.281 14.8131 117.751 17.4197C117.602 18.1501 117.599 19.5608 117.744 20.3405C118.224 22.9117 120.109 24.9999 122.524 25.6334C125.146 26.3216 127.738 25.4337 129.521 23.2366L129.91 22.7567L128.85 22.02C128.268 21.6147 127.737 21.2687 127.671 21.2509C127.601 21.2318 127.461 21.3517 127.329 21.5441C126.652 22.5355 125.099 23.2096 123.852 23.054C122.873 22.9318 122.028 22.4439 121.485 21.6873C121.294 21.421 121.137 21.1603 121.137 21.108C121.137 21.0557 123.145 20.1677 125.599 19.1346C128.122 18.0725 130.061 17.2119 130.061 17.1543C130.061 17.0983 129.906 16.6899 129.716 16.2469C128.86 14.2518 127.527 12.925 125.759 12.3084C124.99 12.0401 123.246 11.9988 122.414 12.2292ZM163.966 12.4005C161.204 13.0939 159.286 15.5007 159.095 18.5129C158.958 20.6582 159.603 22.5081 160.978 23.9188C162.042 25.0104 163.234 25.6015 164.784 25.8054C166.962 26.092 169.386 25.0443 170.658 23.2669C171.084 22.6702 171.544 21.6667 171.745 20.8941C171.996 19.9258 171.997 18.1374 171.747 17.1745C171.377 15.7511 170.531 14.3982 169.52 13.6112C167.951 12.3906 165.839 11.9302 163.966 12.4005ZM173.808 17.0723C173.809 22.1183 173.815 22.1806 174.41 23.4158C175.202 25.0622 176.519 25.8775 178.391 25.8798C179.998 25.8818 181.344 25.2521 182.252 24.0739L182.571 23.6588V24.5677V25.4765L183.707 25.4538L184.842 25.4312L184.863 19.0343L184.883 12.6374H183.691H182.5L182.475 16.6635L182.451 20.6897L182.249 21.2223C181.818 22.3594 181.168 23.0864 180.273 23.4337C179.891 23.5817 179.701 23.6029 179.026 23.5728C177.837 23.52 177.184 23.1764 176.694 22.3448C176.229 21.5567 176.2 21.229 176.198 16.7044L176.197 12.6374H175.002H173.806L173.808 17.0723ZM166.246 14.5175C167.562 14.7679 168.804 15.8917 169.271 17.2548C170.182 19.9149 168.887 22.832 166.513 23.4665C164.411 24.0282 162.372 22.7889 161.676 20.5262C161.444 19.7742 161.429 18.3218 161.645 17.5832C162.28 15.4135 164.207 14.1296 166.246 14.5175ZM194.13 14.5676C195.447 14.9683 196.296 15.8261 196.811 17.2773C196.958 17.689 197.018 18.056 197.048 18.7277C197.119 20.2716 196.757 21.4216 195.902 22.369C195.39 22.9364 194.96 23.219 194.274 23.4378C193.703 23.6203 192.752 23.6396 192.173 23.4805C190.823 23.1101 189.757 21.9668 189.371 20.4761C189.21 19.8553 189.19 18.286 189.336 17.665C189.594 16.565 190.434 15.3887 191.307 14.9073C192.141 14.4466 193.282 14.3094 194.13 14.5676ZM125.322 15.039C125.584 15.162 125.901 15.3617 126.025 15.4828C126.237 15.6893 126.519 16.1439 126.462 16.1874C126.448 16.1981 125.127 16.7631 123.528 17.4428L120.62 18.6785L120.594 18.3898C120.47 16.9654 121.808 15.2427 123.344 14.8477C123.899 14.7051 124.795 14.7918 125.322 15.039ZM77.313 15.1835C78.3645 15.7025 78.9614 16.4035 79.3417 17.5656C79.5827 18.302 79.6156 19.3515 79.4219 20.1146C79.0414 21.6137 77.8039 22.7846 76.3368 23.0341C74.6756 23.3165 72.9249 22.2268 72.2655 20.5C71.7224 19.078 72.0636 17.1613 73.0533 16.0758C73.8684 15.1817 74.6953 14.8328 75.9186 14.8664C76.6478 14.8866 76.7662 14.9134 77.313 15.1835ZM91.8183 15.0761C92.7139 15.4335 93.6046 16.3806 93.9762 17.3703C94.2194 18.0181 94.2778 19.452 94.0883 20.1207C93.6482 21.674 92.4713 22.7836 90.998 23.0341C89.2051 23.3389 87.4017 22.0929 86.8438 20.1639C86.6588 19.5244 86.6726 18.2738 86.8718 17.6122C87.246 16.3703 88.1659 15.3906 89.3259 14.9989C89.9548 14.7865 91.1883 14.8247 91.8183 15.0761ZM105.768 14.9275C106.795 15.1258 107.694 15.8635 108.179 16.9063C108.543 17.6895 108.658 18.3365 108.608 19.3216C108.561 20.256 108.375 20.8279 107.877 21.5759C106.622 23.46 104.057 23.6191 102.498 21.9094C101.703 21.0375 101.377 20.1953 101.377 19.0162C101.377 17.7623 101.754 16.7777 102.55 15.9541C103.411 15.064 104.566 14.6954 105.768 14.9275Z" fill="white"/>
</svg>
