<?xml version="1.0" encoding="utf-8"?>
<!-- Generator: Adobe Illustrator 27.8.1, SVG Export Plug-In . SVG Version: 6.00 Build 0)  -->
<svg version="1.1" xmlns="http://www.w3.org/2000/svg" xmlns:xlink="http://www.w3.org/1999/xlink" x="0px" y="0px"
	 viewBox="0 0 299.61 73.94" style="enable-background:new 0 0 299.61 73.94;" xml:space="preserve">
<style type="text/css">
	.st0{fill:#939393;}
</style>
<g id="Layer_1">
	<g>
		<path class="st0" d="M99.58,56.94c-2.39-4.32-4.79-8.65-7.19-12.97C84.9,30.45,77.41,16.93,69.91,3.41c-0.32,0-0.64,0-0.96,0
			c-4.89,7.89-9.78,15.79-14.66,23.68c-0.17,0.27-0.33,0.54-0.5,0.81c-0.81,1.29-1.1,1.29-1.88,0.04c-0.9-1.46-1.8-2.92-2.7-4.38
			c-4.14-6.72-8.28-13.44-12.42-20.16c-0.32,0-0.64,0-0.96,0C25.87,21.47,15.9,39.52,5.84,57.75c0.6,0.04,0.94,0.09,1.28,0.09
			c9.8,0,19.59-0.01,29.39,0.02c0.84,0,1.29-0.32,1.71-1.01c4.6-7.56,9.23-15.1,13.86-22.65c0.23-0.38,0.54-0.71,0.92-1.2
			c0.42,0.59,0.73,0.99,1,1.42c4.58,7.39,9.17,14.77,13.71,22.17c0.54,0.88,1.1,1.27,2.18,1.26c9.6-0.04,19.19-0.03,28.79-0.03
			c0.39,0,0.77-0.03,1.28-0.05C99.8,57.43,99.71,57.17,99.58,56.94z M36.8,55.33c-0.14,0-0.29,0-0.43,0
			c-4.75-8.11-9.49-16.22-14.38-24.58c9.98,0,19.6,0,29.55,0C46.55,39.07,41.67,47.2,36.8,55.33z M69.32,55.66
			c-5.15-8.42-10.12-16.54-15.25-24.91c10.04,0,19.74,0,29.83,0C78.99,39.15,74.23,47.26,69.32,55.66z"/>
		<path class="st0" d="M123.89,51.78c0.2-0.55,0.43-1.09,0.6-1.64c1.99-6.21,3.99-12.43,5.94-18.66c0.29-0.92,0.7-1.31,1.68-1.23
			c0.99,0.08,2,0.04,3,0.01c0.74-0.02,1.17,0.12,1.26,1.01c0.33,3.36,0.75,6.71,1.13,10.06c0.46,4.06,0.91,8.13,1.36,12.2
			c0.12,1.1,0.21,2.21,0.32,3.32c0.07,0.71-0.19,1.04-0.94,1c-0.68-0.04-1.37-0.08-2.04,0.01c-1.22,0.17-1.52-0.5-1.6-1.5
			c-0.4-4.99-0.81-9.98-1.23-14.97c-0.13-1.53-0.32-3.05-0.48-4.58c-0.11-0.02-0.23-0.04-0.34-0.06c-0.19,0.44-0.42,0.87-0.57,1.32
			c-2,6.21-4,12.42-5.95,18.65c-0.26,0.83-0.63,1.13-1.51,1.13c-3.57,0-3.57,0.03-4.61-3.39c-1.67-5.48-3.34-10.96-5.01-16.44
			c-0.13-0.43-0.29-0.84-0.44-1.26c-0.11,0.01-0.23,0.02-0.34,0.03c-0.12,0.63-0.29,1.25-0.35,1.88c-0.35,4.04-0.66,8.08-1.02,12.11
			c-0.18,2.06-0.45,4.11-0.65,6.16c-0.06,0.64-0.33,0.92-0.99,0.89c-0.76-0.03-1.52-0.03-2.28,0c-0.79,0.03-0.95-0.37-0.87-1.05
			c0.8-6.98,1.59-13.97,2.38-20.95c0.17-1.46,0.33-2.92,0.49-4.38c0.09-0.82,0.43-1.29,1.39-1.22c1.07,0.08,2.16,0.07,3.24,0
			c0.88-0.05,1.27,0.31,1.52,1.13c1.93,6.23,3.91,12.45,5.87,18.67c0.18,0.58,0.42,1.15,0.63,1.73
			C123.63,51.79,123.76,51.79,123.89,51.78z"/>
		<path class="st0" d="M169.39,39.55c0.5-0.28,0.75-0.39,0.96-0.55c2.36-1.83,5.04-2.14,7.83-1.49c0.91,0.21,1.79,0.84,2.51,1.47
			c0.6,0.53,0.96,0.59,1.61,0.13c2.32-1.64,4.89-2.26,7.72-1.68c3.12,0.64,4.74,2.4,4.8,5.62c0.09,4.62,0.02,9.24,0.04,13.86
			c0,0.75-0.34,0.97-1.02,0.95c-0.92-0.03-1.84-0.05-2.76,0c-0.88,0.05-1.08-0.35-1.07-1.14c0.03-3.94,0.02-7.89,0-11.83
			c0-0.59-0.07-1.19-0.15-1.78c-0.2-1.31-0.75-2.44-2.17-2.68c-1.6-0.27-3.3-0.1-4.09,1.51c-0.66,1.35-1.1,2.92-1.17,4.41
			c-0.17,3.42-0.08,6.85-0.04,10.28c0.01,0.93-0.27,1.31-1.23,1.24c-0.79-0.06-1.6-0.07-2.4,0c-1.04,0.09-1.29-0.37-1.28-1.32
			c0.04-3.55,0.03-7.09,0.01-10.64c0-0.83-0.12-1.66-0.18-2.49c-0.1-1.43-0.62-2.59-2.11-2.98c-1.74-0.45-3.61,0.23-4.31,1.78
			c-0.54,1.2-0.91,2.57-0.96,3.88c-0.13,3.46-0.08,6.93-0.02,10.4c0.02,1.01-0.23,1.4-1.33,1.39c-3.56-0.03-3.56,0.01-3.56-3.58
			c0-5.06,0.03-10.12-0.02-15.18c-0.01-1.07,0.27-1.59,1.41-1.43c0.39,0.05,0.8,0.04,1.2,0C168.82,37.55,169.72,37.74,169.39,39.55z
			"/>
		<path class="st0" d="M255.94,62.97c3.19,1.57,6.42,2.69,9.44,0.3c2.45-1.93,2.18-4.92,2.15-7.98c-0.57,0.29-0.95,0.46-1.3,0.67
			c-1.79,1.09-3.75,1.4-5.77,1.09c-3.13-0.48-5.2-2.3-6.17-5.31c-0.83-2.57-0.9-5.16-0.1-7.75c1.22-3.93,4.23-5.73,8.04-6.44
			c3.09-0.58,6.19-0.38,9.29,0.11c0.72,0.11,0.92,0.43,0.91,1.1c-0.03,6.61,0.04,13.23-0.07,19.84c-0.08,4.8-3.3,8.05-8.31,8.8
			c-2.78,0.41-5.47,0.12-8.17-0.57c-0.85-0.21-1-0.61-0.73-1.36C255.43,64.69,255.65,63.89,255.94,62.97z M267.66,45.49
			c-0.04,0-0.08,0-0.11-0.01c0-1.31,0.05-2.63-0.03-3.93c-0.02-0.37-0.38-0.91-0.71-1.04c-2.56-0.99-5.93,0.24-7.08,2.67
			c-1.27,2.67-1.39,5.45-0.24,8.2c0.86,2.06,2.27,2.84,4.44,2.62c1.63-0.17,3.05-1.47,3.35-3.41
			C267.54,48.9,267.54,47.18,267.66,45.49z"/>
		<path class="st0" d="M207.55,51.63c0.33-0.77,0.54-1.23,0.71-1.7c2.22-6.14,4.45-12.28,6.64-18.43c0.31-0.88,0.74-1.3,1.72-1.24
			c1.15,0.08,2.3,0.02,3.62,0.02c-0.17,0.53-0.27,0.9-0.41,1.26c-3.22,8.28-6.47,16.54-9.64,24.84c-0.45,1.17-1.03,1.55-2.27,1.51
			c-2.85-0.1-2.86-0.02-3.88-2.63c-3.12-7.97-6.23-15.95-9.34-23.93c-0.1-0.25-0.16-0.52-0.31-1.02c1.75,0,3.41-0.05,5.05,0.05
			c0.28,0.02,0.62,0.66,0.77,1.07c2.23,6.22,4.44,12.45,6.66,18.67C207.02,50.52,207.23,50.92,207.55,51.63z"/>
		<path class="st0" d="M158.81,53.39c0.25,0.91,0.57,1.78,0.69,2.67c0.04,0.32-0.32,0.92-0.64,1.03c-3.44,1.3-6.96,1.72-10.54,0.62
			c-3.16-0.97-4.95-3.24-5.67-6.37c-0.74-3.26-0.67-6.49,0.94-9.52c1.56-2.93,4.08-4.39,7.36-4.57c1.07-0.06,2.18-0.08,3.22,0.12
			c3.43,0.66,5.5,2.9,6.08,6.51c0.19,1.17,0.17,2.37,0.28,3.56c0.08,0.85-0.3,1.1-1.12,1.1c-3.52-0.03-7.03-0.02-10.55-0.01
			c-1.58,0-1.62,0.1-1.37,1.65c0.7,4.44,3.6,5.28,7.24,4.63C156.08,54.56,157.35,53.91,158.81,53.39z M147.7,45.37
			c2.41,0,4.76,0.01,7.11-0.02c0.22,0,0.57-0.29,0.62-0.51c0.45-1.7-0.85-3.96-2.53-4.5C149.92,39.39,147.22,41.88,147.7,45.37z"/>
		<path class="st0" d="M234.95,53.35c0.28,1.05,0.58,2.18,0.9,3.4c-2.97,1.26-5.93,1.81-9.06,1.44c-2.69-0.32-5.02-1.27-6.6-3.6
			c-2.91-4.3-2.6-12.68,2.19-15.79c3.23-2.1,6.73-2.25,10.16-0.65c2.98,1.39,3.83,4.25,4.04,7.25c0.22,3.11,0.14,3.12-2.99,3.12
			c-2.96,0-5.91,0.01-8.87-0.01c-0.88-0.01-1.27,0.15-1.15,1.23c0.48,4.56,3.4,5.8,7.33,5.05
			C232.26,54.54,233.52,53.87,234.95,53.35z M227.66,45.38c1.04,0,2.08,0.04,3.11-0.02c0.32-0.02,0.82-0.28,0.88-0.52
			c0.54-2-1.32-4.53-3.4-4.68c-3.14-0.22-4.43,2.25-4.59,4.41c-0.05,0.65,0.3,0.82,0.88,0.81
			C225.58,45.37,226.62,45.38,227.66,45.38z"/>
		<path class="st0" d="M293.18,53.39c1.28,4.04,1.66,3.46-2.32,4.39c-2.04,0.48-4.27,0.45-6.38,0.26c-3.49-0.31-5.96-2.27-7.04-5.62
			c-1.29-4.03-1.24-8.02,1.27-11.65c1.55-2.25,3.81-3.35,6.5-3.51c1.15-0.07,2.34-0.09,3.46,0.12c4.28,0.81,5.93,3.96,6.25,8.07
			c0.23,3.06,0.13,3.07-2.92,3.07c-2.96,0-5.91,0.03-8.87-0.01c-1.05-0.01-1.34,0.26-1.21,1.39c0.51,4.38,3.38,5.61,7.24,4.91
			C290.51,54.57,291.78,53.9,293.18,53.39z M285.99,45.38c1.04,0,2.08,0.04,3.11-0.02c0.31-0.02,0.82-0.29,0.88-0.52
			c0.54-2.22-1.47-4.68-3.77-4.69c-2.37-0.01-4.32,2.05-4.23,4.43c0.02,0.65,0.32,0.82,0.89,0.81
			C283.91,45.37,284.95,45.38,285.99,45.38z"/>
		<path class="st0" d="M245.3,39.41c2.58-1.95,5.25-2.42,8.29-1.59c-0.29,1.21-0.57,2.35-0.86,3.54c-1.03-0.16-1.96-0.45-2.89-0.41
			c-2.59,0.11-4.07,1.74-4.09,4.48c-0.04,3.67-0.05,7.33,0.01,11c0.02,1.08-0.26,1.55-1.4,1.43c-1.14-0.12-2.77,0.32-3.32-0.28
			c-0.62-0.68-0.34-2.23-0.34-3.41c-0.02-5.06,0.01-10.12-0.03-15.18c-0.01-0.96,0.25-1.42,1.28-1.32c0.55,0.06,1.12,0.04,1.68,0
			C244.72,37.6,245.64,37.7,245.3,39.41z"/>
	</g>
</g>
<g id="Layer_2">
</g>
</svg>
