<?xml version="1.0" encoding="utf-8"?>
<!-- Generator: Adobe Illustrator 27.6.1, SVG Export Plug-In . SVG Version: 6.00 Build 0)  -->
<svg version="1.1" id="Layer_1" xmlns="http://www.w3.org/2000/svg" xmlns:xlink="http://www.w3.org/1999/xlink" x="0px" y="0px"
	 viewBox="0 0 1280 274" style="enable-background:new 0 0 1280 274;" xml:space="preserve">
<style type="text/css">
	.st0{opacity:0.5;fill:#FFFFFF;}
</style>
<path class="st0" d="M0,65v65h130V0H0V65z"/>
<path class="st0" d="M143.7,0.7c-0.4,0.3-0.7,29.6-0.7,65V130h130V0h-64.3C173.3,0,144,0.3,143.7,0.7z"/>
<path class="st0" d="M1187,44c-10.5,2.3-21.6,10.1-26.3,18.7c-4.1,7.6-5.7,15.4-5.7,27.5v10.7l-9.7,0.3l-9.8,0.3l-0.3,11.2
	l-0.3,11.3h20.1v95h28v-95h41v30.2c0.1,36.1,0.8,42.9,5.2,51.8c3.7,7.2,9.5,12,17.1,14.1c6.4,1.7,20.3,1.4,27.5-0.6l6.2-1.8v-22.4
	l-5.7,1.9c-9.2,3.1-16.4,1.2-20-5.5c-1.6-2.8-1.8-6.9-2.1-35.5l-0.3-32.2h28.1v-23h-28V66.8l-2.7,0.7c-1.6,0.3-7.9,2.2-14,4.1
	l-11.3,3.5v26.4l-20.6-0.3l-20.6-0.3l0.3-11.7c0.4-12.8,1.7-16.5,7.1-20.5c3.7-2.7,12.3-3.4,18.2-1.4l4.6,1.6V57
	c0-10.1-0.2-11.9-1.7-12.4C1208.3,43.4,1191.6,43.1,1187,44L1187,44z"/>
<path class="st0" d="M564.4,53.9c-5.2,3.2-7.7,7.6-7.7,13.7c0,9.8,7.4,16.1,18.1,15.2c9.1-0.8,14.7-6.6,14.7-15.3
	c0-6-2-9.5-7.5-13.3C577.7,51.3,568.9,51.1,564.4,53.9z"/>
<path class="st0" d="M355,137v82h27l-0.2-63c-0.2-34.7,0-63,0.3-63s11.9,28.4,25.9,63l25.4,63.1l10-0.3l10-0.3l24.7-62.3
	c13.6-34.3,25-62.6,25.3-62.9c0.3-0.4,0.6,27.8,0.6,62.5V219h28V55h-38.6l-22.9,56.2c-12.6,31-23.8,58.3-24.8,60.7l-2,4.5l-8.7-22
	c-4.8-12-15.6-39.3-24-60.7L395.7,55H355V137z"/>
<path class="st0" d="M652,100.5c-20.3,4.6-36.2,19.1-43,39.5c-3.1,9-3.9,28.7-1.6,38.4c3.6,15.1,14.5,29.7,27.1,36.3
	c15.6,8.1,38.9,8.9,56.2,2.1l5.8-2.3l0.5-12.8c0.3-7,0.4-12.7,0.3-12.7s-3.1,1.6-6.7,3.5c-16.7,9.3-35.4,7.7-46.3-3.8
	c-8.2-8.6-11.4-21-9.3-35.6c2-13.9,10-24.7,21.6-29c10.9-4.1,26.4-2.2,36.4,4.6c1.9,1.2,3.7,2.3,4,2.3s0.4-6,0.2-13.4l-0.3-13.4
	l-6.7-2.2C681.5,99.1,661.8,98.3,652,100.5L652,100.5z"/>
<path class="st0" d="M771,100.1c-9.8,1.4-17.5,7.1-22.4,16.6l-2.5,4.8l-0.1-10.3v-10.3l-13.7,0.3l-13.8,0.3l-0.3,58.7L718,219h27.9
	l0.3-36.3l0.3-36.2l2.8-6c4.4-9.3,9.5-14,17.1-15.4c5.1-0.9,13.4,0.2,17.8,2.5l2.8,1.5v-13.5c0-9.7-0.4-13.7-1.2-14.3
	C783.7,100.1,775.8,99.4,771,100.1L771,100.1z"/>
<path class="st0" d="M833.1,100.5c-21.7,4.9-37.1,20.1-42.6,42c-2.3,9.1-2.4,27.4-0.1,36.9c4.7,19.9,19.7,35,39.8,40.3
	c8.6,2.2,26.1,2.2,35.3-0.2c17.9-4.5,32.4-17.1,38.6-33.3c3.6-9.9,5.2-20.6,4.5-31.7c-1-18.1-5.8-29.8-16-40.1
	c-6.4-6.3-11-9.2-20.6-12.6C864.6,99.1,842.4,98.4,833.1,100.5z M862.5,124.4c6.7,3,12.7,10,15.1,17.3c1.5,4.6,1.9,8.7,1.9,19.3
	c-0.1,11.7-0.4,14.3-2.4,19.3c-2.9,7.4-7.1,12.1-13.5,15.4c-4.4,2.3-6.4,2.6-14.1,2.6c-9.9,0-15.3-1.7-21.3-6.7
	c-9.4-8.1-13.7-27.4-9.7-44.4c2.8-11.6,8-18.6,17-22.8C842.6,121,855.4,121,862.5,124.4z"/>
<path class="st0" d="M951.3,100.5c-11.8,3.3-22.3,11.6-26.4,20.8c-3.3,7.5-3.3,21.1,0.1,28.2c4.1,8.4,8.7,12,26.4,20.5
	c8.9,4.3,17,8.8,18,9.9c2.6,2.9,3.3,10.4,1.2,13.6c-5.7,8.7-26.9,7.8-42.8-1.9l-5.8-3.5V215l3.6,1.5c11.1,4.6,32.5,6.1,44.2,3.1
	c12.9-3.3,22.4-10.3,27.2-20.1c2-4.2,2.4-6.5,2.4-14.5s-0.3-10.2-2.1-13.6c-5-9.5-11.4-14.3-29.4-22.4c-13.2-5.8-16.8-8.9-17.6-14.9
	c-1.9-13.7,18.8-17.7,39-7.5l4.8,2.5l-0.3-12.8l-0.3-12.7l-6-1.9C979.3,99.1,958.6,98.4,951.3,100.5L951.3,100.5z"/>
<path class="st0" d="M1055.5,100.9c-14.1,3.5-26.4,12-33.6,23.2c-10.4,16.3-12.7,42.9-5.4,62.6c9,24.1,34.5,37.9,63.4,34.3
	c16.5-2,25.5-6.1,35.6-16.4c12.2-12.3,16.9-25,16.9-45.6s-4.7-33.3-15.7-44.4c-7.4-7.3-13.8-10.9-24.3-13.6
	C1082.5,98.4,1065.5,98.4,1055.5,100.9L1055.5,100.9z M1087.6,124.7c5.6,3,10.8,9,13.5,15.9c1.9,5,2.3,7.8,2.3,18.9
	c0.1,20.5-4.1,30.1-15.8,36c-5.3,2.6-7,2.9-14.5,2.9c-10.8-0.1-17.5-2.7-23.1-9.1c-6.5-7.5-8.4-13.7-8.5-28.3c0-20,4.5-29.8,16.7-36
	c6-3,6.7-3.1,15.8-2.8C1081.2,122.5,1084.5,123.1,1087.6,124.7L1087.6,124.7z"/>
<path class="st0" d="M559,160v59h28l-0.2-58.8l-0.3-58.7l-13.7-0.3l-13.8-0.3V160z"/>
<path class="st0" d="M0,209v65h130V144H0V209z"/>
<path class="st0" d="M143.2,208.7l0.3,64.8l64.8,0.3L273,274V144H143L143.2,208.7z"/>
</svg>
