<?xml version="1.0" encoding="utf-8"?>
<!-- Generator: Adobe Illustrator 27.6.1, SVG Export Plug-In . SVG Version: 6.00 Build 0)  -->
<svg version="1.1" id="Layer_1" xmlns="http://www.w3.org/2000/svg" xmlns:xlink="http://www.w3.org/1999/xlink" x="0px" y="0px"
	 viewBox="0 0 204 50" style="enable-background:new 0 0 204 50;" xml:space="preserve">
<style type="text/css">
	.st0{opacity:0.5;fill:#FFFFFF;}
	.st1{opacity:0.5;}
	.st2{fill:#FFFFFF;}
</style>
<polygon id="opening-bracket" class="st0" points="0,50 12.3,50 12.3,44.3 5.7,44.3 5.7,5.7 12.3,5.7 12.3,0 0,0 "/>
<path id="t" class="st0" d="M26.2,22.9h10.4v-5.8H26.2V7.2h-6.3v9.9h-5.6v5.8h5.6v13.4c0,3.6,2.9,6.5,6.5,6.5c0,0,0,0,0,0h10.2V37
	H26.2V22.9z"/>
<g id="i" class="st1">
	<polygon id="char" class="st2" points="57,17.2 45.7,17.2 45.7,22.9 50.7,22.9 50.7,37 45.2,37 45.2,42.8 62.6,42.8 62.6,37 57,37 
			"/>
	<rect id="accent" x="50.4" y="7.2" class="st2" width="6.6" height="5.7"/>
</g>
<polygon id="l" class="st0" points="80.7,7.2 69.4,7.2 69.4,13 74.4,13 74.4,37 69,37 69,42.8 86.4,42.8 86.4,37 80.7,37 "/>
<path id="e" class="st0" d="M105.4,16.6c-7.3-0.2-13.3,5.6-13.5,12.8c0,0.2,0,0.4,0,0.6c0,8.2,5.7,13.3,14.2,13.3
	c4.2,0.1,8.2-1.4,11.2-4.3l-3.8-4c-2,1.9-4.1,2.6-7.4,2.6c-3.9,0-6.7-1.9-7.5-4.9h19.7c0.3-1.2,0.5-2.4,0.5-3.5
	C118.6,22.3,113.3,16.6,105.4,16.6z M105.3,22.3c3.6,0,6.2,2.1,6.6,4.8H98.6C99.2,24.3,101.8,22.3,105.3,22.3z"/>
<polygon id="closing-bracket" class="st0" points="121.2,5.7 127.8,5.7 127.8,44.3 121.2,44.3 121.2,50 133.6,50 133.6,0 121.2,0 
	"/>
<path id="D" class="st0" d="M168.3,12.6c-1.1-1.6-2.6-3-4.3-3.9c-1.9-1-4.1-1.5-6.3-1.5h-11.2v35.5h11.2c2.2,0.1,4.4-0.4,6.3-1.5
	c1.7-1,3.2-2.3,4.3-3.9c1.1-1.7,2-3.6,2.4-5.7c0.5-2.2,0.7-4.5,0.7-6.7c0-2.3-0.2-4.5-0.8-6.7C170.3,16.2,169.4,14.3,168.3,12.6z
	 M157,37h-4.2V12.9h4.1c4.5,0,8.1,4.2,8.1,12C165,33.2,162,37,157,37z"/>
<path id="B" class="st0" d="M196.1,24.6c3.2-1.3,5.2-4.5,5.1-7.9c0-5.4-4.5-9.4-12.4-9.4h-11.3v35.5h12.1c8.5,0,12.8-4.1,12.8-9.9
	C202.4,28.9,200.1,26,196.1,24.6z M189.9,37h-6v-9.4h5.8c4.3,0,6.4,1.9,6.4,4.8C196,35.1,194,37,189.9,37z M189.5,21.8h-5.6V13h5.2
	c3.7,0,5.6,1.7,5.6,4.4C194.6,19.9,192.9,21.8,189.5,21.8L189.5,21.8z"/>
</svg>
