<svg width="311" height="56" viewBox="0 0 311 56" fill="none" xmlns="http://www.w3.org/2000/svg">
<path d="M127.468 16.3613C128.969 16.3124 129.816 16.4041 130.321 16.4531H150.027V24.4853H140.775C140.775 24.4853 134.577 24.5037 131.376 24.4853C124.829 24.5373 118.699 25.6778 118.393 25.7114L127.468 16.3613Z" fill="white"/>
<path d="M101.485 33.3859C102.047 34.1136 102.047 34.1441 102.613 34.9391C112.807 49.2731 126.872 47.8727 127.468 47.8024V55.8561C127.312 55.8775 127.425 55.9173 126.052 55.9173C120.512 55.9173 106.523 54.3304 96.0481 39.6111C95.7577 39.2014 95.7577 39.1892 95.4733 38.81L101.485 33.3859Z" fill="white"/>
<path d="M95.189 38.4187C85.3344 25.1609 77.3724 24.421 77.3724 24.421V16.4009C78.571 16.4285 88.9943 17.1256 100.925 32.6551L95.189 38.4187Z" fill="white"/>
<path d="M0 55.3915V19.9907C5.73299 17.1379 11.7106 15.71 17.9267 15.71C23.3814 15.71 27.6406 17.1318 30.7105 19.9723C33.7833 22.8159 35.3183 26.7999 35.3183 31.9183V55.3945H25.9162V31.1172C25.9162 30.0746 25.8214 29.2032 25.6287 28.503C25.4361 27.8028 25.057 27.069 24.4821 26.3015C23.9104 25.5432 22.9717 24.9623 21.6722 24.5832C20.3727 24.201 18.7033 24.0053 16.6639 24.0053C14.3737 24.0053 11.9491 24.2377 9.4021 24.6963V55.3976H0V55.3915Z" fill="white"/>
<path d="M41.4304 36.2721C41.4304 30.004 42.8277 24.9957 45.6193 21.2501C48.4078 17.5076 52.8352 15.6302 58.9015 15.6302C64.6344 15.6302 68.9701 17.4526 71.9146 21.1003C74.8621 24.7419 76.3328 29.2304 76.3328 34.5537C76.3328 36.746 76.2778 38.3665 76.1738 39.4122H50.8355C51.0893 42.797 52.0983 45.0688 53.8717 46.2154C55.6451 47.362 57.9444 47.9307 60.7696 47.9307C65.3622 47.9307 68.328 48.0346 74.0824 46.3896L74.1252 54.3577C71.1288 55.7642 64.8393 55.9966 59.3601 55.9966C57.6264 55.9966 55.9998 55.8529 54.4679 55.5777C52.9361 55.2933 51.3523 54.7124 49.7103 53.8165C48.0745 52.9268 46.6619 51.7924 45.4817 50.4195C44.2984 49.0406 43.3291 47.1388 42.5678 44.708C41.8095 42.268 41.4304 39.4581 41.4304 36.2721ZM50.8355 32.9118H66.5791C66.3283 30.2303 65.5334 27.9676 64.1972 26.1209C62.858 24.2771 61.0143 23.3537 58.6691 23.3537C56.3239 23.3537 54.4985 24.1028 53.1838 25.6102C51.872 27.1176 51.0893 29.5484 50.8355 32.9118Z" fill="white"/>
<path d="M140.775 4.73911H131.376V13.652H140.775V4.73911Z" fill="white"/>
<path d="M141.826 47.0535C141.126 46.4664 140.772 45.3321 140.772 43.6565V27.3809H131.372V43.0817C131.372 47.1054 132.479 50.267 134.699 52.5633C136.916 54.8534 139.961 56 143.835 56C143.884 56 143.948 56 144.025 56C146.187 56 148.186 55.6208 150.024 54.8534V47.0963C148.721 47.6589 147.232 47.931 145.554 47.931C143.771 47.931 142.53 47.6405 141.826 47.0535Z" fill="white"/>
<path d="M156.411 24.3874V16.3214H163.064C163.113 5.43946 167.969 0 177.628 0C178.875 0 180.147 0.128418 181.45 0.388314V7.87025C180.505 7.7724 179.808 7.71736 179.346 7.71736C176.897 7.71736 175.136 8.30442 174.069 9.47854C172.996 10.6496 172.467 12.9306 172.467 16.3184H181.45V24.3843H172.467V55.3883H163.064V24.3843H156.411V24.3874Z" fill="white"/>
<path d="M189.13 55.3914V1.45236H198.533V55.3914H189.13Z" fill="white"/>
<path d="M213.674 50.7987C210.485 47.3375 208.895 42.3659 208.895 35.8929C208.895 29.42 210.488 24.4514 213.674 20.9841C216.86 17.5198 221.425 15.7862 227.375 15.7862C233.325 15.7862 237.89 17.5198 241.076 20.9841C244.262 24.4514 245.852 29.42 245.852 35.8929C245.852 42.3659 244.259 47.3375 241.076 50.7987C237.89 54.2691 233.325 55.9966 227.375 55.9966C221.425 55.9966 216.86 54.2691 213.674 50.7987ZM220.532 26.0719C219.046 27.7781 218.297 31.0589 218.297 35.9113C218.297 40.7667 219.046 44.0414 220.532 45.7323C222.024 47.4292 224.305 48.2792 227.393 48.2792C230.478 48.2792 232.753 47.4292 234.236 45.7323C235.71 44.0414 236.456 40.7667 236.456 35.9113C236.456 31.0589 235.713 27.7781 234.236 26.0719C232.753 24.3627 230.478 23.5066 227.393 23.5066C224.305 23.5066 222.024 24.3627 220.532 26.0719Z" fill="white"/>
<path d="M251.093 16.3214H261.036L269.328 44.4909L276.783 16.3214H284.851L292.266 44.4909L300.558 16.3214H310.495L296.66 55.3913H287.258L280.834 32.9118L274.343 55.3913H264.934L251.093 16.3214Z" fill="white"/>
<path d="M82.1636 43.3413C71.9421 48.5178 63.39 47.8788 62.8641 47.8421L62.2343 55.8714C62.3688 55.8775 62.962 55.9233 63.9312 55.9233C67.2793 55.9233 74.8438 55.535 83.7964 51.4684L82.1636 43.3413Z" fill="white"/>
<path d="M130.321 16.4527C129.679 16.3916 128.144 16.2907 125.97 16.4527H125.936L125.927 16.4558C119.491 16.9358 107.493 19.6938 96.3081 32.3461C91.1683 38.1616 85.6279 41.8185 80.5645 44.1025C73.6421 52.0706 62.2343 55.8712 62.2343 55.8712C62.3688 55.8773 62.962 55.9232 63.9312 55.9232C69.496 55.9232 87.4686 54.5228 102.35 37.6816C111.636 27.1665 115.531 26.3807 120.919 25.0751C120.919 25.0751 125.881 22.5129 132.293 20.553C141.405 17.6544 150.027 16.4558 150.027 16.4558H130.321V16.4527Z" fill="white"/>
</svg>
