<svg width="252" height="42" viewBox="0 0 252 42" fill="none" xmlns="http://www.w3.org/2000/svg">
<path d="M45.0625 24.6562C45.2344 28.8125 48.6406 31.375 53.8281 31.375C59.2812 31.375 62.7188 28.6875 62.7188 24.4062C62.7188 21.0469 60.7812 19.1562 56.2031 18.1094L53.6094 17.5156C50.8438 16.8594 49.7031 15.9844 49.7031 14.4844C49.7031 12.6094 51.4219 11.3594 53.9688 11.3594C56.5469 11.3594 58.3125 12.625 58.5 14.7344H62.3438C62.25 10.7656 58.9688 8.07812 54 8.07812C49.0938 8.07812 45.6094 10.7812 45.6094 14.7812C45.6094 18 47.5781 20 51.7344 20.9531L54.6562 21.6406C57.5 22.3125 58.6562 23.25 58.6562 24.875C58.6562 26.75 56.7656 28.0938 54.0469 28.0938C51.2969 28.0938 49.2188 26.7344 48.9688 24.6562H45.0625ZM69.7969 8.45312H65.7656V23.0469C65.7656 27.9688 69.3281 31.375 75.0312 31.375C80.75 31.375 84.2969 27.9688 84.2969 23.0469V8.45312H80.2812V22.6875C80.2812 25.7656 78.375 27.8594 75.0312 27.8594C71.6875 27.8594 69.7969 25.7656 69.7969 22.6875V8.45312ZM111.562 8.45312H106.906L100 25.4688H99.875L92.9688 8.45312H88.2969V31H91.9375V15H92.0469L98.5625 30.8125H101.312L107.828 15H107.938V31H111.562V8.45312ZM138.812 8.45312H134.156L127.25 25.4688H127.125L120.219 8.45312H115.547V31H119.188V15H119.297L125.812 30.8125H128.562L135.078 15H135.188V31H138.812V8.45312ZM146.828 31V8.45312H142.797V31H146.828ZM160.438 31V11.8594H167.281V8.45312H149.562V11.8594H156.406V31H160.438ZM176.641 15.1406V15.1875H180.422V15.125C180.422 12.8906 182.172 11.2344 184.516 11.2344C186.75 11.2344 188.422 12.7188 188.422 14.5781C188.422 16.2656 187.719 17.4219 185.156 20.0312L176.859 28.2812V31H192.703V27.7031H182.234V27.625L187.812 22.1094C190.766 19.125 192.359 17.0938 192.359 14.4062C192.359 10.75 189.141 8 184.641 8C179.969 8 176.641 10.9844 176.641 15.1406ZM204.172 31.4531C209.688 31.4531 212.969 26.9062 212.969 19.6875C212.969 12.4688 209.656 8 204.172 8C198.672 8 195.344 12.5 195.344 19.7031C195.344 26.9375 198.641 31.4531 204.172 31.4531ZM204.172 28.1562C201.172 28.1562 199.406 25 199.406 19.6875C199.406 14.4688 201.203 11.2969 204.172 11.2969C207.125 11.2969 208.891 14.4375 208.891 19.7031C208.891 25.0156 207.156 28.1562 204.172 28.1562ZM215.547 15.1406V15.1875H219.328V15.125C219.328 12.8906 221.078 11.2344 223.422 11.2344C225.656 11.2344 227.328 12.7188 227.328 14.5781C227.328 16.2656 226.625 17.4219 224.062 20.0312L215.766 28.2812V31H231.609V27.7031H221.141V27.625L226.719 22.1094C229.672 19.125 231.266 17.0938 231.266 14.4062C231.266 10.75 228.047 8 223.547 8C218.875 8 215.547 10.9844 215.547 15.1406ZM234.422 15.1406V15.1875H238.203V15.125C238.203 12.8906 239.953 11.2344 242.297 11.2344C244.531 11.2344 246.203 12.7188 246.203 14.5781C246.203 16.2656 245.5 17.4219 242.938 20.0312L234.641 28.2812V31H250.484V27.7031H240.016V27.625L245.594 22.1094C248.547 19.125 250.141 17.0938 250.141 14.4062C250.141 10.75 246.922 8 242.422 8C237.75 8 234.422 10.9844 234.422 15.1406Z" fill="white"/>
<g clip-path="url(#clip0_72_2033)" filter="url(#filter0_d_72_2033)">
<path fill-rule="evenodd" clip-rule="evenodd" d="M3.84717 14.0999C3.84717 14.0999 8.75039 14.6808 14.72 22.72C14.8016 22.8314 14.8676 22.9131 14.9329 22.9941C15.0062 23.0849 15.0788 23.1748 15.172 23.3047C21.5196 32.2292 29.9999 33.1931 33.3611 33.1931C34.0446 33.1931 34.1196 33.1761 34.177 33.163C34.1895 33.1602 34.2011 33.1576 34.218 33.1553V28.2757C33.8588 28.3166 25.3313 29.1672 19.1507 20.479C18.9985 20.264 18.9006 20.1064 18.8091 19.9592C18.6942 19.7742 18.5894 19.6056 18.4 19.36C11.164 9.94415 4.57486 9.25495 3.84717 9.2392V14.0999Z" fill="url(#paint0_linear_72_2033)"/>
<path d="M34.24 9.22694C33.92 9.06693 33.3265 9.12001 33.3265 9.12001H33.3076L33.3013 9.12316C29.3983 9.41613 22.1214 11.0857 15.3454 18.7564C12.2267 22.2846 9.79142 24.1609 6.72 25.5469C4.92281 26.358 4 26.6669 4 26.6669L4 31.7869C4 31.7869 9.98378 32.1982 19.0059 21.9853C24.6352 15.6125 25.5333 15.6176 28.8 14.8269L32.96 10.56L34.24 9.22694Z" fill="url(#paint1_linear_72_2033)"/>
</g>
<defs>
<filter id="filter0_d_72_2033" x="0" y="4" width="40" height="40" filterUnits="userSpaceOnUse" color-interpolation-filters="sRGB">
<feFlood flood-opacity="0" result="BackgroundImageFix"/>
<feColorMatrix in="SourceAlpha" type="matrix" values="0 0 0 0 0 0 0 0 0 0 0 0 0 0 0 0 0 0 127 0" result="hardAlpha"/>
<feOffset dy="4"/>
<feGaussianBlur stdDeviation="2"/>
<feComposite in2="hardAlpha" operator="out"/>
<feColorMatrix type="matrix" values="0 0 0 0 0 0 0 0 0 0 0 0 0 0 0 0 0 0 0.25 0"/>
<feBlend mode="normal" in2="BackgroundImageFix" result="effect1_dropShadow_72_2033"/>
<feBlend mode="normal" in="SourceGraphic" in2="effect1_dropShadow_72_2033" result="shape"/>
</filter>
<linearGradient id="paint0_linear_72_2033" x1="20.32" y1="26.08" x2="41.12" y2="33.12" gradientUnits="userSpaceOnUse">
<stop stop-color="white"/>
<stop offset="1" stop-color="white" stop-opacity="0"/>
</linearGradient>
<linearGradient id="paint1_linear_72_2033" x1="9.76" y1="23.84" x2="37.28" y2="7.84" gradientUnits="userSpaceOnUse">
<stop offset="0.10021" stop-color="white"/>
<stop offset="1" stop-color="white" stop-opacity="0"/>
</linearGradient>
<clipPath id="clip0_72_2033">
<rect width="32" height="32" fill="white" transform="translate(4 4)"/>
</clipPath>
</defs>
</svg>
