<svg width="188" height="49" viewBox="0 0 188 49" fill="none" xmlns="http://www.w3.org/2000/svg">
<path d="M12.4168 18.3105C14.4771 17.85 16.3166 17.6105 17.9354 17.6105C20.6947 17.6105 22.755 18.1447 24.153 19.2316C25.5511 20.3184 26.2317 22.0868 26.2317 24.5737V37.7263H20.474V25.7342C20.474 23.4868 19.2047 22.3632 16.6845 22.3632C16.1143 22.3632 15.544 22.4368 14.9554 22.5474C14.3667 22.6763 13.9068 22.8237 13.5573 23.0079V37.6895H7.818V19.7842C8.82974 19.2684 10.3566 18.7711 12.4168 18.3105Z" fill="white"/>
<path d="M32.7988 22.5658H29.9476V18.1447H32.8356V17.6842C32.854 14.7553 33.5346 12.7105 34.8591 11.55C36.1836 10.4079 37.9863 9.83684 40.2857 9.83684C40.6904 9.83684 41.1503 9.87368 41.6286 9.94737C42.1252 10.0211 42.5115 10.1132 42.8243 10.2237V15.2895C42.5483 15.0132 42.254 14.7921 41.9781 14.6447C41.7022 14.4974 41.3342 14.4237 40.8928 14.4237C40.1753 14.4237 39.6051 14.6079 39.2004 14.9947C38.7957 15.3816 38.575 16.0447 38.575 16.9658V18.1263H42.8243V22.5289H38.5382V37.6895H32.7804V22.5658H32.7988Z" fill="white"/>
<path d="M47.0368 23.8737H58.8098V27.8526H47.0368V23.8737Z" fill="white"/>
<path d="M68.4305 37.1C66.8853 36.3447 65.6528 35.2211 64.7515 33.7105C63.8317 32.2 63.3718 30.3579 63.3718 28.2026C63.3718 24.7211 64.2916 22.0868 66.1495 20.3C68.0074 18.5132 70.4724 17.6105 73.5628 17.6105C74.6481 17.6105 75.7335 17.7211 76.8372 17.9421C77.9409 18.1632 78.9158 18.4579 79.7804 18.8447V23.8C78.7319 23.3395 77.7937 22.9895 76.9659 22.7316C76.1382 22.4921 75.3104 22.3632 74.501 22.3632C72.8086 22.3632 71.4841 22.7868 70.5276 23.6158C69.571 24.4447 69.0928 25.7526 69.0928 27.5395C69.0928 29.5289 69.5342 31.0026 70.4172 31.9421C71.3002 32.9 72.7534 33.3789 74.7585 33.3789C76.2853 33.3789 77.9593 32.8632 79.8172 31.8316V36.75C78.8974 37.2474 77.9409 37.6158 76.9475 37.8553C75.9542 38.0947 74.8505 38.2237 73.5996 38.2237C71.7049 38.2237 69.9757 37.8368 68.4305 37.1Z" fill="white"/>
<path d="M85.2254 35.6632C83.5699 33.9132 82.7605 31.3158 82.7605 27.8526C82.7605 24.2421 83.5699 21.6079 85.207 19.9684C86.8442 18.3105 89.3276 17.5 92.6387 17.5C95.9499 17.5 98.4517 18.3474 100.126 20.0237C101.8 21.7184 102.627 24.3158 102.627 27.8526C102.627 31.2605 101.763 33.8395 100.034 35.6263C98.3045 37.4132 95.8395 38.2974 92.6203 38.2974C89.346 38.2974 86.8626 37.4132 85.2254 35.6632ZM95.8395 32.2C96.5569 31.2053 96.9248 29.75 96.9248 27.8526C96.9248 25.7711 96.5753 24.2789 95.8579 23.3947C95.1589 22.5105 94.0736 22.0684 92.6387 22.0684C91.1487 22.0684 90.0634 22.5105 89.4196 23.3947C88.7573 24.2789 88.4262 25.7711 88.4262 27.8526C88.4262 29.8421 88.7757 31.3158 89.4563 32.2553C90.137 33.2132 91.2039 33.6921 92.6387 33.6921C94.0552 33.6921 95.1221 33.1947 95.8395 32.2Z" fill="white"/>
<path d="M106.601 20.2079C106.987 19.8763 107.668 19.5079 108.624 19.0842C109.581 18.6789 110.666 18.3105 111.862 18.0158C113.058 17.7211 114.216 17.5737 115.32 17.5737C117.454 17.5737 118.944 17.9053 119.753 18.5316V22.75C118.723 22.5105 117.252 22.4 115.32 22.4C114.106 22.4 113.113 22.4737 112.34 22.5842V37.7079H106.582V20.2079H106.601Z" fill="white"/>
<path d="M140.117 29.4368H127.222C127.719 32.1447 129.521 33.4895 132.667 33.4895C133.623 33.4895 134.543 33.3605 135.463 33.0842C136.383 32.8079 137.339 32.4579 138.369 32.0158V36.9711C136.254 37.8553 133.899 38.2789 131.269 38.2789C129.282 38.2789 127.553 37.8737 126.063 37.0632C124.573 36.2526 123.414 35.0921 122.586 33.5632C121.759 32.0342 121.354 30.2474 121.354 28.1842C121.354 24.7763 122.2 22.1421 123.874 20.2816C125.566 18.4211 127.976 17.5 131.085 17.5C137.192 17.5 140.191 21.4789 140.117 29.4368ZM127.185 25.7711H134.396C134.212 24.3711 133.844 23.3947 133.292 22.7868C132.741 22.1974 131.913 21.9026 130.846 21.9026C128.786 21.9026 127.571 23.1921 127.185 25.7711Z" fill="white"/>
<path d="M58.8098 23.8921V27.8526H47.5886L51.5436 23.8921H58.8098Z" fill="white"/>
<path d="M177.656 22.6842C177.656 22.8868 177.656 23.1079 177.656 23.3105C177.638 23.3105 177.638 23.3105 177.62 23.3289C177.509 23.2368 177.399 23.1632 177.307 23.0711C176.608 22.4816 175.854 21.9474 175.026 21.5421C174.879 21.4684 174.75 21.3947 174.584 21.3579C174.566 21.3395 174.548 21.3211 174.529 21.3211C174.216 21.1921 173.904 21.0816 173.573 21.0079C172.855 20.8421 172.138 20.8237 171.42 20.9711C170.501 21.1553 169.673 21.5605 168.9 22.0763C168.128 22.5921 167.447 23.2 166.803 23.8632C166.693 23.9737 166.693 23.9737 166.619 23.8263C166.27 23.1079 165.902 22.4079 165.423 21.7632C165.056 21.2658 164.651 20.8237 164.136 20.4921C163.602 20.1605 163.032 20.05 162.425 20.1974C161.671 20.3816 161.064 20.8237 160.494 21.3211C160.144 21.5974 159.831 21.8921 159.519 22.1868C159.224 22.4447 158.948 22.7211 158.636 22.979C158.58 23.0342 158.544 23.0158 158.507 22.979C158.213 22.6658 157.9 22.3895 157.532 22.1868C156.998 21.8921 156.428 21.8553 155.858 22.0579C155.38 22.2237 154.938 22.4816 154.515 22.7395C154.35 22.85 154.184 22.9605 154 23.0526C154 23.0342 154 23.0158 154 23.0158C154.018 22.979 154.018 22.9421 154.018 22.9237C154.037 22.15 154.11 21.3763 154.239 20.6026C154.405 19.5526 154.662 18.5211 155.141 17.5447C155.49 16.8263 155.95 16.1816 156.557 15.629C157.348 14.9105 158.268 14.4684 159.279 14.1737C160.365 13.8605 161.487 13.7316 162.627 13.6763C163.069 13.6579 163.529 13.6395 163.97 13.6211C164.191 13.7132 164.412 13.7684 164.651 13.8421C164.982 13.9342 165.313 14.0447 165.626 14.1368C165.791 14.1921 165.957 14.2658 166.123 14.3211C166.766 14.5605 167.392 14.8553 167.944 15.2789C168.091 15.3895 168.22 15.5 168.367 15.629C168.33 15.5184 168.293 15.4263 168.256 15.3342C168.017 14.6895 167.649 14.1553 167.061 13.8053C166.822 13.6579 166.546 13.529 166.306 13.4C166.325 13.4 166.362 13.4 166.38 13.3816C167.171 13.2526 167.962 13.179 168.753 13.1421C169.434 13.1237 170.133 13.1237 170.813 13.1974C171.604 13.2895 172.395 13.4368 173.15 13.7132C174.272 14.1184 175.228 14.7816 175.964 15.7211C176.608 16.55 177.013 17.4895 177.288 18.4842C177.546 19.479 177.656 20.5105 177.693 21.5237C177.656 21.9105 177.656 22.2974 177.656 22.6842Z" fill="white"/>
<path d="M177.656 21.5237H177.675C177.675 21.9105 177.675 22.2974 177.675 22.6842H177.656C177.656 22.2974 177.656 21.9105 177.656 21.5237Z" fill="white" fill-opacity="0.66"/>
<path d="M171.31 5V5.01842C171.052 5.01842 170.795 5.01842 170.537 5.01842C170.537 5.01842 170.537 5.01842 170.537 5C170.795 5 171.052 5 171.31 5Z" fill="white"/>
<path d="M171.825 37.8263C172.267 37.6421 172.69 37.4395 173.094 37.2C173.573 36.9053 174.032 36.5921 174.492 36.2605C174.879 35.9658 175.247 35.6711 175.596 35.3763C175.798 35.1921 176.019 35.0263 176.222 34.8421C176.258 34.8053 176.258 34.8237 176.277 34.8605C176.35 35.1553 176.405 35.4316 176.461 35.7263C176.534 36.1132 176.608 36.5184 176.645 36.9237C176.7 37.3842 176.718 37.8447 176.681 38.3237C176.645 38.8947 176.534 39.4658 176.35 40.0184C176.222 40.35 176.074 40.6632 175.89 40.9579C175.651 41.3447 175.357 41.6763 175.026 41.9895C174.621 42.3579 174.18 42.6711 173.701 42.9289C173.058 43.2974 172.359 43.5553 171.659 43.7763C170.979 43.9789 170.298 44.1263 169.599 44.2553C169.415 44.2921 169.213 44.3289 169.029 44.3105C168.624 44.2921 168.238 44.2 167.852 44.0526C167.281 43.8316 166.766 43.4816 166.214 43.2237C165.902 43.0763 165.589 42.9842 165.258 42.9474C164.816 42.9105 164.449 43.0763 164.136 43.3711C163.897 43.5921 163.676 43.8316 163.455 44.0526C163.069 44.4395 162.609 44.6974 162.076 44.7711C161.726 44.8263 161.358 44.8079 161.009 44.7526C160.512 44.6789 160.015 44.5684 159.537 44.4211C158.838 44.2 158.194 43.8684 157.605 43.4263C157.054 43.0026 156.612 42.4868 156.244 41.8789C155.895 41.2711 155.656 40.6263 155.508 39.9447C155.435 39.65 155.398 39.3368 155.38 39.0421C155.343 38.6184 155.306 38.1947 155.324 37.7526C155.343 37.1447 155.38 36.5553 155.472 35.9289C155.545 35.9842 155.6 36.0579 155.674 36.1132C156.06 36.4632 156.483 36.7763 156.943 37.0526C157.458 37.3474 157.992 37.5868 158.58 37.7342C158.967 37.8447 159.371 37.9 159.776 37.9368C160.107 37.9553 160.438 37.9737 160.769 37.9553C161.156 37.9368 161.542 37.9 161.928 37.8079C161.984 37.8079 162.02 37.8079 162.076 37.7895C162.425 37.7158 162.775 37.6421 163.106 37.5316C163.492 37.4211 163.897 37.2921 164.265 37.1447C164.632 36.9974 165 36.85 165.368 36.7026C165.479 36.6474 165.534 36.6842 165.626 36.7395C166.233 37.2184 166.895 37.6237 167.613 37.9C168.404 38.2132 169.231 38.3605 170.077 38.2868C170.666 38.1947 171.255 38.0474 171.825 37.8263Z" fill="white"/>
<path d="M171.825 37.8263C171.255 38.0474 170.666 38.2132 170.041 38.2684C169.176 38.3421 168.367 38.1947 167.576 37.8816C166.858 37.6053 166.196 37.2 165.589 36.721C165.497 36.6474 165.442 36.6289 165.332 36.6842C164.964 36.85 164.596 36.9974 164.228 37.1263C163.841 37.2737 163.455 37.4026 163.069 37.5132C162.719 37.6053 162.388 37.6974 162.039 37.7711C161.984 37.7895 161.947 37.7895 161.892 37.7895C162.02 37.6421 162.131 37.5132 162.259 37.3658C162.756 36.7947 163.087 36.15 163.29 35.4316C163.566 34.4553 163.86 33.4605 164.081 32.4658C164.246 31.7289 164.393 30.9921 164.504 30.2553C164.577 29.7211 164.614 29.1868 164.651 28.6526C164.688 28.1553 164.669 27.6579 164.632 27.1789C164.541 25.6868 164.209 24.25 163.602 22.8868C163.234 22.0763 162.627 21.5053 161.726 21.2842C161.34 21.1921 160.972 21.2105 160.586 21.3395C160.549 21.3579 160.53 21.3579 160.494 21.3579C161.064 20.8605 161.671 20.4184 162.425 20.2342C163.032 20.0868 163.602 20.1974 164.136 20.5289C164.669 20.8605 165.074 21.3026 165.423 21.8C165.902 22.4447 166.27 23.1447 166.619 23.8632C166.693 24.0105 166.693 24.0105 166.803 23.9C167.447 23.2368 168.146 22.6289 168.9 22.1132C169.673 21.5974 170.501 21.1921 171.42 21.0079C172.138 20.8605 172.855 20.8789 173.573 21.0447C173.904 21.1184 174.216 21.2289 174.529 21.3579C174.548 21.3763 174.584 21.3763 174.584 21.3947C173.665 21.4132 172.874 21.7632 172.156 22.2974C171.807 22.5553 171.494 22.85 171.255 23.2184C171.052 23.5132 170.905 23.8447 170.74 24.1763C170.427 24.8395 170.169 25.5211 169.986 26.2395C169.82 26.8474 169.728 27.4737 169.673 28.1C169.636 28.5789 169.618 29.0763 169.636 29.5553C169.654 30.1447 169.71 30.7526 169.783 31.3421C169.912 32.3368 170.096 33.3316 170.243 34.3079C170.335 34.8605 170.409 35.4132 170.501 35.9474C170.629 36.7395 171.071 37.3474 171.715 37.8079C171.77 37.7895 171.788 37.8079 171.825 37.8263Z" fill="white" fill-opacity="0.66"/>
<path d="M170.537 5.01842C170.795 5.01842 171.052 5.01842 171.31 5.01842C171.935 5.05526 172.561 5.14737 173.168 5.35C173.628 5.51579 173.738 5.81053 173.462 6.21579C173.26 6.51053 172.984 6.71316 172.708 6.89737C172.34 7.15526 171.935 7.35789 171.512 7.50526C171.071 7.67105 170.648 7.50526 170.39 7.06316C170.298 6.93421 170.243 6.78684 170.206 6.62105C170.188 6.56579 170.169 6.54737 170.133 6.54737C169.158 6.38158 168.293 6.60263 167.576 7.30263C166.987 7.87368 166.638 8.57368 166.398 9.34737C166.178 10.0474 166.067 10.7474 166.031 11.4658C165.994 12.1105 166.049 12.7553 166.141 13.3816C166.159 13.4921 166.196 13.6026 166.196 13.7132C166.214 13.8421 166.178 13.9711 166.049 14.0447C165.92 14.1368 165.791 14.1184 165.644 14.1184C165.313 14.0263 164.982 13.9158 164.669 13.8237C164.669 13.75 164.669 13.6763 164.669 13.5842C164.669 13.2526 164.669 12.9026 164.688 12.5711C164.761 11.2263 164.964 9.9 165.479 8.64737C165.865 7.70789 166.417 6.89737 167.189 6.25263C167.833 5.71842 168.569 5.36842 169.378 5.18421C169.746 5.09211 170.133 5.03684 170.537 5.01842Z" fill="white"/>
<path d="M165.607 14.1368C165.755 14.1368 165.883 14.1553 166.012 14.0632C166.123 13.9711 166.178 13.8605 166.159 13.7316C166.141 13.6211 166.123 13.5105 166.104 13.4C166.159 13.4 166.233 13.3816 166.288 13.3816C166.546 13.5289 166.803 13.6395 167.042 13.7868C167.631 14.1553 167.999 14.6895 168.238 15.3158C168.275 15.4079 168.312 15.5184 168.348 15.6105C168.201 15.5 168.072 15.3711 167.925 15.2605C167.373 14.8368 166.766 14.5421 166.104 14.3026C165.939 14.2658 165.773 14.1921 165.607 14.1368Z" fill="white" fill-opacity="0.74"/>
<path d="M164.614 13.6026C164.614 13.6763 164.614 13.75 164.614 13.8421C164.393 13.7684 164.154 13.7132 163.933 13.6211C164.173 13.6211 164.393 13.6026 164.614 13.6026Z" fill="white" fill-opacity="0.74"/>
</svg>
