<svg width="836" height="437" viewBox="0 0 836 437" fill="none" xmlns="http://www.w3.org/2000/svg">
<rect width="224" height="34" transform="translate(34 35)" fill="black"/>
<path d="M232.569 40.5844V35.6152H258.001V40.5844H248.149V68.3381H242.421V40.5844H232.569Z" fill="white"/>
<path d="M227.717 35.6152V68.3381H221.942V35.6152H227.717Z" fill="white"/>
<path d="M182.224 35.6152H189.29L198.752 59.3266H199.126L208.589 35.6152H215.655V68.3381H210.114V45.8571H209.818L201.009 68.2423H196.869L188.06 45.8092H187.764V68.3381H182.224V35.6152Z" fill="white"/>
<path d="M142.505 35.6152H149.571L159.034 59.3266H159.407L168.87 35.6152H175.936V68.3381H170.395V45.8571H170.1L161.29 68.2423H157.15L148.341 45.8092H148.046V68.3381H142.505V35.6152Z" fill="white"/>
<path d="M130.455 35.6152H136.229V56.9938C136.229 59.3372 135.69 61.3984 134.611 63.1772C133.542 64.9561 132.037 66.3462 130.097 67.3475C128.157 68.3381 125.89 68.8335 123.296 68.8335C120.691 68.8335 118.419 68.3381 116.479 67.3475C114.539 66.3462 113.034 64.9561 111.965 63.1772C110.897 61.3984 110.362 59.3372 110.362 56.9938V35.6152H116.136V56.4985C116.136 57.8619 116.427 59.0762 117.008 60.1414C117.599 61.2066 118.43 62.0428 119.498 62.65C120.567 63.2465 121.833 63.5447 123.296 63.5447C124.759 63.5447 126.025 63.2465 127.093 62.65C128.172 62.0428 129.003 61.2066 129.584 60.1414C130.165 59.0762 130.455 57.8619 130.455 56.4985V35.6152Z" fill="white"/>
<path d="M99.2223 44.6095C99.077 43.2141 98.4648 42.1276 97.3858 41.35C96.317 40.5724 94.9267 40.1836 93.2147 40.1836C92.0111 40.1836 90.9787 40.37 90.1175 40.7428C89.2563 41.1156 88.5974 41.6216 88.1409 42.2607C87.6843 42.8998 87.4509 43.6295 87.4405 44.4497C87.4405 45.1314 87.5909 45.7226 87.8918 46.2233C88.2031 46.7239 88.6233 47.15 89.1525 47.5015C89.6817 47.8424 90.2679 48.13 90.9112 48.3643C91.5545 48.5987 92.203 48.7957 92.8567 48.9555L95.8449 49.7224C97.0485 50.01 98.2054 50.3988 99.3157 50.8888C100.436 51.3788 101.438 51.9966 102.319 52.7423C103.212 53.4879 103.917 54.388 104.436 55.4426C104.955 56.4971 105.214 57.7327 105.214 59.1495C105.214 61.0668 104.737 62.7552 103.782 64.2145C102.828 65.6631 101.448 66.7976 99.6425 67.6178C97.8475 68.4273 95.6737 68.8321 93.1213 68.8321C90.6414 68.8321 88.4884 68.438 86.6623 67.6497C84.8465 66.8615 83.425 65.7111 82.3978 64.1985C81.381 62.6859 80.8311 60.8431 80.748 58.6701H86.4288C86.5118 59.8099 86.8542 60.7579 87.456 61.5142C88.0578 62.2705 88.8412 62.835 89.8062 63.2079C90.7815 63.5807 91.871 63.7671 93.0746 63.7671C94.3301 63.7671 95.4299 63.5754 96.3741 63.1919C97.3287 62.7978 98.0757 62.2545 98.6153 61.5621C99.1548 60.8591 99.4298 60.0389 99.4402 59.1015C99.4298 58.2494 99.186 57.5463 98.7087 56.9924C98.2314 56.4279 97.5621 55.9592 96.7009 55.5864C95.8501 55.2029 94.854 54.862 93.7127 54.5638L90.0863 53.6051C87.4612 52.9127 85.3861 51.8635 83.8608 50.4574C82.3459 49.0407 81.5885 47.1606 81.5885 44.8172C81.5885 42.8892 82.0969 41.2009 83.1137 39.7522C84.141 38.3035 85.5365 37.1797 87.3004 36.3808C89.0643 35.5713 91.0617 35.1665 93.2925 35.1665C95.5544 35.1665 97.5362 35.5713 99.2378 36.3808C100.95 37.1797 102.294 38.2929 103.269 39.7202C104.244 41.1369 104.747 42.7667 104.779 44.6095H99.2223Z" fill="white"/>
<path d="M34 41.2669C39.3277 41.6232 43.5966 45.933 43.9315 51.3037H50.1533C49.8075 42.4691 42.7688 35.3672 34 35V41.2669Z" fill="#0DC09D"/>
<path d="M43.9666 52.733C43.6128 58.0982 39.3331 62.3972 34 62.7345V69C42.7728 68.6518 49.8251 61.5635 50.1897 52.733H43.9666Z" fill="#0DC09D"/>
<path d="M57.7957 51.267C58.1495 45.9018 62.4292 41.6028 67.7623 41.2655V35C58.9895 35.3482 51.9373 42.4365 51.5726 51.267H57.7957Z" fill="#0DC09D"/>
<path d="M67.7623 62.7331C62.4346 62.3768 58.1657 58.067 57.8308 52.6963H51.6091C51.9548 61.5309 58.9936 68.6328 67.7623 69V62.7331Z" fill="#0DC09D"/>
</svg>
