<svg width="836" height="437" viewBox="0 0 836 437" fill="none" xmlns="http://www.w3.org/2000/svg">
<rect width="230" height="142" transform="translate(42 42)" fill="black"/>
<path d="M58.2124 184C57.8616 184 57.5489 183.971 57.2741 183.911C56.9993 183.858 56.8093 183.805 56.7041 183.752L57.2302 181.904C57.733 182.035 58.1773 182.082 58.5632 182.046C58.949 182.011 59.2911 181.836 59.5892 181.523C59.8932 181.215 60.1709 180.714 60.4223 180.022L60.8082 178.956L55.8271 165.245H58.0721L61.7903 176.114H61.9306L65.6488 165.245H67.8938L62.1762 180.874C61.9189 181.579 61.6003 182.162 61.2203 182.624C60.8403 183.091 60.3989 183.438 59.8961 183.663C59.3992 183.888 58.838 184 58.2124 184Z" fill="white"/>
<path d="M42.7988 178.885V160.698H44.8684V167.412H45.0438C45.1958 167.175 45.4063 166.873 45.6752 166.506C45.95 166.133 46.3417 165.802 46.8503 165.511C47.3647 165.215 48.0605 165.067 48.9374 165.067C50.0716 165.067 51.0713 165.355 51.9365 165.929C52.8018 166.503 53.477 167.317 53.9622 168.371C54.4475 169.425 54.6901 170.668 54.6901 172.101C54.6901 173.545 54.4475 174.797 53.9622 175.857C53.477 176.911 52.8047 177.728 51.9453 178.308C51.0859 178.882 50.0949 179.17 48.9725 179.17C48.1072 179.17 47.4144 179.025 46.8941 178.734C46.3738 178.438 45.9733 178.104 45.6927 177.731C45.4121 177.352 45.1958 177.038 45.0438 176.79H44.7982V178.885H42.7988ZM44.8333 172.065C44.8333 173.095 44.9824 174.004 45.2806 174.792C45.5787 175.573 46.0143 176.186 46.5872 176.63C47.1601 177.068 47.8617 177.287 48.6918 177.287C49.5571 177.287 50.2791 177.056 50.8579 176.594C51.4425 176.127 51.881 175.499 52.1733 174.712C52.4714 173.918 52.6205 173.036 52.6205 172.065C52.6205 171.106 52.4744 170.242 52.1821 169.472C51.8956 168.697 51.46 168.084 50.8754 167.634C50.2966 167.178 49.5688 166.95 48.6918 166.95C47.85 166.95 47.1426 167.166 46.5697 167.598C45.9967 168.025 45.5641 168.623 45.2718 169.392C44.9795 170.156 44.8333 171.047 44.8333 172.065Z" fill="white"/>
<path d="M102.466 170.309L102.543 170.34L102.579 170.358L102.616 170.378L102.651 170.399L102.686 170.421L102.719 170.447L102.751 170.471L102.781 170.499L102.812 170.528L102.841 170.559L102.867 170.589L102.894 170.623L102.917 170.657L102.94 170.692L102.96 170.727L102.978 170.765L102.996 170.802L103.012 170.841L103.027 170.88L103.038 170.92L103.049 170.96L103.057 171.002L103.064 171.043L103.069 171.085L103.071 171.126L103.072 171.167L103.071 171.21L103.069 171.251L103.064 171.293L103.057 171.334L103.049 171.375L103.038 171.416L103.027 171.455L103.012 171.496L102.996 171.534L102.978 171.571L102.96 171.608L102.94 171.644L102.917 171.68L102.894 171.714L102.867 171.745L102.841 171.778L102.812 171.807L102.781 171.837L102.751 171.865L102.719 171.89L102.686 171.913L102.651 171.938L102.616 171.958L102.579 171.978L102.543 171.995L102.504 172.012L102.427 172.039L102.387 172.048L102.348 172.058L102.306 172.064L102.266 172.068L102.224 172.073H102.218L102.26 172.072L102.335 172.068L102.41 172.064L102.485 172.057L102.558 172.047L102.633 172.036L102.707 172.023L102.781 172.008L102.854 171.991L102.928 171.972L103.001 171.95L103.072 171.927L103.143 171.902L103.213 171.875L103.283 171.846L103.352 171.816L103.421 171.783L103.488 171.748L103.554 171.712L103.619 171.674L103.747 171.594L103.809 171.551L103.87 171.505L103.93 171.458L103.988 171.411L104.046 171.36L104.102 171.309L104.156 171.257L104.21 171.202L104.262 171.147L104.311 171.09L104.36 171.031L104.407 170.972L104.454 170.91L104.498 170.848L104.54 170.786L104.582 170.721L104.62 170.655L104.658 170.588L104.694 170.521L104.727 170.453L104.759 170.384L104.789 170.313L104.817 170.243L104.844 170.171L104.869 170.098L104.891 170.025L104.912 169.951L104.931 169.877L104.948 169.803L104.963 169.726L104.976 169.651L104.987 169.576L105.003 169.423L105.008 169.346L105.01 169.27L105.012 169.193L105.01 169.117L105.008 169.04L105.003 168.963L104.995 168.887L104.987 168.812L104.976 168.736L104.963 168.659L104.948 168.585L104.931 168.51L104.917 168.453H102.236L102.184 168.454H95.8439L102.419 170.295L102.466 170.309Z" fill="white"/>
<path d="M106.623 170.976L106.618 170.88L106.611 170.785L106.603 170.688L106.592 170.593L106.579 170.498L106.564 170.403L106.529 170.214L106.508 170.121L106.485 170.028L106.46 169.935L106.433 169.843L106.404 169.752L106.374 169.66L106.341 169.57L106.307 169.482L106.271 169.392L106.233 169.304L106.194 169.217L106.153 169.131L106.109 169.046L106.063 168.961L106.016 168.878L105.967 168.795L105.918 168.714L105.865 168.634L105.812 168.555L105.757 168.478L105.738 168.453L104.917 168.453L104.931 168.51L104.948 168.585L104.963 168.659L104.976 168.736L104.987 168.812L104.995 168.887L105.003 168.963L105.008 169.04L105.01 169.117L105.012 169.193L105.01 169.27L105.008 169.346L105.003 169.423L104.987 169.576L104.976 169.651L104.963 169.726L104.948 169.803L104.931 169.877L104.912 169.951L104.891 170.025L104.869 170.098L104.844 170.171L104.817 170.243L104.789 170.313L104.759 170.384L104.727 170.453L104.694 170.521L104.658 170.588L104.62 170.655L104.582 170.721L104.54 170.786L104.498 170.848L104.454 170.91L104.407 170.972L104.36 171.031L104.311 171.09L104.262 171.147L104.21 171.202L104.156 171.257L104.102 171.309L104.046 171.36L103.988 171.411L103.93 171.458L103.87 171.505L103.809 171.551L103.747 171.594L103.619 171.674L103.554 171.712L103.488 171.748L103.421 171.783L103.352 171.816L103.283 171.846L103.213 171.875L103.143 171.902L103.072 171.927L103.001 171.95L102.928 171.972L102.854 171.991L102.781 172.008L102.707 172.023L102.633 172.036L102.558 172.047L102.485 172.057L102.41 172.064L102.335 172.068L102.26 172.072L102.184 172.073H79.0742V175.692H102.184L102.278 175.691L102.372 175.689L102.467 175.683L102.561 175.676L102.654 175.667L102.748 175.657L102.842 175.642L102.934 175.627L103.027 175.611L103.12 175.59L103.212 175.569L103.303 175.547L103.394 175.521L103.486 175.494L103.575 175.466L103.664 175.433L103.752 175.401L103.841 175.366L103.928 175.33L104.014 175.292L104.1 175.25L104.185 175.208L104.268 175.164L104.351 175.118L104.433 175.071L104.514 175.02L104.593 174.97L104.672 174.917L104.75 174.862L104.826 174.806L104.901 174.748L104.975 174.688L105.049 174.626L105.121 174.564L105.19 174.501L105.259 174.435L105.326 174.367L105.392 174.299L105.52 174.157L105.582 174.085L105.641 174.01L105.7 173.935L105.757 173.858L105.812 173.78L105.865 173.702L105.918 173.621L105.967 173.54L106.016 173.457L106.063 173.374L106.109 173.29L106.153 173.205L106.194 173.118L106.233 173.032L106.271 172.943L106.307 172.855L106.341 172.766L106.374 172.675L106.404 172.584L106.433 172.493L106.46 172.4L106.485 172.308L106.508 172.215L106.529 172.121L106.546 172.028L106.564 171.934L106.579 171.838L106.592 171.743L106.603 171.647L106.611 171.552L106.618 171.456L106.623 171.36L106.627 171.265L106.628 171.168L106.627 171.072L106.623 170.976Z" fill="white"/>
<path d="M83.2363 169.311L83.1977 169.297L83.1591 169.281L83.1227 169.263L83.0853 169.243L83.0511 169.221L83.0158 169.199L82.9827 169.174L82.9507 169.149L82.9199 169.12L82.8901 169.092L82.8614 169.062L82.835 169.031L82.8085 168.997L82.7854 168.963L82.7622 168.929L82.7424 168.894L82.7049 168.818L82.6905 168.781L82.6751 168.741L82.6641 168.7L82.6531 168.66L82.6442 168.619L82.6376 168.579L82.6332 168.536L82.631 168.495L82.6299 168.453L82.631 168.411L82.6332 168.369L82.6376 168.328L82.6442 168.287L82.6531 168.245L82.6641 168.205L82.6751 168.166L82.6905 168.125L82.7049 168.087L82.7236 168.049L82.7424 168.013L82.7622 167.976L82.7854 167.941L82.8085 167.908L82.835 167.875L82.8614 167.844L82.8901 167.813L82.9199 167.784L82.9507 167.756L82.9827 167.731L83.0158 167.707L83.0511 167.683L83.0853 167.662L83.1227 167.643L83.1591 167.626L83.1977 167.609L83.2363 167.594L83.2749 167.582L83.3146 167.572L83.3543 167.563L83.3962 167.557L83.4359 167.553L83.4767 167.548H83.4844H83.4425L83.3675 167.552L83.2925 167.557L83.2176 167.564L83.1437 167.573L83.0687 167.584L82.9937 167.598L82.921 167.612L82.8471 167.63L82.7743 167.649L82.7016 167.671L82.6299 167.694L82.5593 167.719L82.4877 167.745L82.4193 167.774L82.3499 167.805L82.2815 167.838L82.2142 167.873L82.147 167.909L82.083 167.946L82.0191 167.986L81.9551 168.028L81.8923 168.07L81.771 168.162L81.7137 168.21L81.6564 168.26L81.6001 168.311L81.5461 168.364L81.4921 168.418L81.4403 168.474L81.3906 168.53L81.341 168.589L81.2947 168.649L81.2473 168.71L81.2043 168.772L81.1613 168.835L81.1205 168.899L81.0819 168.966L81.0444 169.032L81.0081 169.1L80.975 169.168L80.943 169.237L80.9132 169.308L80.8846 169.379L80.8581 169.45L80.8328 169.523L80.8107 169.596L80.7898 169.67L80.771 169.743L80.7545 169.818L80.739 169.894L80.7258 169.97L80.7148 170.045L80.7071 170.121L80.6993 170.197L80.6938 170.274L80.6916 170.35L80.6905 170.427L80.6916 170.504L80.6938 170.58L80.6993 170.657L80.7148 170.809L80.7258 170.886L80.739 170.961L80.7545 171.036L80.771 171.11L80.7853 171.168H83.4656L83.5186 171.167H89.8582L83.2826 169.326L83.2363 169.311Z" fill="white"/>
<path d="M79.083 168.741L79.0908 168.837L79.0996 168.932L79.1106 169.027L79.1227 169.123L79.1382 169.217L79.1547 169.312L79.1734 169.407L79.1944 169.5L79.2175 169.593L79.2418 169.686L79.2694 169.778L79.298 169.869L79.3278 169.96L79.3609 170.051L79.3951 170.139L79.4314 170.229L79.4689 170.317L79.5086 170.404L79.5494 170.489L79.5935 170.575L79.6387 170.66L79.6861 170.743L79.7346 170.825L79.7843 170.906L79.8361 170.986L79.8901 171.066L79.9452 171.144L79.964 171.168L80.7853 171.168L80.771 171.11L80.7545 171.036L80.739 170.961L80.7258 170.886L80.7148 170.809L80.6993 170.657L80.6938 170.58L80.6916 170.504L80.6905 170.427L80.6916 170.35L80.6938 170.274L80.6993 170.197L80.7071 170.121L80.7148 170.045L80.7258 169.97L80.739 169.894L80.7545 169.818L80.771 169.743L80.7898 169.67L80.8107 169.596L80.8328 169.523L80.8581 169.45L80.8846 169.379L80.9132 169.308L80.943 169.237L80.975 169.168L81.0081 169.1L81.0444 169.032L81.0819 168.966L81.1205 168.899L81.1613 168.835L81.2043 168.772L81.2473 168.71L81.2947 168.649L81.341 168.589L81.3906 168.53L81.4403 168.474L81.4921 168.418L81.5461 168.364L81.6001 168.311L81.6564 168.26L81.7137 168.21L81.771 168.162L81.8923 168.07L81.9551 168.028L82.0191 167.986L82.083 167.946L82.147 167.909L82.2142 167.873L82.2815 167.838L82.3499 167.805L82.4193 167.774L82.4877 167.745L82.5593 167.719L82.6299 167.694L82.7016 167.671L82.7743 167.649L82.8471 167.63L82.921 167.612L82.9937 167.598L83.0687 167.584L83.1437 167.573L83.2176 167.564L83.2925 167.557L83.3675 167.552L83.4425 167.548L83.5186 167.547H106.628V163.929H83.5186L83.4238 163.93L83.33 163.932L83.2352 163.938L83.1415 163.944L83.0467 163.953L82.9541 163.965L82.8604 163.978L82.7677 163.993L82.6751 164.011L82.5814 164.03L82.4899 164.051L82.3984 164.075L82.308 164.099L82.2165 164.127L82.1272 164.155L82.0379 164.187L81.9497 164.219L81.8615 164.255L81.7743 164.291L81.6884 164.329L81.6024 164.371L81.5175 164.413L81.4337 164.456L81.351 164.503L81.2694 164.55L81.1878 164.6L81.1084 164.651L81.029 164.704L80.9519 164.759L80.8758 164.815L80.7997 164.872L80.7269 164.932L80.6531 164.994L80.5814 165.056L80.5119 165.12L80.4436 165.186L80.3763 165.253L80.3102 165.322L80.2451 165.393L80.1823 165.464L80.1205 165.537L80.061 165.611L80.0026 165.686L79.9452 165.762L79.8901 165.841L79.8361 165.919L79.7843 165.999L79.7346 166.081L79.6861 166.164L79.6387 166.247L79.5935 166.33L79.5494 166.415L79.5086 166.503L79.4689 166.589L79.4314 166.678L79.3951 166.765L79.3609 166.855L79.3278 166.945L79.298 167.036L79.2694 167.128L79.2418 167.22L79.2175 167.313L79.1944 167.406L79.1734 167.5L79.1547 167.593L79.1382 167.688L79.1227 167.783L79.1106 167.878L79.0996 167.974L79.0908 168.069L79.083 168.164L79.0742 168.356V168.549L79.083 168.741Z" fill="white"/>
<path d="M83.2363 161.168L83.1977 161.153L83.1591 161.136L83.1216 161.119L83.0864 161.099L83.05 161.079L83.0158 161.056L82.9827 161.03L82.9496 161.006L82.9188 160.978L82.889 160.95L82.8614 160.918L82.835 160.888L82.8085 160.854L82.7843 160.82L82.7622 160.785L82.7413 160.749L82.7038 160.675L82.6894 160.636L82.6751 160.596L82.663 160.557L82.6531 160.518L82.6442 160.475L82.6376 160.434L82.6321 160.392L82.6299 160.308L82.6321 160.226L82.6376 160.184L82.6442 160.143L82.6531 160.102L82.663 160.061L82.6751 160.02L82.6894 159.981L82.7038 159.943L82.7225 159.906L82.7413 159.868L82.7622 159.833L82.7843 159.797L82.8085 159.763L82.835 159.732L82.8614 159.7L82.889 159.668L82.9188 159.64L82.9496 159.612L82.9827 159.587L83.0158 159.564L83.05 159.539L83.0864 159.519L83.1216 159.499L83.1591 159.481L83.1977 159.465L83.2749 159.438L83.3146 159.427L83.3554 159.419L83.3951 159.412L83.4359 159.408L83.4778 159.404H83.491H83.4425L83.3675 159.408L83.2925 159.413L83.2176 159.42L83.1437 159.43L83.0687 159.441L82.9937 159.454L82.921 159.47L82.8471 159.486L82.7743 159.505L82.7016 159.527L82.6299 159.55L82.5593 159.575L82.4877 159.602L82.4193 159.63L82.3499 159.661L82.2815 159.694L82.2142 159.729L82.147 159.765L82.083 159.802L82.018 159.842L81.9551 159.884L81.8923 159.926L81.771 160.018L81.7126 160.066L81.6001 160.167L81.545 160.22L81.4921 160.274L81.4403 160.33L81.3906 160.387L81.341 160.446L81.2947 160.505L81.2473 160.567L81.2043 160.629L81.1613 160.691L81.1205 160.755L81.0819 160.822L81.0444 160.888L81.0081 160.956L80.975 161.024L80.943 161.093L80.9132 161.164L80.8846 161.235L80.8581 161.306L80.8328 161.379L80.8107 161.452L80.7898 161.526L80.771 161.6L80.7534 161.674L80.739 161.75L80.7258 161.826L80.7148 161.901L80.706 161.977L80.6993 162.053L80.6938 162.13L80.6916 162.207L80.6905 162.284L80.6916 162.36L80.6938 162.437L80.6993 162.514L80.706 162.59L80.7148 162.665L80.7258 162.741L80.739 162.818L80.7534 162.892L80.771 162.967L80.7898 163.041L80.8107 163.114L80.8328 163.188L80.8581 163.26L80.8846 163.332L80.9132 163.402L80.943 163.473L80.975 163.543L81.0081 163.611L81.0301 163.65L81.0323 163.649L81.1249 163.601L81.2175 163.555L81.3113 163.51L81.4061 163.469L81.5009 163.426L81.5979 163.388L81.6938 163.352L81.792 163.315L81.8901 163.283L81.9893 163.252L82.0886 163.223L82.1878 163.195L82.2881 163.169L82.3895 163.147L82.491 163.126L82.5913 163.106L82.6938 163.089L82.7964 163.074L82.8989 163.06L83.0026 163.049L83.1051 163.04L83.2087 163.032L83.3102 163.028L83.5186 163.023H89.8582L83.2815 161.182L83.2363 161.168Z" fill="white"/>
<path d="M102.26 180.219L102.41 180.21L102.485 180.203L102.559 180.193L102.634 180.182L102.708 180.17L102.782 180.154L102.855 180.137L102.929 180.118L103.001 180.097L103.072 180.073L103.144 180.048L103.214 180.021L103.283 179.992L103.352 179.962L103.421 179.929L103.488 179.895L103.555 179.859L103.62 179.821L103.684 179.78L103.747 179.739L103.81 179.696L103.872 179.651L103.931 179.604L103.989 179.557L104.047 179.506L104.157 179.403L104.21 179.348L104.262 179.293L104.313 179.236L104.361 179.178L104.408 179.118L104.455 179.056L104.498 178.995L104.541 178.932L104.582 178.867L104.62 178.802L104.658 178.734L104.694 178.667L104.728 178.599L104.76 178.53L104.789 178.46L104.819 178.388L104.844 178.317L104.869 178.244L104.892 178.171L104.932 178.023L104.949 177.949L104.963 177.873L104.976 177.797L104.987 177.722L104.996 177.645L105.004 177.57L105.008 177.492L105.012 177.416V177.263L105.008 177.186L105.004 177.11L104.996 177.033L104.987 176.958L104.976 176.882L104.963 176.806L104.949 176.732L104.932 176.656L104.912 176.582L104.892 176.509L104.869 176.435L104.844 176.362L104.819 176.292L104.789 176.221L104.76 176.15L104.728 176.081L104.694 176.012L104.672 175.971L104.67 175.972L104.577 176.02L104.485 176.066L104.391 176.111L104.296 176.154L104.2 176.194L104.104 176.233L104.008 176.269L103.91 176.305L103.811 176.339L103.713 176.369L103.615 176.398L103.513 176.426L103.414 176.451L103.313 176.475L103.211 176.496L103.11 176.515L103.008 176.532L102.906 176.547L102.803 176.561L102.701 176.572L102.597 176.581L102.493 176.588L102.39 176.594L102.287 176.597L102.184 176.598H95.8439L102.419 178.439L102.466 178.454L102.504 178.468L102.543 178.484L102.579 178.502L102.616 178.522L102.651 178.544L102.686 178.566L102.719 178.591L102.751 178.617L102.781 178.645L102.812 178.673L102.841 178.703L102.867 178.734L102.894 178.768L102.917 178.802L102.94 178.837L102.96 178.871L102.978 178.909L102.996 178.948L103.012 178.985L103.027 179.024L103.038 179.065L103.049 179.105L103.057 179.146L103.064 179.187L103.069 179.229L103.071 179.27L103.072 179.312L103.071 179.354L103.069 179.396L103.064 179.437L103.049 179.52L103.038 179.56L103.027 179.6L103.012 179.64L102.996 179.678L102.978 179.716L102.96 179.752L102.94 179.789L102.917 179.824L102.894 179.858L102.867 179.89L102.841 179.922L102.812 179.952L102.781 179.981L102.751 180.009L102.719 180.034L102.686 180.058L102.651 180.082L102.616 180.103L102.579 180.122L102.543 180.139L102.504 180.156L102.466 180.171L102.427 180.183L102.387 180.193L102.348 180.202L102.306 180.208L102.266 180.212L102.224 180.217L102.184 180.218" fill="white"/>
<path d="M106.619 179.026L106.612 178.931L106.603 178.834L106.593 178.739L106.579 178.645L106.564 178.549L106.547 178.455L106.529 178.361L106.508 178.266L106.485 178.174L106.46 178.081L106.434 177.988L106.405 177.898L106.374 177.806L106.341 177.717L106.308 177.628L106.272 177.538L106.195 177.363L106.153 177.277L106.109 177.193L106.065 177.107L106.017 177.024L105.967 176.941L105.918 176.861L105.866 176.78L105.812 176.701L105.757 176.624L105.7 176.546L105.642 176.472L105.582 176.397L105.52 176.325L105.457 176.253L105.327 176.114L105.19 175.982L105.121 175.918L105.049 175.855L104.976 175.793L104.972 175.79L104.868 175.854L104.777 175.907L104.67 175.966L104.694 176.012L104.728 176.081L104.76 176.15L104.789 176.221L104.819 176.292L104.844 176.362L104.869 176.435L104.892 176.509L104.912 176.582L104.932 176.656L104.949 176.732L104.963 176.806L104.976 176.882L104.987 176.958L104.996 177.033L105.004 177.11L105.008 177.186L105.012 177.263V177.416L105.008 177.492L105.004 177.57L104.996 177.645L104.987 177.722L104.976 177.797L104.963 177.873L104.949 177.949L104.932 178.023L104.892 178.171L104.869 178.244L104.844 178.317L104.819 178.388L104.789 178.46L104.76 178.53L104.728 178.599L104.694 178.667L104.658 178.734L104.62 178.802L104.582 178.867L104.541 178.932L104.498 178.995L104.455 179.056L104.408 179.118L104.361 179.178L104.313 179.236L104.262 179.293L104.21 179.348L104.157 179.403L104.047 179.506L103.989 179.557L103.931 179.604L103.872 179.651L103.81 179.696L103.747 179.739L103.684 179.78L103.62 179.821L103.555 179.859L103.488 179.895L103.421 179.929L103.352 179.962L103.283 179.992L103.214 180.021L103.144 180.048L103.072 180.073L103.001 180.097L102.929 180.118L102.855 180.137L102.782 180.154L102.708 180.17L102.634 180.182L102.559 180.193L102.485 180.203L102.41 180.21L102.26 180.219L79.0742 180.219V183.839H102.184L102.278 183.838L102.372 183.835L102.467 183.83L102.655 183.814L102.749 183.803L102.843 183.788L102.935 183.774L103.028 183.757L103.121 183.737L103.212 183.715L103.304 183.693L103.394 183.668L103.486 183.64L103.575 183.612L103.754 183.547L103.842 183.512L103.929 183.476L104.015 183.438L104.101 183.397L104.185 183.354L104.27 183.31L104.351 183.264L104.434 183.217L104.514 183.168L104.594 183.115L104.673 183.063L104.75 183.008L104.902 182.894L104.976 182.834L105.049 182.773L105.121 182.71L105.19 182.647L105.259 182.581L105.327 182.514L105.392 182.445L105.457 182.374L105.52 182.304L105.582 182.231L105.642 182.157L105.7 182.082L105.757 182.005L105.812 181.927L105.866 181.848L105.918 181.767L105.967 181.687L106.017 181.604L106.065 181.52L106.109 181.436L106.153 181.351L106.195 181.265L106.233 181.178L106.272 181.09L106.308 181.001L106.341 180.912L106.374 180.821L106.405 180.731L106.434 180.639L106.46 180.547L106.485 180.455L106.508 180.36L106.529 180.267L106.547 180.174L106.564 180.079L106.579 179.984L106.593 179.889L106.612 179.698L106.619 179.602L106.628 179.411V179.218L106.619 179.026Z" fill="white"/>
<path d="M79.083 160.597L79.0897 160.693L79.0996 160.789L79.1106 160.884L79.1227 160.979L79.1382 161.074L79.1547 161.168L79.1734 161.263L79.1944 161.356L79.2175 161.449L79.2418 161.541L79.2683 161.634L79.3278 161.816L79.3609 161.907L79.394 161.995L79.4303 162.085L79.4689 162.173L79.5086 162.26L79.5494 162.345L79.5935 162.431L79.6387 162.516L79.685 162.599L79.7346 162.682L79.7843 162.762L79.8361 162.842L79.8901 162.922L79.9452 163L80.0026 163.077L80.061 163.151L80.1205 163.226L80.1823 163.298L80.2451 163.37L80.3102 163.439L80.3763 163.508L80.4436 163.575L80.5119 163.641L80.5814 163.705L80.6531 163.768L80.7269 163.829L80.7302 163.832L80.8339 163.769L80.9254 163.717L81.0202 163.663L81.0334 163.657L81.0081 163.611L80.975 163.543L80.943 163.473L80.9132 163.402L80.8846 163.332L80.8581 163.26L80.8328 163.188L80.8107 163.114L80.7898 163.041L80.771 162.967L80.7534 162.892L80.739 162.818L80.7258 162.741L80.7148 162.665L80.706 162.59L80.6993 162.514L80.6938 162.437L80.6916 162.36L80.6905 162.284L80.6916 162.207L80.6938 162.13L80.6993 162.053L80.706 161.977L80.7148 161.901L80.7258 161.826L80.739 161.75L80.7534 161.674L80.771 161.6L80.7898 161.526L80.8107 161.452L80.8328 161.379L80.8581 161.306L80.8846 161.235L80.9132 161.164L80.943 161.093L80.975 161.024L81.0081 160.956L81.0444 160.888L81.0819 160.822L81.1205 160.755L81.1613 160.691L81.2043 160.629L81.2473 160.567L81.2947 160.505L81.341 160.446L81.3906 160.387L81.4403 160.33L81.4921 160.274L81.545 160.22L81.6001 160.167L81.7126 160.066L81.771 160.018L81.8923 159.926L81.9551 159.884L82.018 159.842L82.083 159.802L82.147 159.765L82.2142 159.729L82.2815 159.694L82.3499 159.661L82.4193 159.63L82.4877 159.602L82.5593 159.575L82.6299 159.55L82.7016 159.527L82.7743 159.505L82.8471 159.486L82.921 159.47L82.9937 159.454L83.0687 159.441L83.1437 159.43L83.2176 159.42L83.2925 159.413L83.3675 159.408L83.4425 159.404L106.628 159.404V155.785H83.4238L83.33 155.788L83.2352 155.794L83.0467 155.809L82.953 155.821L82.8604 155.835L82.7666 155.849L82.674 155.867L82.5814 155.886L82.3984 155.931L82.308 155.955L82.2165 155.983L82.1272 156.011L82.0379 156.043L81.9497 156.075L81.8603 156.111L81.7743 156.147L81.6884 156.185L81.6024 156.227L81.5175 156.268L81.4337 156.313L81.351 156.359L81.2694 156.406L81.1878 156.456L81.1084 156.507L81.029 156.56L80.9519 156.615L80.8758 156.671L80.7997 156.729L80.7269 156.789L80.6531 156.851L80.5814 156.912L80.5119 156.976L80.4436 157.043L80.3763 157.11L80.3102 157.178L80.2451 157.248L80.1823 157.32L80.1205 157.393L80.061 157.467L80.0026 157.542L79.9452 157.618L79.8901 157.697L79.8361 157.775L79.7843 157.855L79.685 158.019L79.6387 158.103L79.5935 158.187L79.5494 158.271L79.5086 158.359L79.4689 158.445L79.4303 158.534L79.394 158.622L79.3609 158.711L79.3278 158.801L79.298 158.893L79.2683 158.984L79.2418 159.076L79.2175 159.169L79.1944 159.262L79.1734 159.356L79.1547 159.449L79.1382 159.544L79.1227 159.639L79.1106 159.734L79.0996 159.83L79.0897 159.925L79.083 160.022L79.0742 160.212V160.405L79.083 160.597Z" fill="white"/>
<path d="M122.308 178.549H115.24V175.718H122.308C123.402 175.718 124.246 175.503 124.837 175.07C125.429 174.638 125.726 174.08 125.726 173.398C125.726 172.716 125.446 172.215 124.888 171.896C124.329 171.579 123.503 171.316 122.408 171.112L121.269 170.908C120.151 170.704 119.135 170.408 118.221 170.022C117.305 169.636 116.579 169.1 116.043 168.418C115.507 167.736 115.238 166.861 115.238 165.791C115.238 164.2 115.819 162.966 116.981 162.091C118.142 161.216 119.683 160.778 121.604 160.778H128.505V163.644H121.604C120.666 163.644 119.929 163.82 119.393 164.172C118.858 164.524 118.589 165.019 118.589 165.656C118.589 166.338 118.851 166.838 119.376 167.157C119.9 167.476 120.61 167.715 121.503 167.873L122.675 168.077C123.859 168.281 124.942 168.566 125.925 168.93C126.908 169.293 127.684 169.816 128.254 170.498C128.824 171.181 129.108 172.091 129.108 173.227C129.108 174.91 128.493 176.218 127.265 177.15C126.036 178.082 124.384 178.548 122.307 178.548L122.308 178.549Z" fill="white"/>
<path d="M165.122 183.724V175.787H164.586C164.341 176.242 163.984 176.68 163.514 177.1C163.045 177.52 162.447 177.867 161.722 178.14C160.996 178.412 160.098 178.549 159.025 178.549C157.64 178.549 156.367 178.208 155.206 177.526C154.044 176.844 153.117 175.861 152.425 174.575C151.733 173.29 151.387 171.738 151.387 169.918V169.407C151.387 167.588 151.739 166.036 152.443 164.75C153.146 163.465 154.078 162.481 155.24 161.799C156.401 161.117 157.663 160.776 159.025 160.776C160.633 160.776 161.868 161.072 162.727 161.662C163.587 162.253 164.229 162.924 164.654 163.675H165.189V160.776H168.574V183.722H165.123L165.122 183.724ZM159.996 175.479C161.515 175.479 162.755 174.99 163.715 174.013C164.675 173.035 165.155 171.636 165.155 169.817V169.51C165.155 167.713 164.669 166.327 163.698 165.348C162.726 164.371 161.492 163.882 159.996 163.882C158.501 163.882 157.3 164.371 156.328 165.348C155.356 166.327 154.871 167.713 154.871 169.51V169.817C154.871 171.637 155.357 173.035 156.328 174.013C157.3 174.991 158.522 175.479 159.996 175.479Z" fill="white"/>
<path d="M148.08 169.305C148.08 167.599 147.745 166.11 147.075 164.836C146.405 163.563 145.471 162.568 144.278 161.852C143.082 161.136 141.691 160.777 140.106 160.777C138.522 160.777 137.046 161.14 135.818 161.869C135.203 162.232 134.656 162.666 134.173 163.174C134.112 163.236 134.053 163.301 133.993 163.367C133.817 163.564 133.653 163.77 133.496 163.986C133.289 164.274 133.096 164.581 132.92 164.905C132.217 166.201 131.864 167.725 131.864 169.476V169.886C131.864 171.637 132.216 173.16 132.92 174.457C133.623 175.753 134.601 176.76 135.851 177.475C137.101 178.191 138.565 178.55 140.24 178.55C141.714 178.55 142.942 178.311 143.925 177.834C144.908 177.356 145.689 176.765 146.27 176.061C146.431 175.864 146.583 175.671 146.725 175.48C147.096 174.986 147.402 174.509 147.643 174.048L144.763 172.546C144.406 173.32 143.896 174.003 143.238 174.593C142.578 175.184 141.602 175.479 140.307 175.479C138.922 175.479 137.766 175.041 136.84 174.166C136.783 174.111 136.726 174.058 136.672 173.999C136.617 173.941 136.565 173.884 136.514 173.825C136.39 173.681 136.276 173.529 136.17 173.37C135.719 172.681 135.461 171.861 135.396 170.91C135.39 170.819 135.386 170.727 135.383 170.635H148.081V169.305H148.08ZM137.694 167.94L135.93 169.737H135.349C135.34 169.219 135.349 168.555 135.416 167.94C135.449 167.707 135.493 167.481 135.55 167.265C135.606 167.048 135.673 166.842 135.751 166.644C136.011 165.985 136.398 165.428 136.907 164.972C137.722 164.244 138.776 163.88 140.073 163.88C141.37 163.88 142.419 164.244 143.223 164.972C144.028 165.7 144.485 166.69 144.596 167.94H137.694Z" fill="white"/>
<path d="M188.094 169.305C188.094 167.599 187.759 166.11 187.089 164.836C186.419 163.563 185.486 162.568 184.292 161.852C183.097 161.136 181.706 160.777 180.121 160.777C178.536 160.777 177.061 161.14 175.833 161.869C175.218 162.232 174.67 162.666 174.188 163.174C174.127 163.236 174.067 163.301 174.008 163.367C173.832 163.564 173.667 163.77 173.511 163.986C173.304 164.274 173.111 164.581 172.935 164.905C172.231 166.201 171.879 167.725 171.879 169.476V169.886C171.879 171.637 172.23 173.16 172.935 174.457C173.638 175.753 174.615 176.76 175.866 177.475C177.116 178.191 178.579 178.55 180.254 178.55C181.729 178.55 182.957 178.311 183.94 177.834C184.923 177.356 185.704 176.765 186.285 176.061C186.446 175.864 186.598 175.671 186.74 175.48C187.11 174.986 187.417 174.509 187.658 174.048L184.777 172.546C184.42 173.32 183.911 174.003 183.253 174.593C182.593 175.184 181.617 175.479 180.322 175.479C178.936 175.479 177.78 175.041 176.855 174.166C176.797 174.111 176.741 174.058 176.687 173.999C176.632 173.941 176.58 173.884 176.528 173.825C176.405 173.681 176.29 173.529 176.185 173.37C175.734 172.681 175.476 171.861 175.411 170.91C175.404 170.819 175.401 170.727 175.398 170.635H188.096V169.305H188.094ZM177.709 167.94L175.944 169.737H175.363C175.355 169.219 175.363 168.555 175.431 167.94C175.464 167.707 175.508 167.481 175.565 167.265C175.62 167.048 175.687 166.842 175.766 166.644C176.026 165.985 176.413 165.428 176.922 164.972C177.736 164.244 178.791 163.88 180.088 163.88C181.385 163.88 182.433 164.244 183.238 164.972C184.042 165.7 184.5 166.69 184.611 167.94H177.709Z" fill="white"/>
<path d="M191.401 178.549V160.777H194.784V162.755H195.32C195.587 162.05 196.017 161.533 196.609 161.203C197.201 160.873 197.933 160.708 198.803 160.708H200.78V163.88H198.67C197.552 163.88 196.638 164.193 195.922 164.818C195.207 165.445 194.85 166.405 194.85 167.701V178.548H191.4L191.401 178.549Z" fill="white"/>
<path d="M217.426 167.15C217.426 165.095 216.81 163.507 215.575 162.388C214.342 161.269 212.648 160.709 210.494 160.709C209.081 160.709 207.886 160.937 206.91 161.395C205.935 161.853 205.149 162.458 204.555 163.211C203.961 163.965 203.529 164.787 203.259 165.677L206.489 166.739C206.691 165.826 207.106 165.083 207.734 164.512C208.364 163.942 209.271 163.656 210.46 163.656C211.649 163.656 212.569 163.959 213.152 164.564C213.736 165.169 214.027 165.952 214.027 166.911V169.833H213.467L211.672 168.007H208.98C207.162 168.007 205.654 168.447 204.453 169.327C203.253 170.206 202.653 171.503 202.653 173.216C202.653 174.358 202.928 175.328 203.477 176.128C204.027 176.928 204.768 177.533 205.698 177.943C206.63 178.354 207.69 178.56 208.877 178.56C210.064 178.56 210.941 178.394 211.637 178.063C212.332 177.732 212.86 177.344 213.218 176.899C213.578 176.453 213.845 176.047 214.026 175.682H214.565V178.56H217.425V167.151L217.426 167.15ZM214.027 171.09C214.027 172.507 213.595 173.62 212.731 174.43C211.867 175.24 210.753 175.646 209.383 175.646C208.373 175.646 207.578 175.419 206.994 174.961C206.41 174.503 206.119 173.887 206.119 173.111C206.119 172.334 206.4 171.745 206.96 171.347C207.522 170.947 208.26 170.747 209.18 170.747H214.026V171.09H214.027Z" fill="white"/>
<path d="M239.001 102.601V96.3335H272V102.601H259.217V137.608H251.785V102.601H239.001Z" fill="white"/>
<path d="M232.704 96.3335V137.608H225.212V96.3335H232.704Z" fill="white"/>
<path d="M173.674 96.3335H182.843L195.121 126.242H195.606L207.885 96.3335H217.053V137.608H209.864V109.252H209.48L198.05 137.487H192.678L181.247 109.192H180.863V137.608H173.674V96.3335Z" fill="white"/>
<path d="M122.135 96.3335H131.303L143.582 126.242H144.067L156.346 96.3335H165.514V137.608H158.325V109.252H157.941L146.511 137.487H141.139L129.708 109.192H129.324V137.608H122.135V96.3335Z" fill="white"/>
<path d="M106.499 96.3335H113.991V123.299C113.991 126.255 113.291 128.855 111.891 131.099C110.504 133.342 108.552 135.096 106.034 136.359C103.517 137.608 100.575 138.233 97.2091 138.233C93.8297 138.233 90.8812 137.608 88.3635 136.359C85.8458 135.096 83.8936 133.342 82.5069 131.099C81.1201 128.855 80.4268 126.255 80.4268 123.299V96.3335H87.9192V122.674C87.9192 124.394 88.2962 125.926 89.0502 127.269C89.8176 128.613 90.8947 129.668 92.2814 130.434C93.6682 131.186 95.3107 131.562 97.2091 131.562C99.1075 131.562 100.75 131.186 102.137 130.434C103.537 129.668 104.614 128.613 105.368 127.269C106.122 125.926 106.499 124.394 106.499 122.674V96.3335Z" fill="white"/>
<path d="M65.9719 107.679C65.7834 105.919 64.989 104.549 63.5888 103.568C62.2021 102.587 60.398 102.097 58.1765 102.097C56.6147 102.097 55.2751 102.332 54.1576 102.802C53.0401 103.272 52.1852 103.911 51.5928 104.717C51.0004 105.523 50.6975 106.443 50.684 107.478C50.684 108.338 50.8792 109.083 51.2697 109.715C51.6736 110.346 52.2188 110.884 52.9055 111.327C53.5921 111.757 54.3528 112.12 55.1876 112.416C56.0223 112.711 56.8638 112.96 57.712 113.161L61.5895 114.129C63.1513 114.491 64.6524 114.982 66.093 115.6C67.5471 116.218 68.8463 116.997 69.9907 117.938C71.1486 118.878 72.0641 120.013 72.7373 121.344C73.4105 122.674 73.7471 124.232 73.7471 126.019C73.7471 128.438 73.1278 130.567 71.8891 132.408C70.6505 134.235 68.8598 135.666 66.5171 136.701C64.188 137.722 61.3673 138.232 58.0553 138.232C54.8375 138.232 52.0438 137.735 49.6742 136.741C47.3181 135.747 45.4736 134.296 44.1407 132.388C42.8213 130.48 42.1077 128.156 42 125.415H49.3713C49.479 126.852 49.9233 128.048 50.7042 129.002C51.4851 129.956 52.5016 130.668 53.7537 131.138C55.0193 131.609 56.4329 131.844 57.9947 131.844C59.6238 131.844 61.0509 131.602 62.2761 131.118C63.5148 130.621 64.4841 129.936 65.1843 129.062C65.8844 128.176 66.2411 127.141 66.2546 125.959C66.2411 124.884 65.9248 123.997 65.3054 123.299C64.6861 122.586 63.8177 121.995 62.7002 121.525C61.5962 121.041 60.3037 120.611 58.8227 120.235L54.1172 119.026C50.7109 118.153 48.0182 116.829 46.0391 115.056C44.0734 113.269 43.0905 110.897 43.0905 107.941C43.0905 105.51 43.7503 103.38 45.0697 101.553C46.4026 99.7254 48.2134 98.3079 50.5022 97.3002C52.791 96.2791 55.3828 95.7686 58.2774 95.7686C61.2125 95.7686 63.784 96.2791 65.9921 97.3002C68.2136 98.3079 69.9571 99.712 71.2227 101.512C72.4882 103.299 73.1412 105.355 73.1816 107.679H65.9719Z" fill="white"/>
<path d="M42.7988 81.2454V50.8516H48.6681V55.6354H49.5972C50.1402 54.4687 51.1076 53.3807 52.5032 52.3694C53.8988 51.3582 55.9712 50.8535 58.7223 50.8535C60.8922 50.8535 62.8193 51.3409 64.5055 52.3119C66.1917 53.2848 67.5185 54.6549 68.4859 56.4241C69.4533 58.1934 69.9389 60.3234 69.9389 62.8122V81.2454H63.953V63.2785C63.953 60.7897 63.3336 58.9533 62.0928 57.7655C60.8521 56.5796 59.1486 55.9866 56.9787 55.9866C54.4991 55.9866 52.5127 56.8041 51.0215 58.4371C49.5303 60.0701 48.7847 62.4438 48.7847 65.5544V81.2473H42.7988V81.2454Z" fill="white"/>
<path d="M185.881 81.2593V42.0557H191.867V81.2593H185.881Z" fill="white"/>
<path d="M212.423 81.2591C209.555 81.2591 207.009 80.6662 204.779 79.4803C202.55 78.2944 200.799 76.5923 199.52 74.3759C198.241 72.1596 197.603 69.5345 197.603 66.5007V65.6256C197.603 62.5918 198.241 59.9763 199.52 57.7792C200.799 55.582 202.552 53.8799 204.779 52.6748C207.007 51.4697 209.555 50.8672 212.423 50.8672C215.291 50.8672 217.847 51.4697 220.095 52.6748C222.341 53.8799 224.106 55.582 225.383 57.7792C226.662 59.9763 227.301 62.5918 227.301 65.6256V66.5007C227.301 69.5345 226.662 72.1596 225.383 74.3759C224.104 76.5923 222.341 78.2944 220.095 79.4803C217.847 80.6662 215.291 81.2591 212.423 81.2591ZM212.423 75.8919C215.057 75.8919 217.199 75.0457 218.845 73.3551C220.491 71.6626 221.315 69.3215 221.315 66.3261V65.8003C221.315 62.8067 220.5 60.4618 218.873 58.7712C217.246 57.0788 215.096 56.2344 212.423 56.2344C209.75 56.2344 207.705 57.0807 206.058 58.7712C204.41 60.4637 203.588 62.8067 203.588 65.8003V66.3261C203.588 69.3215 204.41 71.6645 206.058 73.3551C207.705 75.0476 209.827 75.8919 212.423 75.8919Z" fill="white"/>
<path d="M235.387 76.2099L231.316 50.8667H237.302L240.906 77.2346H241.835L245.928 55.6467C246.454 52.8739 248.869 50.8667 251.683 50.8667C254.501 50.8667 256.917 52.8796 257.439 55.6582L261.481 77.2327H262.41L266.014 50.8647H272L267.929 76.208C267.463 79.1171 264.96 81.2567 262.024 81.2567C259.147 81.2567 256.678 79.2015 256.145 76.3654L252.125 54.9482H251.195L247.175 76.3654C246.641 79.2034 244.173 81.2567 241.296 81.2567C238.36 81.2567 235.857 79.1171 235.39 76.208L235.387 76.2099Z" fill="white"/>
<path d="M167.101 43.6828C166.069 44.7362 165.555 46.1428 165.555 47.8986V81.2592H171.564V55.9754H180.146V50.8806H175.997L172.613 54.2771H171.564V48.8946C171.564 47.724 172.126 47.1387 173.255 47.1387H180.123V42.1016H171.33C169.539 42.1016 168.13 42.6293 167.101 43.6828Z" fill="white"/>
<path d="M151.5 74.3398V58.3667H145.489V75.3933C145.489 77.1511 146.004 78.5557 147.036 79.6111C148.066 80.6646 149.458 81.1923 151.209 81.1923H159.145V76.0957H153.135C152.043 76.0957 151.5 75.5104 151.5 74.3379V74.3398Z" fill="white"/>
<path d="M115.448 73.0106C113.785 75.0024 111.33 75.9753 108.743 75.9753H90.5123C88.0996 75.9753 86.0864 75.2231 84.4729 73.7206C84.3735 73.6265 84.2741 73.5325 84.1804 73.4327C84.0848 73.3329 83.993 73.2332 83.9032 73.1334C83.6871 72.8839 83.4883 72.6229 83.3048 72.3504C82.519 71.1665 82.0697 69.758 81.9569 68.1269C81.9455 67.9715 81.9397 67.8141 81.934 67.6548H104.052V65.3713C104.052 62.443 103.469 59.8851 102.3 57.6975C101.132 55.51 99.5073 53.8021 97.4273 52.5721C95.3434 51.342 92.9212 50.7261 90.1624 50.7261C87.4037 50.7261 84.8323 51.3497 82.693 52.6009C81.6224 53.2245 80.6684 53.971 79.8272 54.8422C79.722 54.9496 79.6169 55.0609 79.5156 55.1741C79.2097 55.5138 78.9229 55.8688 78.6495 56.2372C78.2882 56.7323 77.9517 57.26 77.6458 57.8165C76.4203 60.0425 75.8066 62.658 75.8066 65.6649V66.3672C75.8066 69.3742 76.4203 71.9897 77.6458 74.2156C78.8713 76.4416 80.5728 78.1686 82.7522 79.3987C84.9298 80.6287 87.4801 81.2447 90.3976 81.2447H108.25C109.881 81.2447 113.291 80.9492 115.314 79.8131C117.559 78.5505 118.947 77.0211 121.226 74.2943L122.092 73.0509L118.805 68.3706L115.45 73.0106H115.448ZM81.9913 63.0302C82.0506 62.6292 82.1252 62.2415 82.2246 61.8712C82.3202 61.4989 82.4368 61.1439 82.5744 60.8043C83.0275 59.674 83.7005 58.7165 84.5876 57.9336C86.0062 56.6824 87.8434 56.0588 90.1032 56.0588C92.3629 56.0588 94.1887 56.6824 95.5881 57.9336C96.9895 59.1847 97.7848 60.8829 97.9817 63.0302H85.9603L82.888 66.1139H81.8747C81.8594 65.2274 81.8747 64.0837 81.9913 63.0302Z" fill="white"/>
<path d="M151.5 50.781V42H145.49V50.781H139.836C138.206 50.781 134.795 51.0765 132.772 52.2125C130.528 53.4752 128.706 55.1005 126.427 57.8273L123.911 61.3063C122.856 59.7788 122.005 58.5488 121.605 57.9827C119.554 55.0794 117.558 53.573 115.312 52.3104C113.289 51.1725 110.069 50.8789 108.439 50.8789H107.318V56.1502H108.934C111.522 56.1502 113.784 57.1231 115.447 59.1149L120.363 66.2111L120.342 66.2399L123.347 70.521L125.894 74.1977C128.172 76.9245 129.994 78.5498 132.239 79.8124C134.262 80.9504 137.672 81.244 139.303 81.244H140.423V75.9727H138.808C136.219 75.9727 133.709 75.0458 132.103 73.0079C131.486 72.225 129.312 69.1106 127.079 65.8887L131.87 59.0151C133.533 57.0233 136.753 55.8758 139.339 55.8758H159.819V50.7791H151.5V50.781Z" fill="white"/>
<rect width="254" height="25" transform="translate(554 369)" fill="black"/>
<path d="M561.615 383.99H558.387L557.518 387.708H555.982L556.85 383.99H554.668L554.98 382.565H557.184L557.875 379.648H555.781L556.093 378.223H558.209L559.055 374.704H560.591L559.745 378.223H562.974L563.82 374.704H565.356L564.51 378.223H566.67L566.314 379.648H564.176L563.486 382.565H565.557L565.201 383.99H563.152L562.284 387.708H560.747L561.615 383.99ZM558.721 382.565H561.95L562.64 379.648H559.411L558.721 382.565ZM571.716 379.247L570.514 376.998H570.425L570.647 379.247V389H568.911V373.413H570.113L576.392 383.121L577.55 385.259H577.662L577.417 383.121V373.413H579.154V389H577.951L571.716 379.247ZM592.483 387.597C592.216 387.835 591.897 388.057 591.526 388.265C591.169 388.473 590.776 388.651 590.345 388.8C589.915 388.948 589.462 389.059 588.987 389.134C588.527 389.223 588.059 389.267 587.584 389.267C586.694 389.267 585.907 389.134 585.224 388.866C584.541 388.584 583.97 388.191 583.509 387.686C583.049 387.167 582.7 386.551 582.463 385.838C582.225 385.125 582.106 384.324 582.106 383.433C582.106 382.498 582.233 381.667 582.485 380.939C582.752 380.212 583.131 379.603 583.621 379.113C584.111 378.623 584.704 378.252 585.402 378C586.1 377.733 586.879 377.599 587.74 377.599C588.364 377.599 588.98 377.681 589.588 377.844C590.197 378.007 590.731 378.319 591.192 378.779C591.667 379.225 592.03 379.848 592.283 380.65C592.535 381.436 592.624 382.461 592.55 383.723H583.932C583.932 385.059 584.289 386.061 585.001 386.729C585.729 387.382 586.694 387.708 587.896 387.708C588.297 387.708 588.69 387.664 589.076 387.575C589.477 387.471 589.856 387.352 590.212 387.219C590.568 387.085 590.88 386.937 591.147 386.773C591.429 386.61 591.644 386.462 591.793 386.328L592.483 387.597ZM587.785 379.069C587.295 379.069 586.827 379.121 586.382 379.225C585.951 379.328 585.565 379.507 585.224 379.759C584.897 379.997 584.623 380.316 584.4 380.716C584.192 381.102 584.059 381.585 583.999 382.164H590.924C590.85 381.184 590.531 380.427 589.967 379.893C589.418 379.343 588.69 379.069 587.785 379.069ZM599.689 383.3L595.391 377.866H597.618L600.825 382.053L604.12 377.866H606.124L601.827 383.21L606.392 389H604.254L600.713 384.435L597.106 389H595.08L599.689 383.3ZM608.098 377.866H610.747V375.662L612.484 375.172V377.866H618.43V379.358H612.484V384.613C612.484 385.697 612.744 386.499 613.264 387.018C613.798 387.538 614.555 387.798 615.535 387.798C616.203 387.798 616.782 387.671 617.272 387.419C617.776 387.167 618.229 386.892 618.63 386.595L619.209 387.909C618.689 388.325 618.066 388.659 617.339 388.911C616.626 389.163 615.891 389.289 615.134 389.289C614.54 389.289 613.976 389.2 613.442 389.022C612.922 388.859 612.462 388.599 612.061 388.243C611.66 387.887 611.341 387.434 611.104 386.885C610.866 386.32 610.747 385.652 610.747 384.881V379.358H608.098V377.866ZM622.719 389V387.508H625.368V379.358H622.719V377.866H625.368V377.243C625.368 375.847 625.732 374.838 626.46 374.214C627.187 373.591 628.226 373.279 629.577 373.279C630.067 373.279 630.505 373.309 630.891 373.368C631.277 373.428 631.692 373.546 632.138 373.724L631.737 375.172C631.351 375.009 630.98 374.905 630.624 374.86C630.267 374.801 629.941 374.771 629.644 374.771C628.664 374.771 627.996 375.016 627.64 375.506C627.283 375.981 627.105 376.768 627.105 377.866H631.715V379.358H627.105V387.508H631.715V389H622.719ZM636.761 373.413H640.457V385.259C640.457 386.165 640.606 386.803 640.902 387.174C641.214 387.545 641.667 387.731 642.261 387.731C642.676 387.731 643.07 387.657 643.441 387.508C643.827 387.36 644.25 387.107 644.71 386.751L645.512 387.976C645.274 388.184 645.015 388.369 644.732 388.532C644.45 388.696 644.161 388.837 643.864 388.955C643.567 389.059 643.27 389.141 642.973 389.2C642.676 389.26 642.402 389.289 642.149 389.289C641.6 389.289 641.11 389.215 640.68 389.067C640.249 388.933 639.886 388.711 639.589 388.399C639.307 388.087 639.091 387.679 638.943 387.174C638.794 386.654 638.72 386.016 638.72 385.259V374.905H636.761V373.413ZM648.732 383.433C648.732 381.637 649.2 380.219 650.135 379.18C651.07 378.126 652.406 377.599 654.143 377.599C655.078 377.599 655.88 377.755 656.548 378.067C657.231 378.364 657.795 378.772 658.24 379.291C658.686 379.811 659.012 380.427 659.22 381.14C659.443 381.852 659.554 382.617 659.554 383.433C659.554 384.324 659.435 385.133 659.198 385.86C658.96 386.573 658.611 387.181 658.151 387.686C657.691 388.191 657.119 388.584 656.436 388.866C655.768 389.134 655.004 389.267 654.143 389.267C653.223 389.267 652.421 389.119 651.738 388.822C651.055 388.51 650.491 388.094 650.046 387.575C649.6 387.055 649.266 386.439 649.044 385.727C648.836 385.014 648.732 384.25 648.732 383.433ZM650.58 383.433C650.58 383.953 650.64 384.472 650.758 384.992C650.892 385.511 651.1 385.979 651.382 386.395C651.664 386.81 652.028 387.144 652.473 387.397C652.933 387.649 653.49 387.775 654.143 387.775C655.331 387.775 656.221 387.412 656.815 386.684C657.424 385.942 657.728 384.858 657.728 383.433C657.728 382.899 657.661 382.379 657.528 381.874C657.409 381.355 657.201 380.887 656.904 380.472C656.622 380.056 656.251 379.722 655.791 379.47C655.345 379.217 654.796 379.091 654.143 379.091C652.955 379.091 652.065 379.455 651.471 380.182C650.877 380.909 650.58 381.993 650.58 383.433ZM668.363 380.316L670.59 386.506H670.746L672.327 377.866H673.952L671.77 389H669.788L667.651 382.854H667.584L665.357 389H663.375L661.037 377.866H662.752L664.555 386.551H664.689L666.849 380.316H668.363ZM677.506 386.796C677.952 387.033 678.449 387.233 678.998 387.397C679.562 387.545 680.127 387.619 680.691 387.619C681.181 387.619 681.641 387.575 682.071 387.486C682.502 387.382 682.873 387.226 683.185 387.018C683.511 386.796 683.764 386.521 683.942 386.194C684.135 385.868 684.231 385.482 684.231 385.036C684.231 384.428 684.023 383.93 683.608 383.544C683.207 383.158 682.702 382.817 682.094 382.52C681.485 382.223 680.824 381.934 680.112 381.652C679.399 381.37 678.739 381.036 678.13 380.65C677.521 380.264 677.009 379.796 676.593 379.247C676.193 378.683 675.992 377.97 675.992 377.109C675.992 376.5 676.111 375.951 676.349 375.461C676.601 374.971 676.95 374.556 677.395 374.214C677.84 373.873 678.375 373.613 678.998 373.435C679.637 373.242 680.342 373.146 681.114 373.146C682.004 373.146 682.814 373.212 683.541 373.346C684.268 373.465 684.847 373.628 685.278 373.836L685.322 373.814V373.858H685.345L685.322 373.925V377.488H683.675V375.105C683.303 375.016 682.895 374.942 682.45 374.882C682.004 374.823 681.529 374.793 681.025 374.793C680.535 374.793 680.089 374.853 679.689 374.971C679.303 375.09 678.969 375.254 678.687 375.461C678.419 375.654 678.212 375.884 678.063 376.152C677.915 376.419 677.84 376.701 677.84 376.998C677.84 377.577 678.041 378.059 678.442 378.445C678.857 378.831 679.369 379.18 679.978 379.492C680.587 379.789 681.247 380.086 681.96 380.382C682.673 380.679 683.333 381.028 683.942 381.429C684.55 381.815 685.055 382.283 685.456 382.832C685.872 383.381 686.079 384.064 686.079 384.881C686.079 385.549 685.953 386.15 685.701 386.684C685.463 387.219 685.115 387.679 684.654 388.065C684.209 388.451 683.652 388.748 682.984 388.955C682.331 389.163 681.589 389.267 680.757 389.267C680.193 389.267 679.659 389.223 679.154 389.134C678.65 389.045 678.182 388.933 677.751 388.8C677.336 388.666 676.957 388.525 676.616 388.377C676.289 388.228 676.029 388.102 675.836 387.998L675.859 387.931V384.324H677.506V386.796ZM695.601 377.866H698.763V385.459C698.763 386.187 698.808 386.885 698.897 387.553H700.389V389H697.427L697.36 387.107H697.271C696.885 387.746 696.373 388.265 695.735 388.666C695.097 389.067 694.325 389.267 693.419 389.267C692.736 389.267 692.15 389.186 691.66 389.022C691.185 388.874 690.791 388.607 690.48 388.221C690.168 387.835 689.938 387.323 689.789 386.684C689.641 386.031 689.567 385.222 689.567 384.257V379.358H688.075V377.866H691.304V383.901C691.304 384.509 691.326 385.059 691.37 385.549C691.43 386.024 691.541 386.432 691.704 386.773C691.868 387.1 692.105 387.352 692.417 387.53C692.744 387.694 693.174 387.775 693.708 387.775C694.48 387.775 695.148 387.523 695.713 387.018C696.292 386.513 696.729 385.883 697.026 385.125V379.358H695.601V377.866ZM706.704 389V381.585C706.704 381.273 706.689 380.976 706.659 380.694C706.645 380.397 706.593 380.138 706.504 379.915C706.429 379.677 706.311 379.492 706.147 379.358C705.999 379.225 705.798 379.158 705.546 379.158C705.041 379.158 704.611 379.366 704.255 379.781C703.913 380.197 703.653 380.716 703.475 381.34V389H701.783V377.866H702.941L703.275 379.225H703.364C703.512 379.002 703.653 378.794 703.787 378.601C703.935 378.393 704.099 378.215 704.277 378.067C704.47 377.918 704.693 377.807 704.945 377.733C705.197 377.644 705.516 377.599 705.902 377.599C706.125 377.599 706.355 377.636 706.593 377.71C706.83 377.77 707.045 377.874 707.238 378.022C707.446 378.156 707.624 378.341 707.773 378.579C707.921 378.816 708.018 379.106 708.062 379.447C708.404 378.868 708.782 378.416 709.198 378.089C709.628 377.762 710.215 377.599 710.957 377.599C711.447 377.599 711.84 377.681 712.137 377.844C712.449 378.007 712.687 378.245 712.85 378.557C713.028 378.853 713.147 379.217 713.206 379.648C713.28 380.063 713.317 380.531 713.317 381.05V389H711.625V381.429C711.625 381.117 711.61 380.828 711.581 380.561C711.551 380.279 711.492 380.034 711.402 379.826C711.328 379.618 711.217 379.455 711.068 379.336C710.935 379.217 710.749 379.158 710.512 379.158C709.992 379.158 709.554 379.366 709.198 379.781C708.842 380.197 708.574 380.791 708.396 381.563V389H706.704ZM720.056 389V381.585C720.056 381.273 720.041 380.976 720.011 380.694C719.996 380.397 719.944 380.138 719.855 379.915C719.781 379.677 719.662 379.492 719.499 379.358C719.351 379.225 719.15 379.158 718.898 379.158C718.393 379.158 717.963 379.366 717.606 379.781C717.265 380.197 717.005 380.716 716.827 381.34V389H715.135V377.866H716.293L716.627 379.225H716.716C716.864 379.002 717.005 378.794 717.139 378.601C717.287 378.393 717.451 378.215 717.629 378.067C717.822 377.918 718.044 377.807 718.297 377.733C718.549 377.644 718.868 377.599 719.254 377.599C719.477 377.599 719.707 377.636 719.944 377.71C720.182 377.77 720.397 377.874 720.59 378.022C720.798 378.156 720.976 378.341 721.125 378.579C721.273 378.816 721.37 379.106 721.414 379.447C721.756 378.868 722.134 378.416 722.55 378.089C722.98 377.762 723.567 377.599 724.309 377.599C724.799 377.599 725.192 377.681 725.489 377.844C725.801 378.007 726.038 378.245 726.202 378.557C726.38 378.853 726.499 379.217 726.558 379.648C726.632 380.063 726.669 380.531 726.669 381.05V389H724.977V381.429C724.977 381.117 724.962 380.828 724.932 380.561C724.903 380.279 724.843 380.034 724.754 379.826C724.68 379.618 724.569 379.455 724.42 379.336C724.287 379.217 724.101 379.158 723.864 379.158C723.344 379.158 722.906 379.366 722.55 379.781C722.194 380.197 721.926 380.791 721.748 381.563V389H720.056ZM729.912 389V387.508H733.786V379.358H729.912V377.866H735.568V387.508H739.353V389H729.912ZM733.185 374.704C733.185 374.303 733.319 373.962 733.586 373.68C733.853 373.383 734.194 373.235 734.61 373.235C735.041 373.235 735.397 373.383 735.679 373.68C735.976 373.962 736.124 374.303 736.124 374.704C736.124 375.09 735.976 375.417 735.679 375.684C735.397 375.951 735.041 376.085 734.61 376.085C734.194 376.085 733.853 375.951 733.586 375.684C733.319 375.417 733.185 375.09 733.185 374.704ZM741.616 377.866H744.265V375.662L746.002 375.172V377.866H751.948V379.358H746.002V384.613C746.002 385.697 746.262 386.499 746.782 387.018C747.316 387.538 748.073 387.798 749.053 387.798C749.721 387.798 750.3 387.671 750.79 387.419C751.295 387.167 751.747 386.892 752.148 386.595L752.727 387.909C752.208 388.325 751.584 388.659 750.857 388.911C750.144 389.163 749.409 389.289 748.652 389.289C748.058 389.289 747.494 389.2 746.96 389.022C746.44 388.859 745.98 388.599 745.579 388.243C745.178 387.887 744.859 387.434 744.622 386.885C744.384 386.32 744.265 385.652 744.265 384.881V379.358H741.616V377.866ZM765.411 377.354C765.411 378.72 764.765 380.241 763.474 381.919C762.182 383.596 760.378 385.422 758.063 387.397H765.901V389H756.014V387.397C756.296 387.13 756.682 386.781 757.172 386.35C757.662 385.92 758.189 385.445 758.753 384.925C759.317 384.391 759.889 383.819 760.468 383.21C761.061 382.602 761.596 381.978 762.071 381.34C762.546 380.702 762.932 380.063 763.229 379.425C763.526 378.787 763.674 378.171 763.674 377.577C763.674 376.686 763.437 375.988 762.962 375.484C762.501 374.964 761.804 374.704 760.868 374.704C760.067 374.704 759.391 374.793 758.842 374.971C758.293 375.15 757.795 375.409 757.35 375.751L756.593 374.526C757.261 374.051 757.966 373.702 758.708 373.48C759.466 373.257 760.289 373.146 761.18 373.146C762.576 373.146 763.63 373.524 764.342 374.281C765.055 375.038 765.411 376.063 765.411 377.354ZM768.854 381.206C768.854 379.945 768.965 378.816 769.188 377.822C769.41 376.812 769.744 375.966 770.19 375.283C770.635 374.585 771.199 374.058 771.882 373.702C772.565 373.331 773.374 373.146 774.309 373.146C775.304 373.146 776.143 373.324 776.825 373.68C777.523 374.036 778.087 374.556 778.518 375.239C778.948 375.922 779.26 376.768 779.453 377.777C779.646 378.772 779.743 379.915 779.743 381.206C779.743 382.468 779.631 383.604 779.409 384.613C779.186 385.608 778.852 386.454 778.406 387.152C777.961 387.835 777.397 388.362 776.714 388.733C776.031 389.089 775.222 389.267 774.287 389.267C773.307 389.267 772.468 389.074 771.771 388.688C771.088 388.287 770.524 387.731 770.078 387.018C769.648 386.306 769.336 385.459 769.143 384.48C768.95 383.485 768.854 382.394 768.854 381.206ZM777.917 381.206C777.917 380.42 777.872 379.67 777.783 378.957L771.17 384.992C771.422 385.838 771.8 386.513 772.305 387.018C772.81 387.523 773.471 387.775 774.287 387.775C775.593 387.775 776.521 387.233 777.07 386.15C777.635 385.066 777.917 383.418 777.917 381.206ZM770.702 381.206C770.702 381.577 770.709 381.934 770.724 382.275C770.754 382.617 770.784 382.951 770.813 383.277L777.449 377.265C777.197 376.463 776.818 375.825 776.313 375.35C775.823 374.875 775.155 374.637 774.309 374.637C772.988 374.637 772.053 375.187 771.504 376.285C770.969 377.369 770.702 379.009 770.702 381.206ZM792.115 377.354C792.115 378.72 791.469 380.241 790.177 381.919C788.886 383.596 787.082 385.422 784.766 387.397H792.604V389H782.718V387.397C783 387.13 783.386 386.781 783.876 386.35C784.365 385.92 784.892 385.445 785.457 384.925C786.021 384.391 786.592 383.819 787.171 383.21C787.765 382.602 788.299 381.978 788.774 381.34C789.249 380.702 789.635 380.063 789.932 379.425C790.229 378.787 790.378 378.171 790.378 377.577C790.378 376.686 790.14 375.988 789.665 375.484C789.205 374.964 788.507 374.704 787.572 374.704C786.77 374.704 786.095 374.793 785.546 374.971C784.996 375.15 784.499 375.409 784.054 375.751L783.297 374.526C783.965 374.051 784.67 373.702 785.412 373.48C786.169 373.257 786.993 373.146 787.884 373.146C789.279 373.146 790.333 373.524 791.046 374.281C791.758 375.038 792.115 376.063 792.115 377.354ZM806.335 384.302C806.335 384.94 806.216 385.556 805.979 386.15C805.756 386.744 805.422 387.271 804.976 387.731C804.531 388.191 803.982 388.562 803.329 388.844C802.676 389.126 801.918 389.267 801.057 389.267C800.256 389.267 799.528 389.141 798.875 388.889C798.222 388.636 797.658 388.28 797.183 387.82C796.708 387.345 796.337 386.766 796.069 386.083C795.817 385.4 795.691 384.636 795.691 383.789C795.691 382.394 795.891 381.073 796.292 379.826C796.708 378.579 797.279 377.48 798.007 376.53C798.749 375.58 799.625 374.808 800.634 374.214C801.659 373.621 802.779 373.264 803.997 373.146L804.308 374.571C803.373 374.689 802.512 374.964 801.725 375.395C800.954 375.825 800.278 376.359 799.699 376.998C799.12 377.636 798.645 378.341 798.274 379.113C797.918 379.885 797.688 380.672 797.584 381.474C797.702 381.281 797.873 381.08 798.096 380.872C798.333 380.665 798.608 380.486 798.92 380.338C799.246 380.175 799.603 380.041 799.989 379.937C800.389 379.833 800.82 379.781 801.28 379.781C802.067 379.781 802.772 379.893 803.396 380.115C804.019 380.323 804.546 380.627 804.976 381.028C805.422 381.414 805.756 381.889 805.979 382.453C806.216 383.003 806.335 383.619 806.335 384.302ZM804.509 384.48C804.509 383.441 804.219 382.646 803.64 382.097C803.061 381.548 802.171 381.273 800.968 381.273C800.538 381.273 800.137 381.325 799.766 381.429C799.395 381.533 799.061 381.674 798.764 381.852C798.467 382.015 798.207 382.208 797.984 382.431C797.762 382.654 797.591 382.876 797.472 383.099C797.443 383.307 797.428 383.47 797.428 383.589C797.428 383.708 797.428 383.849 797.428 384.012C797.428 384.457 797.502 384.91 797.65 385.37C797.799 385.816 798.022 386.217 798.319 386.573C798.63 386.929 799.016 387.219 799.476 387.441C799.937 387.664 800.478 387.775 801.102 387.775C801.607 387.775 802.067 387.686 802.483 387.508C802.898 387.33 803.254 387.092 803.551 386.796C803.863 386.499 804.101 386.15 804.264 385.749C804.427 385.348 804.509 384.925 804.509 384.48Z" fill="#0DC09D"/>
<rect x="41.752" y="349.322" width="229.666" height="46.9656" rx="3.29308" fill="#0DC09D"/>
<path d="M62.3743 375.238C62.3743 374.911 62.2467 374.661 61.9915 374.488C61.7364 374.304 61.42 374.161 61.0424 374.059C60.6648 373.947 60.2514 373.845 59.8024 373.753C59.3635 373.661 58.9553 373.539 58.5776 373.386C58.2 373.233 57.8836 373.028 57.6285 372.773C57.3733 372.508 57.2458 372.14 57.2458 371.671C57.2458 371.283 57.3274 370.951 57.4907 370.676C57.6642 370.4 57.8887 370.176 58.1643 370.002C58.4399 369.819 58.7613 369.686 59.1288 369.604C59.4962 369.512 59.8789 369.467 60.2769 369.467C60.9913 369.467 61.6037 369.558 62.114 369.742C62.6345 369.916 63.0478 370.099 63.354 370.293L62.8641 371.258C62.5273 371.074 62.1599 370.9 61.7619 370.737C61.3741 370.564 60.8842 370.477 60.2922 370.477C60.0677 370.477 59.8432 370.502 59.6186 370.553C59.4043 370.594 59.2053 370.661 59.0216 370.752C58.8481 370.844 58.7052 370.967 58.5929 371.12C58.4909 371.263 58.4399 371.441 58.4399 371.656C58.4399 371.921 58.5674 372.125 58.8226 372.268C59.0777 372.411 59.3941 372.533 59.7717 372.635C60.1494 372.727 60.5576 372.819 60.9964 372.911C61.4455 372.993 61.8589 373.115 62.2365 373.278C62.6141 373.442 62.9305 373.661 63.1856 373.937C63.4408 374.212 63.5683 374.585 63.5683 375.054C63.5683 375.758 63.2877 376.34 62.7264 376.799C62.1752 377.259 61.3435 377.488 60.231 377.488C59.8942 377.488 59.5625 377.458 59.2359 377.397C58.9093 377.335 58.6032 377.254 58.3174 377.152C58.0316 377.05 57.7714 376.937 57.5366 376.815C57.3019 376.682 57.108 376.549 56.9549 376.417L57.5673 375.422C57.6897 375.544 57.853 375.672 58.0571 375.804C58.2613 375.927 58.4858 376.039 58.7307 376.141C58.9757 376.243 59.2359 376.325 59.5115 376.386C59.7973 376.447 60.083 376.478 60.3688 376.478C60.6443 376.478 60.8995 376.458 61.1342 376.417C61.3792 376.366 61.5935 376.294 61.7772 376.202C61.9609 376.1 62.1038 375.973 62.2059 375.82C62.3181 375.656 62.3743 375.463 62.3743 375.238ZM70.4055 369.65H72.5793V374.871C72.5793 375.371 72.6099 375.85 72.6712 376.31H73.6969V377.305H71.6608L71.6149 376.003H71.5536C71.2883 376.442 70.9362 376.799 70.4973 377.075C70.0585 377.351 69.5277 377.488 68.9052 377.488C68.4357 377.488 68.0326 377.432 67.6958 377.32C67.3692 377.218 67.0987 377.034 66.8844 376.769C66.6701 376.504 66.5119 376.151 66.4098 375.713C66.3078 375.263 66.2567 374.707 66.2567 374.044V370.676H65.231V369.65H67.4508V373.799C67.4508 374.217 67.4661 374.595 67.4968 374.932C67.5376 375.258 67.6141 375.539 67.7264 375.774C67.8387 375.998 68.002 376.172 68.2163 376.294C68.4408 376.407 68.7368 376.463 69.1042 376.463C69.6349 376.463 70.0942 376.289 70.482 375.942C70.88 375.595 71.1811 375.161 71.3852 374.641V370.676H70.4055V369.65ZM78.0386 377.305V372.207C78.0386 371.992 78.0284 371.788 78.008 371.594C77.9978 371.39 77.9621 371.212 77.9008 371.059C77.8498 370.895 77.7682 370.768 77.6559 370.676C77.5538 370.584 77.4161 370.538 77.2426 370.538C76.8956 370.538 76.5996 370.681 76.3546 370.967C76.1199 371.253 75.9413 371.61 75.8188 372.038V377.305H74.6554V369.65H75.4514L75.681 370.584H75.7423C75.8443 370.431 75.9413 370.288 76.0332 370.155C76.1352 370.013 76.2475 369.89 76.3699 369.788C76.5026 369.686 76.6557 369.609 76.8292 369.558C77.0027 369.497 77.2221 369.467 77.4875 369.467C77.6406 369.467 77.7988 369.492 77.9621 369.543C78.1254 369.584 78.2734 369.655 78.406 369.757C78.5489 369.849 78.6714 369.977 78.7734 370.14C78.8755 370.303 78.9418 370.502 78.9725 370.737C79.2072 370.339 79.4675 370.028 79.7532 369.803C80.0492 369.579 80.4523 369.467 80.9626 369.467C81.2994 369.467 81.5699 369.523 81.774 369.635C81.9883 369.747 82.1516 369.91 82.2639 370.125C82.3864 370.329 82.468 370.579 82.5088 370.875C82.5599 371.161 82.5854 371.482 82.5854 371.839V377.305H81.4219V372.1C81.4219 371.885 81.4117 371.686 81.3913 371.503C81.3709 371.309 81.33 371.14 81.2688 370.997C81.2178 370.855 81.1412 370.742 81.0392 370.661C80.9473 370.579 80.8197 370.538 80.6564 370.538C80.2992 370.538 79.9982 370.681 79.7532 370.967C79.5083 371.253 79.3246 371.661 79.2021 372.192V377.305H78.0386ZM87.218 377.305V372.207C87.218 371.992 87.2078 371.788 87.1874 371.594C87.1772 371.39 87.1414 371.212 87.0802 371.059C87.0292 370.895 86.9475 370.768 86.8353 370.676C86.7332 370.584 86.5954 370.538 86.4219 370.538C86.0749 370.538 85.779 370.681 85.534 370.967C85.2993 371.253 85.1207 371.61 84.9982 372.038V377.305H83.8347V369.65H84.6308L84.8604 370.584H84.9217C85.0237 370.431 85.1207 370.288 85.2125 370.155C85.3146 370.013 85.4268 369.89 85.5493 369.788C85.682 369.686 85.8351 369.609 86.0086 369.558C86.1821 369.497 86.4015 369.467 86.6669 369.467C86.82 369.467 86.9782 369.492 87.1414 369.543C87.3047 369.584 87.4527 369.655 87.5854 369.757C87.7283 369.849 87.8508 369.977 87.9528 370.14C88.0549 370.303 88.1212 370.502 88.1518 370.737C88.3866 370.339 88.6468 370.028 88.9326 369.803C89.2286 369.579 89.6317 369.467 90.142 369.467C90.4788 369.467 90.7492 369.523 90.9534 369.635C91.1677 369.747 91.331 369.91 91.4433 370.125C91.5657 370.329 91.6474 370.579 91.6882 370.875C91.7392 371.161 91.7647 371.482 91.7647 371.839V377.305H90.6013V372.1C90.6013 371.885 90.5911 371.686 90.5706 371.503C90.5502 371.309 90.5094 371.14 90.4482 370.997C90.3971 370.855 90.3206 370.742 90.2185 370.661C90.1267 370.579 89.9991 370.538 89.8358 370.538C89.4786 370.538 89.1775 370.681 88.9326 370.967C88.6876 371.253 88.5039 371.661 88.3815 372.192V377.305H87.218ZM93.9939 377.305V376.279H96.6576V370.676H93.9939V369.65H97.8823V376.279H100.485V377.305H93.9939ZM96.2443 367.476C96.2443 367.201 96.3361 366.966 96.5198 366.772C96.7035 366.568 96.9383 366.466 97.224 366.466C97.52 366.466 97.765 366.568 97.9589 366.772C98.163 366.966 98.265 367.201 98.265 367.476C98.265 367.742 98.163 367.966 97.9589 368.15C97.765 368.334 97.52 368.426 97.224 368.426C96.9383 368.426 96.7035 368.334 96.5198 368.15C96.3361 367.966 96.2443 367.742 96.2443 367.476ZM102.04 369.65H103.862V368.135L105.056 367.798V369.65H109.144V370.676H105.056V374.289C105.056 375.034 105.235 375.585 105.592 375.942C105.959 376.299 106.48 376.478 107.154 376.478C107.613 376.478 108.011 376.391 108.348 376.218C108.695 376.044 109.006 375.855 109.281 375.651L109.68 376.555C109.322 376.84 108.894 377.07 108.394 377.243C107.904 377.417 107.398 377.504 106.878 377.504C106.47 377.504 106.082 377.442 105.715 377.32C105.357 377.208 105.041 377.029 104.765 376.784C104.49 376.539 104.27 376.228 104.107 375.85C103.944 375.463 103.862 375.003 103.862 374.473V370.676H102.04V369.65ZM114.312 376.463C114.312 376.136 114.404 375.886 114.588 375.713C114.771 375.529 115.016 375.437 115.323 375.437C115.649 375.437 115.904 375.529 116.088 375.713C116.272 375.886 116.364 376.136 116.364 376.463C116.364 376.759 116.272 377.004 116.088 377.198C115.904 377.391 115.649 377.488 115.323 377.488C115.016 377.488 114.771 377.391 114.588 377.198C114.404 377.004 114.312 376.759 114.312 376.463ZM121.348 372.329C121.348 372.237 121.343 372.12 121.333 371.977C121.333 371.824 121.328 371.671 121.318 371.518C121.307 371.355 121.292 371.196 121.272 371.043C121.262 370.89 121.246 370.758 121.226 370.645H120.2V369.65H122.251L122.389 370.89H122.466C122.568 370.717 122.701 370.548 122.864 370.385C123.037 370.212 123.236 370.058 123.461 369.926C123.685 369.783 123.935 369.671 124.211 369.589C124.487 369.507 124.777 369.467 125.084 369.467C125.553 369.467 125.966 369.518 126.324 369.62C126.691 369.722 126.992 369.905 127.227 370.171C127.472 370.426 127.656 370.778 127.778 371.227C127.9 371.666 127.962 372.227 127.962 372.911V377.305H126.768V373.141C126.768 372.294 126.63 371.656 126.354 371.227C126.079 370.798 125.579 370.584 124.854 370.584C124.589 370.584 124.328 370.64 124.073 370.752C123.828 370.855 123.604 370.992 123.4 371.166C123.196 371.339 123.017 371.543 122.864 371.778C122.711 372.003 122.598 372.243 122.527 372.498V377.305H121.348V372.329ZM137.202 376.34C137.019 376.504 136.799 376.657 136.544 376.799C136.299 376.942 136.029 377.065 135.733 377.167C135.437 377.269 135.125 377.346 134.799 377.397C134.482 377.458 134.161 377.488 133.834 377.488C133.222 377.488 132.681 377.397 132.212 377.213C131.742 377.019 131.349 376.748 131.033 376.401C130.716 376.044 130.477 375.621 130.313 375.131C130.15 374.641 130.068 374.09 130.068 373.477C130.068 372.834 130.155 372.263 130.329 371.763C130.512 371.263 130.773 370.844 131.109 370.508C131.446 370.171 131.854 369.916 132.334 369.742C132.814 369.558 133.35 369.467 133.942 369.467C134.37 369.467 134.794 369.523 135.212 369.635C135.631 369.747 135.998 369.962 136.314 370.278C136.641 370.584 136.891 371.013 137.065 371.564C137.238 372.105 137.299 372.809 137.248 373.676H131.324C131.324 374.595 131.569 375.284 132.059 375.743C132.559 376.192 133.222 376.417 134.049 376.417C134.324 376.417 134.595 376.386 134.86 376.325C135.136 376.253 135.396 376.172 135.641 376.08C135.886 375.988 136.1 375.886 136.284 375.774C136.478 375.662 136.626 375.559 136.728 375.468L137.202 376.34ZM133.972 370.477C133.635 370.477 133.314 370.513 133.008 370.584C132.712 370.656 132.446 370.778 132.212 370.951C131.987 371.115 131.798 371.334 131.645 371.61C131.502 371.875 131.41 372.207 131.37 372.605H136.131C136.08 371.931 135.86 371.411 135.472 371.043C135.095 370.666 134.595 370.477 133.972 370.477ZM142.156 373.386L139.202 369.65H140.733L142.937 372.528L145.203 369.65H146.581L143.626 373.324L146.764 377.305H145.295L142.861 374.166L140.381 377.305H138.987L142.156 373.386ZM147.937 369.65H149.759V368.135L150.953 367.798V369.65H155.041V370.676H150.953V374.289C150.953 375.034 151.132 375.585 151.489 375.942C151.856 376.299 152.377 376.478 153.05 376.478C153.51 376.478 153.908 376.391 154.244 376.218C154.591 376.044 154.903 375.855 155.178 375.651L155.576 376.555C155.219 376.84 154.791 377.07 154.29 377.243C153.801 377.417 153.295 377.504 152.775 377.504C152.367 377.504 151.979 377.442 151.611 377.32C151.254 377.208 150.938 377.029 150.662 376.784C150.387 376.539 150.167 376.228 150.004 375.85C149.841 375.463 149.759 375.003 149.759 374.473V370.676H147.937V369.65ZM157.989 377.305V376.279H159.811V370.676H157.989V369.65H159.811V369.222C159.811 368.262 160.061 367.568 160.561 367.14C161.061 366.711 161.776 366.497 162.704 366.497C163.041 366.497 163.342 366.517 163.608 366.558C163.873 366.599 164.159 366.68 164.465 366.803L164.189 367.798C163.924 367.686 163.669 367.614 163.424 367.584C163.179 367.543 162.954 367.522 162.75 367.522C162.077 367.522 161.617 367.691 161.372 368.027C161.128 368.354 161.005 368.895 161.005 369.65H164.174V370.676H161.005V376.279H164.174V377.305H157.989ZM167.643 366.588H170.184V374.733C170.184 375.355 170.286 375.794 170.491 376.049C170.705 376.305 171.016 376.432 171.424 376.432C171.71 376.432 171.981 376.381 172.236 376.279C172.501 376.177 172.792 376.003 173.108 375.758L173.66 376.6C173.496 376.743 173.318 376.871 173.124 376.983C172.93 377.095 172.731 377.192 172.527 377.274C172.323 377.346 172.118 377.402 171.914 377.442C171.71 377.483 171.521 377.504 171.348 377.504C170.97 377.504 170.633 377.453 170.338 377.351C170.042 377.259 169.791 377.106 169.587 376.891C169.393 376.677 169.245 376.396 169.143 376.049C169.041 375.692 168.99 375.253 168.99 374.733V367.614H167.643V366.588ZM175.873 373.477C175.873 372.243 176.195 371.268 176.838 370.553C177.481 369.829 178.399 369.467 179.593 369.467C180.236 369.467 180.788 369.574 181.247 369.788C181.716 369.992 182.104 370.273 182.41 370.63C182.716 370.987 182.941 371.411 183.084 371.901C183.237 372.391 183.313 372.916 183.313 373.477C183.313 374.09 183.232 374.646 183.069 375.146C182.905 375.636 182.665 376.054 182.349 376.401C182.033 376.748 181.64 377.019 181.17 377.213C180.711 377.397 180.185 377.488 179.593 377.488C178.961 377.488 178.41 377.386 177.94 377.182C177.471 376.968 177.083 376.682 176.777 376.325C176.47 375.968 176.241 375.544 176.088 375.054C175.945 374.564 175.873 374.039 175.873 373.477ZM177.144 373.477C177.144 373.835 177.185 374.192 177.266 374.549C177.358 374.906 177.501 375.228 177.695 375.514C177.889 375.799 178.139 376.029 178.445 376.202C178.762 376.376 179.144 376.463 179.593 376.463C180.41 376.463 181.022 376.213 181.431 375.713C181.849 375.202 182.058 374.457 182.058 373.477C182.058 373.11 182.012 372.753 181.92 372.406C181.839 372.049 181.696 371.727 181.492 371.441C181.298 371.156 181.043 370.926 180.726 370.752C180.42 370.579 180.042 370.492 179.593 370.492C178.777 370.492 178.165 370.742 177.756 371.242C177.348 371.742 177.144 372.487 177.144 373.477ZM189.37 371.334L190.901 375.59H191.008L192.095 369.65H193.212L191.712 377.305H190.35L188.88 373.079H188.834L187.303 377.305H185.941L184.333 369.65H185.512L186.752 375.621H186.844L188.329 371.334H189.37ZM196.926 376.463C196.926 376.136 197.018 375.886 197.202 375.713C197.386 375.529 197.631 375.437 197.937 375.437C198.263 375.437 198.519 375.529 198.702 375.713C198.886 375.886 198.978 376.136 198.978 376.463C198.978 376.759 198.886 377.004 198.702 377.198C198.519 377.391 198.263 377.488 197.937 377.488C197.631 377.488 197.386 377.391 197.202 377.198C197.018 377.004 196.926 376.759 196.926 376.463ZM204.146 377.305V376.279H206.81V370.676H204.146V369.65H208.035V376.279H210.637V377.305H204.146ZM206.397 367.476C206.397 367.201 206.489 366.966 206.672 366.772C206.856 366.568 207.091 366.466 207.376 366.466C207.672 366.466 207.917 366.568 208.111 366.772C208.315 366.966 208.417 367.201 208.417 367.476C208.417 367.742 208.315 367.966 208.111 368.15C207.917 368.334 207.672 368.426 207.376 368.426C207.091 368.426 206.856 368.334 206.672 368.15C206.489 367.966 206.397 367.742 206.397 367.476ZM212.591 373.477C212.591 372.243 212.912 371.268 213.555 370.553C214.198 369.829 215.117 369.467 216.311 369.467C216.954 369.467 217.505 369.574 217.964 369.788C218.434 369.992 218.822 370.273 219.128 370.63C219.434 370.987 219.658 371.411 219.801 371.901C219.954 372.391 220.031 372.916 220.031 373.477C220.031 374.09 219.949 374.646 219.786 375.146C219.623 375.636 219.383 376.054 219.067 376.401C218.75 376.748 218.357 377.019 217.888 377.213C217.428 377.397 216.903 377.488 216.311 377.488C215.678 377.488 215.127 377.386 214.658 377.182C214.188 376.968 213.8 376.682 213.494 376.325C213.188 375.968 212.958 375.544 212.805 375.054C212.662 374.564 212.591 374.039 212.591 373.477ZM213.861 373.477C213.861 373.835 213.902 374.192 213.984 374.549C214.076 374.906 214.219 375.228 214.413 375.514C214.607 375.799 214.857 376.029 215.163 376.202C215.479 376.376 215.862 376.463 216.311 376.463C217.127 376.463 217.74 376.213 218.148 375.713C218.566 375.202 218.776 374.457 218.776 373.477C218.776 373.11 218.73 372.753 218.638 372.406C218.556 372.049 218.413 371.727 218.209 371.441C218.015 371.156 217.76 370.926 217.444 370.752C217.138 370.579 216.76 370.492 216.311 370.492C215.494 370.492 214.882 370.742 214.474 371.242C214.066 371.742 213.861 372.487 213.861 373.477Z" fill="black"/>
<g clip-path="url(#clip0_325_255)">
<rect x="232.803" y="360.456" width="24.6981" height="24.6981" rx="3.29308" fill="white"/>
<path d="M240.212 372.806H250.093" stroke="#0DC09D" stroke-width="1.09769" stroke-linecap="round" stroke-linejoin="round"/>
<path d="M246.08 368.791L250.094 372.805L246.08 376.819" stroke="#0DC09D" stroke-width="1.09769" stroke-linecap="round" stroke-linejoin="round"/>
</g>
<defs>
<clipPath id="clip0_325_255">
<rect x="232.803" y="360.456" width="24.6981" height="24.6981" rx="3.29308" fill="white"/>
</clipPath>
</defs>
</svg>
