<svg width="207" height="125" viewBox="0 0 207 125" fill="none" xmlns="http://www.w3.org/2000/svg">
<path d="M96.7551 31.4618V16.1838H91.0801V32.4694C91.0801 34.1506 91.5656 35.4942 92.5403 36.5036C93.5133 37.5113 94.8273 38.016 96.4807 38.016H103.973V33.1412H98.2984C97.2677 33.1412 96.7551 32.5814 96.7551 31.4599V31.4618Z" fill="white"/>
<path d="M0.212891 38.0818V9.01074H5.75436V13.5864H6.6316C7.14423 12.4705 8.05758 11.4298 9.37526 10.4625C10.6929 9.49529 12.6496 9.01258 15.247 9.01258C17.2958 9.01258 19.1152 9.47877 20.7073 10.4075C22.2993 11.338 23.552 12.6485 24.4654 14.3408C25.3787 16.033 25.8372 18.0703 25.8372 20.4508V38.0818H20.1856V20.8968C20.1856 18.5163 19.6008 16.7598 18.4293 15.6237C17.2579 14.4894 15.6496 13.9223 13.6009 13.9223C11.2597 13.9223 9.38429 14.7042 7.97636 16.2661C6.56843 17.828 5.86446 20.0984 5.86446 23.0736V38.0836H0.212891V38.0818Z" fill="white"/>
<path d="M127.135 38.085V0.587646H132.786V38.085H127.135Z" fill="white"/>
<path d="M151.479 38.1004C148.771 38.1004 146.367 37.5333 144.262 36.399C142.158 35.2647 140.504 33.6367 139.297 31.5168C138.089 29.3969 137.486 26.8861 137.486 23.9843V23.1474C137.486 20.2456 138.089 17.7439 139.297 15.6424C140.504 13.5408 142.16 11.9128 144.262 10.7602C146.365 9.60757 148.771 9.03125 151.479 9.03125C154.187 9.03125 156.6 9.60757 158.723 10.7602C160.844 11.9128 162.51 13.5408 163.715 15.6424C164.923 17.7439 165.526 20.2456 165.526 23.1474V23.9843C165.526 26.8861 164.923 29.3969 163.715 31.5168C162.508 33.6367 160.844 35.2647 158.723 36.399C156.6 37.5333 154.187 38.1004 151.479 38.1004ZM151.479 32.9668C153.966 32.9668 155.988 32.1574 157.542 30.5404C159.096 28.9216 159.874 26.6824 159.874 23.8173V23.3144C159.874 20.4512 159.105 18.2083 157.569 16.5913C156.033 14.9725 154.002 14.1649 151.479 14.1649C148.956 14.1649 147.024 14.9743 145.47 16.5913C143.914 18.2101 143.138 20.4512 143.138 23.3144V23.8173C143.138 26.6824 143.914 28.9234 145.47 30.5404C147.024 32.1592 149.028 32.9668 151.479 32.9668Z" fill="white"/>
<path d="M172.219 33.2733L168.376 9.03309H174.028L177.43 34.2534H178.307L182.172 13.6051C182.668 10.9529 184.948 9.03309 187.605 9.03309C190.266 9.03309 192.547 10.9584 193.04 13.6161L196.856 34.2516H197.733L201.136 9.03125H206.787L202.944 33.2715C202.504 36.054 200.141 38.1004 197.368 38.1004C194.652 38.1004 192.322 36.1347 191.818 33.422L188.022 12.937H187.145L183.349 33.422C182.845 36.1366 180.515 38.1004 177.798 38.1004C175.026 38.1004 172.663 36.054 172.223 33.2715L172.219 33.2733Z" fill="white"/>
<path d="M110.132 2.14909C109.157 3.15673 108.672 4.50209 108.672 6.18149V38.09H114.345V13.9067H122.448V9.03371H118.531L115.336 12.2824H114.345V7.13406C114.345 6.01446 114.876 5.45466 115.943 5.45466H122.426V0.636719H114.125C112.434 0.636719 111.103 1.14146 110.132 2.14909Z" fill="white"/>
<path d="M87.1299 33.0372C84.6859 33.0372 82.3158 32.1507 80.7996 30.2014C79.6083 28.6707 72.2925 17.8436 70.8864 15.8284C68.9495 13.0514 67.0651 11.6106 64.9442 10.4029C63.0344 9.31451 59.8143 9.03369 58.2746 9.03369H57.2168V14.0756H58.7421C61.1861 14.0756 63.5019 15.0061 65.0723 16.9113L74.935 31.3376C77.0867 33.9457 78.8069 35.5003 80.926 36.708C82.8357 37.7964 86.0559 38.0772 87.5956 38.0772H88.6533V33.0353H87.1281L87.1299 33.0372Z" fill="white"/>
<path d="M68.2298 25.7602L65.062 30.1983C63.4916 32.1034 61.174 33.034 58.7317 33.034H44.4088C42.1308 33.034 40.2301 32.3145 38.7067 30.8774C38.6128 30.7874 38.5189 30.6975 38.4305 30.602C38.3402 30.5066 38.2536 30.4112 38.1688 30.3157C37.9648 30.0771 37.7771 29.8275 37.6038 29.5687C36.8619 28.4363 36.4377 27.0891 36.3312 25.529C36.3204 25.3803 36.315 25.2298 36.3096 25.0775H57.192V22.8933C57.192 20.0925 56.6415 17.6459 55.5386 15.5535C54.4376 13.4612 52.9015 11.8277 50.9376 10.6512C48.9701 9.47466 46.6831 8.8855 44.0784 8.8855C41.4738 8.8855 39.046 9.48201 37.0262 10.6787C36.0153 11.2752 35.1146 11.9892 34.3204 12.8224C34.2211 12.9252 34.1219 13.0317 34.0262 13.1381C33.7374 13.463 33.4666 13.8026 33.2085 14.155C32.8674 14.6285 32.5497 15.1332 32.2609 15.6655C31.1038 17.7946 30.5244 20.2962 30.5244 23.1723V23.8441C30.5244 26.7202 31.1038 29.2218 32.2609 31.3509C33.4179 33.48 35.0244 35.1318 37.0821 36.3083C39.1381 37.4848 41.546 38.074 44.3005 38.074H58.266C59.8057 38.074 63.0259 37.7913 64.9357 36.7048C67.0548 35.4971 68.3652 34.0343 70.5168 31.4261L71.3345 30.2368L68.2317 25.7602H68.2298ZM36.3637 20.6505C36.4197 20.2669 36.4901 19.8961 36.5839 19.5419C36.6742 19.1858 36.7843 18.8463 36.9142 18.5214C37.342 17.4403 37.9774 16.5245 38.815 15.7756C40.1543 14.5789 41.8889 13.9824 44.0225 13.9824C46.156 13.9824 47.8799 14.5789 49.2011 15.7756C50.5242 16.9723 51.2751 18.5966 51.4611 20.6505H40.111L37.2103 23.6H36.2536C36.2392 22.752 36.2536 21.6581 36.3637 20.6505Z" fill="white"/>
<path d="M96.7549 8.93691V0.538086H91.0798V8.93691H88.0907C86.551 8.93691 83.3308 9.21956 81.4211 10.3061C79.302 11.5138 77.5818 13.0684 75.4302 15.6765L69.6865 23.723L72.7623 28.1628L80.5709 16.8126C82.1413 14.9075 85.181 13.8099 87.6232 13.8099H104.61V8.93507H96.7567L96.7549 8.93691Z" fill="white"/>
<path d="M177.148 58.8317V53.1907H206.787V58.8317H195.305V90.3382H188.63V58.8317H177.148Z" fill="white"/>
<path d="M171.494 53.1907V90.3382H164.765V53.1907H171.494Z" fill="white"/>
<path d="M118.476 53.1907H126.71L137.739 80.1081H138.174L149.202 53.1907H157.437V90.3382H150.98V64.8174H150.635L140.369 90.2294H135.544L125.277 64.763H124.933V90.3382H118.476V53.1907Z" fill="white"/>
<path d="M72.1865 53.1907H80.4214L91.4496 80.1081H91.8849L102.913 53.1907H111.148V90.3382H104.691V64.8174H104.346L94.0796 90.2294H89.2548L78.9884 64.763H78.6438V90.3382H72.1865V53.1907Z" fill="white"/>
<path d="M58.1423 53.1907H64.8717V77.4599C64.8717 80.1202 64.2429 82.4601 62.9853 84.4795C61.7398 86.4989 59.9864 88.077 57.7251 89.2136C55.4639 90.3382 52.8217 90.9005 49.7986 90.9005C46.7635 90.9005 44.1153 90.3382 41.854 89.2136C39.5927 88.077 37.8394 86.4989 36.5938 84.4795C35.3483 82.4601 34.7256 80.1202 34.7256 77.4599V53.1907H41.455V76.8976C41.455 78.4454 41.7935 79.824 42.4707 81.0332C43.16 82.2424 44.1274 83.1917 45.3729 83.8809C46.6184 84.5581 48.0936 84.8967 49.7986 84.8967C51.5037 84.8967 52.9789 84.5581 54.2244 83.8809C55.482 83.1917 56.4494 82.2424 57.1266 81.0332C57.8037 79.824 58.1423 78.4454 58.1423 76.8976V53.1907Z" fill="white"/>
<path d="M21.7432 63.4027C21.5739 61.8186 20.8605 60.5852 19.6029 59.7024C18.3574 58.8197 16.737 58.3783 14.7418 58.3783C13.3391 58.3783 12.1359 58.59 11.1322 59.0132C10.1286 59.4364 9.36072 60.0108 8.82866 60.7363C8.29659 61.4619 8.02452 62.2902 8.01243 63.2213C8.01243 63.9952 8.18776 64.6663 8.53844 65.2347C8.90121 65.803 9.39095 66.2867 10.0077 66.6857C10.6244 67.0727 11.3076 67.3992 12.0573 67.6652C12.807 67.9313 13.5628 68.155 14.3246 68.3363L17.8072 69.207C19.2099 69.5335 20.5582 69.9748 21.8521 70.5311C23.158 71.0873 24.3249 71.7887 25.3528 72.6352C26.3927 73.4816 27.215 74.5034 27.8196 75.7006C28.4242 76.8977 28.7265 78.3004 28.7265 79.9087C28.7265 82.0853 28.1703 84.0019 27.0578 85.6586C25.9453 87.3031 24.337 88.5909 22.233 89.5221C20.141 90.4411 17.6077 90.9006 14.633 90.9006C11.7429 90.9006 9.23375 90.4532 7.1055 89.5583C4.98935 88.6635 3.3327 87.3575 2.13557 85.6404C0.950521 83.9233 0.309629 81.8314 0.212891 79.3645H6.83343C6.93016 80.6584 7.32921 81.7346 8.03056 82.5932C8.73192 83.4517 9.64489 84.0926 10.7695 84.5158C11.9061 84.9391 13.1758 85.1507 14.5785 85.1507C16.0417 85.1507 17.3235 84.933 18.4239 84.4977C19.5364 84.0503 20.407 83.4336 21.0358 82.6476C21.6646 81.8495 21.9851 80.9184 21.9972 79.8543C21.9851 78.8869 21.7009 78.0888 21.1447 77.46C20.5884 76.8191 19.8085 76.287 18.8048 75.8638C17.8132 75.4285 16.6524 75.0415 15.3222 74.7029L11.096 73.6146C8.03661 72.8286 5.61815 71.6375 3.84058 70.0414C2.07511 68.4331 1.19237 66.2988 1.19237 63.6385C1.19237 61.4498 1.78489 59.5331 2.96994 57.8886C4.16707 56.244 5.79349 54.9683 7.84918 54.0614C9.90487 53.1424 12.2326 52.6829 14.8325 52.6829C17.4686 52.6829 19.7782 53.1424 21.7614 54.0614C23.7566 54.9683 25.3226 56.232 26.4592 57.8523C27.5959 59.4606 28.1824 61.3107 28.2187 63.4027H21.7432Z" fill="white"/>
<path d="M195.337 120.139H185.795V117.322L194.216 106.746H199.274V116.948H201.458V120.139H199.274V123.99H195.337V120.139ZM195.107 109.821L189.474 117.063L189.617 117.265C191.428 117.035 193.296 116.948 194.733 116.948H195.337V109.907L195.107 109.821Z" fill="#3D95FD"/>
<path d="M178.068 109.763C175.884 109.763 174.821 111.056 174.533 113.528L170.682 113.068C171.113 108.987 173.211 106.372 178.097 106.372C182.466 106.372 184.909 108.182 184.909 112.091C184.909 115.453 182.092 117.12 177.925 117.954C174.821 118.672 173.844 119.247 173.671 120.799C175.252 120.627 177.292 120.483 178.615 120.483H184.966V123.989H170.194C170.136 123.3 170.107 122.639 170.107 121.891C170.107 117.954 171.861 116.344 175.913 115.31C180.109 114.218 180.856 113.47 180.856 111.947C180.856 110.654 180.023 109.763 178.068 109.763Z" fill="#3D95FD"/>
<path d="M161.058 106.343C165.8 106.343 168.818 109.446 168.818 115.309C168.818 121.201 165.915 124.391 161.058 124.391C156.201 124.391 153.327 121.201 153.327 115.309C153.327 109.446 156.374 106.343 161.058 106.343ZM161.058 109.935C158.558 109.935 157.437 111.861 157.437 115.309C157.437 118.758 158.558 120.856 161.03 120.856C163.559 120.856 164.68 118.758 164.68 115.309C164.68 111.861 163.559 109.935 161.058 109.935Z" fill="#3D95FD"/>
<path d="M144.529 109.763C142.345 109.763 141.282 111.056 140.994 113.528L137.143 113.068C137.574 108.987 139.672 106.372 144.558 106.372C148.927 106.372 151.37 108.182 151.37 112.091C151.37 115.453 148.553 117.12 144.386 117.954C141.282 118.672 140.305 119.247 140.132 120.799C141.713 120.627 143.753 120.483 145.075 120.483H151.427V123.989H136.655C136.597 123.3 136.568 122.639 136.568 121.891C136.568 117.954 138.322 116.344 142.374 115.31C146.57 114.218 147.317 113.47 147.317 111.947C147.317 110.654 146.484 109.763 144.529 109.763Z" fill="#3D95FD"/>
<path d="M120.745 124.277C118.446 124.277 116.75 123.099 116.75 120.426C116.75 117.983 118.187 116.287 121.78 116.287H125.343V115.339C125.343 113.931 124.74 113.126 123.245 113.126C121.952 113.126 121.205 113.758 120.946 115.08L117.267 114.247C117.727 111.804 119.624 110.022 123.389 110.022C127.528 110.022 129.223 111.919 129.223 115.339V123.99H125.545V120.742H125.2C124.51 122.898 123.073 124.277 120.745 124.277ZM125.343 118.213H122.527C121.262 118.213 120.457 118.788 120.457 119.736C120.457 120.598 120.946 121.288 122.441 121.288C124.222 121.288 125.343 120.225 125.343 118.759V118.213Z" fill="#3D95FD"/>
<path d="M106.052 114.017H106.339C107.115 111.372 108.782 109.993 110.909 109.993C113.524 109.993 114.846 111.804 114.846 114.764V123.989H110.938V115.856C110.938 114.476 110.305 113.528 108.868 113.528C107.202 113.528 106.138 114.706 106.138 116.402V123.989H102.229V110.367H106.052V114.017Z" fill="#3D95FD"/>
<path d="M93.1449 124.392C88.7189 124.392 86.1035 121.661 86.1035 117.178C86.1035 112.637 88.8051 109.993 93.1449 109.993C97.3984 109.993 100.129 112.637 100.129 117.178C100.129 121.661 97.4846 124.392 93.1449 124.392ZM93.1161 113.269C90.9606 113.269 90.0122 114.678 90.0122 117.149C90.0122 119.621 90.9031 121.058 93.1161 121.058C95.3004 121.058 96.2201 119.621 96.2201 117.149C96.2201 114.678 95.2716 113.269 93.1161 113.269Z" fill="#3D95FD"/>
<path d="M83.9389 105.538V123.989H80.0303V105.538H83.9389Z" fill="#3D95FD"/>
<path d="M71.5875 124.363C67.4777 124.363 64.6611 122.093 64.6611 117.465C64.6611 112.752 67.219 109.993 71.645 109.993C75.8411 109.993 77.8242 112.465 77.8242 116.23C77.8242 116.804 77.7954 117.35 77.7379 118.069H68.5411C68.7422 120.253 69.7194 121.23 71.6163 121.23C73.4556 121.23 74.0304 120.368 74.3753 119.333L77.6517 120.224C77.0482 122.581 75.4675 124.363 71.5875 124.363ZM68.5411 116.086H74.2316C74.2029 113.959 73.3119 112.924 71.53 112.924C69.7481 112.924 68.771 113.844 68.5411 116.086Z" fill="#3D95FD"/>
<path d="M59.4981 115.913C59.1532 114.448 58.5209 113.413 56.7965 113.413C54.9859 113.413 53.865 114.563 53.865 117.149C53.865 119.563 54.8422 120.972 56.854 120.972C58.6071 120.972 59.2682 119.793 59.5556 118.385L63.1481 119.247C62.6883 122.409 60.7627 124.392 56.8827 124.392C52.5717 124.392 49.8701 122.006 49.8701 117.35C49.8701 112.723 52.5142 109.993 56.854 109.993C60.9064 109.993 62.602 111.919 63.1194 115.224L59.4981 115.913Z" fill="#3D95FD"/>
<path d="M44.2182 114.792L44.5344 114.821C45.3966 111.027 46.5462 110.222 48.3281 110.222H48.7305V114.706H47.9257C45.1954 114.706 44.4194 115.511 44.4194 117.925V123.989H40.5107V110.366H44.2182V114.792Z" fill="#3D95FD"/>
<path d="M29.3045 124.277C27.0052 124.277 25.3096 123.099 25.3096 120.426C25.3096 117.983 26.7466 116.287 30.3391 116.287H33.9029V115.339C33.9029 113.931 33.2994 113.126 31.8049 113.126C30.5116 113.126 29.7643 113.758 29.5056 115.08L25.8269 114.247C26.2867 111.804 28.1836 110.022 31.9486 110.022C36.0872 110.022 37.7828 111.919 37.7828 115.339V123.99H34.1041V120.742H33.7592C33.0694 122.898 31.6324 124.277 29.3045 124.277ZM33.9029 118.213H31.0864C29.8218 118.213 29.0171 118.788 29.0171 119.736C29.0171 120.598 29.5056 121.288 31.0001 121.288C32.782 121.288 33.9029 120.225 33.9029 118.759V118.213Z" fill="#3D95FD"/>
<path d="M9.5 106.746H17.0299C21.4559 106.746 23.3815 108.154 23.3815 111.143C23.3815 113.413 22.0882 114.678 19.7603 115.195V115.454C22.9217 115.77 24.1 116.833 24.1 119.276C24.1 122.093 22.2894 123.99 17.7484 123.99H9.5V106.746ZM13.6386 120.943H17.6047C19.2429 120.943 19.9902 120.139 19.9902 118.903C19.9902 117.581 19.4154 116.891 17.4898 116.891H13.6386V120.943ZM13.6386 114.074H16.9437C18.5532 114.074 19.4441 113.5 19.4441 111.919C19.4441 110.539 18.7831 109.907 17.0587 109.907H13.6386V114.074Z" fill="#3D95FD"/>
</svg>
