<svg width="207" height="125" viewBox="0 0 207 125" fill="none" xmlns="http://www.w3.org/2000/svg">
	<path d="M96.7551 31.4618V16.1838H91.0801V32.4694C91.0801 34.1506 91.5656 35.4942 92.5403 36.5036C93.5133 37.5113 94.8273 38.016 96.4807 38.016H103.973V33.1412H98.2984C97.2677 33.1412 96.7551 32.5814 96.7551 31.4599V31.4618Z" fill="white" />
	<path d="M0.212891 38.0818V9.01074H5.75436V13.5864H6.6316C7.14423 12.4705 8.05758 11.4298 9.37526 10.4625C10.6929 9.49529 12.6496 9.01258 15.247 9.01258C17.2958 9.01258 19.1152 9.47877 20.7073 10.4075C22.2993 11.338 23.552 12.6485 24.4654 14.3408C25.3787 16.033 25.8372 18.0703 25.8372 20.4508V38.0818H20.1856V20.8968C20.1856 18.5163 19.6008 16.7598 18.4293 15.6237C17.2579 14.4894 15.6496 13.9223 13.6009 13.9223C11.2597 13.9223 9.38429 14.7042 7.97636 16.2661C6.56843 17.828 5.86446 20.0984 5.86446 23.0736V38.0836H0.212891V38.0818Z" fill="white" />
	<path d="M127.135 38.085V0.587646H132.786V38.085H127.135Z" fill="white" />
	<path d="M151.479 38.1004C148.771 38.1004 146.367 37.5333 144.262 36.399C142.158 35.2647 140.504 33.6367 139.297 31.5168C138.089 29.3969 137.486 26.8861 137.486 23.9843V23.1474C137.486 20.2456 138.089 17.7439 139.297 15.6424C140.504 13.5408 142.16 11.9128 144.262 10.7602C146.365 9.60757 148.771 9.03125 151.479 9.03125C154.187 9.03125 156.6 9.60757 158.723 10.7602C160.844 11.9128 162.51 13.5408 163.715 15.6424C164.923 17.7439 165.526 20.2456 165.526 23.1474V23.9843C165.526 26.8861 164.923 29.3969 163.715 31.5168C162.508 33.6367 160.844 35.2647 158.723 36.399C156.6 37.5333 154.187 38.1004 151.479 38.1004ZM151.479 32.9668C153.966 32.9668 155.988 32.1574 157.542 30.5404C159.096 28.9216 159.874 26.6824 159.874 23.8173V23.3144C159.874 20.4512 159.105 18.2083 157.569 16.5913C156.033 14.9725 154.002 14.1649 151.479 14.1649C148.956 14.1649 147.024 14.9743 145.47 16.5913C143.914 18.2101 143.138 20.4512 143.138 23.3144V23.8173C143.138 26.6824 143.914 28.9234 145.47 30.5404C147.024 32.1592 149.028 32.9668 151.479 32.9668Z" fill="white" />
	<path d="M172.219 33.2733L168.376 9.03309H174.028L177.43 34.2534H178.307L182.172 13.6051C182.668 10.9529 184.948 9.03309 187.605 9.03309C190.266 9.03309 192.547 10.9584 193.04 13.6161L196.856 34.2516H197.733L201.136 9.03125H206.787L202.944 33.2715C202.504 36.054 200.141 38.1004 197.368 38.1004C194.652 38.1004 192.322 36.1347 191.818 33.422L188.022 12.937H187.145L183.349 33.422C182.845 36.1366 180.515 38.1004 177.798 38.1004C175.026 38.1004 172.663 36.054 172.223 33.2715L172.219 33.2733Z" fill="white" />
	<path d="M110.132 2.14909C109.157 3.15673 108.672 4.50209 108.672 6.18149V38.09H114.345V13.9067H122.448V9.03371H118.531L115.336 12.2824H114.345V7.13406C114.345 6.01446 114.876 5.45466 115.943 5.45466H122.426V0.636719H114.125C112.434 0.636719 111.103 1.14146 110.132 2.14909Z" fill="white" />
	<path d="M87.1299 33.0372C84.6859 33.0372 82.3158 32.1507 80.7996 30.2014C79.6083 28.6707 72.2925 17.8436 70.8864 15.8284C68.9495 13.0514 67.0651 11.6106 64.9442 10.4029C63.0344 9.31451 59.8143 9.03369 58.2746 9.03369H57.2168V14.0756H58.7421C61.1861 14.0756 63.5019 15.0061 65.0723 16.9113L74.935 31.3376C77.0867 33.9457 78.8069 35.5003 80.926 36.708C82.8357 37.7964 86.0559 38.0772 87.5956 38.0772H88.6533V33.0353H87.1281L87.1299 33.0372Z" fill="white" />
	<path d="M68.2298 25.7602L65.062 30.1983C63.4916 32.1034 61.174 33.034 58.7317 33.034H44.4088C42.1308 33.034 40.2301 32.3145 38.7067 30.8774C38.6128 30.7874 38.5189 30.6975 38.4305 30.602C38.3402 30.5066 38.2536 30.4112 38.1688 30.3157C37.9648 30.0771 37.7771 29.8275 37.6038 29.5687C36.8619 28.4363 36.4377 27.0891 36.3312 25.529C36.3204 25.3803 36.315 25.2298 36.3096 25.0775H57.192V22.8933C57.192 20.0925 56.6415 17.6459 55.5386 15.5535C54.4376 13.4612 52.9015 11.8277 50.9376 10.6512C48.9701 9.47466 46.6831 8.8855 44.0784 8.8855C41.4738 8.8855 39.046 9.48201 37.0262 10.6787C36.0153 11.2752 35.1146 11.9892 34.3204 12.8224C34.2211 12.9252 34.1219 13.0317 34.0262 13.1381C33.7374 13.463 33.4666 13.8026 33.2085 14.155C32.8674 14.6285 32.5497 15.1332 32.2609 15.6655C31.1038 17.7946 30.5244 20.2962 30.5244 23.1723V23.8441C30.5244 26.7202 31.1038 29.2218 32.2609 31.3509C33.4179 33.48 35.0244 35.1318 37.0821 36.3083C39.1381 37.4848 41.546 38.074 44.3005 38.074H58.266C59.8057 38.074 63.0259 37.7913 64.9357 36.7048C67.0548 35.4971 68.3652 34.0343 70.5168 31.4261L71.3345 30.2368L68.2317 25.7602H68.2298ZM36.3637 20.6505C36.4197 20.2669 36.4901 19.8961 36.5839 19.5419C36.6742 19.1858 36.7843 18.8463 36.9142 18.5214C37.342 17.4403 37.9774 16.5245 38.815 15.7756C40.1543 14.5789 41.8889 13.9824 44.0225 13.9824C46.156 13.9824 47.8799 14.5789 49.2011 15.7756C50.5242 16.9723 51.2751 18.5966 51.4611 20.6505H40.111L37.2103 23.6H36.2536C36.2392 22.752 36.2536 21.6581 36.3637 20.6505Z" fill="white" />
	<path d="M96.7549 8.93691V0.538086H91.0798V8.93691H88.0907C86.551 8.93691 83.3308 9.21956 81.4211 10.3061C79.302 11.5138 77.5818 13.0684 75.4302 15.6765L69.6865 23.723L72.7623 28.1628L80.5709 16.8126C82.1413 14.9075 85.181 13.8099 87.6232 13.8099H104.61V8.93507H96.7567L96.7549 8.93691Z" fill="white" />
	<path d="M177.148 58.8317V53.1907H206.787V58.8317H195.305V90.3382H188.63V58.8317H177.148Z" fill="white" />
	<path d="M171.494 53.1907V90.3382H164.765V53.1907H171.494Z" fill="white" />
	<path d="M118.476 53.1907H126.71L137.739 80.1081H138.174L149.202 53.1907H157.437V90.3382H150.98V64.8174H150.635L140.369 90.2294H135.544L125.277 64.763H124.933V90.3382H118.476V53.1907Z" fill="white" />
	<path d="M72.1865 53.1907H80.4214L91.4496 80.1081H91.8849L102.913 53.1907H111.148V90.3382H104.691V64.8174H104.346L94.0796 90.2294H89.2548L78.9884 64.763H78.6438V90.3382H72.1865V53.1907Z" fill="white" />
	<path d="M58.1423 53.1907H64.8717V77.4599C64.8717 80.1202 64.2429 82.4601 62.9853 84.4795C61.7398 86.4989 59.9864 88.077 57.7251 89.2136C55.4639 90.3382 52.8217 90.9005 49.7986 90.9005C46.7635 90.9005 44.1153 90.3382 41.854 89.2136C39.5927 88.077 37.8394 86.4989 36.5938 84.4795C35.3483 82.4601 34.7256 80.1202 34.7256 77.4599V53.1907H41.455V76.8976C41.455 78.4454 41.7935 79.824 42.4707 81.0332C43.16 82.2424 44.1274 83.1917 45.3729 83.8809C46.6184 84.5581 48.0936 84.8967 49.7986 84.8967C51.5037 84.8967 52.9789 84.5581 54.2244 83.8809C55.482 83.1917 56.4494 82.2424 57.1266 81.0332C57.8037 79.824 58.1423 78.4454 58.1423 76.8976V53.1907Z" fill="white" />
	<path d="M21.7432 63.4027C21.5739 61.8186 20.8605 60.5852 19.6029 59.7024C18.3574 58.8197 16.737 58.3783 14.7418 58.3783C13.3391 58.3783 12.1359 58.59 11.1322 59.0132C10.1286 59.4364 9.36072 60.0108 8.82866 60.7363C8.29659 61.4619 8.02452 62.2902 8.01243 63.2213C8.01243 63.9952 8.18776 64.6663 8.53844 65.2347C8.90121 65.803 9.39095 66.2867 10.0077 66.6857C10.6244 67.0727 11.3076 67.3992 12.0573 67.6652C12.807 67.9313 13.5628 68.155 14.3246 68.3363L17.8072 69.207C19.2099 69.5335 20.5582 69.9748 21.8521 70.5311C23.158 71.0873 24.3249 71.7887 25.3528 72.6352C26.3927 73.4816 27.215 74.5034 27.8196 75.7006C28.4242 76.8977 28.7265 78.3004 28.7265 79.9087C28.7265 82.0853 28.1703 84.0019 27.0578 85.6586C25.9453 87.3031 24.337 88.5909 22.233 89.5221C20.141 90.4411 17.6077 90.9006 14.633 90.9006C11.7429 90.9006 9.23375 90.4532 7.1055 89.5583C4.98935 88.6635 3.3327 87.3575 2.13557 85.6404C0.950521 83.9233 0.309629 81.8314 0.212891 79.3645H6.83343C6.93016 80.6584 7.32921 81.7346 8.03056 82.5932C8.73192 83.4517 9.64489 84.0926 10.7695 84.5158C11.9061 84.9391 13.1758 85.1507 14.5785 85.1507C16.0417 85.1507 17.3235 84.933 18.4239 84.4977C19.5364 84.0503 20.407 83.4336 21.0358 82.6476C21.6646 81.8495 21.9851 80.9184 21.9972 79.8543C21.9851 78.8869 21.7009 78.0888 21.1447 77.46C20.5884 76.8191 19.8085 76.287 18.8048 75.8638C17.8132 75.4285 16.6524 75.0415 15.3222 74.7029L11.096 73.6146C8.03661 72.8286 5.61815 71.6375 3.84058 70.0414C2.07511 68.4331 1.19237 66.2988 1.19237 63.6385C1.19237 61.4498 1.78489 59.5331 2.96994 57.8886C4.16707 56.244 5.79349 54.9683 7.84918 54.0614C9.90487 53.1424 12.2326 52.6829 14.8325 52.6829C17.4686 52.6829 19.7782 53.1424 21.7614 54.0614C23.7566 54.9683 25.3226 56.232 26.4592 57.8523C27.5959 59.4606 28.1824 61.3107 28.2187 63.4027H21.7432Z" fill="white" />
	<path d="M176.821 120.208H167.108V117.341L175.68 106.575H180.829V116.961H183.053V120.208H180.829V124.128H176.821V120.208ZM176.587 109.705L170.853 117.078L170.999 117.282C172.842 117.048 174.744 116.961 176.207 116.961H176.821V109.793L176.587 109.705Z" fill="#FA6863" />
	<path d="M159.243 109.647C157.02 109.647 155.938 110.963 155.645 113.479L151.725 113.011C152.164 108.857 154.299 106.195 159.273 106.195C163.719 106.195 166.206 108.038 166.206 112.017C166.206 115.44 163.339 117.136 159.097 117.985C155.938 118.716 154.943 119.301 154.767 120.881C156.376 120.705 158.454 120.559 159.799 120.559H166.265V124.128H151.227C151.169 123.426 151.14 122.753 151.14 121.993C151.14 117.985 152.924 116.346 157.049 115.293C161.321 114.182 162.081 113.421 162.081 111.87C162.081 110.554 161.233 109.647 159.243 109.647Z" fill="#FA6863" />
	<path d="M141.928 106.165C146.755 106.165 149.827 109.325 149.827 115.293C149.827 121.29 146.872 124.538 141.928 124.538C136.984 124.538 134.059 121.29 134.059 115.293C134.059 109.325 137.16 106.165 141.928 106.165ZM141.928 109.822C139.383 109.822 138.242 111.782 138.242 115.293C138.242 118.804 139.383 120.939 141.899 120.939C144.473 120.939 145.614 118.804 145.614 115.293C145.614 111.782 144.474 109.822 141.928 109.822Z" fill="#FA6863" />
	<path d="M125.103 109.647C122.879 109.647 121.797 110.963 121.504 113.479L117.584 113.011C118.023 108.857 120.159 106.195 125.132 106.195C129.579 106.195 132.066 108.038 132.066 112.017C132.066 115.44 129.199 117.136 124.956 117.985C121.797 118.716 120.802 119.301 120.627 120.881C122.236 120.705 124.313 120.559 125.659 120.559H132.124V124.128H117.087C117.028 123.426 116.999 122.753 116.999 121.993C116.999 117.985 118.784 116.346 122.909 115.293C127.18 114.182 127.941 113.421 127.941 111.87C127.941 110.554 127.092 109.647 125.103 109.647Z" fill="#FA6863" />
	<path d="M100.65 113.976H100.942C101.732 111.285 103.429 109.881 105.594 109.881C108.256 109.881 109.602 111.724 109.602 114.737V124.128H105.623V115.849C105.623 114.444 104.98 113.479 103.517 113.479C101.82 113.479 100.738 114.678 100.738 116.405V124.128H96.7588V110.261H100.65V113.976Z" fill="#FA6863" />
	<path d="M87.5104 124.538C83.005 124.538 80.3428 121.758 80.3428 117.194C80.3428 112.572 83.0928 109.881 87.5104 109.881C91.8402 109.881 94.6194 112.572 94.6194 117.194C94.6194 121.758 91.9279 124.538 87.5104 124.538ZM87.4811 113.216C85.2869 113.216 84.3215 114.649 84.3215 117.165C84.3215 119.681 85.2284 121.144 87.4811 121.144C89.7045 121.144 90.6407 119.681 90.6407 117.165C90.6407 114.649 89.6752 113.216 87.4811 113.216Z" fill="#FA6863" />
	<path d="M69.623 110.262H71.3198V106.692H75.2986V110.262H78.9555V113.421H75.2986V119.126C75.2986 120.238 75.7081 120.793 76.9076 120.793C77.522 120.793 78.1949 120.618 78.7215 120.442L79.1603 124.012C78.1071 124.333 77.405 124.538 75.8837 124.538C72.6656 124.538 71.3198 122.403 71.3198 119.77V113.421H69.623V110.262Z" fill="#FA6863" />
	<path d="M62.5503 124.538C57.8695 124.538 56.436 122.665 56.0557 120.149L59.6248 119.418C59.9759 120.939 60.912 121.729 62.6381 121.729C63.9838 121.729 64.6567 121.29 64.686 120.383C64.686 119.535 64.1301 119.067 61.5849 118.569C57.7817 117.75 56.4945 116.492 56.4945 114.123C56.4945 111.46 58.3961 109.881 62.3163 109.881C66.3535 109.881 67.67 111.46 68.1674 113.889L64.6275 114.62C64.3057 113.186 63.662 112.631 62.2285 112.631C60.912 112.631 60.2684 113.069 60.2684 113.889C60.2684 114.649 60.6487 115.205 63.1354 115.702C67.4652 116.609 68.5184 118.043 68.5184 120.208C68.5184 122.899 66.7338 124.538 62.5503 124.538Z" fill="#FA6863" />
	<path d="M47.6275 124.538C43.1222 124.538 40.46 121.758 40.46 117.194C40.46 112.572 43.21 109.881 47.6275 109.881C51.9573 109.881 54.7366 112.572 54.7366 117.194C54.7366 121.758 52.0451 124.538 47.6275 124.538ZM47.5983 113.216C45.4041 113.216 44.4387 114.649 44.4387 117.165C44.4387 119.681 45.3456 121.144 47.5983 121.144C49.8217 121.144 50.7579 119.681 50.7579 117.165C50.7579 114.649 49.7924 113.216 47.5983 113.216Z" fill="#FA6863" />
	<path d="M24.2793 106.575H31.9442C36.4495 106.575 38.4096 108.009 38.4096 111.051C38.4096 113.362 37.0932 114.65 34.7235 115.176V115.44C37.9416 115.761 39.141 116.844 39.141 119.331C39.141 122.198 37.2979 124.128 32.6756 124.128H24.2793V106.575ZM28.4921 121.027H32.5293C34.1968 121.027 34.9575 120.208 34.9575 118.95C34.9575 117.604 34.3724 116.902 32.4123 116.902H28.4921V121.027ZM28.4921 114.035H31.8564C33.4947 114.035 34.4016 113.45 34.4016 111.841C34.4016 110.437 33.7288 109.793 31.9734 109.793H28.4921V114.035Z" fill="#FA6863" />
</svg>
