<svg width="207" height="125" viewBox="0 0 207 125" fill="none" xmlns="http://www.w3.org/2000/svg">
<path d="M96.5422 31.4618V16.1838H90.8672V32.4694C90.8672 34.1506 91.3527 35.4942 92.3274 36.5036C93.3004 37.5113 94.6144 38.016 96.2678 38.016H103.76V33.1412H98.0855C97.0548 33.1412 96.5422 32.5814 96.5422 31.4599V31.4618Z" fill="white"/>
<path d="M0 38.0818V9.01074H5.54147V13.5864H6.41871C6.93134 12.4705 7.84469 11.4298 9.16237 10.4625C10.48 9.49529 12.4367 9.01258 15.0341 9.01258C17.0829 9.01258 18.9023 9.47877 20.4944 10.4075C22.0864 11.338 23.3391 12.6485 24.2525 14.3408C25.1658 16.033 25.6243 18.0703 25.6243 20.4508V38.0818H19.9727V20.8968C19.9727 18.5163 19.3879 16.7598 18.2164 15.6237C17.045 14.4894 15.4367 13.9223 13.388 13.9223C11.0468 13.9223 9.1714 14.7042 7.76347 16.2661C6.35554 17.828 5.65157 20.0984 5.65157 23.0736V38.0836H0V38.0818Z" fill="white"/>
<path d="M126.922 38.085V0.587646H132.573V38.085H126.922Z" fill="white"/>
<path d="M151.266 38.1004C148.558 38.1004 146.154 37.5333 144.049 36.399C141.945 35.2647 140.291 33.6367 139.084 31.5168C137.876 29.3969 137.273 26.8861 137.273 23.9843V23.1474C137.273 20.2456 137.876 17.7439 139.084 15.6424C140.291 13.5408 141.947 11.9128 144.049 10.7602C146.152 9.60757 148.558 9.03125 151.266 9.03125C153.974 9.03125 156.387 9.60757 158.51 10.7602C160.631 11.9128 162.297 13.5408 163.502 15.6424C164.71 17.7439 165.313 20.2456 165.313 23.1474V23.9843C165.313 26.8861 164.71 29.3969 163.502 31.5168C162.295 33.6367 160.631 35.2647 158.51 36.399C156.387 37.5333 153.974 38.1004 151.266 38.1004ZM151.266 32.9668C153.753 32.9668 155.775 32.1574 157.329 30.5404C158.883 28.9216 159.661 26.6824 159.661 23.8173V23.3144C159.661 20.4512 158.892 18.2083 157.356 16.5913C155.82 14.9725 153.789 14.1649 151.266 14.1649C148.743 14.1649 146.811 14.9743 145.257 16.5913C143.701 18.2101 142.925 20.4512 142.925 23.3144V23.8173C142.925 26.6824 143.701 28.9234 145.257 30.5404C146.811 32.1592 148.815 32.9668 151.266 32.9668Z" fill="white"/>
<path d="M172.006 33.2733L168.163 9.03309H173.815L177.217 34.2534H178.094L181.959 13.6051C182.455 10.9529 184.735 9.03309 187.392 9.03309C190.053 9.03309 192.334 10.9584 192.827 13.6161L196.643 34.2516H197.52L200.923 9.03125H206.574L202.731 33.2715C202.291 36.054 199.928 38.1004 197.155 38.1004C194.439 38.1004 192.109 36.1347 191.605 33.422L187.809 12.937H186.932L183.136 33.422C182.632 36.1366 180.302 38.1004 177.585 38.1004C174.813 38.1004 172.45 36.054 172.01 33.2715L172.006 33.2733Z" fill="white"/>
<path d="M109.919 2.14909C108.944 3.15673 108.459 4.50209 108.459 6.18149V38.09H114.132V13.9067H122.235V9.03371H118.318L115.123 12.2824H114.132V7.13406C114.132 6.01446 114.663 5.45466 115.73 5.45466H122.213V0.636719H113.912C112.221 0.636719 110.89 1.14146 109.919 2.14909Z" fill="white"/>
<path d="M86.917 33.0372C84.473 33.0372 82.1029 32.1507 80.5867 30.2014C79.3954 28.6707 72.0796 17.8436 70.6735 15.8284C68.7366 13.0514 66.8522 11.6106 64.7313 10.4029C62.8215 9.31451 59.6014 9.03369 58.0617 9.03369H57.0039V14.0756H58.5292C60.9732 14.0756 63.289 15.0061 64.8594 16.9113L74.7221 31.3376C76.8738 33.9457 78.594 35.5003 80.7131 36.708C82.6228 37.7964 85.843 38.0772 87.3827 38.0772H88.4404V33.0353H86.9152L86.917 33.0372Z" fill="white"/>
<path d="M68.0169 25.7602L64.8491 30.1983C63.2787 32.1034 60.9611 33.034 58.5188 33.034H44.1959C41.9179 33.034 40.0172 32.3145 38.4938 30.8774C38.3999 30.7874 38.306 30.6975 38.2176 30.602C38.1273 30.5066 38.0407 30.4112 37.9559 30.3157C37.7519 30.0771 37.5642 29.8275 37.3909 29.5687C36.649 28.4363 36.2248 27.0891 36.1183 25.529C36.1075 25.3803 36.1021 25.2298 36.0967 25.0775H56.9791V22.8933C56.9791 20.0925 56.4286 17.6459 55.3257 15.5535C54.2247 13.4612 52.6886 11.8277 50.7247 10.6512C48.7572 9.47466 46.4702 8.8855 43.8655 8.8855C41.2609 8.8855 38.8331 9.48201 36.8133 10.6787C35.8024 11.2752 34.9017 11.9892 34.1075 12.8224C34.0082 12.9252 33.909 13.0317 33.8133 13.1381C33.5245 13.463 33.2537 13.8026 32.9956 14.155C32.6545 14.6285 32.3368 15.1332 32.048 15.6655C30.8909 17.7946 30.3115 20.2962 30.3115 23.1723V23.8441C30.3115 26.7202 30.8909 29.2218 32.048 31.3509C33.205 33.48 34.8115 35.1318 36.8692 36.3083C38.9252 37.4848 41.3331 38.074 44.0876 38.074H58.0531C59.5928 38.074 62.813 37.7913 64.7228 36.7048C66.8419 35.4971 68.1523 34.0343 70.3039 31.4261L71.1216 30.2368L68.0188 25.7602H68.0169ZM36.1508 20.6505C36.2068 20.2669 36.2772 19.8961 36.371 19.5419C36.4613 19.1858 36.5714 18.8463 36.7013 18.5214C37.1291 17.4403 37.7645 16.5245 38.6021 15.7756C39.9414 14.5789 41.676 13.9824 43.8096 13.9824C45.9431 13.9824 47.667 14.5789 48.9882 15.7756C50.3113 16.9723 51.0622 18.5966 51.2482 20.6505H39.8981L36.9974 23.6H36.0407C36.0263 22.752 36.0407 21.6581 36.1508 20.6505Z" fill="white"/>
<path d="M96.542 8.93691V0.538086H90.8669V8.93691H87.8778C86.3381 8.93691 83.1179 9.21956 81.2082 10.3061C79.0891 11.5138 77.3689 13.0684 75.2173 15.6765L69.4736 23.723L72.5494 28.1628L80.358 16.8126C81.9284 14.9075 84.9681 13.8099 87.4103 13.8099H104.397V8.93507H96.5438L96.542 8.93691Z" fill="white"/>
<path d="M176.935 58.8317V53.1907H206.574V58.8317H195.092V90.3382H188.417V58.8317H176.935Z" fill="white"/>
<path d="M171.281 53.1907V90.3382H164.552V53.1907H171.281Z" fill="white"/>
<path d="M118.263 53.1907H126.497L137.526 80.1081H137.961L148.989 53.1907H157.224V90.3382H150.767V64.8174H150.422L140.156 90.2294H135.331L125.064 64.763H124.72V90.3382H118.263V53.1907Z" fill="white"/>
<path d="M71.9736 53.1907H80.2085L91.2367 80.1081H91.672L102.7 53.1907H110.935V90.3382H104.478V64.8174H104.133L93.8667 90.2294H89.0419L78.7755 64.763H78.4309V90.3382H71.9736V53.1907Z" fill="white"/>
<path d="M57.9294 53.1907H64.6588V77.4599C64.6588 80.1202 64.03 82.4601 62.7724 84.4795C61.5269 86.4989 59.7735 88.077 57.5122 89.2136C55.251 90.3382 52.6088 90.9005 49.5857 90.9005C46.5506 90.9005 43.9024 90.3382 41.6411 89.2136C39.3798 88.077 37.6265 86.4989 36.3809 84.4795C35.1354 82.4601 34.5127 80.1202 34.5127 77.4599V53.1907H41.2421V76.8976C41.2421 78.4454 41.5806 79.824 42.2578 81.0332C42.9471 82.2424 43.9145 83.1917 45.16 83.8809C46.4055 84.5581 47.8807 84.8967 49.5857 84.8967C51.2908 84.8967 52.766 84.5581 54.0115 83.8809C55.2691 83.1917 56.2365 82.2424 56.9137 81.0332C57.5908 79.824 57.9294 78.4454 57.9294 76.8976V53.1907Z" fill="white"/>
<path d="M21.5303 63.4027C21.361 61.8186 20.6476 60.5852 19.39 59.7024C18.1445 58.8197 16.5241 58.3783 14.5289 58.3783C13.1262 58.3783 11.923 58.59 10.9193 59.0132C9.91571 59.4364 9.14783 60.0108 8.61577 60.7363C8.0837 61.4619 7.81163 62.2902 7.79954 63.2213C7.79954 63.9952 7.97487 64.6663 8.32555 65.2347C8.68832 65.803 9.17806 66.2867 9.79481 66.6857C10.4115 67.0727 11.0947 67.3992 11.8444 67.6652C12.5941 67.9313 13.3499 68.155 14.1117 68.3363L17.5943 69.207C18.997 69.5335 20.3453 69.9748 21.6392 70.5311C22.9451 71.0873 24.112 71.7887 25.1399 72.6352C26.1798 73.4816 27.0021 74.5034 27.6067 75.7006C28.2113 76.8977 28.5136 78.3004 28.5136 79.9087C28.5136 82.0853 27.9574 84.0019 26.8449 85.6586C25.7324 87.3031 24.1241 88.5909 22.0201 89.5221C19.9281 90.4411 17.3948 90.9006 14.4201 90.9006C11.53 90.9006 9.02086 90.4532 6.89261 89.5583C4.77646 88.6635 3.11981 87.3575 1.92268 85.6404C0.73763 83.9233 0.096738 81.8314 0 79.3645H6.62054C6.71727 80.6584 7.11632 81.7346 7.81767 82.5932C8.51903 83.4517 9.432 84.0926 10.5566 84.5158C11.6932 84.9391 12.9629 85.1507 14.3656 85.1507C15.8288 85.1507 17.1106 84.933 18.211 84.4977C19.3235 84.0503 20.1941 83.4336 20.8229 82.6476C21.4517 81.8495 21.7722 80.9184 21.7843 79.8543C21.7722 78.8869 21.488 78.0888 20.9318 77.46C20.3755 76.8191 19.5956 76.287 18.5919 75.8638C17.6003 75.4285 16.4395 75.0415 15.1093 74.7029L10.8831 73.6146C7.82372 72.8286 5.40526 71.6375 3.62769 70.0414C1.86222 68.4331 0.979479 66.2988 0.979479 63.6385C0.979479 61.4498 1.572 59.5331 2.75705 57.8886C3.95418 56.244 5.5806 54.9683 7.63629 54.0614C9.69198 53.1424 12.0197 52.6829 14.6196 52.6829C17.2557 52.6829 19.5653 53.1424 21.5485 54.0614C23.5437 54.9683 25.1097 56.232 26.2463 57.8523C27.383 59.4606 27.9695 61.3107 28.0058 63.4027H21.5303Z" fill="white"/>
<path d="M4.56 107H12.42C17.04 107 19.05 108.47 19.05 111.59C19.05 113.96 17.7 115.28 15.27 115.82V116.09C18.57 116.42 19.8 117.53 19.8 120.08C19.8 123.02 17.91 125 13.17 125H4.56V107ZM8.88 121.82H13.02C14.73 121.82 15.51 120.98 15.51 119.69C15.51 118.31 14.91 117.59 12.9 117.59H8.88V121.82ZM8.88 114.65H12.33C14.01 114.65 14.94 114.05 14.94 112.4C14.94 110.96 14.25 110.3 12.45 110.3H8.88V114.65ZM25.2323 125.3C22.8323 125.3 21.0623 124.07 21.0623 121.28C21.0623 118.73 22.5623 116.96 26.3123 116.96H30.0323V115.97C30.0323 114.5 29.4023 113.66 27.8423 113.66C26.4923 113.66 25.7123 114.32 25.4423 115.7L21.6023 114.83C22.0823 112.28 24.0623 110.42 27.9923 110.42C32.3123 110.42 34.0823 112.4 34.0823 115.97V125H30.2423V121.61H29.8823C29.1623 123.86 27.6623 125.3 25.2323 125.3ZM30.0323 118.97H27.0923C25.7723 118.97 24.9323 119.57 24.9323 120.56C24.9323 121.46 25.4423 122.18 27.0023 122.18C28.8623 122.18 30.0323 121.07 30.0323 119.54V118.97ZM40.8002 115.4L41.1302 115.43C42.0302 111.47 43.2302 110.63 45.0902 110.63H45.5102V115.31H44.6702C41.8202 115.31 41.0102 116.15 41.0102 118.67V125H36.9302V110.78H40.8002V115.4ZM56.7492 116.57C56.3892 115.04 55.7292 113.96 53.9292 113.96C52.0392 113.96 50.8692 115.16 50.8692 117.86C50.8692 120.38 51.8892 121.85 53.9892 121.85C55.8192 121.85 56.5092 120.62 56.8092 119.15L60.5592 120.05C60.0792 123.35 58.0692 125.42 54.0192 125.42C49.5192 125.42 46.6992 122.93 46.6992 118.07C46.6992 113.24 49.4592 110.39 53.9892 110.39C58.2192 110.39 59.9892 112.4 60.5292 115.85L56.7492 116.57ZM69.3687 125.39C65.0787 125.39 62.1387 123.02 62.1387 118.19C62.1387 113.27 64.8087 110.39 69.4287 110.39C73.8087 110.39 75.8787 112.97 75.8787 116.9C75.8787 117.5 75.8487 118.07 75.7887 118.82H66.1887C66.3987 121.1 67.4187 122.12 69.3987 122.12C71.3187 122.12 71.9187 121.22 72.2787 120.14L75.6987 121.07C75.0687 123.53 73.4187 125.39 69.3687 125.39ZM66.1887 116.75H72.1287C72.0987 114.53 71.1687 113.45 69.3087 113.45C67.4487 113.45 66.4287 114.41 66.1887 116.75ZM82.2616 105.74V125H78.1816V105.74H82.2616ZM91.8715 125.42C87.2515 125.42 84.5215 122.57 84.5215 117.89C84.5215 113.15 87.3415 110.39 91.8715 110.39C96.3115 110.39 99.1615 113.15 99.1615 117.89C99.1615 122.57 96.4015 125.42 91.8715 125.42ZM91.8415 113.81C89.5915 113.81 88.6015 115.28 88.6015 117.86C88.6015 120.44 89.5315 121.94 91.8415 121.94C94.1215 121.94 95.0815 120.44 95.0815 117.86C95.0815 115.28 94.0915 113.81 91.8415 113.81ZM105.344 114.59H105.644C106.454 111.83 108.194 110.39 110.414 110.39C113.144 110.39 114.524 112.28 114.524 115.37V125H110.444V116.51C110.444 115.07 109.784 114.08 108.284 114.08C106.544 114.08 105.434 115.31 105.434 117.08V125H101.354V110.78H105.344V114.59ZM120.682 125.3C118.282 125.3 116.512 124.07 116.512 121.28C116.512 118.73 118.012 116.96 121.762 116.96H125.482V115.97C125.482 114.5 124.852 113.66 123.292 113.66C121.942 113.66 121.162 114.32 120.892 115.7L117.052 114.83C117.532 112.28 119.512 110.42 123.442 110.42C127.762 110.42 129.532 112.4 129.532 115.97V125H125.692V121.61H125.332C124.612 123.86 123.112 125.3 120.682 125.3ZM125.482 118.97H122.542C121.222 118.97 120.382 119.57 120.382 120.56C120.382 121.46 120.892 122.18 122.452 122.18C124.312 122.18 125.482 121.07 125.482 119.54V118.97ZM145.508 110.15C143.228 110.15 142.118 111.5 141.818 114.08L137.798 113.6C138.248 109.34 140.438 106.61 145.538 106.61C150.098 106.61 152.648 108.5 152.648 112.58C152.648 116.09 149.708 117.83 145.358 118.7C142.118 119.45 141.098 120.05 140.918 121.67C142.568 121.49 144.698 121.34 146.078 121.34H152.708V125H137.288C137.228 124.28 137.198 123.59 137.198 122.81C137.198 118.7 139.028 117.02 143.258 115.94C147.638 114.8 148.418 114.02 148.418 112.43C148.418 111.08 147.548 110.15 145.508 110.15ZM162.762 106.58C167.712 106.58 170.862 109.82 170.862 115.94C170.862 122.09 167.832 125.42 162.762 125.42C157.692 125.42 154.692 122.09 154.692 115.94C154.692 109.82 157.872 106.58 162.762 106.58ZM162.762 110.33C160.152 110.33 158.982 112.34 158.982 115.94C158.982 119.54 160.152 121.73 162.732 121.73C165.372 121.73 166.542 119.54 166.542 115.94C166.542 112.34 165.372 110.33 162.762 110.33ZM180.518 110.15C178.238 110.15 177.128 111.5 176.828 114.08L172.808 113.6C173.258 109.34 175.448 106.61 180.548 106.61C185.108 106.61 187.658 108.5 187.658 112.58C187.658 116.09 184.718 117.83 180.368 118.7C177.128 119.45 176.108 120.05 175.928 121.67C177.578 121.49 179.708 121.34 181.088 121.34H187.718V125H172.298C172.238 124.28 172.208 123.59 172.208 122.81C172.208 118.7 174.038 117.02 178.268 115.94C182.648 114.8 183.428 114.02 183.428 112.43C183.428 111.08 182.558 110.15 180.518 110.15ZM197.209 121.97C199.639 121.97 200.509 121.04 200.509 119.39C200.509 117.83 199.639 116.87 197.269 116.87C195.709 116.87 194.509 117.32 193.639 117.92L190.309 116.63V107H203.689V110.9C199.609 110.9 196.399 110.72 194.059 110.51V115.04C195.139 114.41 196.609 113.96 198.649 113.96C202.789 113.96 204.709 116.18 204.709 119.42C204.709 123.5 202.009 125.3 197.179 125.3C192.739 125.3 190.219 123.77 189.319 120.44L193.339 119.39C193.849 120.83 194.899 121.97 197.209 121.97Z" fill="#3D95FD"/>
</svg>