<svg width="474" height="285" viewBox="0 0 474 285" fill="none" xmlns="http://www.w3.org/2000/svg">
<path d="M221.523 70.9565V35.9001H208.501V73.2686C208.501 77.1263 209.615 80.2091 211.852 82.5254C214.084 84.8375 217.099 85.9957 220.893 85.9957H238.086V74.81H225.064C222.699 74.81 221.523 73.5255 221.523 70.9523V70.9565Z" fill="white"/>
<path d="M0 86.1466V19.4409H12.7153V29.9401H14.7282C15.9045 27.3796 18.0002 24.9916 21.0237 22.7722C24.0473 20.5527 28.537 19.4451 34.497 19.4451C39.1979 19.4451 43.3729 20.5148 47.0259 22.6459C50.679 24.7811 53.5534 27.7881 55.6491 31.6711C57.7449 35.554 58.7969 40.2288 58.7969 45.6911V86.1466H45.8289V46.7145C45.8289 41.2522 44.487 37.2218 41.799 34.6149C39.111 32.0122 35.4206 30.7108 30.7197 30.7108C25.3478 30.7108 21.0445 32.5049 17.8139 36.0889C14.5833 39.6729 12.968 44.8825 12.968 51.7093V86.1508H0V86.1466Z" fill="white"/>
<path d="M291.232 86.1536V0.113037H304.2V86.1536H291.232Z" fill="white"/>
<path d="M347.093 86.1899C340.88 86.1899 335.363 84.8886 330.534 82.2859C325.704 79.6832 321.91 75.9476 319.14 71.0834C316.369 66.2191 314.985 60.4578 314.985 53.7995V51.879C314.985 45.2207 316.369 39.4804 319.14 34.6583C321.91 29.8361 325.708 26.1006 330.534 23.4557C335.359 20.8109 340.88 19.4885 347.093 19.4885C353.305 19.4885 358.843 20.8109 363.714 23.4557C368.58 26.1006 372.403 29.8361 375.17 34.6583C377.941 39.4804 379.324 45.2207 379.324 51.879V53.7995C379.324 60.4578 377.941 66.2191 375.17 71.0834C372.399 75.9476 368.58 79.6832 363.714 82.2859C358.843 84.8886 353.305 86.1899 347.093 86.1899ZM347.093 74.4104C352.8 74.4104 357.439 72.5532 361.005 68.8429C364.571 65.1283 366.356 59.9903 366.356 53.4162V52.2623C366.356 45.6924 364.592 40.5459 361.067 36.8356C357.542 33.1211 352.883 31.268 347.093 31.268C341.302 31.268 336.871 33.1253 333.304 36.8356C329.734 40.5501 327.953 45.6924 327.953 52.2623V53.4162C327.953 59.9903 329.734 65.1325 333.304 68.8429C336.871 72.5574 341.468 74.4104 347.093 74.4104Z" fill="white"/>
<path d="M394.68 75.1138L385.862 19.4927H398.83L406.638 77.3627H408.65L417.518 29.9835C418.657 23.8979 423.888 19.4927 429.985 19.4927C436.09 19.4927 441.325 23.9106 442.456 30.0088L451.211 77.3585H453.224L461.032 19.4885H474L465.182 75.1095C464.171 81.4942 458.75 86.1899 452.388 86.1899C446.154 86.1899 440.807 81.6795 439.652 75.4549L430.942 28.4506H428.929L420.218 75.4549C419.063 81.6837 413.716 86.1899 407.482 86.1899C401.121 86.1899 395.699 81.4942 394.688 75.1095L394.68 75.1138Z" fill="white"/>
<path d="M252.219 3.69658C249.982 6.00868 248.868 9.09569 248.868 12.9492V86.1658H261.886V30.6753H280.478V19.4938H271.491L264.16 26.9482H261.886V15.135C261.886 12.566 263.104 11.2815 265.551 11.2815H280.429V0.226318H261.381C257.5 0.226318 254.447 1.38448 252.219 3.69658Z" fill="white"/>
<path d="M199.437 74.5716C193.829 74.5716 188.39 72.5375 184.911 68.0649C182.178 64.5525 165.391 39.709 162.165 35.0848C157.72 28.7128 153.396 25.4068 148.53 22.6357C144.148 20.1383 136.759 19.4939 133.226 19.4939H130.799V31.0628H134.299C139.907 31.0628 145.221 33.1981 148.824 37.5696L171.455 70.6718C176.392 76.6563 180.339 80.2234 185.201 82.9946C189.583 85.492 196.972 86.1364 200.505 86.1364H202.932V74.5674H199.432L199.437 74.5716Z" fill="white"/>
<path d="M156.07 57.8749L148.801 68.0582C145.197 72.4298 139.879 74.565 134.276 74.565H101.41C96.1835 74.565 91.8222 72.9141 88.3265 69.6165C88.1111 69.4101 87.8958 69.2038 87.6928 68.9848C87.4857 68.7658 87.2869 68.5468 87.0923 68.3278C86.6242 67.7803 86.1935 67.2075 85.7959 66.6137C84.0936 64.0152 83.1203 60.924 82.8759 57.3442C82.8511 57.0031 82.8386 56.6578 82.8262 56.3082H130.743V51.2966C130.743 44.8698 129.479 39.2559 126.949 34.4548C124.422 29.6538 120.898 25.9055 116.391 23.206C111.877 20.5064 106.629 19.1545 100.652 19.1545C94.6759 19.1545 89.1052 20.5233 84.4705 23.2692C82.1511 24.6379 80.0843 26.2762 78.2619 28.1882C78.0342 28.424 77.8063 28.6683 77.5868 28.9125C76.9241 29.658 76.3029 30.4371 75.7106 31.2457C74.9278 32.3323 74.1988 33.4904 73.5362 34.7117C70.8813 39.5971 69.5518 45.3373 69.5518 51.9367V53.4781C69.5518 60.0775 70.8813 65.8177 73.5362 70.7031C76.1911 75.5884 79.8773 79.3787 84.5989 82.0783C89.3164 84.7778 94.8415 86.1297 101.162 86.1297H133.207C136.74 86.1297 144.129 85.4811 148.511 82.9879C153.373 80.2168 156.38 76.8602 161.317 70.8757L163.194 68.1467L156.074 57.8749H156.07ZM82.9505 46.1501C83.0789 45.2699 83.2404 44.4192 83.4558 43.6064C83.6629 42.7894 83.9155 42.0102 84.2137 41.2648C85.1953 38.7843 86.6532 36.6827 88.575 34.9644C91.6482 32.2185 95.6285 30.8498 100.524 30.8498C105.42 30.8498 109.375 32.2185 112.407 34.9644C115.443 37.7103 117.166 41.4375 117.592 46.1501H91.5488L84.893 52.918H82.6978C82.6647 50.9723 82.6978 48.4622 82.9505 46.1501Z" fill="white"/>
<path d="M221.521 19.2717V0H208.5V19.2717H201.641C198.108 19.2717 190.719 19.9203 186.337 22.4135C181.474 25.1846 177.527 28.7518 172.59 34.7363L159.411 53.1994L166.469 63.387L184.386 37.3432C187.99 32.9717 194.964 30.4532 200.568 30.4532H239.547V19.2675H221.526L221.521 19.2717Z" fill="white"/>
<path d="M405.992 133.76V120.816H473.999V133.76H447.654V206.053H432.338V133.76H405.992Z" fill="white"/>
<path d="M393.018 120.816V206.053H377.577V120.816H393.018Z" fill="white"/>
<path d="M271.362 120.816H290.258L315.563 182.58H316.562L341.867 120.816H360.762V206.053H345.945V147.494H345.155L321.598 205.804H310.527L286.97 147.369H286.179V206.053H271.362V120.816Z" fill="white"/>
<path d="M165.148 120.816H184.044L209.349 182.58H210.348L235.653 120.816H254.548V206.053H239.732V147.494H238.941L215.384 205.804H204.313L180.756 147.369H179.965V206.053H165.148V120.816Z" fill="white"/>
<path d="M132.923 120.816H148.364V176.503C148.364 182.608 146.921 187.977 144.035 192.61C141.178 197.244 137.154 200.865 131.966 203.473C126.777 206.053 120.714 207.344 113.778 207.344C106.813 207.344 100.737 206.053 95.5481 203.473C90.3595 200.865 86.3362 197.244 83.4783 192.61C80.6204 187.977 79.1914 182.608 79.1914 176.503V120.816H94.6324V175.213C94.6324 178.765 95.4094 181.928 96.9632 184.702C98.5447 187.477 100.764 189.655 103.622 191.237C106.48 192.791 109.865 193.567 113.778 193.567C117.69 193.567 121.075 192.791 123.933 191.237C126.819 189.655 129.038 187.477 130.592 184.702C132.146 181.928 132.923 178.765 132.923 175.213V120.816Z" fill="white"/>
<path d="M49.403 144.248C49.0145 140.613 47.3775 137.783 44.4918 135.757C41.6339 133.732 37.9159 132.719 33.3377 132.719C30.119 132.719 27.3582 133.205 25.0553 134.176C22.7523 135.147 20.9904 136.465 19.7695 138.13C18.5487 139.794 17.9244 141.695 17.8966 143.832C17.8966 145.607 18.2989 147.147 19.1036 148.451C19.936 149.756 21.0597 150.865 22.4748 151.781C23.8899 152.669 25.4576 153.418 27.1779 154.029C28.8982 154.639 30.6323 155.152 32.3804 155.568L40.3714 157.566C43.59 158.315 46.6838 159.328 49.6527 160.604C52.6493 161.881 55.3269 163.49 57.6854 165.432C60.0716 167.375 61.9584 169.719 63.3457 172.466C64.733 175.213 65.4267 178.432 65.4267 182.122C65.4267 187.116 64.1503 191.514 61.5976 195.316C59.045 199.089 55.3546 202.044 50.5267 204.181C45.7265 206.289 39.9136 207.344 33.0879 207.344C26.4565 207.344 20.699 206.317 15.8156 204.264C10.9599 202.211 7.15865 199.214 4.41172 195.274C1.69255 191.334 0.221974 186.534 0 180.873H15.1913C15.4133 183.842 16.3289 186.312 17.9382 188.282C19.5475 190.252 21.6424 191.722 24.2229 192.694C26.831 193.665 29.7444 194.15 32.9631 194.15C36.3204 194.15 39.2616 193.651 41.7865 192.652C44.3392 191.625 46.337 190.21 47.7798 188.407C49.2226 186.575 49.9579 184.439 49.9857 181.997C49.9579 179.777 49.3059 177.946 48.0295 176.503C46.7532 175.033 44.9635 173.812 42.6605 172.841C40.3853 171.842 37.7216 170.954 34.6695 170.177L24.972 167.68C17.9521 165.876 12.4028 163.143 8.32401 159.481C4.27299 155.79 2.24748 150.893 2.24748 144.789C2.24748 139.767 3.60707 135.369 6.32624 131.595C9.07317 127.822 12.8051 124.895 17.522 122.814C22.239 120.705 27.5802 119.65 33.5457 119.65C39.5945 119.65 44.8941 120.705 49.4446 122.814C54.0228 124.895 57.616 127.794 60.2242 131.512C62.8324 135.202 64.1781 139.448 64.2613 144.248H49.403Z" fill="white"/>
<path d="M405.24 274.592H382.953V268.013L402.622 243.31H414.436V267.141H419.538V274.592H414.436V283.587H405.24V274.592ZM404.703 250.493L391.546 267.409L391.881 267.879C396.11 267.342 400.474 267.141 403.83 267.141H405.24V250.694L404.703 250.493Z" fill="#FA6863"/>
<path d="M364.907 250.36C359.805 250.36 357.322 253.381 356.65 259.154L347.655 258.08C348.662 248.547 353.562 242.439 364.974 242.439C375.178 242.439 380.884 246.668 380.884 255.797C380.884 263.651 374.305 267.545 364.571 269.492C357.322 271.17 355.039 272.512 354.636 276.137C358.328 275.735 363.095 275.399 366.183 275.399H381.018V283.589H346.514C346.38 281.977 346.312 280.434 346.312 278.688C346.312 269.492 350.407 265.732 359.872 263.316C369.673 260.765 371.419 259.019 371.419 255.462C371.419 252.441 369.472 250.36 364.907 250.36Z" fill="#FA6863"/>
<path d="M325.177 242.37C336.253 242.37 343.301 249.62 343.301 263.314C343.301 277.076 336.521 284.527 325.177 284.527C313.832 284.527 307.119 277.076 307.119 263.314C307.119 249.62 314.235 242.37 325.177 242.37ZM325.177 250.761C319.337 250.761 316.719 255.259 316.719 263.314C316.719 271.37 319.337 276.27 325.11 276.27C331.017 276.27 333.635 271.37 333.635 263.314C333.635 255.259 331.017 250.761 325.177 250.761Z" fill="#FA6863"/>
<path d="M286.569 250.36C281.467 250.36 278.984 253.381 278.312 259.154L269.317 258.08C270.324 248.547 275.224 242.439 286.636 242.439C296.84 242.439 302.546 246.668 302.546 255.797C302.546 263.651 295.967 267.545 286.234 269.492C278.984 271.17 276.701 272.512 276.299 276.137C279.991 275.735 284.757 275.399 287.845 275.399H302.68V283.589H268.176C268.042 281.977 267.975 280.434 267.975 278.688C267.975 269.492 272.069 265.732 281.535 263.316C291.335 260.765 293.081 259.019 293.081 255.462C293.081 252.441 291.134 250.36 286.569 250.36Z" fill="#FA6863"/>
<path d="M230.458 260.293H231.13C232.942 254.117 236.836 250.895 241.803 250.895C247.912 250.895 251 255.124 251 262.038V283.587H241.87V264.589C241.87 261.367 240.393 259.152 237.037 259.152C233.144 259.152 230.66 261.904 230.66 265.865V283.587H221.53V251.768H230.458V260.293Z" fill="#FA6863"/>
<path d="M200.312 284.526C189.974 284.526 183.865 278.149 183.865 267.677C183.865 257.071 190.175 250.895 200.312 250.895C210.247 250.895 216.624 257.071 216.624 267.677C216.624 278.149 210.448 284.526 200.312 284.526ZM200.245 258.548C195.21 258.548 192.995 261.837 192.995 267.61C192.995 273.383 195.076 276.74 200.245 276.74C205.346 276.74 207.495 273.383 207.495 267.61C207.495 261.837 205.279 258.548 200.245 258.548Z" fill="#FA6863"/>
<path d="M159.266 251.77H163.159V243.58H172.289V251.77H180.68V259.019H172.289V272.109C172.289 274.66 173.228 275.936 175.981 275.936C177.39 275.936 178.934 275.533 180.143 275.13L181.149 283.32C178.733 284.058 177.122 284.528 173.631 284.528C166.247 284.528 163.159 279.628 163.159 273.586V259.019H159.266V251.77Z" fill="#FA6863"/>
<path d="M143.038 284.526C132.298 284.526 129.008 280.23 128.136 274.457L136.325 272.779C137.131 276.27 139.279 278.082 143.24 278.082C146.328 278.082 147.871 277.075 147.939 274.994C147.939 273.047 146.663 271.973 140.823 270.832C132.096 268.953 129.143 266.066 129.143 260.629C129.143 254.52 133.506 250.895 142.501 250.895C151.765 250.895 154.786 254.52 155.927 260.092L147.804 261.77C147.066 258.481 145.589 257.205 142.3 257.205C139.279 257.205 137.802 258.212 137.802 260.092C137.802 261.837 138.675 263.112 144.381 264.254C154.316 266.335 156.732 269.624 156.732 274.591C156.732 280.767 152.638 284.526 143.038 284.526Z" fill="#FA6863"/>
<path d="M108.796 284.526C98.4584 284.526 92.3496 278.149 92.3496 267.677C92.3496 257.071 98.6598 250.895 108.796 250.895C118.731 250.895 125.108 257.071 125.108 267.677C125.108 278.149 118.933 284.526 108.796 284.526ZM108.729 258.548C103.694 258.548 101.479 261.837 101.479 267.61C101.479 273.383 103.56 276.74 108.729 276.74C113.831 276.74 115.979 273.383 115.979 267.61C115.979 261.837 113.764 258.548 108.729 258.548Z" fill="#FA6863"/>
<path d="M55.2217 243.311H72.8094C83.1472 243.311 87.6448 246.6 87.6448 253.582C87.6448 258.885 84.624 261.839 79.1866 263.047V263.651C86.5708 264.389 89.323 266.873 89.323 272.579C89.323 279.158 85.0939 283.588 74.4876 283.588H55.2217V243.311ZM64.8882 276.473H74.1519C77.9782 276.473 79.7236 274.593 79.7236 271.706C79.7236 268.619 78.381 267.007 73.8834 267.007H64.8882V276.473ZM64.8882 260.429H72.608C76.3672 260.429 78.4482 259.086 78.4482 255.394C78.4482 252.172 76.9042 250.695 72.8765 250.695H64.8882V260.429Z" fill="#FA6863"/>
</svg>
