<svg width="12" height="12" viewBox="0 0 12 12" fill="none" xmlns="http://www.w3.org/2000/svg">
<path fill-rule="evenodd" clip-rule="evenodd" d="M6.26926 8.13118C6.45296 8.0736 6.62982 7.95432 6.79982 7.77336L9.81043 4.58177C9.93108 4.45016 9.99414 4.29798 9.99963 4.12524C10.0051 3.9525 9.95027 3.80855 9.83511 3.69339C9.7035 3.57275 9.55132 3.50968 9.37858 3.5042C9.20584 3.49872 9.06189 3.55904 8.94673 3.68517L5.99369 6.81094L3.04888 3.68517C2.93372 3.55904 2.7884 3.49735 2.61292 3.50009C2.43744 3.50283 2.28663 3.56726 2.1605 3.69339C2.05083 3.81404 1.99736 3.95799 2.0001 4.12524C2.00284 4.2925 2.06179 4.44468 2.17695 4.58177L5.1958 7.77336C5.36031 7.95432 5.53442 8.0736 5.71813 8.13118C5.90184 8.18876 6.08555 8.18876 6.26926 8.13118Z" fill="currentColor"/>
<mask id="mask0" mask-type="alpha" maskUnits="userSpaceOnUse" x="2" y="3" width="8" height="6">
<path fill-rule="evenodd" clip-rule="evenodd" d="M6.26926 8.13118C6.45296 8.0736 6.62982 7.95432 6.79982 7.77336L9.81043 4.58177C9.93108 4.45016 9.99414 4.29798 9.99963 4.12524C10.0051 3.9525 9.95027 3.80855 9.83511 3.69339C9.7035 3.57275 9.55132 3.50968 9.37858 3.5042C9.20584 3.49872 9.06189 3.55904 8.94673 3.68517L5.99369 6.81094L3.04888 3.68517C2.93372 3.55904 2.7884 3.49735 2.61292 3.50009C2.43744 3.50283 2.28663 3.56726 2.1605 3.69339C2.05083 3.81404 1.99736 3.95799 2.0001 4.12524C2.00284 4.2925 2.06179 4.44468 2.17695 4.58177L5.1958 7.77336C5.36031 7.95432 5.53442 8.0736 5.71813 8.13118C5.90184 8.18876 6.08555 8.18876 6.26926 8.13118Z" fill="white"/>
</mask>
<g mask="url(#mask0)">
<rect width="12" height="12" fill="currentColor"/>
</g>
</svg>
