<svg width="25" height="25" viewBox="0 0 25 25" fill="none" xmlns="http://www.w3.org/2000/svg">
<path d="M12.25 0.535034C5.62097 0.535034 0.25 5.90599 0.25 12.535C0.25 19.164 5.62097 24.535 12.25 24.535C18.879 24.535 24.25 19.164 24.25 12.535C24.25 5.90599 18.879 0.535034 12.25 0.535034ZM20.9258 8.27695H17.6742C17.35 6.51082 16.8274 4.94793 16.1645 3.69471C18.2403 4.61406 19.9242 6.2447 20.9258 8.27695ZM12.25 2.85761C13.15 2.85761 14.6016 4.85116 15.3081 8.27695H9.19194C9.89838 4.85116 11.35 2.85761 12.25 2.85761ZM2.57258 12.535C2.57258 11.8721 2.64032 11.2237 2.76613 10.5996H6.52581C6.47742 11.2334 6.44355 11.8721 6.44355 12.535C6.44355 13.1979 6.47742 13.8366 6.52581 14.4704H2.76613C2.64032 13.8463 2.57258 13.1979 2.57258 12.535ZM3.57419 16.7931H6.82581C7.15 18.5592 7.67259 20.1221 8.33549 21.3753C6.25968 20.456 4.57581 18.8254 3.57419 16.7931ZM6.82581 8.27695H3.57419C4.57581 6.2447 6.25968 4.61406 8.33549 3.69471C7.67259 4.94793 7.15 6.51082 6.82581 8.27695ZM12.25 22.2124C11.35 22.2124 9.89838 20.2189 9.19194 16.7931H15.3129C14.6016 20.2189 13.15 22.2124 12.25 22.2124ZM15.642 14.4704H8.85806C8.80484 13.8512 8.76613 13.2124 8.76613 12.535C8.76613 11.8576 8.80484 11.2188 8.85806 10.5996H15.6468C15.7 11.2188 15.7387 11.8576 15.7387 12.535C15.7387 13.2124 15.6952 13.8512 15.642 14.4704ZM16.1645 21.3753C16.8274 20.1221 17.3452 18.5592 17.6742 16.7931H20.9258C19.9242 18.8254 18.2403 20.456 16.1645 21.3753ZM17.9742 14.4704C18.0226 13.8366 18.0565 13.1979 18.0565 12.535C18.0565 11.8721 18.0226 11.2334 17.9742 10.5996H21.7338C21.8597 11.2237 21.9274 11.8721 21.9274 12.535C21.9274 13.1979 21.8597 13.8463 21.7338 14.4704H17.9742Z" fill="white"/>
</svg>
