<?xml version="1.0" encoding="UTF-8"?>
<svg id="uuid-d36a6f49-bb03-4cff-9f2d-df2355737cf5" data-name="Layer 1" xmlns="http://www.w3.org/2000/svg" width="837" height="52" viewBox="0 0 837 52">
  <path d="M15.58,41.52c-9.74,0-14.96-6.21-14.96-15.72s5.51-15.66,15.08-15.66c7.95,0,12.82,4.35,14.09,11.19l-2.96.64c-1.28-5.74-4.87-8.99-11.14-8.99-8.06,0-11.95,5.1-11.95,12.82s3.89,12.88,11.83,12.88c6.73,0,10.21-3.36,11.43-9.22l3.02.58c-1.22,7.02-6.09,11.48-14.44,11.48ZM39.49,31.6l-3.94,9.4h-3.31l13.22-30.33h3.94l13.17,30.33h-3.31l-4-9.4h-15.78ZM48.13,13.51h-1.33c-1.22,3.36-3.02,7.95-4.64,11.72l-1.57,3.71h13.57l-1.62-3.71c-1.57-3.77-3.36-8.47-4.41-11.72ZM67.11,10.67h3.13v27.49h15.72v2.84h-18.85V10.67ZM91.46,10.67h3.13v27.49h15.72v2.84h-18.85V10.67ZM130.68,41h-3.13V10.67h20.18v2.96h-17.05v11.48h15.02v2.78h-15.02v13.11ZM167.4,41.52c-10.15,0-15.72-6.44-15.72-15.72s5.68-15.66,15.72-15.66,15.66,6.38,15.66,15.66-5.51,15.72-15.66,15.72ZM167.4,38.68c8.47,0,12.53-5.28,12.53-12.88s-4.12-12.82-12.53-12.82-12.59,5.28-12.59,12.82,4,12.88,12.59,12.88ZM192.41,28.12v12.88h-3.13V10.67h12.41c7.42,0,10.61,3.42,10.61,8.87,0,4.7-2.78,7.83-8.53,8.47l10.32,12.41v.58h-3.48l-10.21-12.88h-8ZM192.41,13.51v11.89h9.05c5.34,0,7.71-1.97,7.71-5.92s-1.86-5.97-7.77-5.97h-8.99ZM235.52,31.6l-3.94,9.4h-3.31l13.22-30.33h3.94l13.17,30.33h-3.31l-4-9.4h-15.78ZM244.16,13.51h-1.33c-1.22,3.36-3.02,7.95-4.64,11.72l-1.57,3.71h13.57l-1.62-3.71c-1.57-3.77-3.36-8.47-4.41-11.72ZM263.14,10.67h12.35c6.84,0,9.98,2.73,9.98,7.77,0,3.89-2.32,6.15-6.09,7.02v.41c5.1.58,7.83,2.78,7.83,6.96,0,4.76-3.07,8.18-10.67,8.18h-13.4V10.67ZM266.27,38.33h10.15c5.28,0,7.66-2.32,7.66-5.63,0-3.54-2.09-5.63-8-5.63h-9.8v11.25ZM266.27,24.53h9.11c4,0,7.02-1.57,7.02-5.74,0-3.6-1.91-5.39-6.61-5.39h-9.51v11.14ZM304.47,41.52c-8.53,0-12.64-4-13.57-10.27l3.02-.64c.93,5.28,4.06,8.18,10.61,8.18,6.03,0,8.53-2.26,8.53-5.57s-2.44-5.05-9.05-6.15c-8.7-1.51-11.54-4.52-11.54-8.87,0-4.81,3.71-8.06,11.08-8.06s10.44,3.54,11.77,9.05l-3.07.64c-1.16-4.52-3.19-6.96-8.82-6.96-5.34,0-7.89,1.97-7.89,5.16,0,2.96,1.86,4.93,9.34,6.26,8.87,1.62,11.31,4.52,11.31,8.7,0,5.1-3.42,8.53-11.72,8.53ZM318.29,13.62v-2.96h25.29v2.96h-11.08v27.38h-3.13V13.62h-11.08ZM351.86,28.12v12.88h-3.13V10.67h12.41c7.42,0,10.61,3.42,10.61,8.87,0,4.7-2.78,7.83-8.53,8.47l10.32,12.41v.58h-3.48l-10.21-12.88h-8ZM351.86,13.51v11.89h9.05c5.34,0,7.71-1.97,7.71-5.92s-1.86-5.97-7.77-5.97h-8.99ZM383.18,31.6l-3.94,9.4h-3.31l13.22-30.33h3.94l13.17,30.33h-3.31l-4-9.4h-15.78ZM391.83,13.51h-1.33c-1.22,3.36-3.02,7.95-4.64,11.72l-1.57,3.71h13.57l-1.62-3.71c-1.57-3.77-3.36-8.47-4.41-11.72ZM423.51,41.52c-9.74,0-14.96-6.21-14.96-15.72s5.51-15.66,15.08-15.66c7.95,0,12.82,4.35,14.09,11.19l-2.96.64c-1.28-5.74-4.87-8.99-11.14-8.99-8.06,0-11.95,5.1-11.95,12.82s3.89,12.88,11.83,12.88c6.73,0,10.21-3.36,11.43-9.22l3.02.58c-1.22,7.02-6.09,11.48-14.44,11.48ZM440.97,13.62v-2.96h25.29v2.96h-11.08v27.38h-3.13V13.62h-11.08ZM482.09,41.52c-8.53,0-12.64-4-13.57-10.27l3.02-.64c.93,5.28,4.06,8.18,10.61,8.18,6.03,0,8.53-2.26,8.53-5.57s-2.44-5.05-9.05-6.15c-8.7-1.51-11.54-4.52-11.54-8.87,0-4.81,3.71-8.06,11.08-8.06s10.44,3.54,11.77,9.05l-3.07.64c-1.16-4.52-3.19-6.96-8.82-6.96-5.34,0-7.89,1.97-7.89,5.16,0,2.96,1.86,4.93,9.34,6.26,8.87,1.62,11.31,4.52,11.31,8.7,0,5.1-3.42,8.53-11.72,8.53ZM533.25,41l-11.31-16.76c-2.2-3.36-4.35-7.19-6.03-10.44l-1.33.06c.29,4.18.46,10.09.46,14.67v12.47h-3.07V10.67h4.81l10.03,14.91c2.78,4.18,5.28,8.53,6.9,11.72h1.28c-.29-4-.46-9.57-.46-14.09v-12.53h3.07v30.33h-4.35ZM559.46,41.52c-10.15,0-15.72-6.44-15.72-15.72s5.68-15.66,15.72-15.66,15.66,6.38,15.66,15.66-5.51,15.72-15.66,15.72ZM559.46,38.68c8.47,0,12.53-5.28,12.53-12.88s-4.12-12.82-12.53-12.82-12.59,5.28-12.59,12.82,4,12.88,12.59,12.88ZM598.86,13.74c-.99,4.41-2.67,10.56-3.83,14.62l-3.71,12.64h-4.87l-8.87-30.33h3.48l4.12,15.2c1.04,4.12,2.09,8.18,3.02,12.3h1.62c.99-4.29,1.86-8,3.07-12.24l4.52-15.25h4.18l4.52,15.25c1.16,4.06,2.15,8.06,3.07,12.24h1.51c.87-4.06,1.97-8.12,3.07-12.3l4.12-15.2h3.31l-8.82,30.33h-4.87l-3.77-12.64c-1.16-4.06-2.9-10.27-3.83-14.62h-1.04ZM651.11,41.52c-10.15,0-15.72-6.44-15.72-15.72s5.68-15.66,15.72-15.66,15.66,6.38,15.66,15.66-5.51,15.72-15.66,15.72ZM651.11,38.68c8.47,0,12.53-5.28,12.53-12.88s-4.12-12.82-12.53-12.82-12.59,5.28-12.59,12.82,4,12.88,12.59,12.88ZM676.13,29.17v11.83h-3.13V10.67h11.89c7.02,0,10.61,3.07,10.61,9.28,0,5.51-3.71,9.22-10.56,9.22h-8.82ZM676.13,13.51v12.93h8.53c5.39,0,7.71-2.03,7.71-6.44s-1.97-6.5-7.77-6.5h-8.47ZM704.05,41h-3.13V10.67h21.05v2.9h-17.92v10.61h15.95v2.67h-15.95v11.31h17.86v2.84h-17.86ZM750.52,41l-11.31-16.76c-2.2-3.36-4.35-7.19-6.03-10.44l-1.33.06c.29,4.18.46,10.09.46,14.67v12.47h-3.07V10.67h4.81l10.03,14.91c2.78,4.18,5.28,8.53,6.9,11.72h1.28c-.29-4-.46-9.57-.46-14.09v-12.53h3.07v30.33h-4.35ZM799.74,51.21h-2.96V.81h2.96v50.4Z" style="fill: #fff; strokeWidth: 0px;"/>
</svg>