<svg width="116" height="114" viewBox="0 0 116 114" fill="none" xmlns="http://www.w3.org/2000/svg">
<path d="M0 20.9699C18.3048 22.1622 32.9718 36.5836 34.1226 54.5546H55.499C54.3112 24.9928 30.1275 1.22871 0 0V20.9699Z" fill="#0DC09D"/>
<path d="M34.2432 59.3374C33.0275 77.2902 18.3233 91.6752 -1.52588e-05 92.8038V113.769C30.1414 112.604 54.3715 88.8855 55.6243 59.3374H34.2432Z" fill="#0DC09D"/>
<path d="M81.7568 54.4318C82.9725 36.479 97.6766 22.094 116 20.9654V0C85.8585 1.165 61.6285 24.8836 60.3757 54.4318H81.7568Z" fill="#0DC09D"/>
<path d="M116 92.7992C97.6952 91.6069 83.0282 77.1855 81.8774 59.2145H60.501C61.6888 88.7763 85.8725 112.54 116 113.769V92.7992Z" fill="#0DC09D"/>
</svg>
