<svg width="41" height="40" viewBox="0 0 41 40" fill="none" xmlns="http://www.w3.org/2000/svg">
<g clip-path="url(#clip0_273_1377)">
<path d="M37.1667 28.3333V8.66663C37.1667 7.56163 36.2717 6.66663 35.1667 6.66663H5.83333C4.72833 6.66663 3.83333 7.56163 3.83333 8.66663V28.3333H37.1667ZM7.16667 9.99996H33.8333V25H7.16667V9.99996ZM40.5 30V31.3333C40.5 32.4383 39.605 33.3333 38.5 33.3333H2.5C1.395 33.3333 0.5 32.4383 0.5 31.3333V30H17.1667C17.1667 30.46 17.54 30.8333 18 30.8333H23C23.46 30.8333 23.8333 30.46 23.8333 30H40.5Z" fill="#4CA58A"/>
</g>
<defs>
<clipPath id="clip0_273_1377">
<rect width="40" height="40" fill="white" transform="translate(0.5)"/>
</clipPath>
</defs>
</svg>
