<svg width="165" height="40" viewBox="0 0 165 40" fill="none" xmlns="http://www.w3.org/2000/svg">
<g clip-path="url(#clip0_1_814)">
<path d="M0 12.4237C3.7872 12.6752 6.82176 15.7174 7.05984 19.5085H11.4826C11.2368 13.2723 6.23328 8.2592 0 8V12.4237Z" fill="white"/>
<path d="M7.0848 20.5175C6.83328 24.3047 3.79104 27.3392 0 27.5773V32C6.23616 31.7543 11.2493 26.7507 11.5085 20.5175H7.0848Z" fill="white"/>
<path d="M16.9154 19.4826C17.1669 15.6954 20.2091 12.6608 24.0002 12.4227V8C17.764 8.24576 12.7509 13.2493 12.4917 19.4826H16.9154Z" fill="white"/>
<path d="M24.0001 27.5763C20.2129 27.3248 17.1784 24.2826 16.9403 20.4915H12.5176C12.7633 26.7277 17.7669 31.7408 24.0001 32V27.5763Z" fill="white"/>
</g>
<path d="M46.9432 15.125C46.8371 14.1326 46.3902 13.3598 45.6023 12.8068C44.822 12.2538 43.8068 11.9773 42.5568 11.9773C41.678 11.9773 40.9242 12.1098 40.2955 12.375C39.6667 12.6402 39.1856 13 38.8523 13.4545C38.5189 13.9091 38.3485 14.428 38.3409 15.0114C38.3409 15.4962 38.4508 15.9167 38.6705 16.2727C38.8977 16.6288 39.2045 16.9318 39.5909 17.1818C39.9773 17.4242 40.4053 17.6288 40.875 17.7955C41.3447 17.9621 41.8182 18.1023 42.2955 18.2159L44.4773 18.7614C45.3561 18.9659 46.2008 19.2424 47.0114 19.5909C47.8295 19.9394 48.5606 20.3788 49.2045 20.9091C49.8561 21.4394 50.3712 22.0795 50.75 22.8295C51.1288 23.5795 51.3182 24.4583 51.3182 25.4659C51.3182 26.8295 50.9697 28.0303 50.2727 29.0682C49.5758 30.0985 48.5682 30.9053 47.25 31.4886C45.9394 32.0644 44.3523 32.3523 42.4886 32.3523C40.678 32.3523 39.1061 32.072 37.7727 31.5114C36.447 30.9508 35.4091 30.1326 34.6591 29.0568C33.9167 27.9811 33.5152 26.6705 33.4545 25.125H37.6023C37.6629 25.9356 37.9129 26.6098 38.3523 27.1477C38.7917 27.6856 39.3636 28.0871 40.0682 28.3523C40.7803 28.6174 41.5758 28.75 42.4545 28.75C43.3712 28.75 44.1742 28.6136 44.8636 28.3409C45.5606 28.0606 46.1061 27.6742 46.5 27.1818C46.8939 26.6818 47.0947 26.0985 47.1023 25.4318C47.0947 24.8258 46.9167 24.3258 46.5682 23.9318C46.2197 23.5303 45.7311 23.197 45.1023 22.9318C44.4811 22.6591 43.7538 22.4167 42.9205 22.2045L40.2727 21.5227C38.3561 21.0303 36.8409 20.2841 35.7273 19.2841C34.6212 18.2765 34.0682 16.9394 34.0682 15.2727C34.0682 13.9015 34.4394 12.7008 35.1818 11.6705C35.9318 10.6402 36.9508 9.84091 38.2386 9.27273C39.5265 8.69697 40.9848 8.40909 42.6136 8.40909C44.2652 8.40909 45.7121 8.69697 46.9545 9.27273C48.2045 9.84091 49.1856 10.6326 49.8977 11.6477C50.6098 12.6553 50.9773 13.8144 51 15.125H46.9432ZM69.7472 8.72727H73.9631V23.9318C73.9631 25.5985 73.5691 27.0644 72.7812 28.3295C72.0009 29.5947 70.9025 30.5833 69.4858 31.2955C68.0691 32 66.4138 32.3523 64.5199 32.3523C62.6184 32.3523 60.9593 32 59.5426 31.2955C58.1259 30.5833 57.0275 29.5947 56.2472 28.3295C55.4669 27.0644 55.0767 25.5985 55.0767 23.9318V8.72727H59.2926V23.5795C59.2926 24.5492 59.5047 25.4129 59.929 26.1705C60.3608 26.928 60.9669 27.5227 61.7472 27.9545C62.5275 28.3788 63.4517 28.5909 64.5199 28.5909C65.5881 28.5909 66.5123 28.3788 67.2926 27.9545C68.0805 27.5227 68.6866 26.928 69.1108 26.1705C69.535 25.4129 69.7472 24.5492 69.7472 23.5795V8.72727ZM78.5455 8.72727H83.7045L90.6136 25.5909H90.8864L97.7955 8.72727H102.955V32H98.9091V16.0114H98.6932L92.2614 31.9318H89.2386L82.8068 15.9773H82.5909V32H78.5455V8.72727ZM107.545 8.72727H112.705L119.614 25.5909H119.886L126.795 8.72727H131.955V32H127.909V16.0114H127.693L121.261 31.9318H118.239L111.807 15.9773H111.591V32H107.545V8.72727ZM140.761 8.72727V32H136.545V8.72727H140.761ZM144.304 12.2614V8.72727H162.872V12.2614H155.679V32H151.497V12.2614H144.304Z" fill="white"/>
<defs>
<clipPath id="clip0_1_814">
<rect width="24" height="24" fill="white" transform="translate(0 8)"/>
</clipPath>
</defs>
</svg>
