<svg width="20" height="21" viewBox="0 0 20 21" fill="none" xmlns="http://www.w3.org/2000/svg">
<path d="M10 0.968262C4.47833 0.968262 0 5.44576 0 10.9683C0 15.3866 2.865 19.1349 6.83917 20.4574C7.33833 20.5499 7.5 20.2399 7.5 19.9766V18.1149C4.71833 18.7199 4.13917 16.9349 4.13917 16.9349C3.68417 15.7791 3.02833 15.4716 3.02833 15.4716C2.12083 14.8508 3.0975 14.8641 3.0975 14.8641C4.10167 14.9341 4.63 15.8949 4.63 15.8949C5.52167 17.4233 6.96917 16.9816 7.54 16.7258C7.62917 16.0799 7.88833 15.6383 8.175 15.3891C5.95417 15.1349 3.61917 14.2774 3.61917 10.4466C3.61917 9.35409 4.01 8.46243 4.64917 7.76243C4.54583 7.50993 4.20333 6.49243 4.74667 5.11576C4.74667 5.11576 5.58667 4.84743 7.4975 6.14076C8.295 5.91909 9.15 5.80826 10 5.80409C10.85 5.80826 11.7058 5.91909 12.505 6.14076C14.4142 4.84743 15.2525 5.11576 15.2525 5.11576C15.7967 6.49326 15.4542 7.51076 15.3508 7.76243C15.9925 8.46243 16.38 9.35493 16.38 10.4466C16.38 14.2874 14.0408 15.1333 11.8142 15.3808C12.1725 15.6908 12.5 16.2991 12.5 17.2324V19.9766C12.5 20.2424 12.66 20.5549 13.1675 20.4566C17.1383 19.1324 20 15.3849 20 10.9683C20 5.44576 15.5225 0.968262 10 0.968262Z" fill="#736F7D"/>
</svg>
