<svg width="20" height="21" viewBox="0 0 20 21" fill="none" xmlns="http://www.w3.org/2000/svg">
<g clip-path="url(#clip0_426_204)">
<path d="M15.8333 0.968262H4.16667C1.86583 0.968262 0 2.8341 0 5.13493V16.8016C0 19.1024 1.86583 20.9683 4.16667 20.9683H15.8333C18.135 20.9683 20 19.1024 20 16.8016V5.13493C20 2.8341 18.135 0.968262 15.8333 0.968262ZM6.66667 16.8016H4.16667V7.63493H6.66667V16.8016ZM5.41667 6.57826C4.61167 6.57826 3.95833 5.91993 3.95833 5.10826C3.95833 4.29659 4.61167 3.63826 5.41667 3.63826C6.22167 3.63826 6.875 4.29659 6.875 5.10826C6.875 5.91993 6.2225 6.57826 5.41667 6.57826ZM16.6667 16.8016H14.1667V12.1316C14.1667 9.32493 10.8333 9.53743 10.8333 12.1316V16.8016H8.33333V7.63493H10.8333V9.10576C11.9967 6.95076 16.6667 6.7916 16.6667 11.1691V16.8016Z" fill="#736F7D"/>
</g>
<defs>
<clipPath id="clip0_426_204">
<rect width="20" height="20" fill="white" transform="translate(0 0.968262)"/>
</clipPath>
</defs>
</svg>
