<svg width="20" height="21" viewBox="0 0 20 21" fill="none" xmlns="http://www.w3.org/2000/svg">
<g clip-path="url(#clip0_426_201)">
<path d="M10 0.968262C4.4775 0.968262 0 5.44576 0 10.9683C0 16.4908 4.4775 20.9683 10 20.9683C15.5225 20.9683 20 16.4908 20 10.9683C20 5.44576 15.5225 0.968262 10 0.968262ZM15.055 9.00576C15.2075 12.3724 12.6967 16.1258 8.25167 16.1258C6.9 16.1258 5.6425 15.7291 4.58333 15.0499C5.85333 15.1999 7.12083 14.8466 8.12667 14.0591C7.08 14.0399 6.19583 13.3474 5.89 12.3966C6.26583 12.4683 6.63583 12.4474 6.97167 12.3558C5.82083 12.1241 5.02583 11.0874 5.05167 9.97826C5.375 10.1574 5.74333 10.2649 6.13583 10.2774C5.07 9.56493 4.76833 8.15743 5.395 7.08159C6.575 8.52993 8.33917 9.48243 10.3283 9.58243C9.97917 8.08576 11.115 6.64326 12.6608 6.64326C13.3483 6.64326 13.9708 6.93409 14.4075 7.3991C14.9525 7.29243 15.4658 7.09243 15.9275 6.81826C15.7483 7.37743 15.3692 7.84576 14.875 8.14243C15.3592 8.0841 15.8208 7.95576 16.2492 7.76493C15.9292 8.24659 15.5242 8.66826 15.055 9.00576Z" fill="#736F7D"/>
</g>
<defs>
<clipPath id="clip0_426_201">
<rect width="20" height="20" fill="white" transform="translate(0 0.968262)"/>
</clipPath>
</defs>
</svg>
